<?xml version="1.0" encoding="UTF-8" standalone="no"?>
<!-- Uploaded to: SVG Repo, www.svgrepo.com, Generator: SVG Repo Mixer Tools -->

<svg
   height="800"
   width="600"
   version="1.1"
   id="Layer_1"
   viewBox="0 0 377.8155 503.754"
   xml:space="preserve"
   sodipodi:docname="C2.svg"
   inkscape:version="1.2.2 (b0a8486, 2022-12-01)"
   xmlns:inkscape="http://www.inkscape.org/namespaces/inkscape"
   xmlns:sodipodi="http://sodipodi.sourceforge.net/DTD/sodipodi-0.dtd"
   xmlns="http://www.w3.org/2000/svg"
   xmlns:svg="http://www.w3.org/2000/svg"><defs
   id="defs158529" /><sodipodi:namedview
   id="namedview158527"
   pagecolor="#ffffff"
   bordercolor="#000000"
   borderopacity="0.25"
   inkscape:showpageshadow="2"
   inkscape:pageopacity="0.0"
   inkscape:pagecheckerboard="0"
   inkscape:deskcolor="#d1d1d1"
   showgrid="false"
   inkscape:zoom="0.63194332"
   inkscape:cx="-29.274777"
   inkscape:cy="466.02281"
   inkscape:window-width="1390"
   inkscape:window-height="949"
   inkscape:window-x="530"
   inkscape:window-y="25"
   inkscape:window-maximized="0"
   inkscape:current-layer="Layer_1" />

<rect
   x="0.54002064"
   y="0.54002064"
   class="st0"
   width="376.73547"
   height="502.67395"
   id="rect14143"
   style="fill:#ffffff;stroke:#231f20;stroke-width:1.08004;stroke-miterlimit:10" /><path
   class="st21"
   d="m 203.91437,84.903075 c 0.57491,-1.815627 0.97244,-3.673471 0.97244,-5.65799 0,-10.640387 -9.01724,-19.254033 -20.15617,-19.254033 -11.13898,0 -20.15622,8.613646 -20.15622,19.254033 0,1.731176 0.30957,3.377905 0.75146,4.982405 -9.63608,1.435609 -17.0621,9.331447 -17.0621,18.95847 0,10.64039 9.01729,19.25404 20.15622,19.25404 4.19923,0 8.13318,-1.22449 11.35997,-3.37791 -1.59129,4.64462 -3.49199,9.20479 -5.83467,13.59606 l -1.81232,3.33568 h 23.33878 l -0.5749,-1.18227 c -2.51957,-5.10907 -4.55281,-10.38705 -6.23254,-15.79169 3.40362,2.53342 7.64699,4.09571 12.33241,4.09571 11.13898,0 20.15622,-8.61365 20.15622,-19.25404 0,-9.66924 -7.47017,-17.607308 -17.23886,-18.958465 z"
   id="path15481"
   style="fill:#2d2d2d;stroke-width:4.32016" /><path
   class="st21"
   d="m 38.465493,77.218344 c 0.221118,-0.717801 0.398014,-1.477832 0.398014,-2.280085 0,-4.349042 -3.668751,-7.853622 -8.221556,-7.853622 -4.552874,0 -8.221624,3.50458 -8.221624,7.853622 0,0.717808 0.132671,1.393386 0.309566,2.026748 -3.934022,0.591119 -6.939766,3.800133 -6.939766,7.726947 0,4.349043 3.668749,7.853616 8.221624,7.853616 1.723886,0 3.315171,-0.506674 4.641182,-1.351163 -0.618431,1.900073 -1.414459,3.757923 -2.386891,5.531321 l -0.751454,1.351157 h 9.503483 l -0.221118,-0.506674 c -1.016656,-2.068964 -1.856488,-4.222374 -2.519563,-6.418014 1.370305,1.013375 3.094191,1.688953 4.994832,1.688953 4.552874,0 8.221625,-3.504567 8.221625,-7.853623 0,-4.011253 -3.049968,-7.22026 -7.028144,-7.76917 z"
   id="path15499"
   style="fill:#2d2d2d;stroke-width:4.32016" /><path
   class="st21"
   d="m 339.08476,422.31317 c -0.22112,0.71781 -0.39802,1.47784 -0.39802,2.28009 0,4.34905 3.66875,7.85362 8.22155,7.85362 4.55289,0 8.22164,-3.50457 8.22164,-7.85362 0,-0.71781 -0.13268,-1.39338 -0.30958,-2.02674 3.93402,-0.59111 6.93977,-3.80014 6.93977,-7.72694 0,-4.34906 -3.66875,-7.85363 -8.22162,-7.85363 -1.72389,0 -3.31518,0.50667 -4.64119,1.35116 0.61914,-1.90007 1.41446,-3.75791 2.3869,-5.53131 l 0.75145,-1.35117 h -9.50348 l 0.22112,0.50668 c 1.01665,2.06897 1.85648,4.22238 2.51956,6.41801 -1.37031,-1.01337 -3.09419,-1.68895 -4.9949,-1.68895 -4.55281,0 -8.22156,3.50458 -8.22156,7.85362 0,4.01126 3.0499,7.22027 7.02815,7.76917 z"
   id="path15503"
   style="fill:#2d2d2d;stroke-width:4.32016" /><path
   class="st21"
   d="m 165.54686,418.85082 c -0.57492,1.81563 -0.97244,3.67347 -0.97244,5.65799 0,10.64039 9.01724,19.25404 20.15622,19.25404 11.13893,0 20.15617,-8.61365 20.15617,-19.25404 0,-1.73117 -0.30958,-3.3779 -0.75139,-4.9824 9.63608,-1.4356 17.06203,-9.33145 17.06203,-18.95847 0,-10.64039 -9.01724,-19.25404 -20.15622,-19.25404 -4.19923,0 -8.13318,1.22449 -11.35997,3.37791 1.59129,-4.64462 3.49199,-9.20479 5.83473,-13.59606 l 1.81226,-3.33568 h -23.33879 l 0.57491,1.18227 c 2.51957,5.10908 4.55288,10.38705 6.23254,15.79169 -3.40355,-2.53343 -7.647,-4.09571 -12.33241,-4.09571 -11.13898,0 -20.15622,8.61365 -20.15622,19.25404 0,9.62702 7.47017,17.56508 17.23886,18.95846 z"
   id="path15639"
   style="fill:#2d2d2d;stroke-width:4.32016" /><path
   class="st21"
   d="M 45.979887,47.619489 42.708941,56.14869 H 15.303524 V 54.9242 c 4.066624,-3.546798 7.470172,-6.713578 10.299161,-9.584795 2.828919,-2.828992 5.08321,-5.404646 6.718718,-7.642505 3.270946,-4.433494 4.950608,-8.529195 4.950608,-12.202666 0,-1.393381 -0.265343,-2.70232 -0.751383,-3.884586 -0.486462,-1.182266 -1.149258,-2.195635 -1.989159,-3.082338 -0.83983,-0.844472 -1.812263,-1.520054 -2.917295,-1.984514 -1.105105,-0.464487 -2.298515,-0.717806 -3.53622,-0.717806 -1.149257,0 -2.25429,0.168912 -3.270946,0.464485 -1.06088,0.295573 -1.989088,0.802254 -2.873143,1.435611 -0.884055,0.633329 -1.679662,1.435606 -2.342739,2.364533 -0.707229,0.92892 -1.237634,2.026738 -1.679661,3.293452 h -1.281858 c 0.309567,-2.026744 0.839831,-3.800137 1.591284,-5.362422 0.751454,-1.562277 1.723886,-2.871216 2.828919,-3.926809 1.149258,-1.055593 2.47534,-1.857841 3.934023,-2.40675 1.502837,-0.54891 3.138345,-0.802254 4.906455,-0.802254 1.856486,0 3.624596,0.295579 5.260034,0.92892 1.635508,0.633328 3.005744,1.477836 4.199225,2.533429 1.193481,1.055594 2.12169,2.322309 2.784765,3.715689 0.662655,1.393388 1.016586,2.871216 1.016586,4.433494 0,2.23786 -0.530685,4.517943 -1.635438,6.755803 -1.679662,3.504574 -4.420204,7.262494 -8.221625,11.231521 -2.873143,2.99789 -5.171657,5.362422 -6.939767,7.135821 -1.768039,1.773399 -3.005744,2.955665 -3.712974,3.589016 h 12.155648 c 1.547061,0 2.828919,-0.04226 3.889799,-0.08442 1.06081,-0.08442 1.944864,-0.211087 2.652094,-0.464485 0.751454,-0.25333 1.370306,-0.591153 1.90071,-1.097817 0.530686,-0.464485 1.060811,-1.097817 1.547062,-1.942289 z"
   id="path16063"
   style="fill:#2d2d2d;stroke-width:4.32016" /><path
   class="st21"
   d="m 361.49527,449.25194 c -0.48646,-0.84448 -1.01665,-1.47783 -1.54706,-1.94229 -0.53068,-0.46448 -1.14925,-0.84448 -1.90071,-1.09782 -0.75146,-0.25334 -1.63551,-0.42223 -2.65216,-0.46448 -1.06081,-0.0845 -2.34268,-0.0845 -3.8898,-0.0845 h -12.15558 c 0.70722,0.59119 1.94487,1.81563 3.71297,3.58902 1.76811,1.7734 4.06662,4.18015 6.93977,7.13582 3.80135,3.96903 6.5419,7.72695 8.22163,11.23152 1.10502,2.23786 1.63543,4.51794 1.63543,6.7558 0,1.56228 -0.35379,3.04011 -1.01665,4.4335 -0.66266,1.39338 -1.59129,2.66009 -2.7847,3.71568 -1.19348,1.0556 -2.56371,1.90008 -4.19923,2.53343 -1.63551,0.63331 -3.35939,0.92892 -5.26002,0.92892 -1.76812,0 -3.40363,-0.25333 -4.90647,-0.80224 -1.5029,-0.54893 -2.78476,-1.35116 -3.93402,-2.40676 -1.14926,-1.05559 -2.07753,-2.36453 -2.82892,-3.92681 -0.75144,-1.56228 -1.28185,-3.33567 -1.59128,-5.36242 h 1.28186 c 0.44224,1.22449 0.97243,2.3223 1.67966,3.29346 0.70723,0.92892 1.45868,1.73116 2.34273,2.36453 0.88407,0.63331 1.8565,1.09781 2.87316,1.43561 1.0608,0.29559 2.12168,0.46448 3.27094,0.46448 1.2377,0 2.43112,-0.25334 3.53622,-0.7178 1.10504,-0.46449 2.07746,-1.14004 2.91729,-1.98452 0.83984,-0.84448 1.50291,-1.85784 1.98909,-3.08234 0.48647,-1.18226 0.75146,-2.49119 0.75146,-3.88458 0,-3.67347 -1.63544,-7.76917 -4.95061,-12.20267 -1.63551,-2.23785 -3.88981,-4.81351 -6.71879,-7.6425 -2.82892,-2.82899 -6.27669,-6.038 -10.29909,-9.5848 v -1.22448 h 27.40535 l 3.27101,8.5292 z"
   id="path16065"
   style="fill:#2d2d2d;stroke-width:4.32016" /></svg>
