<?xml version="1.0" encoding="UTF-8" standalone="no"?>
<!-- Uploaded to: SVG Repo, www.svgrepo.com, Generator: SVG Repo Mixer Tools -->

<svg
   height="800"
   width="600"
   version="1.1"
   id="Layer_1"
   viewBox="0 0 377.8155 503.754"
   xml:space="preserve"
   sodipodi:docname="D2.svg"
   inkscape:version="1.2.2 (b0a8486, 2022-12-01)"
   xmlns:inkscape="http://www.inkscape.org/namespaces/inkscape"
   xmlns:sodipodi="http://sodipodi.sourceforge.net/DTD/sodipodi-0.dtd"
   xmlns="http://www.w3.org/2000/svg"
   xmlns:svg="http://www.w3.org/2000/svg"><defs
   id="defs158529" /><sodipodi:namedview
   id="namedview158527"
   pagecolor="#ffffff"
   bordercolor="#000000"
   borderopacity="0.25"
   inkscape:showpageshadow="2"
   inkscape:pageopacity="0.0"
   inkscape:pagecheckerboard="0"
   inkscape:deskcolor="#d1d1d1"
   showgrid="false"
   inkscape:zoom="0.63194332"
   inkscape:cx="256.3521"
   inkscape:cy="466.02281"
   inkscape:window-width="1390"
   inkscape:window-height="949"
   inkscape:window-x="530"
   inkscape:window-y="25"
   inkscape:window-maximized="0"
   inkscape:current-layer="Layer_1" />

<rect
   x="0.54001999"
   y="0.54001999"
   class="st0"
   width="376.73547"
   height="502.67395"
   id="rect14141"
   inkscape:export-filename="../../../Documents/kongbaguni.net/Vue.js/images/poker/rect14141.svg"
   inkscape:export-xdpi="96"
   inkscape:export-ydpi="96"
   style="fill:#ffffff;stroke:#231f20;stroke-width:1.08004;stroke-miterlimit:10" /><polygon
   class="st20"
   points="174.64,56.87 166.5,66.84 174.64,76.44 182.92,66.92 "
   id="polygon15373"
   style="fill:#ea1c24"
   transform="matrix(4.4202211,0,0,4.2223767,-583.37116,-180.0088)" /><polygon
   class="st20"
   points="174.64,128.19 166.5,138.16 174.64,147.77 182.92,138.24 "
   id="polygon15375"
   style="fill:#ea1c24"
   transform="matrix(4.4202211,0,0,4.2223767,-583.37116,-180.0088)" /><polygon
   class="st20"
   points="139.2,58.92 136.3,62.47 139.2,65.89 142.15,62.5 "
   id="polygon15973"
   style="fill:#ea1c24"
   transform="matrix(4.4202211,0,0,4.2223767,-583.37116,-180.0088)" /><path
   class="st20"
   d="m 45.979938,51.841899 -3.27094,8.5292 h -27.40542 v -1.22449 c 4.06662,-3.5468 7.47017,-6.71358 10.29916,-9.5848 2.82892,-2.82899 5.08321,-5.40463 6.71872,-7.64249 3.27094,-4.4335 4.95061,-8.52921 4.95061,-12.20268 0,-1.39338 -0.26535,-2.70232 -0.75139,-3.88458 -0.48646,-1.18227 -1.14926,-2.19564 -1.98916,-3.08233 -0.83983,-0.84448 -1.81226,-1.52006 -2.91729,-1.98452 -1.10511,-0.46449 -2.29852,-0.7178 -3.53622,-0.7178 -1.14926,0 -2.25429,0.16891 -3.27095,0.46449 -1.06088,0.29558 -1.98909,0.80224 -2.87314,1.4356 -0.88406,0.63333 -1.67966,1.43561 -2.34274,2.36453 -0.70723,0.92892 -1.23763,2.02674 -1.67966,3.29346 h -1.28186 c 0.30957,-2.02674 0.83983,-3.80014 1.59128,-5.36242 0.75146,-1.56228 1.72389,-2.87122 2.82892,-3.92681 1.14926,-1.05559 2.47534,-1.85785 3.93403,-2.40676 1.50283,-0.5489 3.13834,-0.80225 4.90645,-0.80225 1.85649,0 3.6246,0.29558 5.26004,0.92893 1.6355,0.63333 3.00574,1.47783 4.19922,2.53342 1.19348,1.05559 2.12169,2.32231 2.78477,3.7157 0.66265,1.39338 1.01658,2.87121 1.01658,4.43349 0,2.23786 -0.53068,4.51794 -1.63544,6.7558 -1.67966,3.50458 -4.4202,7.26249 -8.22162,11.23152 -2.87314,2.99789 -5.17166,5.36242 -6.93977,7.13582 -1.76804,1.7734 -3.00574,2.95566 -3.71297,3.58902 h 12.15565 c 1.54706,0 2.82892,-0.0423 3.8898,-0.0844 1.0608,-0.0844 1.94486,-0.21115 2.65209,-0.46449 0.75145,-0.25334 1.37031,-0.59115 1.90071,-1.09782 0.53068,-0.46449 1.06081,-1.09782 1.54706,-1.94229 z"
   id="path15981"
   style="fill:#ea1c24;stroke-width:4.32016" /><polygon
   class="st20"
   points="210.86,146.01 207.96,142.46 210.86,139.04 213.81,142.44 "
   id="polygon15983"
   style="fill:#ea1c24"
   transform="matrix(4.4202211,0,0,4.2223767,-583.37116,-180.0088)" /><path
   class="st20"
   d="m 361.49532,453.47436 c -0.48645,-0.84448 -1.01665,-1.47783 -1.54707,-1.94229 -0.53068,-0.46448 -1.14925,-0.84448 -1.90071,-1.09782 -0.75144,-0.25333 -1.63549,-0.42223 -2.65215,-0.46448 -1.06081,-0.0844 -2.34267,-0.0844 -3.8898,-0.0844 h -12.15558 c 0.70722,0.59119 1.94487,1.81563 3.71297,3.58902 1.76811,1.7734 4.06662,4.18016 6.93976,7.13582 3.80136,3.96903 6.54191,7.72694 8.22163,11.23152 1.10504,2.23786 1.63544,4.51794 1.63544,6.7558 0,1.56228 -0.35379,3.04011 -1.01665,4.43349 -0.66266,1.3934 -1.59129,2.6601 -2.7847,3.71569 -1.19349,1.0556 -2.56371,1.90007 -4.19922,2.53343 -1.63552,0.63338 -3.35939,0.92892 -5.26003,0.92892 -1.76812,0 -3.40362,-0.25334 -4.90646,-0.80225 -1.50292,-0.54893 -2.78477,-1.35115 -3.93403,-2.40675 -1.14925,-1.0556 -2.07753,-2.36454 -2.82891,-3.92681 -0.75145,-1.56227 -1.28187,-3.33568 -1.5913,-5.36242 h 1.28188 c 0.44223,1.22449 0.97243,2.32231 1.67965,3.29346 0.70722,0.92891 1.45868,1.73117 2.34274,2.36452 0.88405,0.63331 1.8565,1.09782 2.87314,1.43561 1.06081,0.29559 2.12169,0.46449 3.27095,0.46449 1.23771,0 2.43111,-0.25334 3.53622,-0.71781 1.10503,-0.46449 2.07746,-1.14004 2.91729,-1.98451 0.83984,-0.84449 1.50291,-1.85785 1.98909,-3.08234 0.48647,-1.18227 0.75145,-2.4912 0.75145,-3.88459 0,-3.67346 -1.63544,-7.76917 -4.9506,-12.20266 -1.63551,-2.23787 -3.8898,-4.81352 -6.71879,-7.64251 -2.82892,-2.82899 -6.27669,-6.038 -10.29908,-9.58479 v -1.2667 h 27.40534 l 3.27102,8.52921 h -1.19349 z"
   id="path16017"
   style="fill:#ea1c24;stroke-width:4.32016" /></svg>
