<?xml version="1.0" encoding="UTF-8" standalone="no"?>
<!-- Uploaded to: SVG Repo, www.svgrepo.com, Generator: SVG Repo Mixer Tools -->

<svg
   height="800"
   width="600"
   version="1.1"
   id="Layer_1"
   viewBox="0 0 377.8155 503.754"
   xml:space="preserve"
   sodipodi:docname="H2.svg"
   inkscape:version="1.2.2 (b0a8486, 2022-12-01)"
   xmlns:inkscape="http://www.inkscape.org/namespaces/inkscape"
   xmlns:sodipodi="http://sodipodi.sourceforge.net/DTD/sodipodi-0.dtd"
   xmlns="http://www.w3.org/2000/svg"
   xmlns:svg="http://www.w3.org/2000/svg"><defs
   id="defs158529" /><sodipodi:namedview
   id="namedview158527"
   pagecolor="#ffffff"
   bordercolor="#000000"
   borderopacity="0.25"
   inkscape:showpageshadow="2"
   inkscape:pageopacity="0.0"
   inkscape:pagecheckerboard="0"
   inkscape:deskcolor="#d1d1d1"
   showgrid="false"
   inkscape:zoom="0.63194332"
   inkscape:cx="-29.274777"
   inkscape:cy="466.02281"
   inkscape:window-width="1390"
   inkscape:window-height="949"
   inkscape:window-x="530"
   inkscape:window-y="25"
   inkscape:window-maximized="0"
   inkscape:current-layer="Layer_1" />

<rect
   x="0.54002064"
   y="0.54002064"
   class="st0"
   width="376.73547"
   height="502.67395"
   id="rect14183"
   style="fill:#ffffff;stroke:#231f20;stroke-width:1.08004;stroke-miterlimit:10" /><path
   class="st20"
   d="m 224.73361,80.131892 v 0 c 0,-0.211215 0,-0.42243 0,-0.633645 0,-10.767022 -8.57524,-19.507366 -19.09536,-19.507366 -7.24915,0 -13.52587,4.095708 -16.75263,10.133737 -3.22677,-6.038029 -9.54768,-10.133737 -16.75264,-10.133737 -10.56433,0 -19.09535,8.740344 -19.09535,19.507366 0,0.211215 0,0.42243 0,0.591389 v 0 c 0,17.016171 14.49832,32.892284 28.51042,42.097064 l 7.33757,4.81352 7.33756,-4.81352 c 14.0121,-9.20478 28.51043,-24.658651 28.51043,-41.63258 v 0 c 0,-0.04037 0,-0.126702 0,-0.168958 z"
   id="path15643"
   style="fill:#ea1c24;stroke-width:4.32016" /><path
   class="st20"
   d="m 44.388587,74.178316 v 0 c 0,-0.08451 0,-0.168959 0,-0.253471 0,-4.137942 -3.270964,-7.473618 -7.337567,-7.473618 -2.78474,0 -5.171658,1.562284 -6.40932,3.884585 -1.237662,-2.322301 -3.668785,-3.884585 -6.40932,-3.884585 -4.022403,0 -7.337568,3.335676 -7.337568,7.473618 0,0.08451 0,0.168958 0,0.211214 v 0 c 0,6.50248 5.569479,12.582724 10.917946,16.129507 l 2.828942,1.857816 2.828941,-1.857816 C 38.86331,86.760959 44.388587,80.80745 44.388587,74.304971 v 0 c 0,0 0,-0.04037 0,-0.04037 z"
   id="path15661"
   style="fill:#ea1c24;stroke-width:4.32016" /><path
   class="st20"
   d="m 361.14163,425.3534 v 0 c 0,0.0845 0,0.16896 0,0.25348 0,4.13794 -3.27096,7.47357 -7.33757,7.47357 -2.78474,0 -5.17165,-1.56224 -6.40931,-3.88454 -1.23767,2.3223 -3.6688,3.88454 -6.40933,3.88454 -4.0224,0 -7.33756,-3.33563 -7.33756,-7.47357 0,-0.0845 0,-0.16896 0,-0.21122 v 0 c 0,-6.50241 5.56947,-12.58266 10.91795,-16.12944 l 2.82894,-1.85788 2.82893,1.85788 c 5.39268,3.50454 10.91795,9.45812 10.91795,15.96053 v 0 c 0,0 0,0.0404 0,0.0404 z"
   id="path15663"
   style="fill:#ea1c24;stroke-width:4.32016" /><path
   class="st20"
   d="m 153.03762,423.66443 v 0 c 0,0.21122 0,0.42243 0,0.63297 0,10.76709 8.57523,19.50739 19.09536,19.50739 7.24916,0 13.52587,-4.09569 16.75264,-10.1337 3.22676,6.03801 9.54767,10.1337 16.75263,10.1337 10.56432,0 19.09536,-8.7403 19.09536,-19.50739 0,-0.21121 0,-0.42243 0,-0.59145 v 0 c 0,-17.01617 -14.49833,-32.89228 -28.51043,-42.09707 l -7.33756,-4.81351 -7.33757,4.81351 c -14.0121,9.20479 -28.51043,24.65865 -28.51043,41.63264 v 0 c 0,0.0404 0,0.12677 0,0.16896 z"
   id="path15713"
   style="fill:#ea1c24;stroke-width:4.32016" /><path
   class="st20"
   d="M 45.979866,49.224069 42.708903,57.75327 H 15.303532 v -1.22449 c 4.066603,-3.546798 7.470174,-6.713578 10.299115,-9.584795 2.828942,-2.828992 5.083255,-5.404639 6.718736,-7.642498 3.270964,-4.433495 4.950648,-8.529202 4.950648,-12.202673 0,-1.393381 -0.265209,-2.70232 -0.751437,-3.884586 -0.486225,-1.182266 -1.149258,-2.195635 -1.9891,-3.082332 -0.839842,-0.844478 -1.81229,-1.520053 -2.917346,-1.98452 -1.105056,-0.46446 -2.298515,-0.717799 -3.536177,-0.717799 -1.149257,0 -2.254312,0.168912 -3.270963,0.464485 -1.060853,0.29558 -1.9891,0.802247 -2.873143,1.435605 -0.884046,0.633328 -1.679685,1.435611 -2.342719,2.364531 -0.707234,0.928921 -1.237662,2.026739 -1.679684,3.293453 h -1.281864 c 0.309412,-2.026738 0.839842,-3.800137 1.59128,-5.362415 0.751437,-1.562284 1.723886,-2.871217 2.828941,-3.92681 1.149258,-1.055593 2.475325,-1.857847 3.933998,-2.406756 1.502874,-0.54891 3.138357,-0.802254 4.906445,-0.802254 1.856493,0 3.624581,0.295573 5.260063,0.928927 1.635482,0.633328 3.00575,1.477829 4.19921,2.533422 1.19346,1.055594 2.121706,2.322308 2.784739,3.715695 0.663035,1.393381 1.016651,2.871217 1.016651,4.433495 0,2.23786 -0.530425,4.517943 -1.635481,6.755803 -1.679685,3.504574 -4.420222,7.262487 -8.221612,11.231521 -2.873144,2.997882 -5.171658,5.362415 -6.939747,7.135814 -1.768089,1.773399 -3.005751,2.955665 -3.712987,3.589022 h 12.155609 c 1.547077,0 2.828941,-0.04226 3.889795,-0.08442 1.060853,-0.08443 1.944897,-0.211087 2.652132,-0.464485 0.751438,-0.25333 1.370269,-0.591153 1.900695,-1.097817 0.530427,-0.464485 1.060854,-1.097818 1.547079,-1.942297 z"
   id="path16111"
   style="fill:#ea1c24;stroke-width:4.32016" /><path
   class="st20"
   d="m 361.49525,450.85654 c -0.48626,-0.84448 -1.01665,-1.47782 -1.54709,-1.9423 -0.53039,-0.46469 -1.14925,-0.84449 -1.90068,-1.09782 -0.75144,-0.25347 -1.63549,-0.42243 -2.65214,-0.46469 -1.06085,-0.0845 -2.34272,-0.0845 -3.88979,-0.0845 h -12.15561 c 0.70723,0.59145 1.9449,1.81563 3.71298,3.58902 1.76809,1.77339 4.06661,4.18012 6.93975,7.13582 3.80139,3.96903 6.54193,7.72697 8.22161,11.23151 1.10505,2.23788 1.63549,4.51794 1.63549,6.75581 0,1.56224 -0.35365,3.04012 -1.01666,4.43352 -0.663,1.39332 -1.59127,2.66005 -2.78474,3.71562 -1.19346,1.05565 -2.56372,1.90013 -4.19921,2.53346 -1.63548,0.63298 -3.35936,0.92891 -5.26005,0.92891 -1.7681,0 -3.40358,-0.25347 -4.90646,-0.80224 -1.50287,-0.5492 -2.78473,-1.35115 -3.93399,-2.40672 -1.14926,-1.05565 -2.0775,-2.36455 -2.82894,-3.92686 -0.75143,-1.56224 -1.28186,-3.33563 -1.59128,-5.36241 h 1.28186 c 0.44203,1.22448 0.97245,2.3223 1.67969,3.29345 0.70723,0.92897 1.45867,1.73121 2.34271,2.36454 0.88405,0.63297 1.8565,1.09782 2.87315,1.43564 1.06085,0.29573 2.1217,0.46468 3.27096,0.46468 1.23767,0 2.43113,-0.25347 3.53618,-0.71782 1.10506,-0.46468 2.0775,-1.13999 2.91734,-1.98448 0.83985,-0.84449 1.50288,-1.85788 1.9891,-3.08236 0.48626,-1.18224 0.75145,-2.49121 0.75145,-3.88454 0,-3.67352 -1.63549,-7.76922 -4.95065,-12.20266 -1.63548,-2.23788 -3.8898,-4.81351 -6.71874,-7.64255 -2.82894,-2.82896 -6.27671,-6.03799 -10.29911,-9.58478 v -1.22448 h 27.40537 l 3.27096,8.52921 z"
   id="path16113"
   style="fill:#ea1c24;stroke-width:4.32016" /></svg>
