<?xml version="1.0" encoding="UTF-8" standalone="no"?>
<!-- Uploaded to: SVG Repo, www.svgrepo.com, Generator: SVG Repo Mixer Tools -->

<svg
   height="800"
   width="600"
   version="1.1"
   id="Layer_1"
   viewBox="0 0 377.8155 503.754"
   xml:space="preserve"
   sodipodi:docname="S2.svg"
   inkscape:version="1.2.2 (b0a8486, 2022-12-01)"
   xmlns:inkscape="http://www.inkscape.org/namespaces/inkscape"
   xmlns:sodipodi="http://sodipodi.sourceforge.net/DTD/sodipodi-0.dtd"
   xmlns="http://www.w3.org/2000/svg"
   xmlns:svg="http://www.w3.org/2000/svg"><defs
   id="defs158529" /><sodipodi:namedview
   id="namedview158527"
   pagecolor="#ffffff"
   bordercolor="#000000"
   borderopacity="0.25"
   inkscape:showpageshadow="2"
   inkscape:pageopacity="0.0"
   inkscape:pagecheckerboard="0"
   inkscape:deskcolor="#d1d1d1"
   showgrid="false"
   inkscape:zoom="0.63194332"
   inkscape:cx="401.14357"
   inkscape:cy="424.87988"
   inkscape:window-width="1390"
   inkscape:window-height="949"
   inkscape:window-x="530"
   inkscape:window-y="25"
   inkscape:window-maximized="0"
   inkscape:current-layer="Layer_1" />

<rect
   x="0.54002064"
   y="0.54002064"
   class="st0"
   width="376.73547"
   height="502.67395"
   id="rect14203"
   style="fill:#ffffff;stroke:#231f20;stroke-width:1.08004;stroke-miterlimit:10" /><path
   class="st21"
   d="m 217.74967,102.76388 v 0 c 0,-15.496113 -14.14471,-29.978829 -27.8032,-38.381372 l -7.16075,-4.391271 -7.16076,4.391271 c -13.65849,8.402543 -27.8032,22.463018 -27.8032,38.001372 v 0 c 0,0.0404 0,0.0845 0,0.1267 v 0.21122 0 c 0,0.21121 0,0.38017 0,0.59138 0,9.83819 8.35422,17.77624 18.60913,17.77624 5.26007,0 9.98971,-2.11121 13.39327,-5.44692 -0.61885,3.80019 -1.94489,7.51588 -3.93399,10.89376 l -1.45867,2.44897 h 5.08326 6.49772 5.08325 l -1.41447,-2.32231 c -2.0775,-3.46235 -3.44777,-7.22023 -4.1108,-11.14708 3.40356,3.42012 8.1774,5.57358 13.52587,5.57358 10.29912,0 18.60914,-7.9803 18.60914,-17.77624 0.0442,-0.21121 0.0442,-0.38017 0.0442,-0.54919 z"
   id="path15777"
   style="fill:#2d2d2d;stroke-width:4.32016" /><path
   class="st21"
   d="m 44.609597,81.229772 v 0 c 0,-6.206913 -5.65788,-11.991577 -11.094754,-15.327204 l -2.82894,-1.731215 -2.82894,1.731215 c -5.436874,3.335627 -11.094754,8.951387 -11.094754,15.158293 v 0 c 0,0 0,0.04037 0,0.04037 v 0.08451 0 c 0,0.08451 0,0.168959 0,0.211215 0,3.926788 3.315163,7.093572 7.425968,7.093572 2.121711,0 3.978198,-0.844483 5.348469,-2.15339 -0.265203,1.520061 -0.751439,2.997873 -1.591278,4.349022 l -0.574628,0.971152 h 2.033298 2.607933 2.033298 L 33.47064,90.728415 c -0.839837,-1.393399 -1.370263,-2.871211 -1.635479,-4.433515 1.37027,1.35115 3.270966,2.237876 5.39267,2.237876 4.110806,0 7.425969,-3.166784 7.425969,-7.093565 -0.04422,-0.08451 -0.04422,-0.168959 -0.04422,-0.211215 z"
   id="path15795"
   style="fill:#2d2d2d;stroke-width:4.32016" /><path
   class="st21"
   d="m 332.05658,415.26195 v 0 c 0,6.20691 5.65789,11.99157 11.09476,15.32727 l 2.82894,1.73115 2.82893,-1.73115 c 5.43688,-3.3357 11.09476,-8.95145 11.09476,-15.15836 v 0 c 0,0 0,-0.0404 0,-0.0404 v -0.0845 0 c 0,-0.0845 0,-0.16896 0,-0.21122 0,-3.92684 -3.31516,-7.09363 -7.42596,-7.09363 -2.12171,0 -3.9782,0.84448 -5.34848,2.15345 0.26521,-1.52005 0.75145,-2.99794 1.59128,-4.34909 l 0.57463,-0.97115 h -2.0333 -2.60793 -2.0333 l 0.57463,0.92898 c 0.83984,1.39332 1.37028,2.87121 1.63548,4.43344 -1.37027,-1.35115 -3.27096,-2.23781 -5.39267,-2.23781 -4.11081,0 -7.42597,3.16678 -7.42597,7.09357 0.0442,0.0845 0.0442,0.16896 0.0442,0.21122 z"
   id="path15799"
   style="fill:#2d2d2d;stroke-width:4.32016" /><path
   class="st21"
   d="m 147.82176,400.99032 v 0 c 0,15.49611 14.14471,29.9789 27.8032,38.38144 l 7.16076,4.39127 7.16075,-4.39127 c 13.65849,-8.40254 27.8032,-22.46308 27.8032,-38.00137 v 0 c 0,-0.0404 0,-0.0845 0,-0.12677 v -0.21121 0 c 0,-0.21122 0,-0.38018 0,-0.59146 0,-9.83811 -8.35422,-17.77617 -18.60914,-17.77617 -5.26007,0 -9.9897,2.11115 -13.39327,5.44684 0.61886,-3.80011 1.9449,-7.5158 3.934,-10.89375 l 1.45867,-2.44897 h -5.08325 -6.49773 -5.08325 l 1.41447,2.3223 c 2.0775,3.46237 3.44777,7.22031 4.11081,11.14709 -3.40358,-3.42012 -8.17741,-5.57351 -13.52588,-5.57351 -10.29912,0 -18.60914,7.98031 -18.60914,17.77617 -0.0442,0.21121 -0.0442,0.38017 -0.0442,0.5492 z"
   id="path15937"
   style="fill:#2d2d2d;stroke-width:4.32016" /><path
   class="st21"
   d="m 45.979868,47.999666 -3.270961,8.529208 H 15.303532 v -1.224483 c 4.066603,-3.546785 7.470179,-6.713572 10.299119,-9.584781 2.82894,-2.829033 5.083252,-5.404667 6.718732,-7.642546 3.270967,-4.433448 4.950651,-8.529208 4.950651,-12.20266 0,-1.393394 -0.265203,-2.702299 -0.75144,-3.884606 -0.486251,-1.182239 -1.149257,-2.195634 -1.989095,-3.082297 -0.839845,-0.844485 -1.812291,-1.52006 -2.917345,-1.984548 -1.105062,-0.464688 -2.298521,-0.717751 -3.536177,-0.717751 -1.149265,0 -2.254319,0.168978 -3.270968,0.464686 -1.060851,0.337957 -1.989102,0.802241 -2.873142,1.435639 -0.884049,0.633665 -1.679684,1.435571 -2.342718,2.364545 -0.707236,0.928907 -1.237663,2.026725 -1.679682,3.293453 h -1.281866 c 0.309426,-2.026792 0.839845,-3.800184 1.591277,-5.362422 0.75144,-1.562304 1.723886,-2.87121 2.82894,-3.92685 1.149265,-1.055573 2.475326,-1.857814 3.934003,-2.406723 1.502871,-0.549179 3.138351,-0.802241 4.90644,-0.802241 1.856494,0 3.624582,0.295714 5.26007,0.928907 1.63548,0.632993 3.005743,1.477816 4.199203,2.533389 1.19346,1.05564 2.12171,2.322301 2.784745,3.715695 0.663006,1.393395 1.016649,2.871211 1.016649,4.433515 0,2.23788 -0.530405,4.517937 -1.63548,6.755816 -1.679684,3.504542 -4.420225,7.262481 -8.221612,11.231509 -2.873142,2.997876 -5.171664,5.362422 -6.939752,7.135814 -1.768089,1.773393 -3.005744,2.955699 -3.712981,3.58903 h 12.155605 c 1.547075,0 2.82894,-0.04024 3.8898,-0.08449 1.060851,-0.08449 1.944892,-0.211222 2.652129,-0.464687 0.751439,-0.253464 1.37027,-0.591422 1.900696,-1.097817 0.530405,-0.464687 1.060852,-1.097818 1.547075,-1.942303 z"
   id="path16179"
   style="fill:#2d2d2d;stroke-width:4.32016" /><path
   class="st21"
   d="m 361.49526,449.63212 c -0.48626,-0.84449 -1.01665,-1.47782 -1.54709,-1.9423 -0.5304,-0.46469 -1.14925,-0.84449 -1.90068,-1.09782 -0.75145,-0.25347 -1.63549,-0.42243 -2.65214,-0.46469 -1.06085,-0.0845 -2.34272,-0.0845 -3.88979,-0.0845 h -12.15562 c 0.70724,0.59145 1.94491,1.81564 3.71299,3.58903 1.76809,1.77339 4.0666,4.18018 6.93974,7.13581 3.8014,3.96903 6.54194,7.72697 8.22162,11.23151 1.10505,2.23788 1.63549,4.51793 1.63549,6.75582 0,1.5623 -0.35365,3.04012 -1.01666,4.43351 -0.663,1.39339 -1.59128,2.66006 -2.78474,3.7157 -1.19346,1.05557 -2.56372,1.90006 -4.19921,2.53338 -1.63548,0.63365 -3.35936,0.92898 -5.26006,0.92898 -1.76809,0 -3.40357,-0.25347 -4.90645,-0.80231 -1.50287,-0.5492 -2.78473,-1.35115 -3.93399,-2.40672 -1.14927,-1.05557 -2.0775,-2.36455 -2.82895,-3.92678 -0.75143,-1.56231 -1.28186,-3.3357 -1.59127,-5.36243 h 1.28186 c 0.44203,1.22449 0.97245,2.3223 1.67969,3.29345 0.70722,0.92891 1.45867,1.73115 2.34271,2.36449 0.88405,0.63364 1.8565,1.09781 2.87315,1.43563 1.06085,0.29573 2.1217,0.46469 3.27096,0.46469 1.23766,0 2.43112,-0.25347 3.53617,-0.71781 1.10506,-0.46469 2.07751,-1.14007 2.91735,-1.98456 0.83985,-0.84448 1.50288,-1.85781 1.9891,-3.0823 0.48626,-1.1823 0.75144,-2.49121 0.75144,-3.8846 0,-3.67345 -1.63548,-7.76914 -4.95064,-12.20266 -1.63548,-2.23787 -3.8898,-4.81351 -6.71874,-7.64247 -2.82894,-2.82904 -6.27672,-6.03807 -10.29912,-9.58485 v -1.22449 h 27.40537 l 3.27097,8.52921 z"
   id="path16181"
   style="fill:#2d2d2d;stroke-width:4.32016" /></svg>
