<?xml version="1.0" encoding="UTF-8" standalone="no"?>
<!-- Uploaded to: SVG Repo, www.svgrepo.com, Generator: SVG Repo Mixer Tools -->

<svg
   height="800"
   width="600"
   version="1.1"
   id="Layer_1"
   viewBox="0 0 377.8155 503.754"
   xml:space="preserve"
   sodipodi:docname="C3.svg"
   inkscape:version="1.2.2 (b0a8486, 2022-12-01)"
   xmlns:inkscape="http://www.inkscape.org/namespaces/inkscape"
   xmlns:sodipodi="http://sodipodi.sourceforge.net/DTD/sodipodi-0.dtd"
   xmlns="http://www.w3.org/2000/svg"
   xmlns:svg="http://www.w3.org/2000/svg"><defs
   id="defs158529" /><sodipodi:namedview
   id="namedview158527"
   pagecolor="#ffffff"
   bordercolor="#000000"
   borderopacity="0.25"
   inkscape:showpageshadow="2"
   inkscape:pageopacity="0.0"
   inkscape:pagecheckerboard="0"
   inkscape:deskcolor="#d1d1d1"
   showgrid="false"
   inkscape:zoom="0.63194332"
   inkscape:cx="-29.274777"
   inkscape:cy="466.02281"
   inkscape:window-width="1390"
   inkscape:window-height="949"
   inkscape:window-x="530"
   inkscape:window-y="25"
   inkscape:window-maximized="0"
   inkscape:current-layer="Layer_1" />

<rect
   x="0.54002064"
   y="0.54002064"
   class="st0"
   width="376.73547"
   height="502.67395"
   id="rect14165"
   style="fill:#ffffff;stroke:#231f20;stroke-width:1.08004;stroke-miterlimit:10" /><path
   class="st21"
   d="m 337.67041,422.31316 c -0.22112,0.71781 -0.39801,1.47784 -0.39801,2.28009 0,4.34904 3.66875,7.85362 8.22155,7.85362 4.55288,0 8.22163,-3.50458 8.22163,-7.85362 0,-0.71781 -0.13268,-1.39338 -0.30957,-2.02674 3.93402,-0.59112 6.93976,-3.80014 6.93976,-7.72695 0,-4.34905 -3.66875,-7.85363 -8.22162,-7.85363 -1.72389,0 -3.31517,0.50668 -4.64118,1.35117 0.61913,-1.90008 1.41446,-3.75791 2.38689,-5.53132 l 0.75145,-1.35116 h -9.50348 l 0.22112,0.50667 c 1.01666,2.06897 1.85649,4.22238 2.51956,6.41802 -1.37031,-1.01337 -3.09419,-1.68895 -4.99483,-1.68895 -4.55288,0 -8.22163,3.50457 -8.22163,7.85362 0,4.01126 3.04997,7.22026 7.02815,7.76917 z"
   id="path15505"
   style="fill:#2d2d2d;stroke-width:4.32016" /><path
   class="st21"
   d="m 38.33301,77.218331 c 0.221119,-0.717801 0.398014,-1.477832 0.398014,-2.280085 0,-4.349043 -3.66875,-7.853623 -8.221555,-7.853623 -4.552875,0 -8.221625,3.50458 -8.221625,7.853623 0,0.717807 0.132672,1.393386 0.309566,2.026748 -3.934022,0.591119 -6.939766,3.800132 -6.939766,7.726947 0,4.349042 3.66875,7.853616 8.221625,7.853616 1.723886,0 3.31517,-0.506674 4.641253,-1.351164 -0.619133,1.900073 -1.41453,3.757924 -2.386963,5.531322 l -0.751453,1.351156 h 9.503484 l -0.22112,-0.506674 c -1.016656,-2.068964 -1.856486,-4.222374 -2.519563,-6.418013 1.370307,1.013374 3.094192,1.688952 4.994903,1.688952 4.552805,0 8.221554,-3.504566 8.221554,-7.853622 0,-4.011253 -3.049897,-7.22026 -7.028143,-7.76917 z"
   id="path15521"
   style="fill:#2d2d2d;stroke-width:4.32016" /><path
   class="st21"
   d="m 166.21004,418.85081 c -0.5749,1.81563 -0.97249,3.67347 -0.97249,5.65799 0,10.64039 9.0173,19.25403 20.15622,19.25403 11.13898,0 20.15622,-8.61364 20.15622,-19.25403 0,-1.73118 -0.30957,-3.3779 -0.75145,-4.9824 9.63609,-1.43561 17.0621,-9.33145 17.0621,-18.95847 0,-10.64039 -9.0173,-19.25404 -20.15622,-19.25404 -4.19923,0 -8.13325,1.22449 -11.35997,3.3779 1.59128,-4.64461 3.49192,-9.20478 5.83466,-13.59606 l 1.81234,-3.33567 h -23.3388 l 0.57491,1.18226 c 2.51949,5.10908 4.5528,10.38706 6.23253,15.79169 -3.40361,-2.53342 -7.64699,-4.0957 -12.33246,-4.0957 -11.13893,0 -20.15616,8.61365 -20.15616,19.25403 0,9.62702 7.51432,17.56509 17.23885,18.95847 z"
   id="path15537"
   style="fill:#2d2d2d;stroke-width:4.32016" /><path
   class="st21"
   d="m 204.57756,84.903062 c 0.57491,-1.815628 0.97243,-3.673471 0.97243,-5.65799 0,-10.640388 -9.01724,-19.254036 -20.15622,-19.254036 -11.13892,0 -20.15622,8.613648 -20.15622,19.254036 0,1.731175 0.30956,3.377905 0.75144,4.982405 -9.63608,1.435609 -17.06203,9.331447 -17.06203,18.958463 0,10.64039 9.01724,19.25404 20.15622,19.25404 4.19916,0 8.13318,-1.22448 11.35998,-3.3779 -1.59128,4.64462 -3.492,9.20479 -5.83473,13.59606 l -1.81226,3.33567 h 23.33872 l -0.57491,-1.18226 c -2.5195,-5.10908 -4.55281,-10.38705 -6.23247,-15.79169 3.40355,2.53342 7.647,4.0957 12.3324,4.0957 11.139,0 20.15623,-8.61364 20.15623,-19.25403 0.0421,-9.669244 -7.47018,-17.607312 -17.23886,-18.958468 z"
   id="path15539"
   style="fill:#2d2d2d;stroke-width:4.32016" /><path
   class="st21"
   d="m 204.57756,245.64893 c 0.57491,-1.81563 0.97243,-3.67346 0.97243,-5.65798 0,-10.6404 -9.01724,-19.25404 -20.15622,-19.25404 -11.13892,0 -20.15622,8.61364 -20.15622,19.25404 0,1.73117 0.30956,3.3779 0.75144,4.9824 -9.63608,1.43561 -17.06203,9.33146 -17.06203,18.95847 0,10.6404 9.01724,19.25403 20.15622,19.25403 4.19916,0 8.13318,-1.22448 11.35998,-3.37789 -1.59128,4.64461 -3.492,9.20478 -5.83473,13.59605 l -1.81226,3.33567 h 23.33872 l -0.57491,-1.18226 c -2.5195,-5.10908 -4.55281,-10.38705 -6.23247,-15.79169 3.40355,2.53343 7.647,4.09571 12.3324,4.09571 11.139,0 20.15623,-8.61365 20.15623,-19.25404 0.0421,-9.66924 -7.47018,-17.60731 -17.23886,-18.95847 z"
   id="path15641"
   style="fill:#2d2d2d;stroke-width:4.32016" /><path
   class="st21"
   d="m 18.044185,19.794009 c 1.326082,-2.997883 3.005744,-5.320191 5.039056,-6.924693 2.033312,-1.646733 4.552875,-2.448981 7.558619,-2.448981 1.591284,0 3.049968,0.25333 4.37598,0.717806 1.326082,0.506667 2.475339,1.140042 3.44777,1.984514 0.972503,0.844478 1.723886,1.773399 2.210138,2.871217 0.530686,1.097817 0.795607,2.237859 0.795607,3.420125 0,3.251228 -2.121689,6.586905 -6.365068,10.007031 2.873142,1.055593 5.039056,2.575653 6.49774,4.560167 1.458613,1.984521 2.165842,4.306822 2.165842,7.009148 0,2.23786 -0.442238,4.306822 -1.326012,6.206894 -0.884054,1.900065 -2.121759,3.546792 -3.713043,4.897955 -1.591215,1.39338 -3.536149,2.44898 -5.79044,3.209004 -2.254361,0.76003 -4.773853,1.140042 -7.514395,1.140042 -1.591285,0 -2.917367,-0.08442 -3.978177,-0.29558 -1.060879,-0.211154 -1.856486,-0.464485 -2.475338,-0.802255 -0.619134,-0.337823 -1.06088,-0.717806 -1.281859,-1.140042 -0.221119,-0.422241 -0.353791,-0.844472 -0.353791,-1.22449 0,-0.633328 0.265343,-1.182266 0.795678,-1.688951 0.530685,-0.464484 1.19341,-0.717799 1.944864,-0.717799 0.309567,0 0.57491,0 0.751454,0 0.176895,0 0.398014,0.04226 0.662654,0.126669 0.265343,0.08442 0.619134,0.211154 1.060881,0.422241 0.442237,0.211087 1.060879,0.506667 1.90071,0.92892 0.839831,0.422242 1.502837,0.717806 1.989088,0.928921 0.530686,0.211154 0.972433,0.379998 1.326082,0.464484 0.398014,0.08442 0.70723,0.168912 1.06081,0.168912 0.309566,0 0.70723,0 1.149257,0 1.149257,0 2.254361,-0.25333 3.31517,-0.717806 1.06088,-0.464484 1.989089,-1.097818 2.740542,-1.900065 0.795678,-0.802255 1.414459,-1.731175 1.900711,-2.786769 0.486462,-1.055593 0.707229,-2.15341 0.707229,-3.293452 0,-0.717806 -0.08844,-1.477836 -0.265342,-2.23786 C 38.199707,41.919291 37.978588,41.15926 37.669372,40.483678 37.40403,39.765879 37.050238,39.132523 36.69694,38.541389 36.298925,37.950236 35.901262,37.485796 35.459235,37.105778 34.972773,36.683535 34.398425,36.261306 33.691196,35.881294 32.983896,35.459051 32.232512,35.07904 31.392682,34.783476 30.55278,34.4879 29.712949,34.192323 28.828895,33.981222 27.94491,33.770067 27.060856,33.685646 26.1768,33.685646 h -1.105033 v -0.971152 c 1.76804,-0.211087 3.580373,-0.844472 5.43686,-1.857841 1.856486,-1.0556 3.182569,-2.280084 3.978176,-3.715695 0.795607,-1.435606 1.237635,-2.997883 1.237635,-4.729058 0,-1.097818 -0.22112,-2.153418 -0.618431,-3.082338 -0.398015,-0.928921 -0.928279,-1.731175 -1.635509,-2.406757 -0.70723,-0.675574 -1.502837,-1.182265 -2.431115,-1.520053 -0.928279,-0.379999 -1.944865,-0.548909 -3.005744,-0.548909 -3.580373,0 -6.541964,1.815624 -8.884631,5.446864 z"
   id="path16067"
   style="fill:#2d2d2d;stroke-width:4.32016" /><path
   class="st21"
   d="m 335.9023,476.95071 c 2.34273,3.63125 5.30426,5.44687 8.88463,5.44687 1.06088,0 2.07754,-0.16889 3.00574,-0.54893 0.92828,-0.37998 1.76811,-0.8867 2.43119,-1.52006 0.70723,-0.67558 1.23763,-1.47783 1.63543,-2.40676 0.39802,-0.92892 0.61914,-1.94229 0.61914,-3.08233 0,-1.73118 -0.39801,-3.29345 -1.23771,-4.72906 -0.79589,-1.43561 -2.12196,-2.6601 -3.97845,-3.71569 -1.81226,-1.01337 -3.6246,-1.64673 -5.43686,-1.85785 v -0.97114 h 1.10504 c 0.88405,0 1.7681,-0.0845 2.65216,-0.2956 0.88405,-0.21114 1.7681,-0.46448 2.56371,-0.80225 0.83983,-0.33778 1.59129,-0.71779 2.29851,-1.09781 0.70724,-0.42223 1.28187,-0.84448 1.76812,-1.2245 0.44223,-0.37997 0.83983,-0.84447 1.23763,-1.4356 0.39801,-0.59119 0.70723,-1.22449 0.97243,-1.94229 0.26534,-0.71781 0.53069,-1.43561 0.70724,-2.19564 0.17689,-0.76003 0.26534,-1.52005 0.26534,-2.23786 0,-1.14004 -0.22112,-2.28009 -0.70731,-3.29345 -0.48645,-1.0556 -1.10503,-1.98452 -1.90063,-2.78677 -0.79568,-0.80225 -1.72388,-1.43561 -2.74054,-1.90007 -1.06089,-0.46449 -2.16592,-0.7178 -3.31518,-0.7178 -0.44223,0 -0.83983,0 -1.14925,0 -0.30957,0 -0.66336,0.0844 -1.06089,0.16889 -0.39801,0.0844 -0.83983,0.25334 -1.32607,0.46448 -0.53069,0.21115 -1.19341,0.50668 -1.98909,0.92893 -0.83983,0.42222 -1.45868,0.7178 -1.90071,0.92892 -0.44224,0.21108 -0.79561,0.33785 -1.06082,0.42223 -0.26534,0.0845 -0.48646,0.12664 -0.66335,0.12664 -0.1769,0 -0.44224,0 -0.75138,0 -0.75146,0 -1.41446,-0.25334 -1.94494,-0.7178 -0.53069,-0.46449 -0.79561,-1.0556 -0.79561,-1.68896 0,-0.42222 0.13268,-0.84447 0.3538,-1.22448 0.22112,-0.42223 0.66335,-0.80226 1.28185,-1.14005 0.61914,-0.33785 1.45868,-0.59118 2.47534,-0.80225 1.06088,-0.21115 2.34274,-0.29559 3.97825,-0.29559 2.74047,0 5.26004,0.37997 7.51433,1.14004 2.25436,0.76003 4.19922,1.81562 5.7905,3.20901 1.59129,1.39338 2.82892,2.99788 3.71298,4.89795 0.88405,1.90008 1.32608,3.96904 1.32608,6.2069 0,2.70232 -0.70723,5.06685 -2.16592,7.00914 -1.45868,1.98452 -3.62458,3.50458 -6.49774,4.56017 4.24345,3.42012 6.36515,6.7558 6.36515,10.00704 0,1.18226 -0.26535,2.3223 -0.79568,3.42012 -0.53069,1.09782 -1.28186,2.06896 -2.21007,2.87121 -0.97243,0.84448 -2.12168,1.47784 -3.44777,1.98452 -1.32609,0.50668 -2.78477,0.7178 -4.37605,0.7178 -3.00574,0 -5.52524,-0.80225 -7.55855,-2.44897 -2.03331,-1.64673 -3.71297,-3.92682 -5.03905,-6.9247 z"
   id="path16069"
   style="fill:#2d2d2d;stroke-width:4.32016" /></svg>
