<?xml version="1.0" encoding="UTF-8" standalone="no"?>
<!-- Uploaded to: SVG Repo, www.svgrepo.com, Generator: SVG Repo Mixer Tools -->

<svg
   height="800"
   width="600"
   version="1.1"
   id="Layer_1"
   viewBox="0 0 377.8155 503.754"
   xml:space="preserve"
   sodipodi:docname="D3.svg"
   inkscape:version="1.2.2 (b0a8486, 2022-12-01)"
   xmlns:inkscape="http://www.inkscape.org/namespaces/inkscape"
   xmlns:sodipodi="http://sodipodi.sourceforge.net/DTD/sodipodi-0.dtd"
   xmlns="http://www.w3.org/2000/svg"
   xmlns:svg="http://www.w3.org/2000/svg"><defs
   id="defs158529" /><sodipodi:namedview
   id="namedview158527"
   pagecolor="#ffffff"
   bordercolor="#000000"
   borderopacity="0.25"
   inkscape:showpageshadow="2"
   inkscape:pageopacity="0.0"
   inkscape:pagecheckerboard="0"
   inkscape:deskcolor="#d1d1d1"
   showgrid="false"
   inkscape:zoom="0.63194332"
   inkscape:cx="256.3521"
   inkscape:cy="466.02281"
   inkscape:window-width="1390"
   inkscape:window-height="949"
   inkscape:window-x="530"
   inkscape:window-y="25"
   inkscape:window-maximized="0"
   inkscape:current-layer="Layer_1" />

<rect
   x="0.54001999"
   y="0.54001999"
   class="st0"
   width="376.73547"
   height="502.67395"
   id="rect14147"
   style="fill:#ffffff;stroke:#231f20;stroke-width:1.08004;stroke-miterlimit:10" /><polygon
   class="st20"
   points="279.67,66.92 271.38,56.87 263.24,66.84 271.38,76.44 "
   id="polygon15377"
   style="fill:#ea1c24"
   transform="matrix(4.4202211,0,0,4.2223765,-1010.9835,-180.00881)" /><polygon
   class="st20"
   points="271.38,92.5 263.24,102.46 263.24,102.47 271.38,112.07 279.67,102.54 "
   id="polygon15477"
   style="fill:#ea1c24"
   transform="matrix(4.4202211,0,0,4.2223765,-1010.9835,-180.00881)" /><polygon
   class="st20"
   points="279.67,138.24 271.38,128.19 263.24,138.16 271.38,147.77 "
   id="polygon15479"
   style="fill:#ea1c24"
   transform="matrix(4.4202211,0,0,4.2223765,-1010.9835,-180.00881)" /><polygon
   class="st20"
   points="238.55,62.5 235.6,58.92 232.7,62.47 235.6,65.89 "
   id="polygon15985"
   style="fill:#ea1c24"
   transform="matrix(4.4202211,0,0,4.2223765,-1010.9835,-180.00881)" /><polygon
   class="st20"
   points="310.21,142.44 307.26,146.01 304.36,142.46 307.26,139.04 "
   id="polygon15987"
   style="fill:#ea1c24"
   transform="matrix(4.4202211,0,0,4.2223765,-1010.9835,-180.00881)" /><path
   class="st20"
   d="m 18.044024,24.016435 c 1.32608,-2.99789 3.00574,-5.3202 5.03906,-6.9247 2.03331,-1.64672 4.55287,-2.44898 7.55862,-2.44898 1.59128,0 3.04996,0.25333 4.37598,0.71781 1.32608,0.50666 2.47533,1.14004 3.44777,1.98451 0.9725,0.84448 1.72388,1.7734 2.21013,2.87122 0.53069,1.09782 0.79561,2.23786 0.79561,3.42012 0,3.25124 -2.12169,6.58692 -6.36507,10.00704 2.87315,1.05559 5.03906,2.57565 6.49774,4.56016 1.45861,1.98452 2.16585,4.30683 2.16585,7.00915 0,2.23786 -0.44224,4.30682 -1.32602,6.20689 -0.88405,1.90008 -2.12176,3.5468 -3.71304,4.89796 -1.59122,1.39339 -3.53615,2.44898 -5.79044,3.20901 -2.25436,0.76002 -4.77385,1.14003 -7.5144,1.14003 -1.59128,0 -2.91736,-0.0844 -3.97817,-0.29558 -1.06088,-0.21108 -1.85649,-0.46448 -2.47534,-0.80225 -0.61913,-0.33782 -1.06088,-0.7178 -1.28186,-1.14004 -0.22112,-0.42224 -0.35379,-0.84447 -0.35379,-1.22449 0,-0.63332 0.26534,-1.18226 0.79568,-1.68895 0.53068,-0.46448 1.19341,-0.7178 1.94486,-0.7178 0.30957,0 0.57491,0 0.75146,0 0.17689,0 0.39801,0.0423 0.66265,0.12667 0.26534,0.0844 0.61913,0.21108 1.06088,0.42224 0.44224,0.21108 1.06088,0.50666 1.90071,0.92892 0.83983,0.42224 1.50284,0.7178 1.98909,0.92892 0.53068,0.21109 0.97243,0.38 1.32608,0.46449 0.39802,0.0844 0.70723,0.16891 1.06081,0.16891 0.30957,0 0.70723,0 1.14926,0 1.14925,0 2.25436,-0.25333 3.31517,-0.71781 1.06088,-0.46448 1.98909,-1.09781 2.74054,-1.90007 0.79568,-0.80224 1.41446,-1.73117 1.90071,-2.78677 0.48646,-1.05559 0.70723,-2.15341 0.70723,-3.29345 0,-0.7178 -0.0884,-1.47783 -0.26534,-2.23786 -0.1769,-0.76002 -0.39802,-1.52005 -0.70723,-2.19563 -0.26535,-0.7178 -0.61914,-1.35116 -0.97243,-1.94229 -0.39802,-0.59116 -0.79568,-1.0556 -1.23771,-1.43561 -0.48646,-0.42224 -1.06081,-0.84448 -1.76804,-1.22449 -0.7073,-0.42224 -1.45868,-0.80225 -2.29851,-1.09782 -0.8399,-0.33775 -1.67974,-0.59115 -2.56379,-0.80225 -0.88399,-0.21109 -1.76804,-0.29558 -2.65209,-0.29558 h -1.10504 v -0.97114 c 1.76804,-0.21109 3.58038,-0.84448 5.43686,-1.85785 1.85649,-1.05559 3.18257,-2.28008 3.97818,-3.71569 0.7956,-1.43561 1.23763,-2.99789 1.23763,-4.72906 0,-1.09782 -0.22112,-2.15341 -0.61843,-3.08234 -0.39801,-0.92892 -0.92828,-1.73118 -1.63551,-2.40675 -0.70723,-0.67558 -1.50283,-1.18227 -2.43111,-1.52006 -0.92828,-0.38 -1.94487,-0.54891 -3.00575,-0.54891 -3.58037,0 -6.54196,1.81562 -8.88463,5.44687 z"
   id="path16019"
   style="fill:#ea1c24;stroke-width:4.32016" /><path
   class="st20"
   d="m 335.90213,481.13092 c 2.34275,3.63124 5.30426,5.44686 8.88464,5.44686 1.06088,0 2.07753,-0.16889 3.00573,-0.54893 0.92829,-0.37997 1.76812,-0.88669 2.43119,-1.52006 0.70724,-0.67557 1.23764,-1.47783 1.63544,-2.40675 0.39801,-0.92892 0.61913,-1.9423 0.61913,-3.08234 0,-1.73117 -0.398,-3.29345 -1.2377,-4.72906 -0.79561,-1.43561 -2.12169,-2.66009 -3.97817,-3.71569 -1.81227,-1.01337 -3.6246,-1.64673 -5.43686,-1.85784 v -0.97113 h 1.10503 c 0.88406,0 1.76811,-0.0845 2.65217,-0.29559 0.88405,-0.21108 1.7681,-0.46449 2.56371,-0.80226 0.79561,-0.33785 1.59129,-0.7178 2.29851,-1.09782 0.70724,-0.42223 1.28187,-0.84447 1.76811,-1.22448 0.44224,-0.37997 0.83983,-0.84448 1.23764,-1.43561 0.39801,-0.59119 0.70723,-1.22449 0.97243,-1.94229 0.26534,-0.7178 0.53069,-1.43561 0.70724,-2.19564 0.17688,-0.76003 0.26534,-1.52006 0.26534,-2.23786 0,-1.14004 -0.22112,-2.28008 -0.70731,-3.29346 -0.48646,-1.05559 -1.10503,-1.98451 -1.90064,-2.78676 -0.79567,-0.80225 -1.72389,-1.4356 -2.74054,-1.90007 -1.06088,-0.46448 -2.16591,-0.71781 -3.31517,-0.71781 -0.44224,0 -0.83983,0 -1.14925,0 -0.30957,0 -0.66337,0.0844 -1.06089,0.16889 -0.39801,0.0845 -0.83983,0.25334 -1.32608,0.46449 -0.53069,0.21108 -1.19341,0.50667 -1.98909,0.92891 -0.83983,0.42223 -1.45868,0.71781 -1.9007,0.92893 -0.44224,0.21108 -0.79561,0.33785 -1.06082,0.42222 -0.26534,0.0845 -0.48646,0.12671 -0.66336,0.12671 -0.17689,0 -0.44223,0 -0.75137,0 -0.75146,0 -1.41446,-0.25334 -1.94494,-0.71781 -0.53069,-0.46448 -0.79561,-1.05559 -0.79561,-1.68894 0,-0.42223 0.13268,-0.84448 0.35379,-1.2245 0.22112,-0.42222 0.66336,-0.80225 1.28186,-1.14004 0.61913,-0.33778 1.45868,-0.59118 2.47534,-0.80225 1.06087,-0.21108 2.34274,-0.29559 3.97825,-0.29559 2.74046,0 5.26003,0.37997 7.51432,1.14004 2.25436,0.76002 4.19922,1.81562 5.79051,3.209 1.59128,1.39338 2.82892,2.99789 3.71298,4.89796 0.88405,1.90006 1.32608,3.96903 1.32608,6.20689 0,2.70233 -0.70723,5.06685 -2.16592,7.00915 -1.45868,1.98451 -3.62459,3.50457 -6.49774,4.56017 4.24345,3.42012 6.36515,6.7558 6.36515,10.00702 0,1.18227 -0.26535,2.32231 -0.79568,3.42013 -0.53069,1.09782 -1.28186,2.06896 -2.21007,2.87122 -0.97244,0.84447 -2.12169,1.47783 -3.44777,1.98451 -1.32609,0.50667 -2.78477,0.71781 -4.37606,0.71781 -3.00573,0 -5.52523,-0.80225 -7.55854,-2.44899 -2.03332,-1.64672 -3.71298,-3.9268 -5.03905,-6.92469 z"
   id="path16021"
   style="fill:#ea1c24;stroke-width:4.32016" /></svg>
