<?xml version="1.0" encoding="UTF-8" standalone="no"?>
<!-- Uploaded to: SVG Repo, www.svgrepo.com, Generator: SVG Repo Mixer Tools -->

<svg
   height="800"
   width="600"
   version="1.1"
   id="Layer_1"
   viewBox="0 0 377.8155 503.754"
   xml:space="preserve"
   sodipodi:docname="H3.svg"
   inkscape:version="1.2.2 (b0a8486, 2022-12-01)"
   xmlns:inkscape="http://www.inkscape.org/namespaces/inkscape"
   xmlns:sodipodi="http://sodipodi.sourceforge.net/DTD/sodipodi-0.dtd"
   xmlns="http://www.w3.org/2000/svg"
   xmlns:svg="http://www.w3.org/2000/svg"><defs
   id="defs158529" /><sodipodi:namedview
   id="namedview158527"
   pagecolor="#ffffff"
   bordercolor="#000000"
   borderopacity="0.25"
   inkscape:showpageshadow="2"
   inkscape:pageopacity="0.0"
   inkscape:pagecheckerboard="0"
   inkscape:deskcolor="#d1d1d1"
   showgrid="false"
   inkscape:zoom="0.63194332"
   inkscape:cx="-29.274777"
   inkscape:cy="466.02281"
   inkscape:window-width="1390"
   inkscape:window-height="949"
   inkscape:window-x="530"
   inkscape:window-y="25"
   inkscape:window-maximized="0"
   inkscape:current-layer="Layer_1" />

<rect
   x="0.54002064"
   y="0.54002064"
   class="st0"
   width="376.73547"
   height="502.67395"
   id="rect14185"
   style="fill:#ffffff;stroke:#231f20;stroke-width:1.08004;stroke-miterlimit:10" /><path
   class="st20"
   d="m 361.00909,425.35336 v 0 c 0,0.0845 0,0.16896 0,0.25347 0,4.13794 -3.27101,7.47357 -7.33757,7.47357 -2.78476,0 -5.17165,-1.56224 -6.40935,-3.88454 -1.23764,2.3223 -3.66875,3.88454 -6.4093,3.88454 -4.02239,0 -7.33757,-3.33563 -7.33757,-7.47357 0,-0.0845 0,-0.16896 0,-0.21122 v 0 c 0,-6.50241 5.56947,-12.58265 10.91795,-16.12944 l 2.82892,-1.85788 2.82892,1.85788 c 5.3927,3.50454 10.918,9.45812 10.918,15.96053 v 0 c 0,0 0,0.0404 0,0.0404 z"
   id="path15665"
   style="fill:#ea1c24;stroke-width:4.32016" /><path
   class="st20"
   d="m 42.266925,74.178269 v 0 c 0,-0.08451 0,-0.168959 0,-0.253472 0,-4.137942 -3.270947,-7.47363 -7.337571,-7.47363 -2.784765,0 -5.171657,1.562297 -6.409292,3.884598 -1.237704,-2.322301 -3.66882,-3.884598 -6.409362,-3.884598 -4.0224,0 -7.33757,3.335688 -7.33757,7.47363 0,0.08451 0,0.168959 0,0.211215 v 0 c 0,6.502486 5.569461,12.582724 10.917943,16.129507 l 2.828989,1.857816 2.82892,-1.857816 c 5.392635,-3.504607 10.917943,-9.458116 10.917943,-15.960595 v 0 c 0,0 0,-0.04037 0,-0.04037 z"
   id="path15683"
   style="fill:#ea1c24;stroke-width:4.32016" /><path
   class="st20"
   d="m 153.03764,423.66438 v 0 c 0,0.21122 0,0.42243 0,0.63298 0,10.76709 8.57527,19.50738 19.09534,19.50738 7.24919,0 13.52588,-4.09569 16.75268,-10.13369 3.22672,6.038 9.54764,10.13369 16.7526,10.13369 10.56436,0 19.09542,-8.74029 19.09542,-19.50738 0,-0.21122 0,-0.42243 0,-0.59139 v 0 c 0,-17.01617 -14.49839,-32.89228 -28.51045,-42.09707 l -7.33757,-4.81351 -7.33757,4.81351 c -14.01214,9.20479 -28.51045,24.65865 -28.51045,41.63264 v 0 c 0,0.0404 0,0.12671 0,0.16896 z"
   id="path15699"
   style="fill:#ea1c24;stroke-width:4.32016" /><path
   class="st20"
   d="m 224.77783,80.131845 v 0 c 0,-0.211215 0,-0.42243 0,-0.633645 0,-10.767022 -8.57521,-19.507382 -19.09534,-19.507382 -7.24919,0 -13.52589,4.095694 -16.75261,10.133753 -3.22679,-6.038059 -9.54771,-10.133753 -16.75267,-10.133753 -10.5643,0 -19.09535,8.74036 -19.09535,19.507382 0,0.211215 0,0.42243 0,0.591389 v 0 c 0,17.016171 14.49832,32.892281 28.51045,42.097061 l 7.33757,4.81352 7.33757,-4.81352 c 14.01206,-9.20478 28.51038,-24.658648 28.51038,-41.632577 v 0 c 0,-0.04037 0,-0.126702 0,-0.168959 z"
   id="path15701"
   style="fill:#ea1c24;stroke-width:4.32016" /><path
   class="st20"
   d="m 224.77783,238.51315 v 0 c 0,-0.21121 0,-0.42243 0,-0.63297 0,-10.76708 -8.57521,-19.50739 -19.09534,-19.50739 -7.24919,0 -13.52589,4.0957 -16.75261,10.1337 -3.22679,-6.038 -9.54771,-10.1337 -16.75267,-10.1337 -10.5643,0 -19.09535,8.74031 -19.09535,19.50739 0,0.21121 0,0.42243 0,0.59145 v 0 c 0,17.01624 14.49832,32.89236 28.51045,42.09714 l 7.33757,4.81351 7.33757,-4.81351 c 14.01206,-9.20478 28.51038,-24.65865 28.51038,-41.63264 v 0 c 0,-0.0404 0,-0.12677 0,-0.16896 z"
   id="path15711"
   style="fill:#ea1c24;stroke-width:4.32016" /><path
   class="st20"
   d="m 18.044076,21.398541 c 1.326082,-2.997876 3.005745,-5.320177 5.039056,-6.924659 2.033312,-1.646727 4.552876,-2.448968 7.55862,-2.448968 1.591284,0 3.049968,0.253465 4.375979,0.717752 1.326082,0.50693 2.47534,1.140062 3.447772,1.984548 0.972502,0.844485 1.723885,1.773392 2.210136,2.87121 0.530686,1.097817 0.795607,2.237879 0.795607,3.420119 0,3.251208 -2.121689,6.586905 -6.365067,10.007024 2.873143,1.05564 5.039056,2.575633 6.497739,4.560181 1.458614,1.984547 2.165844,4.306848 2.165844,7.009148 0,2.237879 -0.442239,4.306848 -1.326013,6.206907 -0.884054,1.900058 -2.121759,3.546785 -3.713044,4.897935 -1.591215,1.393394 -3.536148,2.448966 -5.790439,3.209031 -2.254361,0.759996 -4.773854,1.139994 -7.514396,1.139994 -1.591284,0 -2.917366,-0.08449 -3.978175,-0.295707 -1.060881,-0.211225 -1.856488,-0.464692 -2.47534,-0.802312 -0.619133,-0.337955 -1.060879,-0.717752 -1.281858,-1.139994 -0.221119,-0.422444 -0.35379,-0.844486 -0.35379,-1.224484 0,-0.633665 0.265343,-1.182307 0.795677,-1.688971 0.530685,-0.464686 1.193411,-0.717819 1.944864,-0.717819 0.309566,0 0.574909,0 0.751453,0 0.176896,0 0.398015,0.04024 0.662656,0.126736 0.265342,0.08449 0.619133,0.211221 1.06088,0.422443 0.442237,0.211222 1.060879,0.506929 1.90071,0.928907 0.839831,0.422443 1.502837,0.717819 1.989088,0.928974 0.530686,0.211222 0.972432,0.3802 1.326082,0.464686 0.398015,0.08449 0.70723,0.168979 1.06081,0.168979 0.309567,0 0.707229,0 1.149257,0 1.149258,0 2.254361,-0.253465 3.31517,-0.717819 1.06088,-0.464686 1.989088,-1.097818 2.740542,-1.900058 0.795677,-0.802242 1.41446,-1.731149 1.90071,-2.786789 0.486462,-1.055573 0.70723,-2.153391 0.70723,-3.293453 0,-0.717752 -0.08844,-1.477816 -0.265343,-2.237812 -0.176894,-0.760065 -0.398014,-1.520062 -0.707229,-2.195637 -0.265343,-0.717819 -0.619133,-1.351149 -0.972432,-1.942302 -0.398015,-0.591422 -0.795677,-1.055574 -1.237705,-1.435639 -0.486462,-0.422444 -1.060809,-0.844485 -1.768039,-1.224484 -0.707301,-0.422444 -1.458684,-0.80224 -2.298514,-1.097817 -0.839901,-0.337955 -1.679733,-0.590751 -2.563787,-0.802241 -0.883985,-0.211222 -1.76804,-0.295711 -2.652095,-0.295711 h -1.105033 v -0.971151 c 1.768039,-0.211222 3.580373,-0.844486 5.436859,-1.857814 1.856488,-1.055641 3.18257,-2.280124 3.978177,-3.715696 0.795607,-1.435638 1.237634,-2.997876 1.237634,-4.729091 0,-1.097817 -0.221119,-2.153391 -0.618431,-3.082298 -0.398014,-0.928907 -0.928279,-1.731215 -1.635509,-2.40679 -0.707229,-0.675575 -1.502837,-1.182239 -2.431115,-1.52006 -0.928278,-0.3802 -1.944864,-0.549177 -3.005744,-0.549177 -3.580372,0 -6.541963,1.815637 -8.884631,5.44691 z"
   id="path16115"
   style="fill:#ea1c24;stroke-width:4.32016" /><path
   class="st20"
   d="m 335.90219,478.51302 c 2.34275,3.63127 5.30426,5.44691 8.88464,5.44691 1.06088,0 2.07753,-0.16896 3.00573,-0.5492 0.92829,-0.38018 1.76812,-0.88673 2.43119,-1.52006 0.70724,-0.67558 1.23764,-1.47782 1.63544,-2.4068 0.39801,-0.9289 0.61913,-1.9423 0.61913,-3.08229 0,-1.73121 -0.398,-3.29346 -1.2377,-4.72909 -0.79561,-1.43557 -2.12169,-2.66006 -3.97817,-3.7157 -1.81227,-1.01332 -3.6246,-1.64673 -5.43687,-1.85781 v -0.97115 h 1.10504 c 0.88405,0 1.76811,-0.0845 2.65217,-0.29573 0.88405,-0.21122 1.7681,-0.46469 2.56371,-0.80224 0.83983,-0.33799 1.59128,-0.71782 2.29851,-1.09782 0.70723,-0.42243 1.28186,-0.84449 1.76811,-1.22449 0.44224,-0.38017 0.83983,-0.84448 1.23764,-1.43564 0.39801,-0.59071 0.70723,-1.22448 0.97243,-1.9423 0.26534,-0.71775 0.53069,-1.43557 0.70723,-2.19563 0.17689,-0.76 0.26534,-1.52006 0.26534,-2.23782 0,-1.14006 -0.22111,-2.28012 -0.7073,-3.29345 -0.48646,-1.05564 -1.10503,-1.98454 -1.90064,-2.78678 -0.79568,-0.80225 -1.72389,-1.43565 -2.74054,-1.90006 -1.06088,-0.46469 -2.16591,-0.71782 -3.31517,-0.71782 -0.44224,0 -0.83983,0 -1.14925,0 -0.30957,0 -0.66337,0.0845 -1.06089,0.16895 -0.39801,0.0845 -0.83983,0.25348 -1.32608,0.46469 -0.53069,0.21122 -1.19341,0.50694 -1.98909,0.92898 -0.83983,0.42243 -1.45868,0.71775 -1.9007,0.9289 -0.44224,0.21122 -0.79561,0.33792 -1.06082,0.42243 -0.26534,0.0845 -0.48646,0.12671 -0.66336,0.12671 -0.17689,0 -0.44223,0 -0.75137,0 -0.75146,0 -1.41446,-0.25348 -1.94494,-0.71782 -0.53069,-0.46468 -0.79561,-1.05558 -0.79561,-1.68897 0,-0.42243 0.13268,-0.84442 0.35379,-1.22448 0.22112,-0.42243 0.66336,-0.80224 1.28186,-1.14 0.61913,-0.33798 1.45868,-0.59145 2.47534,-0.8023 1.06087,-0.21122 2.34274,-0.29573 3.97825,-0.29573 2.74046,0 5.26003,0.38017 7.51432,1.13999 2.25436,0.76007 4.19922,1.81564 5.79051,3.20904 1.59128,1.39339 2.82892,2.99787 3.71298,4.89793 0.88405,1.90006 1.32608,3.96903 1.32608,6.2069 0,2.7023 -0.70723,5.06685 -2.16592,7.00915 -1.45868,1.98455 -3.62459,3.50455 -6.49774,4.56018 4.24345,3.42013 6.36514,6.75582 6.36514,10.00703 0,1.18224 -0.26535,2.3223 -0.79567,3.42012 -0.53069,1.09781 -1.28186,2.06896 -2.21007,2.8712 -0.97244,0.84449 -2.1217,1.47782 -3.44777,1.98456 -1.32609,0.50694 -2.78477,0.71774 -4.37606,0.71774 -3.00573,0 -5.52523,-0.80224 -7.55855,-2.44896 -2.03331,-1.64673 -3.71297,-3.92679 -5.03905,-6.92466 z"
   id="path16117"
   style="fill:#ea1c24;stroke-width:4.32016" /></svg>
