<?xml version="1.0" encoding="UTF-8" standalone="no"?>
<!-- Uploaded to: SVG Repo, www.svgrepo.com, Generator: SVG Repo Mixer Tools -->

<svg
   height="800"
   width="600"
   version="1.1"
   id="Layer_1"
   viewBox="0 0 377.8155 503.754"
   xml:space="preserve"
   sodipodi:docname="S3.svg"
   inkscape:version="1.2.2 (b0a8486, 2022-12-01)"
   xmlns:inkscape="http://www.inkscape.org/namespaces/inkscape"
   xmlns:sodipodi="http://sodipodi.sourceforge.net/DTD/sodipodi-0.dtd"
   xmlns="http://www.w3.org/2000/svg"
   xmlns:svg="http://www.w3.org/2000/svg"><defs
   id="defs158529" /><sodipodi:namedview
   id="namedview158527"
   pagecolor="#ffffff"
   bordercolor="#000000"
   borderopacity="0.25"
   inkscape:showpageshadow="2"
   inkscape:pageopacity="0.0"
   inkscape:pagecheckerboard="0"
   inkscape:deskcolor="#d1d1d1"
   showgrid="false"
   inkscape:zoom="0.63194332"
   inkscape:cx="401.14357"
   inkscape:cy="424.87988"
   inkscape:window-width="1390"
   inkscape:window-height="949"
   inkscape:window-x="530"
   inkscape:window-y="25"
   inkscape:window-maximized="0"
   inkscape:current-layer="Layer_1" />

<rect
   x="0.54002064"
   y="0.54002064"
   class="st0"
   width="376.73547"
   height="502.67395"
   id="rect14205"
   style="fill:#ffffff;stroke:#231f20;stroke-width:1.08004;stroke-miterlimit:10" /><path
   class="st21"
   d="m 332.58689,415.26194 v 0 c 0,6.20691 5.65791,11.99157 11.09476,15.32727 l 2.82892,1.73114 2.82899,-1.73114 c 5.43686,-3.3357 11.09477,-8.95145 11.09477,-15.15836 v 0 c 0,0 0,-0.0404 0,-0.0404 v -0.0845 0 c 0,-0.0845 0,-0.16896 0,-0.21122 0,-3.92685 -3.31518,-7.09364 -7.42602,-7.09364 -2.12169,0 -3.97817,0.84449 -5.34848,2.15346 0.26534,-1.52006 0.75146,-2.99794 1.59129,-4.34909 l 0.5749,-0.97115 h -2.03332 -2.60786 -2.03331 l 0.5749,0.92897 c 0.83984,1.39333 1.37024,2.87121 1.63544,4.43345 -1.37023,-1.35115 -3.27095,-2.23781 -5.39263,-2.23781 -4.11085,0 -7.42595,3.16678 -7.42595,7.09357 0.0421,0.0845 0.0421,0.16896 0.0421,0.21121 z"
   id="path15801"
   style="fill:#2d2d2d;stroke-width:4.32016" /><path
   class="st21"
   d="m 44.476922,81.229759 v 0 c 0,-6.206913 -5.657908,-11.991578 -11.094768,-15.327207 l -2.828989,-1.731215 -2.828919,1.731215 c -5.43686,3.335629 -11.094768,8.951389 -11.094768,15.158296 v 0 c 0,0 0,0.04037 0,0.04037 v 0.08451 0 c 0,0.08451 0,0.168958 0,0.211215 0,3.926787 3.31517,7.093571 7.426018,7.093571 2.121689,0 3.978176,-0.844483 5.348412,-2.153389 -0.265343,1.520061 -0.751384,2.997872 -1.591285,4.349022 l -0.574909,0.971151 h 2.033312 2.60794 2.033312 l -0.574909,-0.928901 c -0.839831,-1.3934 -1.370236,-2.871211 -1.635509,-4.433515 1.370307,1.351149 3.271017,2.237875 5.392706,2.237875 4.110778,0 7.425948,-3.166784 7.425948,-7.093565 -0.04212,-0.08451 -0.04212,-0.168958 -0.04212,-0.211215 z"
   id="path15817"
   style="fill:#2d2d2d;stroke-width:4.32016" /><path
   class="st21"
   d="m 147.86584,400.99031 v 0 c 0,15.49611 14.14474,29.97889 27.80322,38.38144 l 7.16074,4.39127 7.16075,-4.39127 c 13.65849,-8.40255 27.80322,-22.46309 27.80322,-38.00137 v 0 c 0,-0.0404 0,-0.0845 0,-0.12677 v -0.21122 0 c 0,-0.21121 0,-0.38017 0,-0.59139 0,-9.83811 -8.35423,-17.77616 -18.60916,-17.77616 -5.26003,0 -9.98967,2.11114 -13.39328,5.44684 0.61913,-3.80012 1.94493,-7.51581 3.93402,-10.89375 l 1.45868,-2.44897 h -5.08328 -6.49774 -5.08321 l 1.41446,2.3223 c 2.07753,3.46236 3.44777,7.2203 4.11078,11.14709 -3.40355,-3.42013 -8.1774,-5.57351 -13.52581,-5.57351 -10.29917,0 -18.60917,7.9803 -18.60917,17.77616 -0.0421,0.21122 -0.0421,0.38018 -0.0421,0.5492 z"
   id="path15833"
   style="fill:#2d2d2d;stroke-width:4.32016" /><path
   class="st21"
   d="m 217.74955,102.76386 v 0 c 0,-15.496106 -14.14467,-29.978822 -27.80315,-38.381368 l -7.16082,-4.39127 -7.16074,4.39127 c -13.65848,8.402546 -27.80315,22.46302 -27.80315,38.001378 v 0 c 0,0.0404 0,0.0845 0,0.1267 v 0.21121 0 c 0,0.21122 0,0.38018 0,0.59072 0,9.83818 8.35415,17.77623 18.60908,17.77623 5.26011,0 9.98975,-2.11121 13.39329,-5.44691 -0.61914,3.80018 -1.94493,7.51588 -3.93402,10.89376 l -1.45868,2.44897 h 5.08328 6.49774 5.08328 l -1.41453,-2.32231 c -2.07747,-3.46236 -3.44778,-7.22024 -4.11078,-11.14708 3.40354,3.42012 8.1774,5.57357 13.52588,5.57357 10.29909,0 18.6091,-7.98029 18.6091,-17.77623 0.0421,-0.21122 0.0421,-0.38018 0.0421,-0.5492 z"
   id="path15835"
   style="fill:#2d2d2d;stroke-width:4.32016" /><path
   class="st21"
   d="m 217.74955,260.13184 v 0 c 0,-15.49611 -14.14467,-29.9789 -27.80315,-38.38137 l -7.16082,-4.39127 -7.16074,4.39127 c -13.65848,8.40247 -27.80315,22.46301 -27.80315,38.00137 v 0 c 0,0.0404 0,0.0845 0,0.12671 v 0.21121 0 c 0,0.21122 0,0.38017 0,0.59139 0,9.83818 8.35415,17.77624 18.60908,17.77624 5.26011,0 9.98975,-2.11122 13.39329,-5.44691 -0.61914,3.80018 -1.94493,7.51588 -3.93402,10.89375 l -1.45868,2.44897 h 5.08328 6.49774 5.08328 l -1.41453,-2.3223 c -2.07747,-3.46237 -3.44778,-7.22024 -4.11078,-11.14709 3.40354,3.42012 8.1774,5.57358 13.52588,5.57358 10.29909,0 18.6091,-7.9803 18.6091,-17.77624 0.0421,-0.16896 0.0421,-0.33792 0.0421,-0.5492 z"
   id="path15935"
   style="fill:#2d2d2d;stroke-width:4.32016" /><path
   class="st21"
   d="m 18.043937,20.21639 c 1.326083,-2.997876 3.005744,-5.320177 5.039056,-6.924659 2.033312,-1.646726 4.552875,-2.448968 7.55862,-2.448968 1.591284,0 3.049967,0.253465 4.375979,0.717753 1.326083,0.506929 2.47534,1.140061 3.447772,1.984547 0.972502,0.844486 1.723886,1.773393 2.210137,2.87121 0.530685,1.097818 0.795607,2.23788 0.795607,3.420119 0,3.251208 -2.12169,6.586905 -6.365068,10.007024 2.873143,1.05564 5.039055,2.5757 6.497739,4.560181 1.458613,1.984547 2.165843,4.306848 2.165843,7.009148 0,2.23788 -0.442238,4.306849 -1.326012,6.206907 -0.884055,1.900059 -2.12176,3.546785 -3.713044,4.897935 -1.591214,1.393394 -3.536149,2.448967 -5.790439,3.209031 -2.254361,0.759996 -4.773854,1.139994 -7.514395,1.139994 -1.591285,0 -2.917367,-0.08449 -3.978176,-0.295707 -1.06088,-0.211222 -1.856488,-0.464687 -2.47534,-0.802308 -0.619133,-0.337957 -1.06088,-0.717752 -1.281858,-1.139995 -0.221119,-0.422443 -0.35379,-0.844485 -0.35379,-1.224483 0,-0.633665 0.265342,-1.182307 0.795677,-1.688971 0.530686,-0.464687 1.193411,-0.71782 1.944864,-0.71782 0.309567,0 0.574909,0 0.751454,0 0.176895,0 0.398014,0.04024 0.662655,0.126736 0.265343,0.08449 0.619133,0.211222 1.060879,0.422443 0.442238,0.211222 1.06088,0.50693 1.900712,0.928907 0.83983,0.422444 1.502836,0.71782 1.989087,0.928975 0.530686,0.211221 0.972432,0.3802 1.326083,0.464686 0.398014,0.08449 0.707229,0.168979 1.060809,0.168979 0.309567,0 0.70723,0 1.149257,0 1.149257,0 2.254361,-0.253465 3.31517,-0.71782 1.06088,-0.464686 1.989088,-1.097817 2.740542,-1.900058 0.795677,-0.802241 1.41446,-1.731148 1.900711,-2.786788 0.486461,-1.055573 0.707229,-2.153391 0.707229,-3.293453 0,-0.717752 -0.08844,-1.477816 -0.265342,-2.237813 -0.176896,-0.760068 -0.398015,-1.520065 -0.70723,-2.19564 -0.265343,-0.717819 -0.619133,-1.351149 -0.972432,-1.942302 -0.398014,-0.591421 -0.795678,-1.055574 -1.237705,-1.435639 -0.486461,-0.422444 -1.060809,-0.844485 -1.768039,-1.224484 -0.707301,-0.422443 -1.458684,-0.80224 -2.298515,-1.097817 -0.839901,-0.295711 -1.679731,-0.590751 -2.563787,-0.802241 -0.883985,-0.211222 -1.768039,-0.295711 -2.652093,-0.295711 H 25.07152 v -0.971151 c 1.768039,-0.211222 3.580372,-0.844486 5.43686,-1.857814 1.856487,-1.055573 3.182569,-2.280124 3.978176,-3.715696 0.795606,-1.435638 1.237634,-2.997876 1.237634,-4.729091 0,-1.097817 -0.221118,-2.153391 -0.618431,-3.082298 -0.398014,-0.928907 -0.928279,-1.731215 -1.635508,-2.406789 -0.70723,-0.675575 -1.502837,-1.18224 -2.431116,-1.520061 -0.928279,-0.3802 -1.944864,-0.549179 -3.005744,-0.549179 -3.580372,0 -6.541962,1.815637 -8.884631,5.446911 z"
   id="path16183"
   style="fill:#2d2d2d;stroke-width:4.32016" /><path
   class="st21"
   d="m 335.90205,477.33087 c 2.34275,3.63128 5.30426,5.44691 8.88464,5.44691 1.06087,0 2.07753,-0.16896 3.00573,-0.5492 0.92829,-0.38017 1.76812,-0.88673 2.43119,-1.52006 0.70723,-0.67558 1.23764,-1.47782 1.63544,-2.40679 0.39801,-0.92891 0.61913,-1.9423 0.61913,-3.0823 0,-1.73121 -0.398,-3.29345 -1.2377,-4.72909 -0.79561,-1.43557 -2.12169,-2.66005 -3.97817,-3.71569 -1.81227,-1.01333 -3.6246,-1.64673 -5.43687,-1.85782 v -0.97115 h 1.10504 c 0.88405,0 1.76811,-0.0845 2.65217,-0.29573 0.88405,-0.21121 1.7681,-0.46468 2.56371,-0.80224 0.83983,-0.33791 1.59128,-0.71781 2.29851,-1.09781 0.70723,-0.42243 1.28186,-0.84449 1.76811,-1.22449 0.44224,-0.38017 0.83983,-0.84448 1.23763,-1.43563 0.39802,-0.59146 0.70724,-1.22448 0.97244,-1.94231 0.26534,-0.71775 0.53069,-1.43557 0.70723,-2.19563 0.17689,-0.76 0.26534,-1.52006 0.26534,-2.23781 0,-1.14007 -0.22111,-2.28013 -0.7073,-3.29346 -0.48646,-1.05564 -1.10503,-1.98454 -1.90064,-2.78679 -0.79568,-0.80224 -1.72388,-1.43563 -2.74053,-1.90005 -1.06089,-0.46469 -2.16592,-0.71782 -3.31518,-0.71782 -0.44224,0 -0.83983,0 -1.14925,0 -0.30957,0 -0.66337,0.0845 -1.06089,0.16896 -0.39802,0.0845 -0.83983,0.25347 -1.32608,0.46468 -0.53069,0.21122 -1.19341,0.50695 -1.98909,0.92898 -0.83983,0.42243 -1.45868,0.71775 -1.9007,0.92891 -0.44224,0.21121 -0.79561,0.33791 -1.06082,0.42243 -0.26534,0.0845 -0.48646,0.1267 -0.66336,0.1267 -0.17689,0 -0.44223,0 -0.75137,0 -0.75146,0 -1.41446,-0.25347 -1.94494,-0.71782 -0.53069,-0.46468 -0.79561,-1.05557 -0.79561,-1.68897 0,-0.42243 0.13267,-0.84442 0.35379,-1.22449 0.22112,-0.42243 0.66336,-0.80224 1.28186,-1.13999 0.61913,-0.33798 1.45868,-0.59145 2.47534,-0.80231 1.06087,-0.21121 2.34274,-0.29573 3.97825,-0.29573 2.74046,0 5.26003,0.38018 7.51432,1.14 2.25436,0.76006 4.19922,1.81563 5.79051,3.20903 1.59128,1.39339 2.82892,2.99787 3.71298,4.89793 0.88405,1.90006 1.32607,3.96903 1.32607,6.20691 0,2.7023 -0.70722,5.06684 -2.16591,7.00915 -1.45868,1.98455 -3.62459,3.50454 -6.49774,4.56018 4.24345,3.42012 6.36514,6.75582 6.36514,10.00703 0,1.18223 -0.26535,2.3223 -0.79567,3.42011 -0.53069,1.09782 -1.28186,2.06897 -2.21007,2.87121 -0.97244,0.84449 -2.12169,1.47782 -3.44777,1.98455 -1.32609,0.50695 -2.78477,0.71775 -4.37606,0.71775 -3.00574,0 -5.52523,-0.80224 -7.55855,-2.44896 -2.03331,-1.64673 -3.71297,-3.92679 -5.03904,-6.92466 z"
   id="path16185"
   style="fill:#2d2d2d;stroke-width:4.32016" /></svg>
