<?xml version="1.0" encoding="UTF-8" standalone="no"?>
<!-- Uploaded to: SVG Repo, www.svgrepo.com, Generator: SVG Repo Mixer Tools -->

<svg
   height="800"
   width="600"
   version="1.1"
   id="Layer_1"
   viewBox="0 0 377.8155 503.754"
   xml:space="preserve"
   sodipodi:docname="C4.svg"
   inkscape:version="1.2.2 (b0a8486, 2022-12-01)"
   xmlns:inkscape="http://www.inkscape.org/namespaces/inkscape"
   xmlns:sodipodi="http://sodipodi.sourceforge.net/DTD/sodipodi-0.dtd"
   xmlns="http://www.w3.org/2000/svg"
   xmlns:svg="http://www.w3.org/2000/svg"><defs
   id="defs158529" /><sodipodi:namedview
   id="namedview158527"
   pagecolor="#ffffff"
   bordercolor="#000000"
   borderopacity="0.25"
   inkscape:showpageshadow="2"
   inkscape:pageopacity="0.0"
   inkscape:pagecheckerboard="0"
   inkscape:deskcolor="#d1d1d1"
   showgrid="false"
   inkscape:zoom="0.63194332"
   inkscape:cx="-29.274777"
   inkscape:cy="466.02281"
   inkscape:window-width="1390"
   inkscape:window-height="949"
   inkscape:window-x="530"
   inkscape:window-y="25"
   inkscape:window-maximized="0"
   inkscape:current-layer="Layer_1" />

<rect
   x="0.54002064"
   y="0.54002064"
   class="st0"
   width="376.73547"
   height="502.67395"
   id="rect14167"
   style="fill:#ffffff;stroke:#231f20;stroke-width:1.08004;stroke-miterlimit:10" /><path
   class="st21"
   d="m 337.40506,422.31319 c -0.22112,0.71781 -0.39801,1.47784 -0.39801,2.28008 0,4.34905 3.66882,7.85366 8.22163,7.85366 4.5528,0 8.22162,-3.50461 8.22162,-7.85366 0,-0.71781 -0.13267,-1.39338 -0.30956,-2.02673 3.93402,-0.59119 6.93976,-3.80014 6.93976,-7.72695 0,-4.34906 -3.66882,-7.85363 -8.22162,-7.85363 -1.72389,0 -3.31518,0.50668 -4.64125,1.35116 0.61913,-1.90007 1.41446,-3.75791 2.38688,-5.53131 l 0.75146,-1.35116 h -9.50349 l 0.22112,0.50667 c 1.01666,2.06897 1.8565,4.22238 2.5195,6.41801 -1.37024,-1.01336 -3.09412,-1.68895 -4.99484,-1.68895 -4.5528,0 -8.22162,3.50458 -8.22162,7.85362 0.0421,4.01126 3.09419,7.22027 7.02814,7.76917 z"
   id="path15507"
   style="fill:#2d2d2d;stroke-width:4.32016" /><path
   class="st21"
   d="m 35.54817,77.218357 c 0.22112,-0.717807 0.398014,-1.477831 0.398014,-2.280085 0,-4.349042 -3.66882,-7.853622 -8.221624,-7.853622 -4.552875,0 -8.221625,3.50458 -8.221625,7.853622 0,0.717808 0.132671,1.393386 0.309567,2.026749 -3.934023,0.591119 -6.939768,3.800132 -6.939768,7.726947 0,4.349042 3.668751,7.853615 8.221626,7.853615 1.723885,0 3.31517,-0.506673 4.641252,-1.351163 -0.619133,1.900073 -1.41453,3.757924 -2.386961,5.531321 l -0.751454,1.351157 h 9.503483 l -0.221119,-0.506674 c -1.016656,-2.068964 -1.856487,-4.222374 -2.519563,-6.418013 1.370306,1.013374 3.094192,1.688952 4.994902,1.688952 4.552805,0 8.221555,-3.504566 8.221555,-7.853622 0,-4.011253 -3.049898,-7.22026 -7.028144,-7.76917 z"
   id="path15523"
   style="fill:#2d2d2d;stroke-width:4.32016" /><path
   class="st21"
   d="m 103.04499,84.903089 c 0.5749,-1.815628 0.97242,-3.673471 0.97242,-5.65799 0,-10.640388 -9.017224,-19.254037 -20.156215,-19.254037 -11.138922,0 -20.156225,8.613649 -20.156225,19.254037 0,1.731175 0.309567,3.377905 0.751454,4.982405 -9.636084,1.435608 -17.062032,9.331447 -17.062032,18.958466 0,10.64039 9.017232,19.25404 20.156224,19.25404 4.199155,0 8.133178,-1.22449 11.359971,-3.3779 -1.591284,4.64461 -3.491996,9.20478 -5.834734,13.59605 l -1.812263,3.33568 h 23.338723 l -0.574909,-1.18227 c -2.519493,-5.10907 -4.552805,-10.38705 -6.232468,-15.79169 3.403549,2.53343 7.646997,4.09571 12.332404,4.09571 11.13899,0 20.15623,-8.61365 20.15623,-19.25403 0.0421,-9.669247 -7.47018,-17.607315 -17.23886,-18.958471 z"
   id="path15541"
   style="fill:#2d2d2d;stroke-width:4.32016" /><path
   class="st21"
   d="m 316.85104,84.903089 c 0.57491,-1.815628 0.9725,-3.673471 0.9725,-5.65799 0,-10.640388 -9.0173,-19.254037 -20.15622,-19.254037 -11.139,0 -20.15622,8.613649 -20.15622,19.254037 0,1.731175 0.30956,3.377905 0.75144,4.982405 -9.63608,1.435608 -17.06209,9.331447 -17.06209,18.958466 0,10.64039 9.0173,19.25404 20.15622,19.25404 4.19922,0 8.13325,-1.22449 11.35997,-3.3779 -1.59128,4.64461 -3.49193,9.20478 -5.83466,13.59605 l -1.81234,3.33568 h 23.3388 l -0.57491,-1.18227 c -2.51949,-5.10907 -4.5528,-10.38705 -6.23254,-15.79169 3.40362,2.53343 7.647,4.09571 12.33247,4.09571 11.13893,0 20.15615,-8.61365 20.15615,-19.25403 0.0421,-9.669247 -7.47017,-17.607315 -17.23886,-18.958471 z"
   id="path15543"
   style="fill:#2d2d2d;stroke-width:4.32016" /><path
   class="st21"
   d="m 274.77055,418.85084 c -0.5749,1.81562 -0.97243,3.67347 -0.97243,5.65799 0,10.6404 9.01723,19.25402 20.15623,19.25402 11.13891,0 20.15615,-8.61362 20.15615,-19.25402 0,-1.73118 -0.30957,-3.37791 -0.75139,-4.98241 9.63608,-1.43561 17.06204,-9.33145 17.06204,-18.95847 0,-10.64038 -9.01723,-19.25404 -20.15623,-19.25404 -4.19923,0 -8.13317,1.22449 -11.35997,3.37791 1.59129,-4.64462 3.492,-9.20479 5.83474,-13.59606 l 1.81226,-3.33567 h -23.33879 l 0.57491,1.18226 c 2.51956,5.10908 4.55287,10.38705 6.23253,15.79169 -3.40354,-2.53343 -7.64699,-4.0957 -12.3324,-4.0957 -11.13899,0 -20.15623,8.61364 -20.15623,19.25403 0,9.62702 7.5144,17.56509 17.23886,18.95847 z"
   id="path15597"
   style="fill:#2d2d2d;stroke-width:4.32016" /><path
   class="st21"
   d="m 64.677473,418.85084 c -0.57491,1.81562 -0.972503,3.67347 -0.972503,5.65799 0,10.6404 9.017303,19.25402 20.156225,19.25402 11.138991,0 20.156215,-8.61362 20.156215,-19.25402 0,-1.73118 -0.30956,-3.37791 -0.75144,-4.98241 9.63608,-1.43561 17.06203,-9.33145 17.06203,-18.95847 0,-10.64038 -9.01724,-19.25404 -20.15615,-19.25404 -4.199231,0 -8.133253,1.22449 -11.359976,3.37791 1.591284,-4.64462 3.491925,-9.20479 5.834663,-13.59606 l 1.812333,-3.33567 H 73.120077 l 0.57491,1.18226 c 2.519493,5.10908 4.552804,10.38705 6.232536,15.79169 -3.403617,-2.53343 -7.646996,-4.0957 -12.332473,-4.0957 -11.138921,0 -20.156154,8.61364 -20.156154,19.25403 0,9.62702 7.514325,17.56509 17.238857,18.95847 z"
   id="path15599"
   style="fill:#2d2d2d;stroke-width:4.32016" /><path
   class="st21"
   d="m 38.73074,39.808104 v 4.644609 H 32.498203 V 56.190926 H 26.840365 V 44.452713 H 7.1703919 V 40.272564 L 28.741075,10.842598 h 3.757128 v 28.965506 z m -11.890375,0 V 17.767297 L 10.529716,39.808104 Z"
   id="path16071"
   style="fill:#2d2d2d;stroke-width:4.32016" /><path
   class="st21"
   d="m 346.28977,456.09218 v 28.9655 h -3.7572 l -21.57069,-29.42992 v -4.18018 h 19.66998 V 439.7094 h 5.65791 v 11.73818 h 6.23247 v 4.6446 z m -22.01271,0 16.31057,22.04084 v -22.04084 z"
   id="path16073"
   style="fill:#2d2d2d;stroke-width:4.32016" /></svg>
