<?xml version="1.0" encoding="UTF-8" standalone="no"?>
<!-- Uploaded to: SVG Repo, www.svgrepo.com, Generator: SVG Repo Mixer Tools -->

<svg
   height="800"
   width="600"
   version="1.1"
   id="Layer_1"
   viewBox="0 0 377.8155 503.754"
   xml:space="preserve"
   sodipodi:docname="D4.svg"
   inkscape:version="1.2.2 (b0a8486, 2022-12-01)"
   xmlns:inkscape="http://www.inkscape.org/namespaces/inkscape"
   xmlns:sodipodi="http://sodipodi.sourceforge.net/DTD/sodipodi-0.dtd"
   xmlns="http://www.w3.org/2000/svg"
   xmlns:svg="http://www.w3.org/2000/svg"><defs
   id="defs158529" /><sodipodi:namedview
   id="namedview158527"
   pagecolor="#ffffff"
   bordercolor="#000000"
   borderopacity="0.25"
   inkscape:showpageshadow="2"
   inkscape:pageopacity="0.0"
   inkscape:pagecheckerboard="0"
   inkscape:deskcolor="#d1d1d1"
   showgrid="false"
   inkscape:zoom="0.63194332"
   inkscape:cx="231.03338"
   inkscape:cy="464.44039"
   inkscape:window-width="1390"
   inkscape:window-height="949"
   inkscape:window-x="548"
   inkscape:window-y="25"
   inkscape:window-maximized="0"
   inkscape:current-layer="Layer_1" />

<rect
   x="0.54002064"
   y="0.54002064"
   class="st0"
   width="376.73547"
   height="502.67395"
   id="rect14149"
   style="fill:#ffffff;stroke:#231f20;stroke-width:1.08004;stroke-miterlimit:10" /><polygon
   class="st20"
   points="351.96,66.92 343.67,56.87 335.53,66.84 343.67,76.44 "
   id="polygon15379"
   style="fill:#ea1c24"
   transform="matrix(4.4202211,0,0,4.2223765,-1438.5956,-180.0088)" /><polygon
   class="st20"
   points="398.06,66.92 389.78,56.87 381.64,66.84 389.78,76.44 "
   id="polygon15381"
   style="fill:#ea1c24"
   transform="matrix(4.4202211,0,0,4.2223765,-1438.5956,-180.0088)" /><polygon
   class="st20"
   points="351.96,138.24 343.67,128.19 335.53,138.16 343.67,147.77 "
   id="polygon15383"
   style="fill:#ea1c24"
   transform="matrix(4.4202211,0,0,4.2223765,-1438.5956,-180.0088)" /><polygon
   class="st20"
   points="398.06,138.24 389.78,128.19 381.64,138.16 389.78,147.77 "
   id="polygon15385"
   style="fill:#ea1c24"
   transform="matrix(4.4202211,0,0,4.2223765,-1438.5956,-180.0088)" /><polygon
   class="st20"
   points="333.39,62.5 330.44,58.92 327.54,62.47 330.44,65.89 "
   id="polygon15989"
   style="fill:#ea1c24"
   transform="matrix(4.4202211,0,0,4.2223765,-1438.5956,-180.0088)" /><polygon
   class="st20"
   points="399.19,142.46 399.2,142.46 399.19,142.46 402.1,139.04 405.05,142.44 402.1,146.01 "
   id="polygon15991"
   style="fill:#ea1c24"
   transform="matrix(4.4202211,0,0,4.2223765,-1438.5956,-180.0088)" /><path
   class="st20"
   d="m 38.73081,43.988279 v 4.644616 H 32.498272 V 60.371101 H 26.840364 V 48.632895 H 7.1703912 V 44.452739 L 28.741074,15.02278 h 3.757198 v 28.965499 z m -11.890446,0 V 21.947473 L 10.529785,43.988279 Z"
   id="path16023"
   style="fill:#ea1c24;stroke-width:4.32016" /><path
   class="st20"
   d="m 346.28977,460.27239 v 28.9655 h -3.7572 l -21.57069,-29.42997 v -4.18015 h 19.66998 v -11.73821 h 5.65791 v 11.73821 h 6.23254 v 4.64462 z m -22.01271,0 16.31065,22.0408 v -22.0408 z"
   id="path16025"
   style="fill:#ea1c24;stroke-width:4.32016" /></svg>
