<?xml version="1.0" encoding="UTF-8" standalone="no"?>
<!-- Uploaded to: SVG Repo, www.svgrepo.com, Generator: SVG Repo Mixer Tools -->

<svg
   height="800"
   width="600"
   version="1.1"
   id="Layer_1"
   viewBox="0 0 377.8155 503.754"
   xml:space="preserve"
   sodipodi:docname="H4.svg"
   inkscape:version="1.2.2 (b0a8486, 2022-12-01)"
   xmlns:inkscape="http://www.inkscape.org/namespaces/inkscape"
   xmlns:sodipodi="http://sodipodi.sourceforge.net/DTD/sodipodi-0.dtd"
   xmlns="http://www.w3.org/2000/svg"
   xmlns:svg="http://www.w3.org/2000/svg"><defs
   id="defs158529" /><sodipodi:namedview
   id="namedview158527"
   pagecolor="#ffffff"
   bordercolor="#000000"
   borderopacity="0.25"
   inkscape:showpageshadow="2"
   inkscape:pageopacity="0.0"
   inkscape:pagecheckerboard="0"
   inkscape:deskcolor="#d1d1d1"
   showgrid="false"
   inkscape:zoom="0.63194332"
   inkscape:cx="-29.274777"
   inkscape:cy="466.02281"
   inkscape:window-width="1390"
   inkscape:window-height="949"
   inkscape:window-x="530"
   inkscape:window-y="25"
   inkscape:window-maximized="0"
   inkscape:current-layer="Layer_1" />

<rect
   x="0.54002064"
   y="0.54002064"
   class="st0"
   width="376.73547"
   height="502.67395"
   id="rect14187"
   style="fill:#ffffff;stroke:#231f20;stroke-width:1.08004;stroke-miterlimit:10" /><path
   class="st20"
   d="m 361.00922,425.35334 v 0 c 0,0.0845 0,0.16896 0,0.25347 0,4.13794 -3.27095,7.47357 -7.33757,7.47357 -2.78476,0 -5.17165,-1.56224 -6.40936,-3.88454 -1.23763,2.3223 -3.66875,3.88454 -6.40929,3.88454 -4.0224,0 -7.33757,-3.33563 -7.33757,-7.47357 0,-0.0845 0,-0.16896 0,-0.21122 v 0 c 0,-6.50241 5.56946,-12.58265 10.91794,-16.12944 l 2.82892,-1.85788 2.82899,1.85788 c 5.39263,3.50454 10.91794,9.45812 10.91794,15.9606 v 0 c 0,0 0,0.0404 0,0.0404 z"
   id="path15667"
   style="fill:#ea1c24;stroke-width:4.32016" /><path
   class="st20"
   d="m 41.6482,74.178249 v 0 c 0,-0.08451 0,-0.168959 0,-0.253472 0,-4.137942 -3.270947,-7.47363 -7.337571,-7.47363 -2.784695,0 -5.171656,1.562297 -6.409291,3.884598 -1.237635,-2.322301 -3.668751,-3.884598 -6.409292,-3.884598 -4.0224,0 -7.33757,3.335688 -7.33757,7.47363 0,0.08451 0,0.168959 0,0.211215 v 0 c 0,6.502486 5.569461,12.582724 10.917943,16.129506 l 2.828919,1.857817 2.828919,-1.857817 C 36.122963,86.760892 41.6482,80.807383 41.6482,74.304904 v 0 c 0,0 0,-0.04037 0,-0.04037 z"
   id="path15685"
   style="fill:#ea1c24;stroke-width:4.32016" /><path
   class="st20"
   d="m 119.1789,80.131825 v 0 c 0,-0.211215 0,-0.42243 0,-0.633645 0,-10.767022 -8.5752,-19.507382 -19.09534,-19.507382 -7.249196,0 -13.525885,4.095761 -16.752679,10.133752 -3.226723,-6.037991 -9.547637,-10.133752 -16.752604,-10.133752 -10.564293,0 -19.095344,8.74036 -19.095344,19.507382 0,0.211215 0,0.42243 0,0.591456 v 0 c 0,17.016171 14.498315,32.892284 28.510448,42.097064 l 7.3375,4.81352 7.337571,-4.81352 C 104.68059,112.98192 119.1789,97.528049 119.1789,80.55412 v 0 c 0,-0.04037 0,-0.126769 0,-0.168958 z"
   id="path15703"
   style="fill:#ea1c24;stroke-width:4.32016" /><path
   class="st20"
   d="m 325.95688,80.131825 v 0 c 0,-0.211215 0,-0.42243 0,-0.633645 0,-10.767022 -8.57527,-19.507382 -19.09542,-19.507382 -7.24912,0 -13.5258,4.095761 -16.7526,10.133752 -3.22679,-6.037991 -9.54771,-10.133752 -16.75261,-10.133752 -10.56436,0 -19.09541,8.74036 -19.09541,19.507382 0,0.211215 0,0.42243 0,0.591456 v 0 c 0,17.016171 14.49839,32.892284 28.51045,42.097064 l 7.33757,4.81352 7.33757,-4.81352 c 14.01207,-9.20478 28.51045,-24.658651 28.51045,-41.63258 v 0 c 0,-0.04037 0,-0.126769 0,-0.168958 z"
   id="path15705"
   style="fill:#ea1c24;stroke-width:4.32016" /><path
   class="st20"
   d="m 254.26084,426.40891 v 0 c 0,0.21122 0,0.42243 0,0.63298 0,10.76708 8.57528,19.50738 19.09541,19.50738 7.24913,0 13.52582,-4.09569 16.75261,-10.13369 3.2268,6.038 9.54771,10.13369 16.7526,10.13369 10.56437,0 19.09542,-8.7403 19.09542,-19.50738 0,-0.21122 0,-0.42243 0,-0.59072 v 0 c 0,-17.01617 -14.49838,-32.89235 -28.51045,-42.09713 l -7.33757,-4.81352 -7.33757,4.81352 c -14.01206,9.20478 -28.51045,24.65871 -28.51045,41.63264 v 0 c 0,0.0404 0,0.12677 0,0.16896 z"
   id="path15963"
   style="fill:#ea1c24;stroke-width:4.32016" /><path
   class="st20"
   d="m 47.438709,426.40891 v 0 c 0,0.21122 0,0.42243 0,0.63298 0,10.76708 8.575275,19.50738 19.095344,19.50738 7.249191,0 13.525882,-4.09569 16.752675,-10.13369 3.226723,6.038 9.547636,10.13369 16.752602,10.13369 10.56437,0 19.09535,-8.7403 19.09535,-19.50738 0,-0.21122 0,-0.42243 0,-0.59072 v 0 c 0,-17.01617 -14.49832,-32.89235 -28.510382,-42.09713 l -7.33757,-4.81353 -7.33757,4.81351 c -14.012133,9.20479 -28.510449,24.65872 -28.510449,41.63265 v 0 c 0,0.0404 0,0.12676 0,0.16895 z"
   id="path15965"
   style="fill:#ea1c24;stroke-width:4.32016" /><path
   class="st20"
   d="m 38.730903,41.370392 v 4.644602 H 32.498366 V 57.753233 H 26.840458 V 46.014994 H 7.1704853 V 41.834879 L 28.741169,12.447137 h 3.757197 v 28.965499 h 6.232537 z m -11.890445,0 V 19.329619 L 10.529879,41.370392 Z"
   id="path16119"
   style="fill:#ea1c24;stroke-width:4.32016" /><path
   class="st20"
   d="m 350.17966,457.65446 v 28.9655 h -3.7572 l -21.57068,-29.42991 v -4.18019 h 19.66997 v -11.73817 h 5.65791 v 11.73817 h 6.23254 v 4.6446 z m -22.01271,0 16.31064,22.04084 v -22.04084 z"
   id="path16121"
   style="fill:#ea1c24;stroke-width:4.32016" /></svg>
