<?xml version="1.0" encoding="UTF-8" standalone="no"?>
<!-- Uploaded to: SVG Repo, www.svgrepo.com, Generator: SVG Repo Mixer Tools -->

<svg
   height="800"
   width="600"
   version="1.1"
   id="Layer_1"
   viewBox="0 0 377.8155 503.754"
   xml:space="preserve"
   sodipodi:docname="S4.svg"
   inkscape:version="1.2.2 (b0a8486, 2022-12-01)"
   xmlns:inkscape="http://www.inkscape.org/namespaces/inkscape"
   xmlns:sodipodi="http://sodipodi.sourceforge.net/DTD/sodipodi-0.dtd"
   xmlns="http://www.w3.org/2000/svg"
   xmlns:svg="http://www.w3.org/2000/svg"><defs
   id="defs158529" /><sodipodi:namedview
   id="namedview158527"
   pagecolor="#ffffff"
   bordercolor="#000000"
   borderopacity="0.25"
   inkscape:showpageshadow="2"
   inkscape:pageopacity="0.0"
   inkscape:pagecheckerboard="0"
   inkscape:deskcolor="#d1d1d1"
   showgrid="false"
   inkscape:zoom="0.63194332"
   inkscape:cx="401.14357"
   inkscape:cy="424.87988"
   inkscape:window-width="1390"
   inkscape:window-height="949"
   inkscape:window-x="530"
   inkscape:window-y="25"
   inkscape:window-maximized="0"
   inkscape:current-layer="Layer_1" />

<rect
   x="0.54002064"
   y="0.54002064"
   class="st0"
   width="376.73547"
   height="502.67395"
   id="rect14207"
   style="fill:#ffffff;stroke:#231f20;stroke-width:1.08004;stroke-miterlimit:10" /><path
   class="st21"
   d="m 332.45449,415.26189 v 0 c 0,6.20691 5.65788,11.99157 11.09475,15.32727 l 2.82893,1.73115 2.82895,-1.73115 c 5.43687,-3.3357 11.09476,-8.95145 11.09476,-15.15836 v 0 c 0,0 0,-0.0404 0,-0.0404 v -0.0845 0 c 0,-0.0845 0,-0.16896 0,-0.21122 0,-3.92684 -3.31517,-7.09364 -7.42598,-7.09364 -2.1217,0 -3.97819,0.84449 -5.34846,2.15346 0.26519,-1.52005 0.75144,-2.99794 1.59128,-4.34909 l 0.57463,-0.97115 h -2.0333 -2.60793 -2.03331 l 0.57463,0.92898 c 0.83985,1.39332 1.37028,2.87121 1.63548,4.43344 -1.37026,-1.35115 -3.27096,-2.23781 -5.39267,-2.23781 -4.1108,0 -7.42597,3.16678 -7.42597,7.09357 0.0442,0.0845 0.0442,0.16896 0.0442,0.21122 z"
   id="path15803"
   style="fill:#2d2d2d;stroke-width:4.32016" /><path
   class="st21"
   d="m 38.819198,81.229712 v 0 c 0,-6.206913 -5.65788,-11.991578 -11.094754,-15.327202 l -2.82894,-1.731215 -2.82894,1.731215 C 16.629691,69.238134 10.971803,74.853894 10.971803,81.0608 v 0 c 0,0 0,0.04037 0,0.04037 v 0.08451 0 c 0,0.08451 0,0.168958 0,0.211215 0,3.926787 3.31517,7.093571 7.425975,7.093571 2.121704,0 3.978198,-0.844483 5.348469,-2.15339 -0.265203,1.520062 -0.751439,2.997873 -1.591285,4.349023 l -0.574628,0.971158 h 2.033304 2.607934 2.033297 l -0.574628,-0.928908 c -0.839838,-1.3934 -1.37027,-2.871211 -1.63548,-4.433515 1.370271,1.351149 3.27096,2.237875 5.392671,2.237875 4.110805,0 7.425968,-3.166784 7.425968,-7.093565 -0.04422,-0.08451 -0.04422,-0.168958 -0.04422,-0.211215 z"
   id="path15819"
   style="fill:#2d2d2d;stroke-width:4.32016" /><path
   class="st21"
   d="m 48.366876,400.99026 v 0 c 0,15.49611 14.144708,29.9789 27.80319,38.38144 l 7.160759,4.39127 7.160759,-4.39127 c 13.658476,-8.40254 27.803186,-22.46308 27.803186,-38.00137 v 0 c 0,-0.0404 0,-0.0845 0,-0.12677 v -0.21122 0 c 0,-0.21121 0,-0.38017 0,-0.59145 0,-9.83811 -8.35421,-17.77617 -18.609128,-17.77617 -5.260063,0 -9.9897,2.11115 -13.393268,5.44684 0.618852,-3.80011 1.944891,-7.5158 3.933994,-10.89375 l 1.458676,-2.44897 H 86.601786 80.10406 75.020808 l 1.414467,2.3223 c 2.077508,3.46237 3.447779,7.22031 4.110806,11.14709 -3.403569,-3.42012 -8.177408,-5.57351 -13.525874,-5.57351 -10.299112,0 -18.609127,7.9803 -18.609127,17.77617 -0.04422,0.21121 -0.04422,0.38017 -0.04422,0.5492 z"
   id="path15837"
   style="fill:#2d2d2d;stroke-width:4.32016" /><path
   class="st21"
   d="m 118.25056,102.76382 v 0 c 0,-15.496113 -14.1447,-29.97883 -27.803178,-38.38137 l -7.160759,-4.39127 -7.16076,4.39127 C 62.467382,72.78499 48.322674,86.845465 48.322674,102.38382 v 0 c 0,0.0404 0,0.0845 0,0.1267 v 0.21122 0 c 0,0.21121 0,0.38017 0,0.59138 0,9.83819 8.354219,17.77624 18.609128,17.77624 5.260066,0 9.989704,-2.11121 13.393272,-5.44692 -0.618852,3.80019 -1.944899,7.51588 -3.934001,10.89376 l -1.45867,2.44897 h 5.083252 6.497726 5.083258 l -1.414474,-2.3223 c -2.0775,-3.46236 -3.447771,-7.22024 -4.110805,-11.14709 3.403568,3.42012 8.177408,5.57358 13.525876,5.57358 10.299114,0 18.609124,-7.9803 18.609124,-17.77624 0.0442,-0.21121 0.0442,-0.38017 0.0442,-0.5492 z"
   id="path15839"
   style="fill:#2d2d2d;stroke-width:4.32016" /><path
   class="st21"
   d="m 259.56505,400.99026 v 0 c 0,15.49611 14.1447,29.9789 27.80317,38.38144 l 7.16076,4.39127 7.16077,-4.39127 c 13.65848,-8.40254 27.80318,-22.46308 27.80318,-38.00137 v 0 c 0,-0.0404 0,-0.0845 0,-0.12677 v -0.21122 0 c 0,-0.21121 0,-0.38017 0,-0.59145 0,-9.83811 -8.35422,-17.77617 -18.60912,-17.77617 -5.26006,0 -9.9897,2.11115 -13.39328,5.44684 0.61886,-3.80011 1.94491,-7.5158 3.934,-10.89375 l 1.45868,-2.44897 h -5.08325 -6.49773 -5.08326 l 1.41448,2.3223 c 2.0775,3.46237 3.44777,7.22031 4.1108,11.14709 -3.40357,-3.42012 -8.17741,-5.57351 -13.52588,-5.57351 -10.29911,0 -18.60912,7.9803 -18.60912,17.77617 -0.0442,0.21121 -0.0442,0.38017 -0.0442,0.5492 z"
   id="path15841"
   style="fill:#2d2d2d;stroke-width:4.32016" /><path
   class="st21"
   d="m 329.49293,102.76382 v 0 c 0,-15.496113 -14.1447,-29.97883 -27.80318,-38.38137 l -7.16077,-4.39127 -7.16076,4.39127 c -13.65847,8.40254 -27.80317,22.463015 -27.80317,38.00137 v 0 c 0,0.0404 0,0.0845 0,0.1267 v 0.21122 0 c 0,0.21121 0,0.38017 0,0.59138 0,9.83819 8.35421,17.77624 18.60912,17.77624 5.26006,0 9.9897,-2.11121 13.39327,-5.44692 -0.61885,3.80019 -1.9449,7.51588 -3.93399,10.89376 l -1.45869,2.44897 h 5.08326 6.49773 5.08325 l -1.41447,-2.3223 c -2.0775,-3.46236 -3.44778,-7.22024 -4.1108,-11.14709 3.40357,3.42012 8.1774,5.57358 13.52588,5.57358 10.2991,0 18.60912,-7.9803 18.60912,-17.77624 0.0442,-0.21121 0.0442,-0.38017 0.0442,-0.5492 z"
   id="path15843"
   style="fill:#2d2d2d;stroke-width:4.32016" /><path
   class="st21"
   d="m 38.730793,40.188219 v 4.644602 h -6.23251 v 11.73824 h -5.65788 V 44.832821 H 7.1704166 V 40.652706 L 28.741093,11.22272 h 3.75719 v 28.965499 z m -11.89039,0 v -22.04084 l -16.31062,22.04084 z"
   id="path16187"
   style="fill:#2d2d2d;stroke-width:4.32016" /><path
   class="st21"
   d="m 350.17957,456.47229 v 28.9655 h -3.75718 l -21.57068,-29.42991 v -4.18019 h 19.66997 v -11.73817 h 5.65789 v 11.73817 h 6.23251 v 4.6446 z m -22.0127,0 16.31062,22.04084 v -22.04084 z"
   id="path16189"
   style="fill:#2d2d2d;stroke-width:4.32016" /></svg>
