<?xml version="1.0" encoding="UTF-8" standalone="no"?>
<!-- Uploaded to: SVG Repo, www.svgrepo.com, Generator: SVG Repo Mixer Tools -->

<svg
   height="800"
   width="600"
   version="1.1"
   id="Layer_1"
   viewBox="0 0 377.8155 503.754"
   xml:space="preserve"
   sodipodi:docname="C5.svg"
   inkscape:version="1.2.2 (b0a8486, 2022-12-01)"
   xmlns:inkscape="http://www.inkscape.org/namespaces/inkscape"
   xmlns:sodipodi="http://sodipodi.sourceforge.net/DTD/sodipodi-0.dtd"
   xmlns="http://www.w3.org/2000/svg"
   xmlns:svg="http://www.w3.org/2000/svg"><defs
   id="defs158529" /><sodipodi:namedview
   id="namedview158527"
   pagecolor="#ffffff"
   bordercolor="#000000"
   borderopacity="0.25"
   inkscape:showpageshadow="2"
   inkscape:pageopacity="0.0"
   inkscape:pagecheckerboard="0"
   inkscape:deskcolor="#d1d1d1"
   showgrid="false"
   inkscape:zoom="0.63194332"
   inkscape:cx="-29.274777"
   inkscape:cy="466.02281"
   inkscape:window-width="1390"
   inkscape:window-height="949"
   inkscape:window-x="530"
   inkscape:window-y="25"
   inkscape:window-maximized="0"
   inkscape:current-layer="Layer_1" />

<rect
   x="0.54002064"
   y="0.54002064"
   class="st0"
   width="376.73547"
   height="502.67395"
   id="rect14169"
   style="fill:#ffffff;stroke:#231f20;stroke-width:1.08004;stroke-miterlimit:10" /><path
   class="st21"
   d="m 337.4052,423.1154 c -0.22112,0.71781 -0.39802,1.47788 -0.39802,2.28012 0,4.34903 3.66882,7.85363 8.22163,7.85363 4.5528,0 8.22162,-3.5046 8.22162,-7.85363 0,-0.71782 -0.13266,-1.39339 -0.30956,-2.02672 3.93395,-0.59139 6.93977,-3.80019 6.93977,-7.72697 0,-4.34903 -3.66882,-7.85364 -8.22163,-7.85364 -1.72389,0 -3.31517,0.50695 -4.64125,1.35115 0.61913,-1.90006 1.41446,-3.75787 2.38689,-5.53126 l 0.75145,-1.35121 h -9.50348 l 0.22111,0.50694 c 1.01666,2.06897 1.8565,4.22236 2.5195,6.41799 -1.37024,-1.01339 -3.09412,-1.68896 -4.99483,-1.68896 -4.5528,0 -8.22162,3.5046 -8.22162,7.85363 0,4.01127 3.04996,7.22024 7.02813,7.76914 z"
   id="path15509"
   style="fill:#2d2d2d;stroke-width:4.32016" /><path
   class="st21"
   d="m 32.719385,77.218378 c 0.221118,-0.717822 0.398014,-1.477886 0.398014,-2.280126 0,-4.349022 -3.66875,-7.853635 -8.221625,-7.853635 -4.552804,0 -8.221555,3.504613 -8.221555,7.853635 0,0.717822 0.132672,1.393393 0.309567,2.026728 -3.933953,0.591389 -6.939697,3.80018 -6.939697,7.726968 0,4.349022 3.66875,7.853629 8.221555,7.853629 1.723886,0 3.31517,-0.506943 4.641252,-1.35115 -0.619133,1.90006 -1.414459,3.757876 -2.386891,5.531267 l -0.751454,1.351217 h 9.503483 l -0.221118,-0.506942 c -1.016656,-2.068965 -1.856488,-4.222361 -2.519493,-6.417994 1.370235,1.013395 3.094121,1.688973 4.994831,1.688973 4.552876,0 8.221626,-3.504607 8.221626,-7.853636 -0.04212,-4.011273 -3.094121,-7.220233 -7.028144,-7.769143 z"
   id="path15525"
   style="fill:#2d2d2d;stroke-width:4.32016" /><path
   class="st21"
   d="m 103.04512,84.903102 c 0.5749,-1.815641 0.97243,-3.673518 0.97243,-5.658003 0,-10.640421 -9.01723,-19.254049 -20.156222,-19.254049 -11.138921,0 -20.156224,8.613628 -20.156224,19.254049 0,1.731148 0.309567,3.377878 0.751454,4.982358 -9.636085,1.435642 -17.062033,9.331514 -17.062033,18.958473 0,10.64042 9.017232,19.25405 20.156224,19.25405 4.199155,0 8.133178,-1.22448 11.359971,-3.37787 -1.591285,4.6446 -3.491995,9.20478 -5.834733,13.59605 l -1.812264,3.33563 h 23.338723 l -0.574909,-1.18224 c -2.519493,-5.10908 -4.552805,-10.38702 -6.232467,-15.79169 3.403548,2.53346 7.646996,4.0957 12.3324,4.0957 11.13892,0 20.15622,-8.61363 20.15622,-19.25405 0,-9.669204 -7.51438,-17.607258 -17.23885,-18.958408 z"
   id="path15545"
   style="fill:#2d2d2d;stroke-width:4.32016" /><path
   class="st21"
   d="m 273.13517,418.85086 c -0.57491,1.81557 -0.97243,3.67345 -0.97243,5.65793 0,10.64042 9.01724,19.25405 20.15623,19.25405 11.13892,0 20.15622,-8.61363 20.15622,-19.25405 0,-1.73115 -0.30957,-3.37787 -0.75145,-4.98235 9.63608,-1.43564 17.06203,-9.33145 17.06203,-18.95848 0,-10.64042 -9.01723,-19.25405 -20.15622,-19.25405 -4.19916,0 -8.13318,1.22448 -11.3599,3.37788 1.59121,-4.64461 3.49192,-9.20479 5.83466,-13.59606 l 1.81227,-3.33563 h -23.33873 l 0.57491,1.18224 c 2.51949,5.10909 4.55281,10.38702 6.23246,15.79169 -3.40355,-2.53346 -7.64692,-4.09569 -12.33239,-4.09569 -11.13892,0 -20.15623,8.61362 -20.15623,19.25404 0,9.62696 7.47017,17.56508 17.23886,18.95848 z"
   id="path15579"
   style="fill:#2d2d2d;stroke-width:4.32016" /><path
   class="st21"
   d="m 64.633382,418.85086 c -0.574909,1.81557 -0.972431,3.67345 -0.972431,5.65793 0,10.64042 9.017232,19.25405 20.156154,19.25405 11.138991,0 20.156225,-8.61363 20.156225,-19.25405 0,-1.73115 -0.30957,-3.37787 -0.75145,-4.98235 9.63608,-1.43564 17.06209,-9.33145 17.06209,-18.95848 0,-10.64042 -9.0173,-19.25405 -20.15622,-19.25405 -4.199221,0 -8.133174,1.22448 -11.359967,3.37788 1.591285,-4.64461 3.491995,-9.20479 5.834663,-13.59606 L 96.41478,367.7601 H 73.075987 l 0.574909,1.18224 c 2.519563,5.10909 4.552804,10.38702 6.232537,15.79169 -3.403618,-2.53346 -7.646996,-4.09569 -12.332404,-4.09569 -11.13899,0 -20.156223,8.61362 -20.156223,19.25404 0,9.62696 7.514396,17.56508 17.238857,18.95848 z"
   id="path15581"
   style="fill:#2d2d2d;stroke-width:4.32016" /><path
   class="st21"
   d="m 208.06954,219.42799 c 0.57492,-1.81563 0.97244,-3.67345 0.97244,-5.65799 0,-10.64036 -9.01723,-19.25406 -20.15622,-19.25406 -11.13893,0 -20.15616,8.6137 -20.15616,19.25406 0,1.73115 0.30957,3.37787 0.75138,4.98242 -9.63601,1.43557 -17.06202,9.33145 -17.06202,18.95848 0,10.64035 9.01723,19.25398 20.15622,19.25398 4.19922,0 8.13318,-1.22448 11.35997,-3.37787 -1.59128,4.6446 -3.492,9.20478 -5.83466,13.59605 l -1.81234,3.3357 h 23.3388 l -0.57491,-1.18231 c -2.51956,-5.10902 -4.55288,-10.38702 -6.23255,-15.79169 3.40355,2.53346 7.647,4.09576 12.33241,4.09576 11.13899,0 20.15622,-8.6137 20.15622,-19.25405 0,-9.66927 -7.47017,-17.60733 -17.23886,-18.95848 z"
   id="path15631"
   style="fill:#2d2d2d;stroke-width:4.32016" /><path
   class="st21"
   d="m 308.71799,84.903102 c 0.57491,-1.815641 0.97244,-3.673518 0.97244,-5.658003 0,-10.640421 -9.01723,-19.254049 -20.15623,-19.254049 -11.13892,0 -20.15615,8.613628 -20.15615,19.254049 0,1.731148 0.30956,3.377878 0.75138,4.982358 -9.63608,1.435642 -17.06202,9.331514 -17.06202,18.958473 0,10.64042 9.01722,19.25405 20.15622,19.25405 4.19922,0 8.13317,-1.22448 11.35997,-3.37787 -1.59129,4.6446 -3.492,9.20478 -5.83474,13.59605 l -1.81226,3.33563 h 23.33879 l -0.57491,-1.18224 c -2.51956,-5.10908 -4.55287,-10.38702 -6.23254,-15.79169 3.40355,2.53346 7.647,4.0957 12.33241,4.0957 11.13899,0 20.15622,-8.61363 20.15622,-19.25405 0,-9.669204 -7.5144,-17.607258 -17.23886,-18.958408 z"
   id="path15633"
   style="fill:#2d2d2d;stroke-width:4.32016" /><path
   class="st21"
   d="m 39.128676,10.884836 -2.652094,5.57351 h -13.96791 l -3.049968,5.953575 c 6.055711,0.844485 10.873719,2.997876 14.409938,6.460239 3.049968,2.955631 4.552805,6.460239 4.552805,10.471444 0,2.280124 -0.486462,4.433515 -1.502837,6.502484 -0.972503,1.984547 -2.210137,3.67345 -3.757198,5.066845 -1.502907,1.393394 -3.182569,2.533456 -5.039055,3.377874 -2.607942,1.182306 -5.304259,1.815637 -8.089024,1.815637 -1.41446,0 -2.652095,-0.126736 -3.668751,-0.3802 -1.016656,-0.253466 -1.856486,-0.59142 -2.475338,-1.013395 -0.619134,-0.422444 -1.105034,-0.886663 -1.41446,-1.393327 -0.309567,-0.506933 -0.442238,-1.05564 -0.442238,-1.562305 0,-0.591422 0.265342,-1.140062 0.795607,-1.604482 0.530685,-0.464686 1.19348,-0.717819 1.989088,-0.717819 0.309567,0 0.574909,0 0.795678,0.04024 0.221118,0.04024 0.486461,0.08449 0.751453,0.211221 0.265342,0.126736 0.574909,0.253465 0.928208,0.464687 0.35379,0.211221 0.795677,0.506929 1.370306,0.886662 1.679662,1.140062 3.447771,1.688971 5.215811,1.688971 1.326082,0 2.607941,-0.253465 3.801421,-0.760064 1.193481,-0.506929 2.298514,-1.224483 3.226793,-2.111146 0.928209,-0.88673 1.679662,-1.984547 2.210067,-3.166787 0.574909,-1.224483 0.839831,-2.491211 0.839831,-3.884606 0,-2.702299 -0.884055,-5.193511 -2.696318,-7.515812 -1.812263,-2.322304 -4.331827,-4.137941 -7.470171,-5.404669 -2.47534,-0.971152 -5.878887,-1.52006 -10.16649,-1.688903 l 8.928855,-17.269572 h 16.575781 z"
   id="path16075"
   style="fill:#2d2d2d;stroke-width:4.32016" /><path
   class="st21"
   d="m 339.21753,484.97325 -8.92886,-17.26951 c 4.33184,-0.16896 7.73538,-0.76006 10.16649,-1.68897 3.13835,-1.26673 5.65791,-3.08229 7.47018,-5.40466 1.81233,-2.3223 2.69631,-4.81352 2.69631,-7.51582 0,-1.39339 -0.26534,-2.66005 -0.83983,-3.8846 -0.57491,-1.22449 -1.28185,-2.28006 -2.21006,-3.16672 -0.92828,-0.88673 -1.98916,-1.60455 -3.2268,-2.11122 -1.19347,-0.50694 -2.47534,-0.76006 -3.80141,-0.76006 -1.76805,0 -3.53616,0.5492 -5.21582,1.68897 -0.53068,0.38017 -1.01665,0.67558 -1.37031,0.88673 -0.35378,0.21122 -0.66335,0.38018 -0.9282,0.46469 -0.26534,0.1267 -0.53069,0.16896 -0.75146,0.21121 -0.22111,0.0404 -0.53068,0.0404 -0.79567,0.0404 -0.79561,0 -1.45861,-0.25348 -1.98909,-0.71775 -0.53068,-0.46469 -0.7956,-1.0134 -0.7956,-1.60455 0,-0.50695 0.13266,-1.05557 0.44223,-1.56224 0.30957,-0.50694 0.75145,-1.0134 1.41446,-1.39339 0.61914,-0.42243 1.45869,-0.76007 2.47534,-1.0134 1.01666,-0.25347 2.25429,-0.38017 3.66875,-0.38017 2.78477,0 5.48109,0.59145 8.08903,1.81563 1.85648,0.84449 3.53614,1.98448 5.03905,3.37788 1.50284,1.39339 2.74054,3.08237 3.7572,5.06684 1.01665,2.02679 1.50283,4.18019 1.50283,6.50249 0,4.01127 -1.50283,7.51581 -4.5528,10.47151 -3.53615,3.4623 -8.35422,5.61575 -14.40994,6.46024 l 3.04997,5.9535 h 13.96791 l 2.6521,5.57358 h -16.57579 z"
   id="path16077"
   style="fill:#2d2d2d;stroke-width:4.32016" /></svg>
