<?xml version="1.0" encoding="UTF-8" standalone="no"?>
<!-- Uploaded to: SVG Repo, www.svgrepo.com, Generator: SVG Repo Mixer Tools -->

<svg
   height="800"
   width="600"
   version="1.1"
   id="Layer_1"
   viewBox="0 0 377.8155 503.754"
   xml:space="preserve"
   sodipodi:docname="D5.svg"
   inkscape:version="1.2.2 (b0a8486, 2022-12-01)"
   xmlns:inkscape="http://www.inkscape.org/namespaces/inkscape"
   xmlns:sodipodi="http://sodipodi.sourceforge.net/DTD/sodipodi-0.dtd"
   xmlns="http://www.w3.org/2000/svg"
   xmlns:svg="http://www.w3.org/2000/svg"><defs
   id="defs158529" /><sodipodi:namedview
   id="namedview158527"
   pagecolor="#ffffff"
   bordercolor="#000000"
   borderopacity="0.25"
   inkscape:showpageshadow="2"
   inkscape:pageopacity="0.0"
   inkscape:pagecheckerboard="0"
   inkscape:deskcolor="#d1d1d1"
   showgrid="false"
   inkscape:zoom="0.63194332"
   inkscape:cx="231.03338"
   inkscape:cy="466.02281"
   inkscape:window-width="1390"
   inkscape:window-height="949"
   inkscape:window-x="530"
   inkscape:window-y="25"
   inkscape:window-maximized="0"
   inkscape:current-layer="Layer_1" />

<rect
   x="0.54002064"
   y="0.54002064"
   class="st0"
   width="376.73547"
   height="502.67395"
   id="rect14151"
   style="fill:#ffffff;stroke:#231f20;stroke-width:1.08004;stroke-miterlimit:10" /><polygon
   class="st20"
   points="441.84,56.87 433.7,66.84 441.84,76.44 450.13,66.92 "
   id="polygon15387"
   style="fill:#ea1c24"
   transform="matrix(4.4202211,0,0,4.2223765,-1866.2519,-180.00879)" /><polygon
   class="st20"
   points="464.87,89.55 456.73,99.52 464.87,109.13 473.15,99.6 "
   id="polygon15389"
   style="fill:#ea1c24"
   transform="matrix(4.4202211,0,0,4.2223765,-1866.2519,-180.00879)" /><polygon
   class="st20"
   points="487.95,56.87 479.8,66.84 487.95,76.44 496.23,66.92 "
   id="polygon15391"
   style="fill:#ea1c24"
   transform="matrix(4.4202211,0,0,4.2223765,-1866.2519,-180.00879)" /><polygon
   class="st20"
   points="441.84,128.19 433.7,138.16 441.84,147.77 450.13,138.24 "
   id="polygon15393"
   style="fill:#ea1c24"
   transform="matrix(4.4202211,0,0,4.2223765,-1866.2519,-180.00879)" /><polygon
   class="st20"
   points="487.95,128.19 479.8,138.16 487.95,147.77 496.23,138.24 "
   id="polygon15395"
   style="fill:#ea1c24"
   transform="matrix(4.4202211,0,0,4.2223765,-1866.2519,-180.00879)" /><polygon
   class="st20"
   points="427.97,58.92 425.07,62.47 427.97,65.89 430.92,62.5 "
   id="polygon15993"
   style="fill:#ea1c24"
   transform="matrix(4.4202211,0,0,4.2223765,-1866.2519,-180.00879)" /><polygon
   class="st20"
   points="499.63,146.01 496.73,142.46 499.63,139.04 502.58,142.44 "
   id="polygon15995"
   style="fill:#ea1c24"
   transform="matrix(4.4202211,0,0,4.2223765,-1866.2519,-180.00879)" /><path
   class="st20"
   d="m 39.128669,15.10723 -2.652163,5.573536 H 22.508665 l -3.049968,5.953548 c 6.055711,0.844479 10.873719,2.99789 14.409867,6.460239 3.049968,2.955666 4.552875,6.460233 4.552875,10.471491 0,2.280084 -0.486461,4.433495 -1.502907,6.502464 -0.972431,1.984513 -2.210066,3.673464 -3.757197,5.066852 -1.502837,1.39338 -3.182499,2.533422 -5.039056,3.377901 -2.607871,1.182266 -5.304258,1.815624 -8.088953,1.815624 -1.41446,0 -2.652165,-0.126669 -3.668821,-0.379999 -1.016656,-0.25333 -1.856487,-0.591153 -2.475339,-1.013369 -0.618431,-0.422242 -1.105034,-0.886696 -1.41446,-1.393388 -0.309566,-0.506667 -0.442237,-1.055593 -0.442237,-1.562278 0,-0.591152 0.265343,-1.140041 0.795677,-1.604502 0.530685,-0.464484 1.19348,-0.717805 1.989088,-0.717805 0.309567,0 0.574909,0 0.795607,0.04226 0.22112,0.04226 0.486461,0.08442 0.751454,0.211087 0.265343,0.126669 0.574909,0.25333 0.928278,0.464485 0.35379,0.211154 0.795608,0.506667 1.370236,0.886703 1.679732,1.140035 3.447771,1.688951 5.215881,1.688951 1.326082,0 2.607941,-0.25333 3.801421,-0.760031 1.193411,-0.506667 2.298514,-1.22449 3.226723,-2.111186 0.928279,-0.886703 1.679662,-1.984521 2.210137,-3.166787 0.574909,-1.22449 0.839831,-2.491198 0.839831,-3.884586 0,-2.702319 -0.884055,-5.193524 -2.696318,-7.515832 -1.812334,-2.32231 -4.331827,-4.137933 -7.470171,-5.404648 -2.47534,-0.971145 -5.878887,-1.520054 -10.16656,-1.688951 l 8.928855,-17.269517 h 16.57585 z"
   id="path16027"
   style="fill:#ea1c24;stroke-width:4.32016" /><path
   class="st20"
   d="m 339.21745,489.19564 -8.92885,-17.2695 c 4.33183,-0.16889 7.73544,-0.76002 10.16656,-1.68895 3.13835,-1.26671 5.65784,-3.08233 7.47017,-5.40464 1.81226,-2.32231 2.69632,-4.8135 2.69632,-7.51583 0,-1.39338 -0.26534,-2.66009 -0.83983,-3.88459 -0.57492,-1.22449 -1.28186,-2.28008 -2.21014,-3.16678 -0.9282,-0.8867 -1.98908,-1.6045 -3.22673,-2.11118 -1.19347,-0.50668 -2.47533,-0.76003 -3.80141,-0.76003 -1.76811,0 -3.53616,0.54893 -5.21588,1.68895 -0.53068,0.37997 -1.01666,0.67558 -1.37024,0.8867 -0.35379,0.21114 -0.66336,0.37997 -0.92828,0.46448 -0.26534,0.12664 -0.53069,0.16889 -0.75138,0.21108 -0.22112,0.0424 -0.53068,0.0424 -0.79568,0.0424 -0.79561,0 -1.45868,-0.25333 -1.98909,-0.7178 -0.53068,-0.46448 -0.79567,-1.01337 -0.79567,-1.60451 0,-0.50667 0.13267,-1.05559 0.44224,-1.56227 0.30956,-0.50668 0.75144,-1.01337 1.41453,-1.39338 0.61913,-0.42223 1.45861,-0.76003 2.47526,-1.01338 1.01666,-0.25333 2.25436,-0.37997 3.66882,-0.37997 2.7847,0 5.48109,0.59119 8.08903,1.81562 1.85649,0.84447 3.53615,1.98452 5.03898,3.37791 1.50291,1.39338 2.74055,3.08233 3.7572,5.06685 1.01666,2.02673 1.5029,4.18014 1.5029,6.50245 0,4.01126 -1.5029,7.51583 -4.5528,10.4715 -3.53622,3.46235 -8.35422,5.61576 -14.40994,6.46023 l 3.04997,5.95356 h 13.96785 l 2.65216,5.5735 h -16.57586 z"
   id="path16029"
   style="fill:#ea1c24;stroke-width:4.32016" /></svg>
