<?xml version="1.0" encoding="UTF-8" standalone="no"?>
<!-- Uploaded to: SVG Repo, www.svgrepo.com, Generator: SVG Repo Mixer Tools -->

<svg
   height="800"
   width="600"
   version="1.1"
   id="Layer_1"
   viewBox="0 0 377.8155 503.754"
   xml:space="preserve"
   sodipodi:docname="H5.svg"
   inkscape:version="1.2.2 (b0a8486, 2022-12-01)"
   xmlns:inkscape="http://www.inkscape.org/namespaces/inkscape"
   xmlns:sodipodi="http://sodipodi.sourceforge.net/DTD/sodipodi-0.dtd"
   xmlns="http://www.w3.org/2000/svg"
   xmlns:svg="http://www.w3.org/2000/svg"><defs
   id="defs158529" /><sodipodi:namedview
   id="namedview158527"
   pagecolor="#ffffff"
   bordercolor="#000000"
   borderopacity="0.25"
   inkscape:showpageshadow="2"
   inkscape:pageopacity="0.0"
   inkscape:pagecheckerboard="0"
   inkscape:deskcolor="#d1d1d1"
   showgrid="false"
   inkscape:zoom="0.63194332"
   inkscape:cx="-29.274777"
   inkscape:cy="466.02281"
   inkscape:window-width="1390"
   inkscape:window-height="949"
   inkscape:window-x="530"
   inkscape:window-y="25"
   inkscape:window-maximized="0"
   inkscape:current-layer="Layer_1" />

<rect
   x="0.54002064"
   y="0.54002064"
   class="st0"
   width="376.73547"
   height="502.67395"
   id="rect14189"
   style="fill:#ffffff;stroke:#231f20;stroke-width:1.08004;stroke-miterlimit:10" /><path
   class="st20"
   d="m 358.57793,425.35328 v 0 c 0,0.0845 0,0.16895 0,0.25347 0,4.13794 -3.27103,7.47363 -7.33758,7.47363 -2.78476,0 -5.17165,-1.5623 -6.40936,-3.8846 -1.23763,2.3223 -3.66875,3.8846 -6.40929,3.8846 -4.0224,0 -7.33757,-3.33569 -7.33757,-7.47363 0,-0.0845 0,-0.16896 0,-0.21122 v 0 c 0,-6.50248 5.56946,-12.58272 10.91794,-16.1295 l 2.82892,-1.85782 2.82892,1.85782 c 5.3927,3.5046 10.91802,9.45811 10.91802,15.96059 v 0 c 0,0 0,0.0404 0,0.0404 z"
   id="path15669"
   style="fill:#ea1c24;stroke-width:4.32016" /><path
   class="st20"
   d="m 39.216903,74.178255 v 0 c 0,-0.08451 0,-0.168958 0,-0.253471 0,-4.137875 -3.270947,-7.47357 -7.337571,-7.47357 -2.784695,0 -5.171658,1.562237 -6.409292,3.884605 -1.237704,-2.322368 -3.66882,-3.884605 -6.409362,-3.884605 -4.0224,0 -7.33757,3.335695 -7.33757,7.47357 0,0.08451 0,0.168958 0,0.211215 v 0 c 0,6.502486 5.569531,12.582656 10.918013,16.129439 l 2.828919,1.857884 2.82892,-1.857884 c 5.392706,-3.50454 10.917943,-9.458116 10.917943,-15.960528 v 0 c 0,0 0,-0.04037 0,-0.04037 z"
   id="path15687"
   style="fill:#ea1c24;stroke-width:4.32016" /><path
   class="st20"
   d="m 119.1345,80.131764 v 0 c 0,-0.211215 0,-0.42243 0,-0.632972 0,-10.767083 -8.57521,-19.50738 -19.09535,-19.50738 -7.249121,0 -13.525882,4.095693 -16.752605,10.13369 -3.226793,-6.037997 -9.547706,-10.13369 -16.752674,-10.13369 -10.564292,0 -19.095344,8.740297 -19.095344,19.50738 0,0.211215 0,0.42243 0,0.591456 v 0 c 0,17.016172 14.498316,32.892292 28.510448,42.097062 l 7.33757,4.81352 7.337571,-4.81352 C 104.63618,112.98254 119.1345,97.528668 119.1345,80.554672 v 0 c 0,-0.04037 0,-0.126769 0,-0.168959 z"
   id="path15707"
   style="fill:#ea1c24;stroke-width:4.32016" /><path
   class="st20"
   d="m 325.95663,80.131764 v 0 c 0,-0.211215 0,-0.42243 0,-0.632972 0,-10.767083 -8.57521,-19.50738 -19.09535,-19.50738 -7.24912,0 -13.52588,4.095693 -16.7526,10.13369 -3.22679,-6.037997 -9.54771,-10.13369 -16.75268,-10.13369 -10.5643,0 -19.09535,8.740297 -19.09535,19.50738 0,0.211215 0,0.42243 0,0.591456 v 0 c 0,17.016172 14.49832,32.892292 28.51046,42.097062 l 7.33757,4.81352 7.33757,-4.81352 c 14.01206,-9.20477 28.51038,-24.658642 28.51038,-41.632638 v 0 c 0,-0.04037 0,-0.126769 0,-0.168959 z"
   id="path15709"
   style="fill:#ea1c24;stroke-width:4.32016" /><path
   class="st20"
   d="m 222.43511,236.14859 v 0 c 0,-0.21121 0,-0.42243 0,-0.63297 0,-10.76709 -8.57528,-19.50738 -19.09542,-19.50738 -7.24912,0 -13.52581,4.09569 -16.7526,10.13369 -3.22679,-6.038 -9.54771,-10.13369 -16.75261,-10.13369 -10.56436,0 -19.09542,8.74029 -19.09542,19.50738 0,0.21122 0,0.42243 0,0.59072 v 0 c 0,17.01617 14.4984,32.89235 28.51046,42.09713 l 7.33757,4.81351 7.33757,-4.81351 c 14.01207,-9.20478 28.51045,-24.61647 28.51045,-41.63264 v 0 c 0,-0.0404 0,-0.12677 0,-0.16896 z"
   id="path15715"
   style="fill:#ea1c24;stroke-width:4.32016" /><path
   class="st20"
   d="m 254.2165,426.40885 v 0 c 0,0.21122 0,0.42243 0,0.63365 0,10.76701 8.5752,19.50738 19.09535,19.50738 7.24912,0 13.52588,-4.0957 16.75261,-10.13369 3.22678,6.03799 9.5477,10.13369 16.75267,10.13369 10.56429,0 19.09534,-8.74037 19.09534,-19.50738 0,-0.21122 0,-0.42243 0,-0.59139 v 0 c 0,-17.01617 -14.49831,-32.89229 -28.51044,-42.09707 l -7.33757,-4.81351 -7.33758,4.81351 c -14.01206,9.20478 -28.51038,24.65866 -28.51038,41.63258 v 0 c 0,0.0404 0,0.12677 0,0.16896 z"
   id="path15959"
   style="fill:#ea1c24;stroke-width:4.32016" /><path
   class="st20"
   d="m 47.394304,426.40885 v 0 c 0,0.21122 0,0.42243 0,0.63365 0,10.76701 8.575275,19.50738 19.095343,19.50738 7.249192,0 13.525881,-4.0957 16.752675,-10.13369 3.226722,6.03799 9.547707,10.13369 16.752605,10.13369 10.564363,0 19.095423,-8.74037 19.095423,-19.50738 0,-0.21122 0,-0.42243 0,-0.59139 v 0 c 0,-17.01617 -14.4984,-32.89229 -28.510458,-42.09707 l -7.33757,-4.81351 -7.337571,4.81351 c -14.012132,9.20478 -28.510447,24.65866 -28.510447,41.63258 v 0 c 0,0.0404 0,0.12677 0,0.16896 z"
   id="path15961"
   style="fill:#ea1c24;stroke-width:4.32016" /><path
   class="st20"
   d="m 39.128525,12.489317 -2.652164,5.57351 H 22.50845 l -3.049898,5.953575 c 6.055713,0.844486 10.87372,2.997876 14.409869,6.460239 3.049967,2.955632 4.552874,6.46024 4.552874,10.471511 0,2.280058 -0.486462,4.433448 -1.502907,6.502417 -0.972432,1.984547 -2.210067,3.673451 -3.757197,5.066845 -1.502837,1.393394 -3.18257,2.533456 -5.039057,3.377941 -2.607869,1.18224 -5.304258,1.815637 -8.088953,1.815637 -1.414529,0 -2.652164,-0.126735 -3.66882,-0.3802 -1.016656,-0.253465 -1.856488,-0.59075 -2.47534,-1.013328 -0.619133,-0.422444 -1.105033,-0.88673 -1.41446,-1.393394 -0.309566,-0.506932 -0.442237,-1.05564 -0.442237,-1.562305 0,-0.591422 0.265343,-1.140062 0.795677,-1.604481 0.530686,-0.464687 1.193411,-0.71782 1.989088,-0.71782 0.309567,0 0.57491,0 0.795607,0.04024 0.22112,0.04024 0.486463,0.08449 0.751454,0.211222 0.265343,0.126736 0.57491,0.253464 0.928279,0.464686 0.35379,0.211222 0.795607,0.506929 1.370235,0.886663 1.679662,1.140062 3.447772,1.688971 5.215882,1.688971 1.326082,0 2.60794,-0.253465 3.801351,-0.759997 1.19348,-0.506936 2.298514,-1.224483 3.226792,-2.111213 0.928279,-0.88673 1.679662,-1.984547 2.210137,-3.166787 0.57491,-1.224483 0.839831,-2.491212 0.839831,-3.884606 0,-2.702299 -0.884054,-5.193511 -2.696317,-7.515812 -1.812334,-2.322305 -4.331826,-4.137941 -7.470172,-5.40467 -2.47534,-0.971084 -5.878957,-1.519993 -10.16656,-1.688903 l 8.928855,-17.269504 h 16.575852 z"
   id="path16123"
   style="fill:#ea1c24;stroke-width:4.32016" /><path
   class="st20"
   d="m 339.2173,486.53555 -8.92885,-17.26957 c 4.33183,-0.16896 7.73537,-0.75999 10.16656,-1.6889 3.13835,-1.26673 5.65784,-3.08237 7.47017,-5.40467 1.81227,-2.3223 2.69632,-4.81351 2.69632,-7.51581 0,-1.39339 -0.26534,-2.66013 -0.83983,-3.88461 -0.57491,-1.22448 -1.28186,-2.28005 -2.21014,-3.16679 -0.9282,-0.88666 -1.98908,-1.60448 -3.22671,-2.11121 -1.19349,-0.50694 -2.47535,-0.76 -3.80143,-0.76 -1.76811,0 -3.53615,0.5492 -5.21588,1.68897 -0.53068,0.38018 -1.01666,0.67558 -1.37024,0.88667 -0.35378,0.21121 -0.66336,0.38017 -0.92827,0.46469 -0.26534,0.1267 -0.53069,0.16895 -0.75146,0.21121 -0.22112,0.0404 -0.53068,0.0404 -0.79561,0.0404 -0.79561,0 -1.45868,-0.25347 -1.98909,-0.71781 -0.53068,-0.46469 -0.79567,-1.01334 -0.79567,-1.60449 0,-0.50694 0.13267,-1.05557 0.44224,-1.5623 0.30956,-0.50694 0.75145,-1.01333 1.41446,-1.39339 0.61913,-0.42243 1.45868,-0.76 2.47534,-1.01333 1.01665,-0.25347 2.25436,-0.38018 3.66882,-0.38018 2.7847,0 5.48108,0.59072 8.08895,1.81557 1.85656,0.84449 3.53622,1.98455 5.03905,3.37795 1.50291,1.39339 2.74055,3.08229 3.7572,5.06684 1.01666,2.02673 1.50291,4.18012 1.50291,6.50242 0,4.01127 -1.50291,7.51588 -4.55287,10.47151 -3.53615,3.46236 -8.35416,5.61575 -14.40987,6.46024 l 3.04989,5.95357 h 13.96792 l 2.65216,5.57351 h -16.57585 z"
   id="path16125"
   style="fill:#ea1c24;stroke-width:4.32016" /></svg>
