<?xml version="1.0" encoding="UTF-8" standalone="no"?>
<!-- Uploaded to: SVG Repo, www.svgrepo.com, Generator: SVG Repo Mixer Tools -->

<svg
   height="800"
   width="600"
   version="1.1"
   id="Layer_1"
   viewBox="0 0 377.8155 503.754"
   xml:space="preserve"
   sodipodi:docname="S5.svg"
   inkscape:version="1.2.2 (b0a8486, 2022-12-01)"
   xmlns:inkscape="http://www.inkscape.org/namespaces/inkscape"
   xmlns:sodipodi="http://sodipodi.sourceforge.net/DTD/sodipodi-0.dtd"
   xmlns="http://www.w3.org/2000/svg"
   xmlns:svg="http://www.w3.org/2000/svg"><defs
   id="defs158529" /><sodipodi:namedview
   id="namedview158527"
   pagecolor="#ffffff"
   bordercolor="#000000"
   borderopacity="0.25"
   inkscape:showpageshadow="2"
   inkscape:pageopacity="0.0"
   inkscape:pagecheckerboard="0"
   inkscape:deskcolor="#d1d1d1"
   showgrid="false"
   inkscape:zoom="0.63194332"
   inkscape:cx="401.14357"
   inkscape:cy="424.87988"
   inkscape:window-width="1390"
   inkscape:window-height="949"
   inkscape:window-x="530"
   inkscape:window-y="25"
   inkscape:window-maximized="0"
   inkscape:current-layer="Layer_1" />

<rect
   x="0.54002064"
   y="0.54002064"
   class="st0"
   width="376.73547"
   height="502.67395"
   id="rect14209"
   style="fill:#ffffff;stroke:#231f20;stroke-width:1.08004;stroke-miterlimit:10" /><path
   class="st21"
   d="m 332.54288,415.26194 v 0 c 0,6.20691 5.65789,11.99157 11.09476,15.32727 l 2.82895,1.73114 2.82894,-1.73114 c 5.43687,-3.3357 11.09474,-8.95145 11.09474,-15.15836 v 0 c 0,0 0,-0.0404 0,-0.0404 v -0.0845 0 c 0,-0.0845 0,-0.16896 0,-0.21122 0,-3.92685 -3.31516,-7.09364 -7.42596,-7.09364 -2.12171,0 -3.97821,0.84449 -5.34846,2.15346 0.2652,-1.52006 0.75142,-2.99794 1.59127,-4.34909 l 0.57463,-0.97115 h -2.03331 -2.60793 -2.0333 l 0.57463,0.92897 c 0.83984,1.39333 1.37027,2.87121 1.63549,4.43345 -1.37027,-1.35115 -3.27097,-2.23781 -5.39267,-2.23781 -4.1108,0 -7.42598,3.16678 -7.42598,7.09357 0.0442,0.0845 0.0442,0.16896 0.0442,0.21121 z"
   id="path15805"
   style="fill:#2d2d2d;stroke-width:4.32016" /><path
   class="st21"
   d="m 39.526422,81.229759 v 0 c 0,-6.206913 -5.657881,-11.991578 -11.094754,-15.327205 l -2.82894,-1.731215 -2.82894,1.731215 c -5.436874,3.335627 -11.094754,8.951387 -11.094754,15.158294 v 0 c 0,0 0,0.04037 0,0.04037 v 0.08451 0 c 0,0.08451 0,0.168958 0,0.211215 0,3.926787 3.315163,7.093571 7.425968,7.093571 2.121704,0 3.978198,-0.844483 5.348468,-2.153389 -0.265202,1.520061 -0.751439,2.997872 -1.591277,4.349022 l -0.574628,0.971151 h 2.033298 2.607933 2.033298 l -0.574629,-0.928901 c -0.839837,-1.3934 -1.370264,-2.871211 -1.63548,-4.433515 1.370271,1.351149 3.27096,2.237875 5.392671,2.237875 4.110806,0 7.425969,-3.166784 7.425969,-7.093565 -0.04422,-0.08451 -0.04422,-0.168958 -0.04422,-0.211215 z"
   id="path15821"
   style="fill:#2d2d2d;stroke-width:4.32016" /><path
   class="st21"
   d="m 48.322661,400.99031 v 0 c 0,15.49611 14.144708,29.97889 27.803195,38.38144 l 7.160759,4.39127 7.16076,-4.39127 c 13.658485,-8.40255 27.803185,-22.46309 27.803185,-38.00137 v 0 c 0,-0.0404 0,-0.0845 0,-0.12677 v -0.21122 0 c 0,-0.21121 0,-0.38017 0,-0.59139 0,-9.83811 -8.35422,-17.77616 -18.609129,-17.77616 -5.260061,0 -9.989699,2.11114 -13.393267,5.44684 0.618852,-3.80012 1.944899,-7.51581 3.933994,-10.89375 l 1.458677,-2.44897 h -5.083252 -6.497726 -5.083258 l 1.414474,2.3223 c 2.0775,3.46236 3.447771,7.2203 4.110805,11.14709 -3.403568,-3.42013 -8.177408,-5.57351 -13.525879,-5.57351 -10.299119,0 -18.609134,7.9803 -18.609134,17.77616 -0.04422,0.21122 -0.04422,0.38018 -0.04422,0.5492 z"
   id="path15845"
   style="fill:#2d2d2d;stroke-width:4.32016" /><path
   class="st21"
   d="m 118.20636,102.76386 v 0 c 0,-15.496106 -14.1447,-29.978822 -27.803188,-38.381366 l -7.160759,-4.39127 -7.160759,4.39127 C 62.423173,72.785038 48.278465,86.845512 48.278465,102.38387 v 0 c 0,0.0404 0,0.0845 0,0.1267 v 0.21121 0 c 0,0.21122 0,0.38018 0,0.59139 0,9.83818 8.354213,17.77624 18.609128,17.77624 5.260066,0 9.989703,-2.11122 13.393271,-5.44692 -0.618852,3.80019 -1.944891,7.51588 -3.933994,10.89376 l -1.458676,2.44897 h 5.083258 6.497726 5.083252 l -1.414474,-2.32231 c -2.077501,-3.46236 -3.447772,-7.22023 -4.110806,-11.14708 3.403576,3.42011 8.177415,5.57358 13.525883,5.57358 10.299107,0 18.609127,-7.98031 18.609127,-17.77624 0.0442,-0.21121 0.0442,-0.38017 0.0442,-0.5492 z"
   id="path15847"
   style="fill:#2d2d2d;stroke-width:4.32016" /><path
   class="st21"
   d="m 223.84965,250.08257 v 0 c 0,-15.49611 -14.14471,-29.97883 -27.80319,-38.38137 l -7.16076,-4.39127 -7.16076,4.39127 c -13.65849,8.40254 -27.80319,22.46302 -27.80319,38.00138 v 0 c 0,0.0404 0,0.0845 0,0.1267 v 0.21121 0 c 0,0.21122 0,0.38018 0,0.59146 0,9.83818 8.35422,17.77623 18.60913,17.77623 5.26006,0 9.98971,-2.11121 13.39327,-5.44684 -0.61885,3.80012 -1.9449,7.51582 -3.93399,10.89369 l -1.45868,2.44897 h 5.08325 6.49773 5.08326 l -1.41448,-2.32231 c -2.07749,-3.46229 -3.44777,-7.22023 -4.1108,-11.14708 3.40356,3.42018 8.17741,5.57357 13.52587,5.57357 10.29912,0 18.60914,-7.98029 18.60914,-17.77623 0.0442,-0.16896 0.0442,-0.38017 0.0442,-0.5492 z"
   id="path15849"
   style="fill:#2d2d2d;stroke-width:4.32016" /><path
   class="st21"
   d="m 259.56504,400.99031 v 0 c 0,15.49611 14.1447,29.97889 27.80318,38.38144 l 7.16076,4.39127 7.16077,-4.39127 c 13.65847,-8.40255 27.80318,-22.46309 27.80318,-38.00137 v 0 c 0,-0.0404 0,-0.0845 0,-0.12677 v -0.21122 0 c 0,-0.21121 0,-0.38017 0,-0.59139 0,-9.83811 -8.35422,-17.77616 -18.60913,-17.77616 -5.26006,0 -9.98969,2.11114 -13.39327,5.44684 0.61886,-3.80012 1.9449,-7.51581 3.93399,-10.89375 l 1.45869,-2.44897 h -5.08326 -6.49772 -5.08326 l 1.41447,2.3223 c 2.07751,3.46236 3.44778,7.2203 4.1108,11.14709 -3.40357,-3.42013 -8.1774,-5.57351 -13.52588,-5.57351 -10.2991,0 -18.60912,7.9803 -18.60912,17.77616 -0.0883,0.21122 -0.0442,0.38018 -0.0442,0.5492 z"
   id="path15851"
   style="fill:#2d2d2d;stroke-width:4.32016" /><path
   class="st21"
   d="m 329.44873,102.76386 v 0 c 0,-15.496106 -14.14471,-29.978822 -27.80319,-38.381366 l -7.16076,-4.39127 -7.16076,4.39127 c -13.65848,8.402544 -27.80319,22.463018 -27.80319,38.001376 v 0 c 0,0.0404 0,0.0845 0,0.1267 v 0.21121 0 c 0,0.21122 0,0.38018 0,0.59139 0,9.83818 8.35422,17.77624 18.60914,17.77624 5.26006,0 9.9897,-2.11122 13.39327,-5.44692 -0.61885,3.80019 -1.94491,7.51588 -3.93401,10.89376 l -1.45867,2.44897 h 5.08325 6.49773 5.08326 l -1.41448,-2.32231 c -2.07749,-3.46236 -3.44777,-7.22023 -4.1108,-11.14708 3.40357,3.42011 8.17741,5.57358 13.52587,5.57358 10.29912,0 18.60914,-7.98031 18.60914,-17.77624 0.0442,-0.21121 0.0442,-0.38017 0.0442,-0.5492 z"
   id="path15853"
   style="fill:#2d2d2d;stroke-width:4.32016" /><path
   class="st21"
   d="m 39.128604,11.307185 -2.652129,5.573577 H 22.508572 l -3.049954,5.953508 c 6.055705,0.844485 10.873746,2.997876 14.409923,6.46024 3.049954,2.955698 4.552826,6.460239 4.552826,10.471511 0,2.280056 -0.486251,4.433514 -1.502872,6.502483 -0.972452,1.98448 -2.210108,3.673451 -3.75719,5.066845 -1.502872,1.393395 -3.182555,2.533389 -5.039049,3.377874 -2.607933,1.182307 -5.304265,1.815637 -8.08901,1.815637 -1.414467,0 -2.65213,-0.126735 -3.668778,-0.3802 -1.016656,-0.253465 -1.856494,-0.591422 -2.475325,-1.013396 -0.618853,-0.422444 -1.105055,-0.886663 -1.414474,-1.393394 -0.309426,-0.50693 -0.442028,-1.055574 -0.442028,-1.562238 0,-0.591422 0.265204,-1.140062 0.795644,-1.604549 0.530404,-0.464686 1.193459,-0.717752 1.989094,-0.717752 0.309427,0 0.574629,0 0.795643,0.04024 0.220978,0.04024 0.48625,0.08449 0.751439,0.211221 0.265203,0.126736 0.574629,0.253465 0.928243,0.464687 0.35365,0.211221 0.795642,0.506929 1.370272,0.886729 1.679682,1.140062 3.447771,1.688971 5.215859,1.688971 1.326068,0 2.607926,-0.253464 3.801386,-0.760063 1.193461,-0.50693 2.298522,-1.224484 3.226765,-2.111214 0.928243,-0.886663 1.679683,-1.984481 2.210109,-3.16672 0.574629,-1.22455 0.839845,-2.491211 0.839845,-3.884606 0,-2.702366 -0.884048,-5.193511 -2.696339,-7.515812 -1.812291,-2.32237 -4.331812,-4.137939 -7.470171,-5.404668 -2.475326,-0.971151 -5.878894,-1.520059 -10.16651,-1.68897 L 22.552767,11.34762 h 16.57583 z"
   id="path16191"
   style="fill:#2d2d2d;stroke-width:4.32016" /><path
   class="st21"
   d="m 343.63764,485.35342 -8.92884,-17.26951 c 4.33181,-0.16896 7.73538,-0.76006 10.1665,-1.68897 3.13836,-1.26672 5.65789,-3.08236 7.47018,-5.40466 1.81229,-2.3223 2.69633,-4.81351 2.69633,-7.51581 0,-1.3934 -0.2652,-2.66013 -0.83984,-3.88461 -0.57463,-1.22449 -1.28186,-2.28006 -2.21011,-3.16679 -0.92824,-0.88666 -1.9891,-1.60448 -3.22676,-2.11114 -1.19346,-0.50695 -2.47533,-0.76007 -3.80139,-0.76007 -1.76809,0 -3.53618,0.5492 -5.21586,1.68897 -0.53041,0.38018 -1.01665,0.67557 -1.37028,0.88674 -0.35365,0.21121 -0.663,0.38017 -0.92823,0.46468 -0.26521,0.1267 -0.53041,0.16896 -0.75145,0.21122 -0.22097,0.0404 -0.53041,0.0404 -0.79564,0.0404 -0.79564,0 -1.45867,-0.25347 -1.9891,-0.71775 -0.5304,-0.46469 -0.79564,-1.0134 -0.79564,-1.60455 0,-0.50694 0.1326,-1.05557 0.44203,-1.56224 0.30943,-0.50694 0.75144,-1.01339 1.41447,-1.39339 0.61885,-0.42243 1.45868,-0.76007 2.47533,-1.0134 1.01665,-0.25347 2.25431,-0.38017 3.66879,-0.38017 2.78473,0 5.48107,0.59146 8.08899,1.81564 1.85651,0.84448 3.53619,1.98447 5.03905,3.37787 1.50289,1.3934 2.74055,3.08237 3.7572,5.06685 1.01665,2.02679 1.50287,4.18018 1.50287,6.50248 0,4.01127 -1.50287,7.51581 -4.55282,10.47151 -3.53619,3.4623 -8.35422,5.61576 -14.40992,6.46024 l 3.04994,5.95351 h 13.96791 l 2.65213,5.57358 h -16.57584 z"
   id="path16193"
   style="fill:#2d2d2d;stroke-width:4.32016" /></svg>
