<?xml version="1.0" encoding="UTF-8" standalone="no"?>
<!-- Uploaded to: SVG Repo, www.svgrepo.com, Generator: SVG Repo Mixer Tools -->

<svg
   height="800"
   width="600"
   version="1.1"
   id="Layer_1"
   viewBox="0 0 377.8155 503.754"
   xml:space="preserve"
   sodipodi:docname="C6.svg"
   inkscape:version="1.2.2 (b0a8486, 2022-12-01)"
   xmlns:inkscape="http://www.inkscape.org/namespaces/inkscape"
   xmlns:sodipodi="http://sodipodi.sourceforge.net/DTD/sodipodi-0.dtd"
   xmlns="http://www.w3.org/2000/svg"
   xmlns:svg="http://www.w3.org/2000/svg"><defs
   id="defs158529" /><sodipodi:namedview
   id="namedview158527"
   pagecolor="#ffffff"
   bordercolor="#000000"
   borderopacity="0.25"
   inkscape:showpageshadow="2"
   inkscape:pageopacity="0.0"
   inkscape:pagecheckerboard="0"
   inkscape:deskcolor="#d1d1d1"
   showgrid="false"
   inkscape:zoom="0.63194332"
   inkscape:cx="-29.274777"
   inkscape:cy="466.02281"
   inkscape:window-width="1390"
   inkscape:window-height="949"
   inkscape:window-x="530"
   inkscape:window-y="25"
   inkscape:window-maximized="0"
   inkscape:current-layer="Layer_1" />

<rect
   x="0.54002064"
   y="0.54002064"
   class="st0"
   width="376.73547"
   height="502.67395"
   id="rect14171"
   style="fill:#ffffff;stroke:#231f20;stroke-width:1.08004;stroke-miterlimit:10" /><path
   class="st21"
   d="m 339.08477,423.11541 c -0.22112,0.71781 -0.39802,1.47781 -0.39802,2.28012 0,4.34902 3.66882,7.85356 8.22162,7.85356 4.55281,0 8.22163,-3.50454 8.22163,-7.85356 0,-0.71782 -0.13267,-1.3934 -0.30957,-2.02679 3.93402,-0.59146 6.93977,-3.80012 6.93977,-7.7269 0,-4.3491 -3.66882,-7.85364 -8.22162,-7.85364 -1.72389,0 -3.31518,0.50694 -4.64126,1.35115 0.61914,-1.90006 1.41446,-3.75794 2.38697,-5.53133 l 0.75137,-1.35115 h -9.5034 l 0.22112,0.50695 c 1.01665,2.06897 1.85648,4.22242 2.51955,6.41806 -1.3703,-1.0134 -3.09418,-1.68897 -4.99489,-1.68897 -4.55281,0 -8.22163,3.50454 -8.22163,7.85363 0,4.01127 3.04997,7.22024 7.02822,7.76914 z"
   id="path15511"
   style="fill:#2d2d2d;stroke-width:4.32016" /><path
   class="st21"
   d="m 38.553882,74.684909 c 0.221119,-0.717808 0.398013,-1.477839 0.398013,-2.280085 0,-4.349049 -3.668749,-7.853618 -8.221554,-7.853618 -4.552875,0 -8.221625,3.504569 -8.221625,7.853618 0,0.717808 0.132672,1.393379 0.309566,2.026735 -3.934022,0.591119 -6.939766,3.800139 -6.939766,7.726947 0,4.349056 3.66875,7.853629 8.221624,7.853629 1.723886,0 3.315171,-0.506674 4.641254,-1.351163 -0.619134,1.900073 -1.414531,3.757916 -2.386963,5.531314 l -0.751454,1.351163 h 9.503484 l -0.221119,-0.506673 c -1.016656,-2.068971 -1.856487,-4.222381 -2.519563,-6.418014 1.370306,1.013368 3.094191,1.688953 4.994903,1.688953 4.552804,0 8.221554,-3.50458 8.221554,-7.853623 -0.04212,-3.969037 -3.094121,-7.22026 -7.028144,-7.76917 z"
   id="path15527"
   style="fill:#2d2d2d;stroke-width:4.32016" /><path
   class="st21"
   d="m 103.04495,85.958652 c 0.57491,-1.815621 0.97243,-3.673471 0.97243,-5.657983 0,-10.640388 -9.017229,-19.254037 -20.156221,-19.254037 -11.138921,0 -20.156222,8.613649 -20.156222,19.254037 0,1.731175 0.309567,3.377898 0.751454,4.982405 -9.636085,1.435602 -17.062032,9.331447 -17.062032,18.958466 0,10.6404 9.017232,19.25402 20.156224,19.25402 4.199153,0 8.133175,-1.22448 11.359969,-3.37787 -1.591285,4.6446 -3.491996,9.20479 -5.834734,13.59605 l -1.812263,3.33564 h 23.338723 l -0.57491,-1.18225 c -2.519493,-5.10909 -4.552804,-10.38702 -6.232467,-15.79168 3.403548,2.53345 7.646927,4.09569 12.332399,4.09569 11.13892,0 20.15623,-8.61363 20.15623,-19.25402 0,-9.669244 -7.51439,-17.607312 -17.23886,-18.958468 z"
   id="path15547"
   style="fill:#2d2d2d;stroke-width:4.32016" /><path
   class="st21"
   d="m 313.13803,85.958652 c 0.57491,-1.815621 0.97243,-3.673471 0.97243,-5.657983 0,-10.640388 -9.01723,-19.254037 -20.15615,-19.254037 -11.13899,0 -20.15622,8.613649 -20.15622,19.254037 0,1.731175 0.30956,3.377898 0.75145,4.982405 -9.63608,1.435602 -17.06211,9.331447 -17.06211,18.958466 0,10.6404 9.01724,19.25402 20.15623,19.25402 4.19922,0 8.13317,-1.22448 11.35997,-3.37787 -1.59129,4.6446 -3.492,9.20479 -5.83466,13.59605 l -1.81233,3.33564 h 23.33878 l -0.5749,-1.18225 c -2.51957,-5.10909 -4.55288,-10.38702 -6.23254,-15.79168 3.40355,2.53345 7.647,4.09569 12.3324,4.09569 11.139,0 20.15623,-8.61363 20.15623,-19.25402 0,-9.669244 -7.5144,-17.607312 -17.23886,-18.958468 z"
   id="path15549"
   style="fill:#2d2d2d;stroke-width:4.32016" /><path
   class="st21"
   d="m 103.04495,233.78405 c 0.57491,-1.81563 0.97243,-3.67345 0.97243,-5.658 0,-10.64035 -9.017229,-19.25405 -20.156221,-19.25405 -11.138921,0 -20.156222,8.6137 -20.156222,19.25405 0,1.73122 0.309567,3.37795 0.751454,4.98243 -9.636085,1.43557 -17.062032,9.33145 -17.062032,18.95847 0,10.64036 9.017232,19.25406 20.156224,19.25406 4.199153,0 8.133175,-1.22449 11.359969,-3.37795 -1.591285,4.6446 -3.491996,9.20479 -5.834734,13.59606 l -1.812263,3.33569 h 23.338723 l -0.57491,-1.18223 c -2.519493,-5.1091 -4.552804,-10.3871 -6.232467,-15.79169 3.403548,2.53338 7.646927,4.09569 12.332399,4.09569 11.13892,0 20.15623,-8.6137 20.15623,-19.25405 0,-9.66928 -7.51439,-17.60733 -17.23886,-18.95848 z"
   id="path15555"
   style="fill:#2d2d2d;stroke-width:4.32016" /><path
   class="st21"
   d="m 313.13803,232.72848 c 0.57491,-1.81563 0.97243,-3.67352 0.97243,-5.658 0,-10.64042 -9.01723,-19.25405 -20.15615,-19.25405 -11.13899,0 -20.15622,8.61363 -20.15622,19.25405 0,1.73115 0.30956,3.37787 0.75145,4.98242 -9.63608,1.43558 -17.06211,9.33146 -17.06211,18.95848 0,10.64036 9.01724,19.25398 20.15623,19.25398 4.19922,0 8.13317,-1.22448 11.35997,-3.37787 -1.59129,4.6446 -3.492,9.20478 -5.83466,13.59605 l -1.81233,3.3357 h 23.33878 l -0.5749,-1.18231 c -2.51957,-5.10909 -4.55288,-10.38702 -6.23254,-15.79168 3.40355,2.53345 7.647,4.09569 12.3324,4.09569 11.139,0 20.15623,-8.61363 20.15623,-19.25399 0,-9.66927 -7.5144,-17.60732 -17.23886,-18.95847 z"
   id="path15557"
   style="fill:#2d2d2d;stroke-width:4.32016" /><path
   class="st21"
   d="m 274.77051,418.30189 c -0.5749,1.81564 -0.97242,3.67345 -0.97242,5.658 0,10.64042 9.01723,19.25405 20.15622,19.25405 11.13892,0 20.15615,-8.61363 20.15615,-19.25405 0,-1.73115 -0.30957,-3.37788 -0.75138,-4.98242 9.63602,-1.43557 17.06203,-9.33145 17.06203,-18.95848 0,-10.64035 -9.01723,-19.25399 -20.15622,-19.25399 -4.19923,0 -8.13318,1.22449 -11.35997,3.37788 1.59128,-4.6446 3.49199,-9.20478 5.83466,-13.59606 l 1.81234,-3.33569 h -23.3388 l 0.57491,1.1823 c 2.51956,5.10903 4.55287,10.38703 6.23253,15.7917 -3.40354,-2.53346 -7.64699,-4.0957 -12.33239,-4.0957 -11.139,0 -20.15623,8.61363 -20.15623,19.25398 -0.0421,9.66928 7.47017,17.60733 17.23885,18.95848 z"
   id="path15563"
   style="fill:#2d2d2d;stroke-width:4.32016" /><path
   class="st21"
   d="m 64.67744,418.30189 c -0.57491,1.81564 -0.972503,3.67345 -0.972503,5.658 0,10.64042 9.017301,19.25405 20.156222,19.25405 11.138992,0 20.156221,-8.61363 20.156221,-19.25405 0,-1.73115 -0.30956,-3.37788 -0.75145,-4.98242 9.63608,-1.43557 17.06204,-9.33145 17.06204,-18.95848 0,-10.64035 -9.01724,-19.25399 -20.15616,-19.25399 -4.199226,0 -8.133249,1.22449 -11.359971,3.37788 1.591284,-4.6446 3.491925,-9.20478 5.834663,-13.59606 l 1.812263,-3.33569 H 73.120042 l 0.574909,1.1823 c 2.519493,5.10903 4.552805,10.38703 6.232467,15.7917 -3.403548,-2.53346 -7.646926,-4.0957 -12.332401,-4.0957 -11.138921,0 -20.156223,8.61363 -20.156223,19.25398 -0.04212,9.66928 7.470171,17.60733 17.238926,18.95848 z"
   id="path15565"
   style="fill:#2d2d2d;stroke-width:4.32016" /><path
   class="st21"
   d="m 44.300168,10.462562 v 1.224491 c -1.458684,0.168911 -2.784696,0.379998 -3.933953,0.633328 -1.149257,0.25333 -2.254361,0.591153 -3.271017,1.013376 -1.016656,0.422241 -1.989088,0.971144 -2.917296,1.604502 -0.928279,0.675581 -1.900711,1.477829 -2.961591,2.406756 -0.928208,0.886697 -1.768039,1.815617 -2.519493,2.786768 -0.751453,0.971145 -1.458683,1.984514 -2.077535,3.124556 -0.618431,1.097818 -1.193411,2.322308 -1.679663,3.589023 -0.486461,1.266707 -0.972431,2.660095 -1.370305,4.180148 3.271017,-2.15341 6.586187,-3.251228 9.901357,-3.251228 1.591284,0 3.094121,0.337823 4.508581,0.971145 1.414459,0.633328 2.652164,1.562284 3.757198,2.702326 1.105033,1.182259 1.944934,2.533423 2.563717,4.180149 0.619133,1.604502 0.928278,3.377901 0.928278,5.235749 0,1.984514 -0.353791,3.92681 -1.105033,5.784658 -0.751454,1.857841 -1.76811,3.546791 -3.049968,5.024627 -1.281859,1.477829 -2.873143,2.660096 -4.641252,3.546792 -1.812264,0.886702 -3.801422,1.351163 -5.967265,1.351163 -1.547131,0 -3.005815,-0.25333 -4.331826,-0.76003 -1.326082,-0.506662 -2.519563,-1.182264 -3.624596,-2.068961 -1.105034,-0.886703 -2.033312,-1.900071 -2.873144,-3.082337 -0.839831,-1.182267 -1.502906,-2.448974 -2.077536,-3.800138 -0.574908,-1.351156 -1.016655,-2.744543 -1.281858,-4.222373 -0.265343,-1.435612 -0.442237,-2.913441 -0.442237,-4.349053 0,-4.011258 0.83983,-7.769171 2.475339,-11.31597 1.635508,-3.546791 4.0224,-6.755802 7.160745,-9.54257 2.60794,-2.322301 5.260105,-4.053476 7.956422,-5.235742 2.696319,-1.182266 5.657909,-1.7734 8.884631,-1.7734 h 1.989089 z M 22.950533,33.390065 c -0.398015,2.955665 -0.619133,5.320197 -0.619133,7.135814 0,0.928927 0.08844,1.900072 0.221118,2.955665 0.176896,1.055593 0.398015,2.111187 0.751384,3.166787 0.309566,1.055593 0.751453,2.068962 1.237705,3.040107 0.486462,0.971144 1.060809,1.815623 1.768039,2.575653 0.663357,0.760024 1.458683,1.351157 2.298514,1.773393 0.839901,0.464484 1.812333,0.675581 2.828989,0.675581 0.972433,0 1.944865,-0.211087 2.873144,-0.675581 0.928207,-0.464485 1.723885,-1.140042 2.431115,-2.026738 0.70723,-0.886697 1.281858,-1.984514 1.723886,-3.251229 0.442237,-1.308939 0.662654,-2.744544 0.662654,-4.39127 0,-1.815623 -0.176894,-3.546798 -0.574908,-5.235749 -0.398015,-1.688951 -0.972433,-3.124562 -1.723886,-4.39127 -0.751454,-1.266715 -1.679663,-2.280084 -2.828919,-3.040114 -1.105034,-0.76003 -2.386892,-1.140042 -3.845576,-1.140042 -0.486461,0 -0.928278,0.04226 -1.370306,0.08442 -0.442237,0.08442 -0.928208,0.211154 -1.458683,0.422242 -0.530685,0.211154 -1.149257,0.506666 -1.812263,0.844478 -0.70723,0.379999 -1.547061,0.886697 -2.563717,1.477829 z"
   id="path16079"
   style="fill:#2d2d2d;stroke-width:4.32016" /><path
   class="st21"
   d="m 358.66629,490.16677 c -3.18257,0 -6.14409,-0.59146 -8.84041,-1.7734 -2.69632,-1.18231 -5.34848,-2.9557 -7.95643,-5.23576 -3.09411,-2.78678 -5.48108,-5.95357 -7.16074,-9.5426 -1.67966,-3.54678 -2.47534,-7.3469 -2.47534,-11.31593 0,-1.43564 0.13268,-2.8712 0.44224,-4.34909 0.26534,-1.43557 0.70724,-2.87121 1.28186,-4.22236 0.57491,-1.35115 1.28186,-2.61788 2.07754,-3.80012 0.83983,-1.18224 1.76803,-2.19563 2.87314,-3.08236 1.10503,-0.88666 2.29851,-1.56224 3.6246,-2.06897 1.32601,-0.50694 2.78469,-0.76 4.33175,-0.76 2.16592,0 4.15507,0.46469 5.96733,1.35115 1.81227,0.88673 3.3594,2.06897 4.64126,3.54679 1.28185,1.47788 2.29851,3.16678 3.04989,5.02466 0.75146,1.85782 1.1051,3.80012 1.1051,5.78467 0,1.90006 -0.30956,3.63121 -0.92827,5.23569 -0.61913,1.60454 -1.50283,2.99794 -2.56372,4.18018 -1.10503,1.18224 -2.34273,2.06897 -3.75719,2.7023 -1.41446,0.63365 -2.91738,0.97115 -4.50858,0.97115 -3.31518,0 -6.63035,-1.09782 -9.90136,-3.25121 0.39801,1.52006 0.88405,2.91346 1.37031,4.18012 0.48646,1.26672 1.0608,2.49121 1.67966,3.58903 0.61913,1.09782 1.32607,2.15345 2.07753,3.1246 0.75146,0.97116 1.59129,1.90006 2.5195,2.78673 1.01665,0.97115 1.98908,1.77339 2.96158,2.40679 0.92822,0.67557 1.90064,1.18223 2.9173,1.60448 1.01665,0.42243 2.12176,0.76006 3.27102,1.0134 1.14925,0.25347 2.47527,0.46468 3.93395,0.63297 v 1.22449 h -2.03331 z m -16.79684,-21.49194 c 0.70724,0.38017 1.32609,0.63364 1.81234,0.84449 0.53069,0.21121 1.01665,0.33798 1.45861,0.42243 0.44225,0.0845 0.88406,0.0845 1.37031,0.0845 1.45868,0 2.74055,-0.38017 3.84557,-1.14006 1.10504,-0.76006 2.07754,-1.77339 2.82892,-3.04012 0.75146,-1.26673 1.32609,-2.74454 1.72389,-4.39127 0.39801,-1.68897 0.57491,-3.42012 0.57491,-5.23575 0,-1.64673 -0.22112,-3.0823 -0.66265,-4.39127 -0.44224,-1.30891 -1.01666,-2.36455 -1.7239,-3.25121 -0.70722,-0.88673 -1.54705,-1.56231 -2.43111,-2.02673 -0.92827,-0.46468 -1.90071,-0.67564 -2.87314,-0.67564 -1.01666,0 -1.98908,0.21121 -2.82892,0.67564 -0.83983,0.46469 -1.63551,1.05557 -2.29851,1.7734 -0.66336,0.75999 -1.23771,1.60448 -1.76812,2.57563 -0.48645,0.97115 -0.88405,1.98448 -1.23763,3.04012 -0.30956,1.05557 -0.5749,2.11115 -0.75145,3.16678 -0.17689,1.05558 -0.22112,2.02673 -0.22112,2.95564 0,1.81563 0.22112,4.18018 0.61914,7.13581 1.01665,0.63365 1.85648,1.09782 2.56371,1.47782 z"
   id="path16081"
   style="fill:#2d2d2d;stroke-width:4.32016" /></svg>
