<?xml version="1.0" encoding="UTF-8" standalone="no"?>
<!-- Uploaded to: SVG Repo, www.svgrepo.com, Generator: SVG Repo Mixer Tools -->

<svg
   height="800"
   width="600"
   version="1.1"
   id="Layer_1"
   viewBox="0 0 377.8155 503.754"
   xml:space="preserve"
   sodipodi:docname="D6.svg"
   inkscape:version="1.2.2 (b0a8486, 2022-12-01)"
   xmlns:inkscape="http://www.inkscape.org/namespaces/inkscape"
   xmlns:sodipodi="http://sodipodi.sourceforge.net/DTD/sodipodi-0.dtd"
   xmlns="http://www.w3.org/2000/svg"
   xmlns:svg="http://www.w3.org/2000/svg"><defs
   id="defs158529" /><sodipodi:namedview
   id="namedview158527"
   pagecolor="#ffffff"
   bordercolor="#000000"
   borderopacity="0.25"
   inkscape:showpageshadow="2"
   inkscape:pageopacity="0.0"
   inkscape:pagecheckerboard="0"
   inkscape:deskcolor="#d1d1d1"
   showgrid="false"
   inkscape:zoom="0.63194332"
   inkscape:cx="231.03338"
   inkscape:cy="466.02281"
   inkscape:window-width="1390"
   inkscape:window-height="949"
   inkscape:window-x="530"
   inkscape:window-y="25"
   inkscape:window-maximized="0"
   inkscape:current-layer="Layer_1" />

<rect
   x="0.54002064"
   y="0.54002064"
   class="st0"
   width="376.73547"
   height="502.67395"
   id="rect14153"
   style="fill:#ffffff;stroke:#231f20;stroke-width:1.08004;stroke-miterlimit:10" /><polygon
   class="st20"
   points="538.56,56.87 530.42,66.84 538.56,76.44 546.84,66.92 "
   id="polygon15397"
   style="fill:#ea1c24"
   transform="matrix(4.4202211,0,0,4.2223765,-2293.8643,-180.0088)" /><polygon
   class="st20"
   points="584.67,56.87 576.52,66.84 584.67,76.44 592.95,66.92 "
   id="polygon15399"
   style="fill:#ea1c24"
   transform="matrix(4.4202211,0,0,4.2223765,-2293.8643,-180.0088)" /><polygon
   class="st20"
   points="538.56,128.19 530.42,138.16 538.56,147.77 546.84,138.24 "
   id="polygon15401"
   style="fill:#ea1c24"
   transform="matrix(4.4202211,0,0,4.2223765,-2293.8643,-180.0088)" /><polygon
   class="st20"
   points="538.56,92.53 530.42,102.5 538.56,112.11 546.84,102.58 "
   id="polygon15403"
   style="fill:#ea1c24"
   transform="matrix(4.4202211,0,0,4.2223765,-2293.8643,-180.0088)" /><polygon
   class="st20"
   points="584.67,92.53 576.52,102.5 584.67,112.11 592.95,102.58 "
   id="polygon15405"
   style="fill:#ea1c24"
   transform="matrix(4.4202211,0,0,4.2223765,-2293.8643,-180.0088)" /><polygon
   class="st20"
   points="584.69,128.19 576.55,138.16 584.69,147.77 592.97,138.24 "
   id="polygon15407"
   style="fill:#ea1c24"
   transform="matrix(4.4202211,0,0,4.2223765,-2293.8643,-180.0088)" /><polygon
   class="st20"
   points="525.83,58.92 522.93,62.47 525.83,65.89 528.78,62.5 "
   id="polygon15997"
   style="fill:#ea1c24"
   transform="matrix(4.4202211,0,0,4.2223765,-2293.8643,-180.0088)" /><polygon
   class="st20"
   points="597.49,146.01 594.59,142.46 597.49,139.04 600.44,142.44 "
   id="polygon15999"
   style="fill:#ea1c24"
   transform="matrix(4.4202211,0,0,4.2223765,-2293.8643,-180.0088)" /><path
   class="st20"
   d="m 44.300032,14.642764 v 1.224484 c -1.458683,0.168911 -2.784696,0.379998 -3.933952,0.633328 -1.149258,0.25333 -2.254361,0.591153 -3.271017,1.013376 -1.016656,0.422241 -1.989088,0.971145 -2.917296,1.604502 -0.928279,0.675576 -1.900711,1.477831 -2.961591,2.406752 -0.928208,0.886703 -1.768109,1.815623 -2.519493,2.786768 -0.751453,0.971152 -1.458683,1.98452 -2.077535,3.124562 -0.619134,1.097818 -1.193482,2.322308 -1.679663,3.589023 -0.486461,1.266707 -0.972431,2.660095 -1.370305,4.180148 3.271017,-2.15341 6.586187,-3.251228 9.901357,-3.251228 1.591214,0 3.094121,0.337823 4.508581,0.971145 1.414459,0.633328 2.652164,1.562278 3.757197,2.70232 1.105034,1.182265 1.944865,2.533429 2.563717,4.180156 0.619133,1.604502 0.928279,3.3779 0.928279,5.235748 0,1.984514 -0.353791,3.92681 -1.105104,5.784651 -0.751383,1.857848 -1.768039,3.546799 -3.049897,5.024628 -1.281859,1.477836 -2.873144,2.660102 -4.641253,3.546798 -1.812263,0.886703 -3.801421,1.351163 -5.967334,1.351163 -1.547061,0 -3.005745,-0.25333 -4.331756,-0.76003 -1.326082,-0.506664 -2.519563,-1.182266 -3.624596,-2.068962 -1.105104,-0.886703 -2.033312,-1.900072 -2.873143,-3.082338 -0.839832,-1.182267 -1.502907,-2.448974 -2.077537,-3.800138 -0.574908,-1.351163 -1.016655,-2.744543 -1.281858,-4.22238 -0.265342,-1.435604 -0.442237,-2.913433 -0.442237,-4.349046 0,-4.011258 0.83983,-7.769171 2.475339,-11.315969 1.635508,-3.546792 4.0224,-6.755802 7.160745,-9.542571 2.60794,-2.322308 5.260104,-4.053482 7.956422,-5.235742 2.696319,-1.182266 5.657838,-1.773399 8.884631,-1.773399 h 1.989089 z M 22.950398,37.570267 c -0.398015,2.955665 -0.619133,5.32019 -0.619133,7.135814 0,0.928927 0.08844,1.900072 0.221118,2.955665 0.176896,1.055594 0.398015,2.111186 0.751454,3.16678 0.309567,1.0556 0.751454,2.068969 1.237705,3.040114 0.486462,0.971145 1.060809,1.815623 1.768039,2.575647 0.663357,0.76003 1.458684,1.351163 2.298514,1.773398 0.839831,0.464485 1.812334,0.675582 2.82899,0.675582 0.972432,0 1.944864,-0.211087 2.873142,-0.675582 0.928209,-0.464484 1.723886,-1.140041 2.431116,-2.026738 0.70723,-0.886702 1.281858,-1.98452 1.723886,-3.251228 0.442237,-1.308939 0.662655,-2.744544 0.662655,-4.391277 0,-1.815616 -0.176896,-3.546791 -0.57491,-5.235742 -0.398014,-1.688951 -0.972432,-3.124562 -1.723886,-4.39127 -0.751453,-1.266715 -1.679661,-2.280084 -2.828919,-3.040114 -1.105033,-0.76003 -2.386961,-1.140042 -3.845575,-1.140042 -0.486461,0 -0.928278,0.04226 -1.370305,0.08443 -0.442239,0.08442 -0.928209,0.211087 -1.458684,0.422241 -0.530685,0.211087 -1.149256,0.506667 -1.812263,0.844479 -0.70723,0.422241 -1.54706,0.886696 -2.563716,1.477829 z"
   id="path16031"
   style="fill:#ea1c24;stroke-width:4.32016" /><path
   class="st20"
   d="m 358.66615,494.34696 c -3.18257,0 -6.14409,-0.59119 -8.84041,-1.7734 -2.69638,-1.18227 -5.34848,-2.95566 -7.95642,-5.23575 -3.09412,-2.78676 -5.48108,-5.95355 -7.16074,-9.54257 -1.67966,-3.5468 -2.47534,-7.34693 -2.47534,-11.31597 0,-1.4356 0.13267,-2.87122 0.44224,-4.34905 0.26534,-1.43561 0.70722,-2.87121 1.28185,-4.22237 0.57491,-1.35116 1.28186,-2.61788 2.07754,-3.80014 0.83983,-1.18227 1.76804,-2.19563 2.87314,-3.08233 1.10504,-0.88671 2.29852,-1.56229 3.62453,-2.06897 1.32608,-0.50668 2.78476,-0.76003 4.33183,-0.76003 2.16591,0 4.155,0.46449 5.96733,1.35116 1.81226,0.8867 3.35932,2.06896 4.64125,3.5468 1.28186,1.47783 2.29852,3.16678 3.0499,5.02463 0.75145,1.85784 1.1051,3.80013 1.1051,5.78466 0,1.90006 -0.30956,3.63123 -0.92827,5.23574 -0.61914,1.6045 -1.50285,2.99788 -2.56372,4.18015 -1.10504,1.18227 -2.34275,2.06896 -3.75721,2.70232 -1.41445,0.63331 -2.91736,0.97114 -4.50865,0.97114 -3.31516,0 -6.63026,-1.09781 -9.90128,-3.25122 0.39802,1.52005 0.88406,2.91344 1.3703,4.18015 0.48647,1.26672 1.06082,2.4912 1.67967,3.58902 0.61914,1.09781 1.32608,2.15342 2.07754,3.12456 0.75138,0.97115 1.59128,1.90007 2.51949,2.78677 1.01665,0.97114 1.98909,1.7734 2.96159,2.40676 0.9282,0.67557 1.90064,1.18226 2.91729,1.6045 1.01666,0.42223 2.1217,0.76002 3.27095,1.01337 1.14926,0.25333 2.47534,0.46448 3.93403,0.6333 v 1.22449 h -2.03331 z m -16.79683,-21.4919 c 0.70723,0.37997 1.32609,0.63331 1.81227,0.84447 0.53068,0.21115 1.01665,0.33785 1.45868,0.42223 0.44223,0.0845 0.88405,0.0845 1.37031,0.0845 1.45868,0 2.74053,-0.37998 3.84557,-1.14005 1.10503,-0.76002 2.07753,-1.77339 2.82892,-3.04011 0.75145,-1.26671 1.32608,-2.74454 1.72388,-4.39126 0.39802,-1.68895 0.57491,-3.42013 0.57491,-5.23575 0,-1.64673 -0.22111,-3.08234 -0.66265,-4.39127 -0.44224,-1.30894 -1.01665,-2.36453 -1.72389,-3.25124 -0.70722,-0.8867 -1.54706,-1.56228 -2.43111,-2.02674 -0.92828,-0.46448 -1.90071,-0.67558 -2.87315,-0.67558 -1.01665,0 -1.98909,0.21115 -2.82892,0.67558 -0.8399,0.46449 -1.6355,1.0556 -2.29851,1.77341 -0.66335,0.76003 -1.2377,1.6045 -1.76811,2.57564 -0.48646,0.97115 -0.88405,1.98452 -1.2377,3.04012 -0.30957,1.05559 -0.57492,2.11118 -0.75139,3.16677 -0.1769,1.0556 -0.22112,2.02675 -0.22112,2.95567 0,1.81562 0.22112,4.18015 0.61913,7.13581 1.01666,0.63331 1.85649,1.14004 2.56373,1.47784 z"
   id="path16033"
   style="fill:#ea1c24;stroke-width:4.32016" /></svg>
