<?xml version="1.0" encoding="UTF-8" standalone="no"?>
<!-- Uploaded to: SVG Repo, www.svgrepo.com, Generator: SVG Repo Mixer Tools -->

<svg
   height="800"
   width="600"
   version="1.1"
   id="Layer_1"
   viewBox="0 0 377.8155 503.754"
   xml:space="preserve"
   sodipodi:docname="H6.svg"
   inkscape:version="1.2.2 (b0a8486, 2022-12-01)"
   xmlns:inkscape="http://www.inkscape.org/namespaces/inkscape"
   xmlns:sodipodi="http://sodipodi.sourceforge.net/DTD/sodipodi-0.dtd"
   xmlns="http://www.w3.org/2000/svg"
   xmlns:svg="http://www.w3.org/2000/svg"><defs
   id="defs158529" /><sodipodi:namedview
   id="namedview158527"
   pagecolor="#ffffff"
   bordercolor="#000000"
   borderopacity="0.25"
   inkscape:showpageshadow="2"
   inkscape:pageopacity="0.0"
   inkscape:pagecheckerboard="0"
   inkscape:deskcolor="#d1d1d1"
   showgrid="false"
   inkscape:zoom="0.63194332"
   inkscape:cx="-29.274777"
   inkscape:cy="466.02281"
   inkscape:window-width="1390"
   inkscape:window-height="949"
   inkscape:window-x="530"
   inkscape:window-y="25"
   inkscape:window-maximized="0"
   inkscape:current-layer="Layer_1" />

<rect
   x="0.54002064"
   y="0.54002064"
   class="st0"
   width="376.73547"
   height="502.67395"
   id="rect14191"
   style="fill:#ffffff;stroke:#231f20;stroke-width:1.08004;stroke-miterlimit:10" /><path
   class="st20"
   d="m 360.61111,425.35331 v 0 c 0,0.0845 0,0.16896 0,0.25347 0,4.13794 -3.27095,7.47364 -7.33757,7.47364 -2.78469,0 -5.17166,-1.56231 -6.40929,-3.88461 -1.2377,2.3223 -3.66882,3.88461 -6.40937,3.88461 -4.02239,0 -7.33757,-3.3357 -7.33757,-7.47364 0,-0.0845 0,-0.16896 0,-0.21121 v 0 c 0,-6.50248 5.56954,-12.58273 10.91802,-16.12951 l 2.82892,-1.85782 2.82892,1.85782 c 5.3927,3.50461 10.91794,9.45812 10.91794,15.96059 v 0 c 0,0 0,0.0404 0,0.0404 z"
   id="path15671"
   style="fill:#ea1c24;stroke-width:4.32016" /><path
   class="st20"
   d="m 44.255898,74.178222 v 0 c 0,-0.08451 0,-0.168959 0,-0.253472 0,-4.137942 -3.270946,-7.47357 -7.33757,-7.47357 -2.784766,0 -5.171658,1.562237 -6.409292,3.884538 -1.237704,-2.322301 -3.66882,-3.884538 -6.409362,-3.884538 -4.0224,0 -7.337571,3.335628 -7.337571,7.47357 0,0.08451 0,0.168959 0,0.211215 v 0 c 0,6.502419 5.569461,12.582657 10.917943,16.129439 l 2.82899,1.857884 2.828919,-1.857884 c 5.392636,-3.504539 10.917943,-9.458115 10.917943,-15.960527 v 0 c 0,0 0,-0.04037 0,-0.04037 z"
   id="path15689"
   style="fill:#ea1c24;stroke-width:4.32016" /><path
   class="st20"
   d="m 119.13444,80.131798 v 0 c 0,-0.211215 0,-0.42243 0,-0.632972 0,-10.767083 -8.5752,-19.507381 -19.09534,-19.507381 -7.249198,0 -13.525888,4.095693 -16.752681,10.133691 -3.226722,-6.038025 -9.547637,-10.133718 -16.752608,-10.133718 -10.564363,0 -19.095344,8.740298 -19.095344,19.507381 0,0.211215 0,0.42243 0,0.591456 v 0 c 0,17.016239 14.498315,32.892355 28.510452,42.097135 l 7.3375,4.81351 7.33757,-4.81351 C 104.63613,112.98258 119.13444,97.528641 119.13444,80.554712 v 0 c 0,-0.04037 0,-0.126702 0,-0.168958 z"
   id="path15717"
   style="fill:#ea1c24;stroke-width:4.32016" /><path
   class="st20"
   d="m 330.37685,80.131798 v 0 c 0,-0.211215 0,-0.42243 0,-0.632972 0,-10.767083 -8.57528,-19.507381 -19.09542,-19.507381 -7.24912,0 -13.52589,4.095693 -16.7526,10.133691 -3.22679,-6.037998 -9.54771,-10.133691 -16.75268,-10.133691 -10.5643,0 -19.09535,8.740298 -19.09535,19.507381 0,0.211215 0,0.42243 0,0.591456 v 0 c 0,17.016238 14.49832,32.892358 28.51045,42.097128 l 7.33758,4.81352 7.33757,-4.81352 c 14.01206,-9.20477 28.51045,-24.658709 28.51045,-41.632637 v 0 c 0,-0.04037 0,-0.126702 0,-0.168959 z"
   id="path15719"
   style="fill:#ea1c24;stroke-width:4.32016" /><path
   class="st20"
   d="m 119.13444,239.90656 v 0 c 0,-0.21121 0,-0.42243 0,-0.63364 0,-10.76702 -8.5752,-19.50738 -19.09534,-19.50738 -7.249198,0 -13.525888,4.09569 -16.752681,10.13368 -3.226722,-6.03799 -9.547637,-10.13368 -16.752608,-10.13368 -10.564363,0 -19.095344,8.74036 -19.095344,19.50738 0,0.21121 0,0.42243 0,0.59145 v 0 c 0,17.01618 14.498315,32.89229 28.510452,42.09707 l 7.3375,4.81351 7.33757,-4.81351 c 14.012141,-9.20478 28.510451,-24.65865 28.510451,-41.63265 v 0 c 0,-0.0404 0,-0.1267 0,-0.16896 z"
   id="path15721"
   style="fill:#ea1c24;stroke-width:4.32016" /><path
   class="st20"
   d="m 330.37685,239.90656 v 0 c 0,-0.21121 0,-0.42243 0,-0.63364 0,-10.76702 -8.57528,-19.50738 -19.09542,-19.50738 -7.24912,0 -13.52589,4.09569 -16.7526,10.13368 -3.22679,-6.03799 -9.54771,-10.13368 -16.75268,-10.13368 -10.5643,0 -19.09535,8.74036 -19.09535,19.50738 0,0.21121 0,0.42243 0,0.59145 v 0 c 0,17.01618 14.49832,32.89229 28.51045,42.09707 l 7.33758,4.81351 7.33757,-4.81351 c 14.01206,-9.20478 28.51045,-24.65865 28.51045,-41.63265 v 0 c 0,-0.0404 0,-0.1267 0,-0.16896 z"
   id="path15723"
   style="fill:#ea1c24;stroke-width:4.32016" /><path
   class="st20"
   d="m 258.63665,426.40889 v 0 c 0,0.21121 0,0.42243 0,0.63364 0,10.76702 8.5752,19.50739 19.09535,19.50739 7.24912,0 13.52587,-4.09576 16.7526,-10.13377 3.22679,6.03801 9.54771,10.13377 16.75268,10.13377 10.56429,0 19.09534,-8.74037 19.09534,-19.50739 0,-0.21121 0,-0.42243 0,-0.59139 v 0 c 0,-17.01617 -14.49832,-32.89228 -28.51045,-42.09706 l -7.33757,-4.81352 -7.33757,4.81352 c -14.01207,9.20478 -28.51038,24.65864 -28.51038,41.63257 v 0 c 0,0.0404 0,0.1267 0,0.16896 z"
   id="path15955"
   style="fill:#ea1c24;stroke-width:4.32016" /><path
   class="st20"
   d="m 47.438467,426.40889 v 0 c 0,0.21121 0,0.42243 0,0.63364 0,10.76702 8.575205,19.50739 19.095344,19.50739 7.249195,0 13.525886,-4.09576 16.752608,-10.13377 3.226793,6.03801 9.547707,10.13377 16.752681,10.13377 10.56429,0 19.09534,-8.74037 19.09534,-19.50739 0,-0.21121 0,-0.42243 0,-0.59139 v 0 c 0,-17.01617 -14.49831,-32.89228 -28.510451,-42.09706 l -7.33757,-4.81352 -7.3375,4.81352 c -14.012137,9.20478 -28.510452,24.65864 -28.510452,41.63257 v 0 c 0,0.0404 0,0.1267 0,0.16896 z"
   id="path15957"
   style="fill:#ea1c24;stroke-width:4.32016" /><path
   class="st20"
   d="m 44.300122,12.024863 v 1.224484 c -1.458684,0.168979 -2.784766,0.380201 -3.934023,0.633665 -1.149257,0.253465 -2.254291,0.590749 -3.270947,1.013329 -1.016656,0.422443 -1.989087,0.971152 -2.917366,1.604549 -0.928209,0.675575 -1.900711,1.477816 -2.961521,2.406723 -0.928277,0.88673 -1.768109,1.815637 -2.519563,2.786788 -0.751453,0.971151 -1.458682,1.98448 -2.077465,3.124542 -0.619133,1.097818 -1.193481,2.322301 -1.679732,3.58903 -0.486462,1.266727 -0.972432,2.660055 -1.370236,4.180115 3.270947,-2.153391 6.586117,-3.251208 9.901287,-3.251208 1.591284,0 3.094121,0.337957 4.508652,0.971151 1.414458,0.632992 2.652093,1.562305 3.757197,2.702299 1.105033,1.182307 1.944864,2.533457 2.563717,4.180183 0.618431,1.604482 0.928208,3.335697 0.928208,5.235755 0,1.984481 -0.353791,3.926784 -1.105033,5.784665 -0.751454,1.857814 -1.76811,3.546785 -3.049968,5.024601 -1.281859,1.477816 -2.873143,2.660122 -4.641252,3.546785 -1.812263,0.88673 -3.801352,1.35115 -5.967265,1.35115 -1.547061,0 -3.005744,-0.253465 -4.331826,-0.759997 C 24.806904,56.86654 23.613493,56.191166 22.50839,55.304503 21.403357,54.417774 20.475078,53.404445 19.635247,52.222139 18.795415,51.0399 18.13241,49.773171 17.557781,48.422022 c -0.574909,-1.35115 -1.016656,-2.744544 -1.281859,-4.22236 -0.265341,-1.435639 -0.442237,-2.913454 -0.442237,-4.349093 0,-4.011205 0.839831,-7.769145 2.475269,-11.31593 1.635508,-3.546784 4.0224,-6.755815 7.160815,-9.542603 2.607941,-2.322302 5.260035,-4.05345 7.956352,-5.235689 2.696389,-1.182307 5.65791,-1.77346 8.884702,-1.77346 h 1.989088 z M 22.950417,34.952366 c -0.398014,2.955699 -0.619133,5.320178 -0.619133,7.135814 0,0.928907 0.08844,1.900059 0.221119,2.955699 0.176895,1.055573 0.398014,2.111146 0.751453,3.166786 0.309566,1.055574 0.751454,2.068969 1.237634,3.040054 0.486463,0.971151 1.06088,1.815637 1.76811,2.5757 0.662656,0.759997 1.458684,1.35115 2.298514,1.773393 0.839832,0.464686 1.812264,0.675575 2.82892,0.675575 0.972431,0 1.944934,-0.211222 2.873143,-0.675575 0.928278,-0.464686 1.723886,-1.140062 2.431115,-2.026725 0.70723,-0.88673 1.281858,-1.984547 1.723886,-3.251275 0.442238,-1.308905 0.663356,-2.744544 0.663356,-4.391271 0,-1.815636 -0.176894,-3.546784 -0.574909,-5.235755 -0.398014,-1.688903 -0.972502,-3.124542 -1.723885,-4.39127 -0.751454,-1.266661 -1.679733,-2.280057 -2.828989,-3.040121 -1.105034,-0.759996 -2.386892,-1.139994 -3.845576,-1.139994 -0.486461,0 -0.928208,0.04024 -1.370235,0.08449 -0.442238,0.08449 -0.928279,0.211221 -1.458684,0.422443 -0.530685,0.211222 -1.149257,0.506929 -1.812333,0.844486 -0.70723,0.422443 -1.547061,0.886662 -2.563717,1.477816 z"
   id="path16127"
   style="fill:#ea1c24;stroke-width:4.32016" /><path
   class="st20"
   d="m 358.66625,491.7291 c -3.18258,0 -6.14416,-0.59146 -8.84049,-1.77339 -2.69631,-1.18232 -5.34848,-2.95571 -7.95635,-5.23577 -3.09419,-2.78678 -5.48108,-5.95356 -7.16081,-9.5426 -1.67966,-3.54678 -2.47527,-7.3469 -2.47527,-11.31593 0,-1.43563 0.13268,-2.87127 0.44224,-4.34909 0.26534,-1.43557 0.70723,-2.87121 1.28185,-4.22236 0.57492,-1.35115 1.28187,-2.61787 2.07748,-3.80012 0.83983,-1.1823 1.7681,-2.19563 2.87314,-3.08236 1.10503,-0.88666 2.29851,-1.56231 3.6246,-2.06897 1.32607,-0.50694 2.78476,-0.76 4.33182,-0.76 2.16592,0 4.155,0.46469 5.96726,1.35115 1.81233,0.88666 3.3594,2.06897 4.64125,3.54679 1.28186,1.47782 2.29852,3.16679 3.04997,5.0246 0.75146,1.85788 1.10503,3.80018 1.10503,5.78466 0,1.90006 -0.30956,3.63128 -0.9282,5.23576 -0.61913,1.60455 -1.5029,2.99788 -2.56379,4.18018 -1.10503,1.18224 -2.34266,2.06897 -3.75712,2.7023 -1.41453,0.63297 -2.91738,0.97115 -4.50865,0.97115 -3.31518,0 -6.63035,-1.09782 -9.90129,-3.25121 0.39801,1.52006 0.88405,2.91339 1.37023,4.18012 0.48646,1.26673 1.06088,2.49121 1.67973,3.58903 0.61843,1.09782 1.32601,2.15339 2.07747,3.12454 0.75145,0.97115 1.59128,1.90012 2.51957,2.78679 1.01665,0.97115 1.98908,1.77339 2.96151,2.40679 0.92828,0.67558 1.90071,1.18224 2.91736,1.60448 1.01666,0.42243 2.1217,0.76 3.27096,1.01333 1.14925,0.25347 2.47534,0.46469 3.93402,0.63365 v 1.22448 h -2.03331 z m -16.79684,-21.49194 c 0.70724,0.38017 1.32602,0.63365 1.81227,0.84449 0.53069,0.21122 1.01665,0.33792 1.45868,0.42243 0.44224,0.0845 0.88406,0.0845 1.37024,0.0845 1.45868,0 2.74054,-0.38017 3.84564,-1.13999 1.10504,-0.76007 2.07747,-1.77339 2.82892,-3.04012 0.75146,-1.26673 1.32609,-2.74455 1.72388,-4.39127 0.39802,-1.68897 0.57491,-3.42012 0.57491,-5.23575 0,-1.64673 -0.22111,-3.08237 -0.66335,-4.39128 -0.44224,-1.30897 -1.01659,-2.36454 -1.72388,-3.25121 -0.70724,-0.88672 -1.54707,-1.5623 -2.43112,-2.02678 -0.92821,-0.46469 -1.90064,-0.67558 -2.87315,-0.67558 -1.01665,0 -1.98908,0.21121 -2.82891,0.67558 -0.83984,0.46468 -1.63551,1.05563 -2.29852,1.77339 -0.66265,0.76006 -1.23763,1.60454 -1.7681,2.5757 -0.48647,0.97115 -0.88406,1.98448 -1.23765,3.04005 -0.30956,1.05564 -0.5749,2.11121 -0.75144,3.16678 -0.1769,1.05565 -0.22112,2.0268 -0.22112,2.95571 0,1.81563 0.22112,4.18011 0.61913,7.13581 1.01666,0.63297 1.85656,1.14007 2.56378,1.47781 z"
   id="path16129"
   style="fill:#ea1c24;stroke-width:4.32016" /></svg>
