<?xml version="1.0" encoding="UTF-8" standalone="no"?>
<!-- Uploaded to: SVG Repo, www.svgrepo.com, Generator: SVG Repo Mixer Tools -->

<svg
   height="800"
   width="600"
   version="1.1"
   id="Layer_1"
   viewBox="0 0 377.8155 503.754"
   xml:space="preserve"
   sodipodi:docname="S6.svg"
   inkscape:version="1.2.2 (b0a8486, 2022-12-01)"
   xmlns:inkscape="http://www.inkscape.org/namespaces/inkscape"
   xmlns:sodipodi="http://sodipodi.sourceforge.net/DTD/sodipodi-0.dtd"
   xmlns="http://www.w3.org/2000/svg"
   xmlns:svg="http://www.w3.org/2000/svg"><defs
   id="defs158529" /><sodipodi:namedview
   id="namedview158527"
   pagecolor="#ffffff"
   bordercolor="#000000"
   borderopacity="0.25"
   inkscape:showpageshadow="2"
   inkscape:pageopacity="0.0"
   inkscape:pagecheckerboard="0"
   inkscape:deskcolor="#d1d1d1"
   showgrid="false"
   inkscape:zoom="0.63194332"
   inkscape:cx="401.14357"
   inkscape:cy="424.87988"
   inkscape:window-width="1390"
   inkscape:window-height="949"
   inkscape:window-x="530"
   inkscape:window-y="25"
   inkscape:window-maximized="0"
   inkscape:current-layer="Layer_1" />

<rect
   x="0.54002064"
   y="0.54002064"
   class="st0"
   width="376.73547"
   height="502.67395"
   id="rect14211"
   style="fill:#ffffff;stroke:#231f20;stroke-width:1.08004;stroke-miterlimit:10" /><path
   class="st21"
   d="m 336.03478,415.26193 v 0 c 0,6.20691 5.65787,11.99157 11.09475,15.32727 l 2.82894,1.73115 2.82894,-1.73115 c 5.43687,-3.3357 11.09476,-8.95145 11.09476,-15.15836 v 0 c 0,0 0,-0.0404 0,-0.0404 v -0.0845 0 c 0,-0.0845 0,-0.16896 0,-0.21122 0,-3.92684 -3.31517,-7.09363 -7.42598,-7.09363 -2.1217,0 -3.97819,0.84448 -5.34846,2.15345 0.2652,-1.52005 0.75143,-2.99794 1.59128,-4.34909 l 0.57462,-0.97115 h -2.0333 -2.60793 -2.03329 l 0.57462,0.92898 c 0.83984,1.39332 1.37026,2.87121 1.63548,4.43344 -1.37027,-1.35115 -3.27096,-2.23781 -5.39267,-2.23781 -4.1108,0 -7.42597,3.16678 -7.42597,7.09357 0.0442,0.0845 0.0442,0.16896 0.0442,0.21122 z"
   id="path15807"
   style="fill:#2d2d2d;stroke-width:4.32016" /><path
   class="st21"
   d="m 44.476986,81.229752 v 0 c 0,-6.206913 -5.65788,-11.991578 -11.094754,-15.327206 l -2.828939,-1.731215 -2.828941,1.731215 c -5.436874,3.335628 -11.094754,8.951389 -11.094754,15.158295 v 0 c 0,0 0,0.04037 0,0.04037 v 0.08451 0 c 0,0.08451 0,0.168959 0,0.211215 0,3.926788 3.315164,7.093572 7.425969,7.093572 2.121703,0 3.978197,-0.844483 5.348468,-2.15339 -0.265202,1.520061 -0.75144,2.997872 -1.591277,4.349022 l -0.57463,0.971151 h 2.033298 2.607934 2.033298 L 33.338029,90.72839 c -0.839838,-1.3934 -1.370263,-2.871211 -1.63548,-4.433515 1.370271,1.35115 3.270968,2.237876 5.392671,2.237876 4.110805,0 7.425969,-3.166784 7.425969,-7.093565 -0.04422,-0.08451 -0.04422,-0.168959 -0.04422,-0.211215 z"
   id="path15823"
   style="fill:#2d2d2d;stroke-width:4.32016" /><path
   class="st21"
   d="m 48.322582,400.9903 v 0 c 0,15.49611 14.144707,29.9789 27.80319,38.38144 l 7.160759,4.39127 7.160752,-4.39127 c 13.658487,-8.40254 27.803187,-22.46308 27.803187,-38.00137 v 0 c 0,-0.0404 0,-0.0845 0,-0.12677 v -0.21121 0 c 0,-0.21122 0,-0.38018 0,-0.59146 0,-9.83811 -8.35422,-17.77617 -18.609122,-17.77617 -5.260063,0 -9.9897,2.11115 -13.393268,5.44684 0.618852,-3.80011 1.944891,-7.5158 3.933994,-10.89375 l 1.458669,-2.44897 h -5.083251 -6.497726 -5.083252 l 1.414467,2.3223 c 2.077508,3.46237 3.447772,7.22031 4.110806,11.14709 -3.403569,-3.42012 -8.177408,-5.57351 -13.525874,-5.57351 -10.299112,0 -18.609128,7.98031 -18.609128,17.77617 -0.04422,0.21121 -0.04422,0.38017 -0.04422,0.5492 z"
   id="path15855"
   style="fill:#2d2d2d;stroke-width:4.32016" /><path
   class="st21"
   d="m 118.25047,102.76386 v 0 c 0,-15.496113 -14.1447,-29.978829 -27.803187,-38.381374 l -7.160752,-4.39127 -7.160759,4.39127 c -13.658483,8.402545 -27.80319,22.46302 -27.80319,38.001374 v 0 c 0,0.0404 0,0.0845 0,0.1267 v 0.21122 0 c 0,0.21121 0,0.38017 0,0.59071 0,9.83818 8.354219,17.77624 18.609128,17.77624 5.26006,0 9.989697,-2.11122 13.393272,-5.44691 -0.618852,3.80018 -1.944898,7.51588 -3.934001,10.89375 l -1.458669,2.44897 h 5.083251 6.497726 5.083252 l -1.414467,-2.32223 c -2.077508,-3.46236 -3.447771,-7.22024 -4.110805,-11.14709 3.403569,3.42012 8.177408,5.57358 13.525876,5.57358 10.299105,0 18.609125,-7.9803 18.609125,-17.77623 0.0442,-0.21122 0.0442,-0.38018 0.0442,-0.5492 z"
   id="path15857"
   style="fill:#2d2d2d;stroke-width:4.32016" /><path
   class="st21"
   d="m 259.56495,400.9903 v 0 c 0,15.49611 14.1447,29.9789 27.80318,38.38144 l 7.16076,4.39127 7.16077,-4.39127 c 13.65848,-8.40254 27.80318,-22.46308 27.80318,-38.00137 v 0 c 0,-0.0404 0,-0.0845 0,-0.12677 v -0.21121 0 c 0,-0.21122 0,-0.38018 0,-0.59146 0,-9.83811 -8.35422,-17.77617 -18.60913,-17.77617 -5.26006,0 -9.9897,2.11115 -13.39327,5.44684 0.61885,-3.80011 1.94491,-7.5158 3.93399,-10.89375 l 1.45869,-2.44897 h -5.08325 -6.49773 -5.08326 l 1.41448,2.3223 c 2.07749,3.46237 3.44777,7.22031 4.1108,11.14709 -3.40357,-3.42012 -8.17741,-5.57351 -13.52588,-5.57351 -10.29911,0 -18.60913,7.98031 -18.60913,17.77617 -0.0442,0.21121 -0.0442,0.38017 -0.0442,0.5492 z"
   id="path15859"
   style="fill:#2d2d2d;stroke-width:4.32016" /><path
   class="st21"
   d="m 329.44864,102.76386 v 0 c 0,-15.496113 -14.1447,-29.978829 -27.80319,-38.381374 l -7.16076,-4.39127 -7.16076,4.39127 c -13.65847,8.402545 -27.80319,22.46302 -27.80319,38.001374 v 0 c 0,0.0404 0,0.0845 0,0.1267 v 0.21122 0 c 0,0.21121 0,0.38017 0,0.59071 0,9.83818 8.35422,17.77624 18.60914,17.77624 5.26006,0 9.9897,-2.11122 13.39327,-5.44691 -0.61886,3.80018 -1.9449,7.51588 -3.934,10.89375 l -1.45868,2.44897 h 5.08326 6.49773 5.08325 l -1.41447,-2.3223 c -2.07751,-3.46237 -3.44778,-7.22024 -4.11081,-11.14709 3.40358,3.42012 8.17741,5.57358 13.52589,5.57358 10.2991,0 18.60912,-7.9803 18.60912,-17.77624 0.0442,-0.21121 0.0442,-0.38017 0.0442,-0.5492 z"
   id="path15861"
   style="fill:#2d2d2d;stroke-width:4.32016" /><path
   class="st21"
   d="m 118.25047,250.08257 v 0 c 0,-15.49612 -14.1447,-29.97884 -27.803187,-38.38137 l -7.160752,-4.39128 -7.160759,4.39128 c -13.658483,8.40253 -27.80319,22.46301 -27.80319,38.00137 v 0 c 0,0.0404 0,0.0845 0,0.1267 v 0.21122 0 c 0,0.21121 0,0.38017 0,0.59138 0,9.83819 8.354219,17.77624 18.609128,17.77624 5.26006,0 9.989697,-2.11121 13.393272,-5.44684 -0.618852,3.80012 -1.944898,7.51581 -3.934001,10.89368 l -1.458669,2.44897 h 5.083251 6.497726 5.083252 l -1.414467,-2.32223 c -2.077508,-3.4623 -3.447771,-7.22023 -4.110805,-11.14709 3.403569,3.42019 8.177408,5.57358 13.525876,5.57358 10.299105,0 18.609125,-7.9803 18.609125,-17.77624 0.0442,-0.16896 0.0442,-0.38017 0.0442,-0.5492 z"
   id="path15863"
   style="fill:#2d2d2d;stroke-width:4.32016" /><path
   class="st21"
   d="m 329.44864,250.08257 v 0 c 0,-15.49612 -14.1447,-29.97884 -27.80319,-38.38137 l -7.16076,-4.39128 -7.16076,4.39128 c -13.65847,8.40253 -27.80319,22.46301 -27.80319,38.00137 v 0 c 0,0.0404 0,0.0845 0,0.1267 v 0.21122 0 c 0,0.21121 0,0.38017 0,0.59138 0,9.83819 8.35422,17.77624 18.60914,17.77624 5.26006,0 9.9897,-2.11121 13.39327,-5.44684 -0.61886,3.80012 -1.9449,7.51581 -3.934,10.89368 l -1.45868,2.44897 h 5.08326 6.49773 5.08325 l -1.41447,-2.3223 c -2.07751,-3.4623 -3.44778,-7.22023 -4.11081,-11.14709 3.40358,3.42019 8.17741,5.57358 13.52589,5.57358 10.2991,0 18.60912,-7.9803 18.60912,-17.77624 0.0442,-0.16895 0.0442,-0.38017 0.0442,-0.54919 z"
   id="path15865"
   style="fill:#2d2d2d;stroke-width:4.32016" /><path
   class="st21"
   d="m 44.300182,10.84273 v 1.224491 c -1.458676,0.168912 -2.784744,0.379999 -3.934002,0.633329 -1.149256,0.25333 -2.254311,0.591153 -3.27096,1.013368 -1.016649,0.422242 -1.989103,0.971152 -2.917345,1.604503 -0.928251,0.675583 -1.900698,1.477838 -2.961549,2.406758 -0.928244,0.886703 -1.768089,1.815624 -2.519528,2.786768 -0.75144,0.971152 -1.45867,1.984521 -2.077501,3.124563 -0.618851,1.097817 -1.19346,2.322308 -1.679683,3.589016 -0.48625,1.266714 -0.972452,2.660101 -1.37027,4.180155 3.27096,-2.153411 6.58613,-3.251228 9.901294,-3.251228 1.591277,0 3.094156,0.337823 4.508623,0.971144 1.414473,0.633329 2.652136,1.562278 3.757191,2.70232 1.105054,1.182266 1.944898,2.533429 2.56373,4.180156 0.618852,1.604502 0.928243,3.377901 0.928243,5.235742 0,1.98452 -0.353579,3.92681 -1.105054,5.784658 -0.751439,1.857847 -1.768088,3.546798 -3.049954,5.024627 -1.281865,1.477836 -2.873142,2.660115 -4.641231,3.546845 -1.812291,0.886663 -3.801386,1.35115 -5.9673,1.35115 -1.547074,0 -3.005751,-0.253465 -4.331812,-0.760064 -1.326068,-0.506932 -2.519528,-1.182239 -3.624582,-2.068969 -1.105055,-0.886696 -2.033305,-1.900065 -2.873142,-3.082331 -0.839846,-1.182266 -1.502879,-2.44898 -2.077509,-3.800137 -0.574628,-1.351163 -1.016649,-2.744544 -1.281865,-4.22238 -0.265202,-1.435605 -0.442027,-2.913441 -0.442027,-4.349046 0,-4.011259 0.839845,-7.769171 2.475325,-11.31597 1.635481,-3.546798 4.0224,-6.755802 7.16076,-9.54257 2.607926,-2.322308 5.260062,-4.053483 7.956394,-5.235749 2.696338,-1.182266 5.657887,-1.773393 8.884645,-1.773393 h 1.989102 z M 22.950513,33.77024 c -0.397804,2.955658 -0.618853,5.320191 -0.618853,7.135814 0,0.928921 0.08837,1.900072 0.220979,2.955666 0.176825,1.055593 0.397804,2.111186 0.751432,3.16678 0.309426,1.055592 0.75144,2.068962 1.237663,3.040113 0.486251,0.971145 1.060851,1.815624 1.768088,2.575647 0.663007,0.76003 1.458677,1.351136 2.298515,1.773379 0.839844,0.464686 1.812291,0.675575 2.828947,0.675575 0.972446,0 1.944892,-0.211222 2.873142,-0.675575 0.928244,-0.464686 1.723886,-1.140022 2.431123,-2.026718 0.70723,-0.886703 1.281858,-1.984521 1.723886,-3.251235 0.442027,-1.308932 0.663005,-2.744544 0.663005,-4.39127 0,-1.815623 -0.176824,-3.546792 -0.574628,-5.235743 -0.397803,-1.68895 -0.972446,-3.124562 -1.723886,-4.391277 -0.751433,-1.266707 -1.679682,-2.280083 -2.82894,-3.040106 -1.105054,-0.760031 -2.386919,-1.140042 -3.845589,-1.140042 -0.486251,0 -0.928251,0.04226 -1.37027,0.08442 -0.442028,0.08443 -0.928244,0.211088 -1.45867,0.422242 -0.530405,0.211087 -1.149265,0.506667 -1.812291,0.844472 -0.707237,0.380003 -1.547082,0.886707 -2.563731,1.47784 z"
   id="path16195"
   style="fill:#2d2d2d;stroke-width:4.32016" /><path
   class="st21"
   d="m 358.6663,490.54693 c -3.18256,0 -6.1441,-0.59146 -8.84044,-1.7734 -2.69633,-1.18224 -5.34847,-2.95563 -7.9564,-5.23576 -3.09415,-2.78678 -5.48107,-5.95351 -7.16076,-9.54253 -1.67968,-3.54679 -2.47532,-7.34697 -2.47532,-11.316 0,-1.43557 0.13261,-2.87121 0.44203,-4.34902 0.2652,-1.43565 0.70724,-2.87121 1.28186,-4.22236 0.57463,-1.35122 1.28187,-2.61788 2.07751,-3.80019 0.83984,-1.18224 1.76809,-2.19563 2.87315,-3.0823 1.10505,-0.88672 2.29851,-1.5623 3.62458,-2.06896 1.32606,-0.50694 2.78473,-0.76007 4.33181,-0.76007 2.16592,0 4.155,0.46469 5.9673,1.35115 1.81229,0.88673 3.35937,2.06897 4.64123,3.54685 1.28186,1.47782 2.29851,3.16679 3.04995,5.0246 0.75144,1.85782 1.10506,3.80012 1.10506,5.78467 0,1.90006 -0.30943,3.63121 -0.92825,5.23575 -0.61885,1.60448 -1.50287,2.99788 -2.56373,4.18012 -1.10505,1.18231 -2.34271,2.06897 -3.75718,2.70237 -1.41447,0.63297 -2.91734,0.97115 -4.50863,0.97115 -3.31517,0 -6.63033,-1.09782 -9.90129,-3.25128 0.3978,1.52006 0.88404,2.91346 1.37027,4.18018 0.48625,1.26673 1.06085,2.49121 1.67968,3.58903 0.61885,1.09782 1.32607,2.15339 2.0775,3.12454 0.75144,0.97116 1.59128,1.90006 2.51953,2.7868 1.01665,0.97108 1.9891,1.77339 2.96154,2.40672 0.92825,0.67557 1.90071,1.18223 2.91736,1.60448 1.01665,0.42243 2.1217,0.76006 3.27096,1.0134 1.14925,0.25347 2.47532,0.46468 3.93399,0.63297 v 1.22449 h -2.0333 z m -16.79684,-21.49187 c 0.70724,0.38017 1.32607,0.63297 1.81229,0.84449 0.53041,0.21121 1.01665,0.33791 1.45867,0.42243 0.44204,0.0845 0.88406,0.0845 1.37027,0.0845 1.45867,0 2.74054,-0.38017 3.84559,-1.14006 1.10507,-0.76 2.07751,-1.77339 2.82895,-3.04013 0.75144,-1.26672 1.32607,-2.74454 1.72388,-4.39126 0.39781,-1.68891 0.57463,-3.42012 0.57463,-5.23576 0,-1.64672 -0.22097,-3.08229 -0.663,-4.39127 -0.44202,-1.3089 -1.01665,-2.36447 -1.72388,-3.25121 -0.70724,-0.88672 -1.54709,-1.5623 -2.43112,-2.02672 -0.92826,-0.46468 -1.90071,-0.67558 -2.87315,-0.67558 -1.01665,0 -1.9891,0.21122 -2.82894,0.67558 -0.83985,0.46469 -1.63548,1.05557 -2.29852,1.77339 -0.66301,0.76 -1.23766,1.60448 -1.76809,2.57563 -0.48625,0.97116 -0.88404,1.98455 -1.23766,3.04013 -0.30942,1.05557 -0.57462,2.11121 -0.75143,3.16678 -0.17683,1.05558 -0.22105,2.02673 -0.22105,2.95564 0,1.81563 0.22105,4.18017 0.61885,7.1358 1.01665,0.63365 1.85649,1.09782 2.56373,1.47789 z"
   id="path16197"
   style="fill:#2d2d2d;stroke-width:4.32016" /></svg>
