<?xml version="1.0" encoding="UTF-8" standalone="no"?>
<!-- Uploaded to: SVG Repo, www.svgrepo.com, Generator: SVG Repo Mixer Tools -->

<svg
   height="800"
   width="600"
   version="1.1"
   id="Layer_1"
   viewBox="0 0 377.8155 503.754"
   xml:space="preserve"
   sodipodi:docname="C7.svg"
   inkscape:version="1.2.2 (b0a8486, 2022-12-01)"
   xmlns:inkscape="http://www.inkscape.org/namespaces/inkscape"
   xmlns:sodipodi="http://sodipodi.sourceforge.net/DTD/sodipodi-0.dtd"
   xmlns="http://www.w3.org/2000/svg"
   xmlns:svg="http://www.w3.org/2000/svg"><defs
   id="defs158529" /><sodipodi:namedview
   id="namedview158527"
   pagecolor="#ffffff"
   bordercolor="#000000"
   borderopacity="0.25"
   inkscape:showpageshadow="2"
   inkscape:pageopacity="0.0"
   inkscape:pagecheckerboard="0"
   inkscape:deskcolor="#d1d1d1"
   showgrid="false"
   inkscape:zoom="0.63194332"
   inkscape:cx="-29.274777"
   inkscape:cy="466.02281"
   inkscape:window-width="1390"
   inkscape:window-height="949"
   inkscape:window-x="530"
   inkscape:window-y="25"
   inkscape:window-maximized="0"
   inkscape:current-layer="Layer_1" />

<rect
   x="0.54002064"
   y="0.54002064"
   class="st0"
   width="376.73547"
   height="502.67395"
   id="rect14173"
   style="fill:#ffffff;stroke:#231f20;stroke-width:1.08004;stroke-miterlimit:10" /><path
   class="st21"
   d="m 339.48259,423.11541 c -0.22099,0.71782 -0.3978,1.47788 -0.3978,2.28012 0,4.34903 3.66878,7.85364 8.2216,7.85364 4.55283,0 8.22162,-3.50461 8.22162,-7.85364 0,-0.71781 -0.1326,-1.39339 -0.30943,-2.02672 3.93399,-0.59145 6.93974,-3.80019 6.93974,-7.72697 0,-4.34909 -3.66878,-7.85363 -8.2216,-7.85363 -1.72389,0 -3.31518,0.50694 -4.64124,1.35115 0.61886,-1.90006 1.41447,-3.75787 2.38693,-5.53133 l 0.75142,-1.35115 h -9.50347 l 0.22105,0.50694 c 1.01665,2.06897 1.85649,4.22236 2.51953,6.418 -1.37028,-1.0134 -3.09416,-1.68897 -4.99486,-1.68897 -4.55282,0 -8.22161,3.50461 -8.22161,7.85363 0,4.01127 3.04996,7.22024 7.02816,7.76914 z"
   id="path15513"
   style="fill:#2d2d2d;stroke-width:4.32016" /><path
   class="st21"
   d="m 38.332921,74.684922 c 0.220979,-0.717808 0.397804,-1.477838 0.397804,-2.280085 0,-4.349049 -3.668786,-7.853622 -8.221611,-7.853622 -4.552833,0 -8.221611,3.504573 -8.221611,7.853622 0,0.717801 0.132601,1.39338 0.309426,2.026735 -3.933994,0.591119 -6.939745,3.800139 -6.939745,7.726947 0,4.349056 3.668784,7.853629 8.22161,7.853629 1.723886,0 3.315163,-0.506673 4.641231,-1.351163 -0.618852,1.900073 -1.414473,3.757917 -2.386919,5.531315 l -0.751433,1.351163 h 9.503476 l -0.220977,-0.506674 c -1.016656,-2.068971 -1.856495,-4.222381 -2.519528,-6.418013 1.370263,1.013367 3.094156,1.688952 4.994845,1.688952 4.552833,0 8.221612,-3.50458 8.221612,-7.853622 0,-3.969038 -3.049947,-7.22026 -7.028152,-7.76917 z"
   id="path15529"
   style="fill:#2d2d2d;stroke-width:4.32016" /><path
   class="st21"
   d="m 103.04497,85.958665 c 0.57463,-1.81562 0.97244,-3.673471 0.97244,-5.657983 0,-10.640387 -9.017252,-19.254041 -20.156208,-19.254041 -11.138957,0 -20.156211,8.613654 -20.156211,19.254041 0,1.731175 0.309426,3.377898 0.751439,4.982405 -9.636084,1.435602 -17.062053,9.331447 -17.062053,18.958463 0,10.64039 9.017253,19.25404 20.15621,19.25404 4.199213,0 8.133207,-1.22449 11.359965,-3.3779 -1.591278,4.64462 -3.491975,9.20479 -5.834692,13.59605 l -1.812291,3.33568 h 23.338772 l -0.574629,-1.18227 c -2.519528,-5.10907 -4.552826,-10.38704 -6.232515,-15.79168 3.403575,2.53343 7.646982,4.0957 12.332413,4.0957 11.13897,0 20.15621,-8.61365 20.15621,-19.25404 0.0442,-9.66924 -7.47017,-17.607308 -17.23885,-18.958465 z"
   id="path15613"
   style="fill:#2d2d2d;stroke-width:4.32016" /><path
   class="st21"
   d="m 313.13807,85.958665 c 0.57463,-1.81562 0.97245,-3.673471 0.97245,-5.657983 0,-10.640387 -9.01725,-19.254041 -20.1562,-19.254041 -11.13897,0 -20.15621,8.613654 -20.15621,19.254041 0,1.731175 0.30942,3.377898 0.75143,4.982405 -9.63608,1.435602 -17.06206,9.331447 -17.06206,18.958463 0,10.64039 9.01726,19.25404 20.15621,19.25404 4.19921,0 8.13321,-1.22449 11.35997,-3.3779 -1.59128,4.64462 -3.49197,9.20479 -5.83468,13.59605 l -1.81229,3.33568 h 23.33875 l -0.57462,-1.18227 c -2.51953,-5.10907 -4.55283,-10.38704 -6.23251,-15.79168 3.40357,2.53343 7.64699,4.0957 12.33242,4.0957 11.13895,0 20.15621,-8.61365 20.15621,-19.25404 0.0442,-9.66924 -7.47018,-17.607308 -17.23887,-18.958465 z"
   id="path15615"
   style="fill:#2d2d2d;stroke-width:4.32016" /><path
   class="st21"
   d="m 274.77055,418.3019 c -0.57463,1.81563 -0.97244,3.67352 -0.97244,5.658 0,10.64042 9.01724,19.25405 20.15621,19.25405 11.13895,0 20.1562,-8.61363 20.1562,-19.25405 0,-1.73115 -0.30943,-3.37788 -0.75144,-4.98236 9.63608,-1.43564 17.06206,-9.33152 17.06206,-18.95847 0,-10.64043 -9.01725,-19.25406 -20.15621,-19.25406 -4.19921,0 -8.13321,1.22449 -11.35997,3.37788 1.59128,-4.6446 3.49197,-9.20479 5.83469,-13.59606 l 1.81229,-3.33563 h -23.33876 l 0.57463,1.18224 c 2.51952,5.10909 4.55282,10.38703 6.2325,15.79169 -3.40356,-2.53345 -7.64698,-4.09569 -12.33241,-4.09569 -11.13896,0 -20.15621,8.61363 -20.15621,19.25405 0,9.66921 7.47017,17.60726 17.23886,18.95841 z"
   id="path15617"
   style="fill:#2d2d2d;stroke-width:4.32016" /><path
   class="st21"
   d="m 64.677444,418.3019 c -0.574628,1.81563 -0.972453,3.67352 -0.972453,5.658 0,10.64042 9.017254,19.25405 20.156211,19.25405 11.138956,0 20.156208,-8.61363 20.156208,-19.25405 0,-1.73115 -0.30942,-3.37788 -0.75144,-4.98236 9.63608,-1.43564 17.06206,-9.33152 17.06206,-18.95847 0,-10.64043 -9.01726,-19.25406 -20.15621,-19.25406 -4.199215,0 -8.133209,1.22449 -11.359967,3.37788 1.591277,-4.6446 3.491974,-9.20479 5.834691,-13.59606 l 1.812291,-3.33563 H 73.120063 l 0.574628,1.18224 c 2.519528,5.10909 4.552833,10.38703 6.232517,15.79169 -3.403577,-2.53345 -7.646983,-4.09569 -12.332419,-4.09569 -11.138956,0 -20.156209,8.61363 -20.156209,19.25405 0,9.66921 7.470171,17.60726 17.238864,18.95841 z"
   id="path15619"
   style="fill:#2d2d2d;stroke-width:4.32016" /><path
   class="st21"
   d="m 103.04497,233.78406 c 0.57463,-1.81564 0.97244,-3.67345 0.97244,-5.658 0,-10.64035 -9.017252,-19.25399 -20.156208,-19.25399 -11.138957,0 -20.156211,8.61364 -20.156211,19.25399 0,1.73122 0.309426,3.37794 0.751439,4.98242 -9.636084,1.43564 -17.062053,9.33145 -17.062053,18.95848 0,10.64042 9.017253,19.25405 20.15621,19.25405 4.199213,0 8.133207,-1.22449 11.359965,-3.37794 -1.591278,4.64467 -3.491975,9.20478 -5.834692,13.59606 l -1.812291,3.33569 h 23.338772 l -0.574629,-1.18224 c -2.519528,-5.10909 -4.552826,-10.38709 -6.232515,-15.79169 3.403575,2.53339 7.646982,4.09569 12.332413,4.09569 11.13897,0 20.15621,-8.61362 20.15621,-19.25404 0.0442,-9.66921 -7.47017,-17.60733 -17.23885,-18.95848 z"
   id="path15621"
   style="fill:#2d2d2d;stroke-width:4.32016" /><path
   class="st21"
   d="m 208.11361,160.94807 c 0.57463,-1.81562 0.97246,-3.67347 0.97246,-5.65798 0,-10.64039 -9.01725,-19.25404 -20.15621,-19.25404 -11.13896,0 -20.15621,8.61365 -20.15621,19.25404 0,1.73117 0.30942,3.3779 0.75144,4.9824 -9.63609,1.43561 -17.06205,9.33145 -17.06205,18.95847 0,10.64039 9.01724,19.25403 20.1562,19.25403 4.19921,0 8.13321,-1.22449 11.35997,-3.37788 -1.59128,4.6446 -3.49197,9.20479 -5.83469,13.59606 l -1.81229,3.33569 H 199.671 l -0.57463,-1.1823 c -2.51952,-5.1091 -4.55283,-10.38703 -6.23252,-15.79169 3.40357,2.53345 7.64699,4.09569 12.33242,4.09569 11.13896,0 20.15621,-8.61363 20.15621,-19.25402 0,-9.66924 -7.51438,-17.60731 -17.23887,-18.95847 z"
   id="path15623"
   style="fill:#2d2d2d;stroke-width:4.32016" /><path
   class="st21"
   d="m 313.13807,232.72849 c 0.57463,-1.81564 0.97245,-3.67345 0.97245,-5.658 0,-10.64035 -9.01725,-19.25405 -20.1562,-19.25405 -11.13897,0 -20.15621,8.6137 -20.15621,19.25405 0,1.73115 0.30942,3.37794 0.75143,4.98242 -9.63608,1.43557 -17.06206,9.33145 -17.06206,18.95848 0,10.64035 9.01726,19.25405 20.15621,19.25405 4.19921,0 8.13321,-1.22455 11.35997,-3.37794 -1.59128,4.6446 -3.49197,9.20478 -5.83468,13.59605 l -1.81229,3.33569 h 23.33875 l -0.57462,-1.1823 c -2.51953,-5.10902 -4.55283,-10.38703 -6.23251,-15.79169 3.40357,2.53346 7.64699,4.09576 12.33242,4.09576 11.13895,0 20.15621,-8.6137 20.15621,-19.25405 0.0442,-9.66927 -7.47018,-17.60732 -17.23887,-18.95847 z"
   id="path15625"
   style="fill:#2d2d2d;stroke-width:4.32016" /><path
   class="st21"
   d="m 20.298422,10.842583 h 24.930049 v 1.22449 L 29.713493,56.148686 H 25.867897 L 39.747395,16.16278 H 26.972958 c -1.370271,0 -2.519528,0.08443 -3.491981,0.29558 -0.972446,0.168911 -1.856487,0.506667 -2.652129,0.92892 -0.795643,0.422242 -1.458677,1.013376 -2.121703,1.731175 -0.618853,0.717806 -1.281866,1.562285 -1.900698,2.617878 l -0.972453,-0.379998 z"
   id="path16083"
   style="fill:#2d2d2d;stroke-width:4.32016" /><path
   class="st21"
   d="m 332.58705,474.50175 0.97244,-0.38017 c 0.61885,1.01339 1.28187,1.90006 1.9007,2.61787 0.61885,0.71782 1.32606,1.26673 2.12171,1.73115 0.79563,0.42243 1.63548,0.76006 2.65212,0.92891 0.97245,0.16896 2.16591,0.29573 3.49198,0.29573 h 12.77444 l -13.87949,-39.98586 h 3.84559 l 15.51497,44.08162 v 1.22448 h -24.93004 z"
   id="path16085"
   style="fill:#2d2d2d;stroke-width:4.32016" /></svg>
