<?xml version="1.0" encoding="UTF-8" standalone="no"?>
<!-- Uploaded to: SVG Repo, www.svgrepo.com, Generator: SVG Repo Mixer Tools -->

<svg
   height="800"
   width="600"
   version="1.1"
   id="Layer_1"
   viewBox="0 0 377.8155 503.754"
   xml:space="preserve"
   sodipodi:docname="D7.svg"
   inkscape:version="1.2.2 (b0a8486, 2022-12-01)"
   xmlns:inkscape="http://www.inkscape.org/namespaces/inkscape"
   xmlns:sodipodi="http://sodipodi.sourceforge.net/DTD/sodipodi-0.dtd"
   xmlns="http://www.w3.org/2000/svg"
   xmlns:svg="http://www.w3.org/2000/svg"><defs
   id="defs158529" /><sodipodi:namedview
   id="namedview158527"
   pagecolor="#ffffff"
   bordercolor="#000000"
   borderopacity="0.25"
   inkscape:showpageshadow="2"
   inkscape:pageopacity="0.0"
   inkscape:pagecheckerboard="0"
   inkscape:deskcolor="#d1d1d1"
   showgrid="false"
   inkscape:zoom="0.63194332"
   inkscape:cx="-29.274777"
   inkscape:cy="466.02281"
   inkscape:window-width="1390"
   inkscape:window-height="949"
   inkscape:window-x="530"
   inkscape:window-y="25"
   inkscape:window-maximized="0"
   inkscape:current-layer="Layer_1" />

<rect
   x="0.54002064"
   y="0.54002064"
   class="st0"
   width="376.73547"
   height="502.67395"
   id="rect14155"
   style="fill:#ffffff;stroke:#231f20;stroke-width:1.08004;stroke-miterlimit:10" /><polygon
   class="st20"
   points="643.58,66.88 635.29,56.84 627.15,66.8 627.15,66.81 635.29,76.41 "
   id="polygon15409"
   style="fill:#ea1c24"
   transform="matrix(4.4202211,0,0,4.2223765,-2721.4763,-180.0088)" /><polygon
   class="st20"
   points="658.36,69.98 650.21,79.95 658.36,89.55 666.64,80.02 "
   id="polygon15411"
   style="fill:#ea1c24"
   transform="matrix(4.4202211,0,0,4.2223765,-2721.4763,-180.0088)" /><polygon
   class="st20"
   points="689.68,66.88 681.4,56.84 673.25,66.8 673.25,66.81 681.4,76.41 "
   id="polygon15413"
   style="fill:#ea1c24"
   transform="matrix(4.4202211,0,0,4.2223765,-2721.4763,-180.0088)" /><polygon
   class="st20"
   points="643.58,138.2 635.29,128.16 627.15,138.12 627.15,138.13 635.29,147.73 "
   id="polygon15415"
   style="fill:#ea1c24"
   transform="matrix(4.4202211,0,0,4.2223765,-2721.4763,-180.0088)" /><polygon
   class="st20"
   points="643.58,102.54 635.29,92.5 627.15,102.46 627.15,102.47 635.29,112.07 "
   id="polygon15417"
   style="fill:#ea1c24"
   transform="matrix(4.4202211,0,0,4.2223765,-2721.4763,-180.0088)" /><polygon
   class="st20"
   points="689.68,102.54 681.4,92.5 673.25,102.46 673.25,102.47 681.4,112.07 "
   id="polygon15419"
   style="fill:#ea1c24"
   transform="matrix(4.4202211,0,0,4.2223765,-2721.4763,-180.0088)" /><polygon
   class="st20"
   points="689.7,138.2 681.42,128.16 673.28,138.12 673.28,138.13 681.42,147.73 "
   id="polygon15421"
   style="fill:#ea1c24"
   transform="matrix(4.4202211,0,0,4.2223765,-2721.4763,-180.0088)" /><polygon
   class="st20"
   points="622.57,58.92 619.67,62.47 622.57,65.89 625.52,62.5 "
   id="polygon16001"
   style="fill:#ea1c24"
   transform="matrix(4.4202211,0,0,4.2223765,-2721.4763,-180.0088)" /><polygon
   class="st20"
   points="694.23,146.01 691.33,142.46 694.23,139.04 697.18,142.44 "
   id="polygon16003"
   style="fill:#ea1c24"
   transform="matrix(4.4202211,0,0,4.2223765,-2721.4763,-180.0088)" /><path
   class="st20"
   d="m 20.298385,15.065004 h 24.930007 v 1.224484 L 29.713421,60.371101 H 25.867846 L 39.747309,20.385195 h -12.77443 c -1.370235,0 -2.519493,0.08442 -3.491924,0.29558 -0.972503,0.168911 -1.856488,0.506666 -2.652165,0.92892 -0.795607,0.422241 -1.458683,1.013369 -2.121689,1.731175 -0.619133,0.717806 -1.281858,1.562278 -1.900711,2.617871 L 15.833958,25.57874 Z"
   id="path16035"
   style="fill:#ea1c24;stroke-width:4.32016" /><path
   class="st20"
   d="m 332.58698,478.72415 0.97249,-0.38017 c 0.61844,1.01339 1.28187,1.90005 1.90065,2.61787 0.61913,0.71782 1.32608,1.26673 2.12175,1.73115 0.79561,0.42243 1.63544,0.76007 2.6521,0.92898 0.97243,0.16896 2.16591,0.29572 3.49199,0.29572 h 12.77443 l -13.87953,-39.98589 h 3.84565 l 15.51497,44.08161 v 1.22449 h -24.93007 z"
   id="path16037"
   style="fill:#ea1c24;stroke-width:4.32016" /></svg>
