<?xml version="1.0" encoding="UTF-8" standalone="no"?>
<!-- Uploaded to: SVG Repo, www.svgrepo.com, Generator: SVG Repo Mixer Tools -->

<svg
   height="800"
   width="600"
   version="1.1"
   id="Layer_1"
   viewBox="0 0 377.8155 503.754"
   xml:space="preserve"
   sodipodi:docname="H7.svg"
   inkscape:version="1.2.2 (b0a8486, 2022-12-01)"
   xmlns:inkscape="http://www.inkscape.org/namespaces/inkscape"
   xmlns:sodipodi="http://sodipodi.sourceforge.net/DTD/sodipodi-0.dtd"
   xmlns="http://www.w3.org/2000/svg"
   xmlns:svg="http://www.w3.org/2000/svg"><defs
   id="defs158529" /><sodipodi:namedview
   id="namedview158527"
   pagecolor="#ffffff"
   bordercolor="#000000"
   borderopacity="0.25"
   inkscape:showpageshadow="2"
   inkscape:pageopacity="0.0"
   inkscape:pagecheckerboard="0"
   inkscape:deskcolor="#d1d1d1"
   showgrid="false"
   inkscape:zoom="0.63194332"
   inkscape:cx="-29.274777"
   inkscape:cy="466.02281"
   inkscape:window-width="1390"
   inkscape:window-height="949"
   inkscape:window-x="530"
   inkscape:window-y="25"
   inkscape:window-maximized="0"
   inkscape:current-layer="Layer_1" />

<rect
   x="0.54002064"
   y="0.54002064"
   class="st0"
   width="376.73547"
   height="502.67395"
   id="rect14193"
   style="fill:#ffffff;stroke:#231f20;stroke-width:1.08004;stroke-miterlimit:10" /><path
   class="st20"
   d="m 362.64456,425.35335 v 0 c 0,0.0845 0,0.16896 0,0.25347 0,4.13794 -3.27096,7.47364 -7.33758,7.47364 -2.78476,0 -5.17165,-1.56231 -6.40936,-3.88461 -1.23763,2.3223 -3.66875,3.88461 -6.40929,3.88461 -4.02239,0 -7.33757,-3.3357 -7.33757,-7.47364 0,-0.0845 0,-0.16896 0,-0.21121 v 0 c 0,-6.50248 5.56947,-12.58273 10.91794,-16.12951 l 2.82892,-1.85782 2.82899,1.85782 c 5.39263,3.50461 10.91795,9.45812 10.91795,15.9606 v 0 c 0,0 0,0.0404 0,0.0404 z"
   id="path15673"
   style="fill:#ea1c24;stroke-width:4.32016" /><path
   class="st20"
   d="m 43.327769,74.178262 v 0 c 0,-0.08451 0,-0.168958 0,-0.253471 0,-4.137942 -3.270968,-7.47357 -7.33757,-7.47357 -2.784738,0 -5.171658,1.562237 -6.40932,3.884538 -1.237663,-2.322301 -3.668785,-3.884538 -6.40932,-3.884538 -4.022399,0 -7.337571,3.335628 -7.337571,7.47357 0,0.08451 0,0.168958 0,0.211215 v 0 c 0,6.502418 5.569482,12.582656 10.91795,16.129439 l 2.828941,1.857884 2.82894,-1.857884 c 5.392671,-3.50454 10.91795,-9.458116 10.91795,-15.960528 v 0 c 0,0 0,-0.04037 0,-0.04037 z"
   id="path15691"
   style="fill:#ea1c24;stroke-width:4.32016" /><path
   class="st20"
   d="m 119.17876,80.131838 v 0 c 0,-0.211215 0,-0.42243 0,-0.632972 0,-10.767083 -8.57522,-19.507379 -19.09535,-19.507379 -7.249164,0 -13.525883,4.095694 -16.752641,10.133689 -3.226764,-6.037995 -9.547679,-10.133689 -16.752641,-10.133689 -10.564328,0 -19.095351,8.740296 -19.095351,19.507379 0,0.211215 0,0.42243 0,0.591389 v 0 c 0,17.016239 14.498322,32.892355 28.510421,42.097135 l 7.337571,4.81351 7.337563,-4.81351 C 104.68044,112.98262 119.17876,97.528681 119.17876,80.554753 v 0 c 0,-0.04037 0,-0.12677 0,-0.168959 z"
   id="path15725"
   style="fill:#ea1c24;stroke-width:4.32016" /><path
   class="st20"
   d="m 330.37691,80.131838 v 0 c 0,-0.211215 0,-0.42243 0,-0.632972 0,-10.767083 -8.5752,-19.507379 -19.09535,-19.507379 -7.24912,0 -13.52588,4.095694 -16.75261,10.133689 -3.22678,-6.037995 -9.54769,-10.133689 -16.75267,-10.133689 -10.56429,0 -19.09534,8.740296 -19.09534,19.507379 0,0.211215 0,0.42243 0,0.591389 v 0 c 0,17.016239 14.49831,32.892355 28.51044,42.097135 l 7.33757,4.81351 7.33758,-4.81351 c 14.01206,-9.20478 28.51038,-24.658716 28.51038,-41.632644 v 0 c 0,-0.04037 0,-0.126769 0,-0.168959 z"
   id="path15727"
   style="fill:#ea1c24;stroke-width:4.32016" /><path
   class="st20"
   d="m 119.17876,239.9066 v 0 c 0,-0.21121 0,-0.42243 0,-0.63364 0,-10.76702 -8.57522,-19.50738 -19.09535,-19.50738 -7.249164,0 -13.525883,4.09569 -16.752641,10.13368 -3.226764,-6.03799 -9.547679,-10.13368 -16.752641,-10.13368 -10.564328,0 -19.095351,8.74036 -19.095351,19.50738 0,0.21121 0,0.42243 0,0.59146 v 0 c 0,17.01617 14.498322,32.89228 28.510421,42.09706 l 7.337571,4.81351 7.337563,-4.81351 c 14.012108,-9.20478 28.510428,-24.65865 28.510428,-41.63265 v 0 c 0,-0.0404 0,-0.1267 0,-0.16896 z"
   id="path15729"
   style="fill:#ea1c24;stroke-width:4.32016" /><path
   class="st20"
   d="m 224.77784,159.4281 v 0 c 0,-0.21122 0,-0.42243 0,-0.63365 0,-10.76702 -8.57523,-19.50738 -19.09535,-19.50738 -7.24916,0 -13.52588,4.09569 -16.75264,10.13376 -3.22676,-6.03807 -9.54768,-10.13376 -16.75264,-10.13376 -10.56432,0 -19.09535,8.74036 -19.09535,19.50738 0,0.21122 0,0.42243 0,0.59146 v 0 c 0,17.01617 14.49832,32.89228 28.51042,42.09707 l 7.33757,4.81351 7.33756,-4.81351 c 14.01211,-9.20484 28.51043,-24.61646 28.51043,-41.63263 v 0 c 0,-0.0404 0,-0.12671 0,-0.16896 z"
   id="path15731"
   style="fill:#ea1c24;stroke-width:4.32016" /><path
   class="st20"
   d="m 330.37691,239.9066 v 0 c 0,-0.21121 0,-0.42243 0,-0.63364 0,-10.76702 -8.5752,-19.50738 -19.09535,-19.50738 -7.24912,0 -13.52588,4.09569 -16.75261,10.13368 -3.22678,-6.03799 -9.54769,-10.13368 -16.75267,-10.13368 -10.56429,0 -19.09534,8.74036 -19.09534,19.50738 0,0.21121 0,0.42243 0,0.59146 v 0 c 0,17.01617 14.49831,32.89228 28.51044,42.09706 l 7.33757,4.81351 7.33758,-4.81351 c 14.01206,-9.20478 28.51038,-24.65865 28.51038,-41.63265 v 0 c 0,-0.0404 0,-0.1267 0,-0.16896 z"
   id="path15733"
   style="fill:#ea1c24;stroke-width:4.32016" /><path
   class="st20"
   d="m 258.63671,426.40893 v 0 c 0,0.21121 0,0.42243 0,0.63364 0,10.76702 8.57528,19.50739 19.09542,19.50739 7.24913,0 13.52581,-4.09577 16.7526,-10.13377 3.2268,6.038 9.54771,10.13377 16.75261,10.13377 10.56437,0 19.09542,-8.74037 19.09542,-19.50739 0,-0.21121 0,-0.42243 0,-0.59139 v 0 c 0,-17.01617 -14.49839,-32.89228 -28.51046,-42.09706 l -7.33757,-4.81352 -7.33757,4.81352 c -14.01213,9.20478 -28.51045,24.65864 -28.51045,41.63257 v 0 c 0,0.0404 0,0.12677 0,0.16896 z"
   id="path15951"
   style="fill:#ea1c24;stroke-width:4.32016" /><path
   class="st20"
   d="m 47.438574,426.40893 v 0 c 0,0.21121 0,0.42243 0,0.63364 0,10.76702 8.575226,19.50739 19.095351,19.50739 7.249165,0 13.525876,-4.09577 16.752641,-10.13377 3.226765,6.038 9.54768,10.13377 16.752644,10.13377 10.56433,0 19.09535,-8.74037 19.09535,-19.50739 0,-0.21121 0,-0.42243 0,-0.59139 v 0 c 0,-17.01617 -14.49832,-32.89228 -28.510423,-42.09706 l -7.337571,-4.81352 -7.33757,4.81352 c -14.012099,9.20478 -28.510422,24.65864 -28.510422,41.63257 v 0 c 0,0.0404 0,0.12677 0,0.16896 z"
   id="path15953"
   style="fill:#ea1c24;stroke-width:4.32016" /><path
   class="st20"
   d="m 20.298416,12.447149 h 24.930049 v 1.224483 L 29.713487,57.753245 H 25.867891 L 39.74739,17.767326 H 26.972952 c -1.37027,0 -2.519528,0.08449 -3.491973,0.295708 -0.972454,0.168978 -1.856495,0.506929 -2.652137,0.928907 -0.795642,0.422443 -1.458677,1.013395 -2.121703,1.731214 -0.618853,0.71782 -1.281865,1.562239 -1.900697,2.617879 l -0.972454,-0.380201 z"
   id="path16131"
   style="fill:#ea1c24;stroke-width:4.32016" /><path
   class="st20"
   d="m 332.58705,476.10629 0.97242,-0.38017 c 0.61914,1.01339 1.28187,1.90006 1.90072,2.61788 0.61913,0.71781 1.32608,1.26672 2.12168,1.73114 0.79568,0.42243 1.63551,0.76006 2.65217,0.92898 0.97243,0.16895 2.16591,0.29572 3.49192,0.29572 h 12.7745 l -13.87953,-39.98592 h 3.84558 l 15.51497,44.08162 v 1.22448 h -24.93 z"
   id="path16133"
   style="fill:#ea1c24;stroke-width:4.32016" /></svg>
