<?xml version="1.0" encoding="UTF-8" standalone="no"?>
<!-- Uploaded to: SVG Repo, www.svgrepo.com, Generator: SVG Repo Mixer Tools -->

<svg
   height="800"
   width="600"
   version="1.1"
   id="Layer_1"
   viewBox="0 0 377.8155 503.754"
   xml:space="preserve"
   sodipodi:docname="S7.svg"
   inkscape:version="1.2.2 (b0a8486, 2022-12-01)"
   xmlns:inkscape="http://www.inkscape.org/namespaces/inkscape"
   xmlns:sodipodi="http://sodipodi.sourceforge.net/DTD/sodipodi-0.dtd"
   xmlns="http://www.w3.org/2000/svg"
   xmlns:svg="http://www.w3.org/2000/svg"><defs
   id="defs158529" /><sodipodi:namedview
   id="namedview158527"
   pagecolor="#ffffff"
   bordercolor="#000000"
   borderopacity="0.25"
   inkscape:showpageshadow="2"
   inkscape:pageopacity="0.0"
   inkscape:pagecheckerboard="0"
   inkscape:deskcolor="#d1d1d1"
   showgrid="false"
   inkscape:zoom="0.63194332"
   inkscape:cx="401.14357"
   inkscape:cy="424.87988"
   inkscape:window-width="1390"
   inkscape:window-height="949"
   inkscape:window-x="530"
   inkscape:window-y="25"
   inkscape:window-maximized="0"
   inkscape:current-layer="Layer_1" />

<rect
   x="0.54002064"
   y="0.54002064"
   class="st0"
   width="376.73547"
   height="502.67395"
   id="rect14213"
   style="fill:#ffffff;stroke:#231f20;stroke-width:1.08004;stroke-miterlimit:10" /><path
   class="st21"
   d="m 333.33847,415.26189 v 0 c 0,6.20691 5.65789,11.99157 11.09476,15.32727 l 2.82894,1.73115 2.82894,-1.73115 c 5.43688,-3.3357 11.09475,-8.95145 11.09475,-15.15836 v 0 c 0,0 0,-0.0404 0,-0.0404 v -0.0845 0 c 0,-0.0845 0,-0.16896 0,-0.21122 0,-3.92684 -3.31516,-7.09364 -7.42596,-7.09364 -2.12171,0 -3.9782,0.84449 -5.34847,2.15346 0.2652,-1.52005 0.75144,-2.99794 1.59127,-4.34909 l 0.57463,-0.97115 h -2.0333 -2.60793 -2.0333 l 0.57463,0.92898 c 0.83984,1.39332 1.37028,2.87121 1.63548,4.43344 -1.37027,-1.35115 -3.27096,-2.23781 -5.39266,-2.23781 -4.11082,0 -7.42598,3.16678 -7.42598,7.09357 0.0442,0.0845 0.0442,0.16896 0.0442,0.21122 z"
   id="path15809"
   style="fill:#2d2d2d;stroke-width:4.32016" /><path
   class="st21"
   d="m 39.703189,81.229712 v 0 c 0,-6.206913 -5.65788,-11.991578 -11.094753,-15.327202 l -2.82894,-1.731215 -2.828947,1.731215 C 17.513682,69.238134 11.855795,74.853894 11.855795,81.0608 v 0 c 0,0 0,0.04037 0,0.04037 v 0.08451 0 c 0,0.08451 0,0.168958 0,0.211215 0,3.926787 3.31517,7.093571 7.425975,7.093571 2.121703,0 3.978198,-0.844483 5.348468,-2.15339 -0.265202,1.520062 -0.751439,2.997873 -1.591284,4.349023 l -0.574628,0.971158 h 2.033304 2.607927 2.033304 l -0.574628,-0.928908 c -0.839846,-1.3934 -1.370271,-2.871211 -1.635481,-4.433515 1.370265,1.351149 3.270961,2.237875 5.392671,2.237875 4.110806,0 7.425969,-3.166784 7.425969,-7.093565 -0.04422,-0.08451 -0.04422,-0.168958 -0.04422,-0.211215 z"
   id="path15825"
   style="fill:#2d2d2d;stroke-width:4.32016" /><path
   class="st21"
   d="m 48.366821,400.99026 v 0 c 0,15.49611 14.144707,29.9789 27.803189,38.38144 l 7.160759,4.39127 7.160759,-4.39127 c 13.658482,-8.40254 27.803192,-22.46308 27.803192,-38.00137 v 0 c 0,-0.0404 0,-0.0845 0,-0.12677 v -0.21122 0 c 0,-0.21121 0,-0.38017 0,-0.59145 0,-9.83811 -8.35421,-17.77617 -18.609134,-17.77617 -5.260063,0 -9.9897,2.11115 -13.393269,5.44684 0.618852,-3.80011 1.9449,-7.5158 3.933995,-10.89375 l 1.458676,-2.44897 h -5.083259 -6.497724 -5.083252 l 1.414473,2.3223 c 2.077501,3.46237 3.447772,7.22031 4.110805,11.14709 -3.403575,-3.42012 -8.177408,-5.57351 -13.525873,-5.57351 -10.299119,0 -18.609134,7.9803 -18.609134,17.77617 -0.08837,0.21121 -0.04422,0.38017 -0.04422,0.5492 z"
   id="path15867"
   style="fill:#2d2d2d;stroke-width:4.32016" /><path
   class="st21"
   d="m 118.25051,102.76382 v 0 c 0,-15.496113 -14.1447,-29.97883 -27.803185,-38.38137 l -7.160759,-4.39127 -7.160759,4.39127 c -13.658482,8.40254 -27.80319,22.463015 -27.80319,38.00137 v 0 c 0,0.0404 0,0.0845 0,0.1267 v 0.21122 0 c 0,0.21121 0,0.38017 0,0.59138 0,9.83819 8.35422,17.77624 18.609136,17.77624 5.260059,0 9.989696,-2.11121 13.393265,-5.44692 -0.618852,3.80019 -1.944899,7.51588 -3.933994,10.89376 l -1.458677,2.44897 h 5.083259 6.497725 5.083252 l -1.414474,-2.3223 c -2.0775,-3.46236 -3.447771,-7.22024 -4.110805,-11.14709 3.403575,3.42012 8.177408,5.57358 13.525876,5.57358 10.29911,0 18.60913,-7.9803 18.60913,-17.77624 0.0442,-0.21121 0.0442,-0.38017 0.0442,-0.5492 z"
   id="path15869"
   style="fill:#2d2d2d;stroke-width:4.32016" /><path
   class="st21"
   d="m 259.56499,400.99026 v 0 c 0,15.49611 14.1447,29.9789 27.80318,38.38144 l 7.16076,4.39127 7.16076,-4.39127 c 13.65848,-8.40254 27.80319,-22.46308 27.80319,-38.00137 v 0 c 0,-0.0404 0,-0.0845 0,-0.12677 v -0.21122 0 c 0,-0.21121 0,-0.38017 0,-0.59145 0,-9.83811 -8.35422,-17.77617 -18.60913,-17.77617 -5.26006,0 -9.98969,2.11115 -13.39327,5.44684 0.61886,-3.80011 1.9449,-7.5158 3.934,-10.89375 l 1.45867,-2.44897 h -5.08325 -6.49772 -5.08326 l 1.41447,2.3223 c 2.07751,3.46237 3.44777,7.22031 4.1108,11.14709 -3.40357,-3.42012 -8.1774,-5.57351 -13.52588,-5.57351 -10.2991,0 -18.60912,7.9803 -18.60912,17.77617 -0.0442,0.21121 -0.0442,0.38017 -0.0442,0.5492 z"
   id="path15871"
   style="fill:#2d2d2d;stroke-width:4.32016" /><path
   class="st21"
   d="m 329.44868,102.76382 v 0 c 0,-15.496113 -14.14471,-29.97883 -27.80319,-38.38137 l -7.16076,-4.39127 -7.16076,4.39127 c -13.65848,8.40254 -27.80319,22.463015 -27.80319,38.00137 v 0 c 0,0.0404 0,0.0845 0,0.1267 v 0.21122 0 c 0,0.21121 0,0.38017 0,0.59138 0,9.83819 8.35422,17.77624 18.60913,17.77624 5.26007,0 9.9897,-2.11121 13.39328,-5.44692 -0.61885,3.80019 -1.94491,7.51588 -3.93401,10.89376 l -1.45867,2.44897 h 5.08325 6.49773 5.08326 l -1.41447,-2.3223 c -2.07751,-3.46236 -3.44778,-7.22024 -4.11081,-11.14709 3.40357,3.42012 8.17741,5.57358 13.52587,5.57358 10.29912,0 18.60914,-7.9803 18.60914,-17.77624 0.0883,-0.21121 0.0883,-0.38017 0.0442,-0.5492 z"
   id="path15873"
   style="fill:#2d2d2d;stroke-width:4.32016" /><path
   class="st21"
   d="m 118.25051,250.08253 v 0 c 0,-15.49612 -14.1447,-29.97884 -27.803185,-38.38137 l -7.160759,-4.39128 -7.160759,4.39128 c -13.658482,8.40253 -27.80319,22.46301 -27.80319,38.00137 v 0 c 0,0.0404 0,0.0845 0,0.1267 v 0.21122 0 c 0,0.21121 0,0.38017 0,0.59078 0,9.83818 8.35422,17.77623 18.609136,17.77623 5.260059,0 9.989696,-2.11121 13.393265,-5.44684 -0.618852,3.80012 -1.944899,7.51581 -3.933994,10.89369 l -1.458677,2.44897 h 5.083259 6.497725 5.083252 l -1.414474,-2.32231 c -2.0775,-3.46229 -3.447771,-7.22023 -4.110805,-11.14708 3.403575,3.42018 8.177408,5.57357 13.525876,5.57357 10.29911,0 18.60913,-7.9803 18.60913,-17.77623 0.0442,-0.16896 0.0442,-0.38017 0.0442,-0.5492 z"
   id="path15875"
   style="fill:#2d2d2d;stroke-width:4.32016" /><path
   class="st21"
   d="m 223.8496,181.08893 v 0 c 0,-15.49611 -14.14471,-29.9789 -27.80319,-38.38144 l -7.16076,-4.39127 -7.16076,4.39127 c -13.65849,8.40254 -27.80319,22.46308 -27.80319,38.00144 v 0 c 0,0.0404 0,0.0845 0,0.12671 v 0.21121 0 c 0,0.21122 0,0.38017 0,0.59139 0,9.83811 8.35422,17.77617 18.60913,17.77617 5.26006,0 9.98971,-2.11115 13.39327,-5.44684 -0.61885,3.80012 -1.9449,7.51581 -3.93399,10.89375 l -1.45868,2.44897 h 5.08325 6.49773 5.08326 l -1.41447,-2.3223 c -2.0775,-3.46237 -3.44778,-7.2203 -4.11081,-11.14709 3.40356,3.42012 8.17741,5.57351 13.52587,5.57351 10.29912,0 18.60914,-7.9803 18.60914,-17.77617 0.0442,-0.16896 0.0442,-0.38017 0.0442,-0.5492 z"
   id="path15929"
   style="fill:#2d2d2d;stroke-width:4.32016" /><path
   class="st21"
   d="m 329.44868,250.08253 v 0 c 0,-15.49612 -14.14471,-29.97884 -27.80319,-38.38137 l -7.16076,-4.39128 -7.16076,4.39128 c -13.65848,8.40253 -27.80319,22.46301 -27.80319,38.00137 v 0 c 0,0.0404 0,0.0845 0,0.1267 v 0.21122 0 c 0,0.21121 0,0.38017 0,0.59078 0,9.83818 8.35422,17.77623 18.60913,17.77623 5.26007,0 9.9897,-2.11121 13.39328,-5.44684 -0.61885,3.80012 -1.94491,7.51581 -3.93401,10.89369 l -1.45867,2.44897 h 5.08325 6.49773 5.08326 l -1.41447,-2.32231 c -2.07751,-3.46229 -3.44778,-7.22023 -4.11081,-11.14708 3.40357,3.42018 8.17741,5.57357 13.52587,5.57357 10.29912,0 18.60914,-7.9803 18.60914,-17.77623 0.0883,-0.16896 0.0883,-0.38017 0.0442,-0.5492 z"
   id="path15933"
   style="fill:#2d2d2d;stroke-width:4.32016" /><path
   class="st21"
   d="m 20.298419,11.22272 h 24.930049 v 1.224484 L 29.71349,56.528816 H 25.867894 L 39.747392,16.542897 H 26.972955 c -1.370271,0 -2.519528,0.08449 -3.491974,0.295708 -0.972453,0.168978 -1.856494,0.506929 -2.652136,0.928907 -0.795642,0.422443 -1.458677,1.013396 -2.121703,1.731215 -0.618853,0.717755 -1.281866,1.56224 -1.900697,2.61788 l -0.972454,-0.380199 z"
   id="path16199"
   style="fill:#2d2d2d;stroke-width:4.32016" /><path
   class="st21"
   d="m 332.58704,474.92411 0.97244,-0.38018 c 0.61886,1.01333 1.28187,1.90006 1.9007,2.61788 0.61885,0.71775 1.32607,1.26666 2.12171,1.73115 0.79563,0.42243 1.63548,0.75999 2.65213,0.9289 0.97245,0.16896 2.16591,0.29573 3.49197,0.29573 h 12.77444 l -13.87949,-39.98592 h 3.84559 l 15.51497,44.08161 v 1.22449 h -24.93004 z"
   id="path16201"
   style="fill:#2d2d2d;stroke-width:4.32016" /></svg>
