<?xml version="1.0" encoding="UTF-8" standalone="no"?>
<!-- Uploaded to: SVG Repo, www.svgrepo.com, Generator: SVG Repo Mixer Tools -->

<svg
   height="800"
   width="600"
   version="1.1"
   id="Layer_1"
   viewBox="0 0 377.8155 503.754"
   xml:space="preserve"
   sodipodi:docname="C8.svg"
   inkscape:version="1.2.2 (b0a8486, 2022-12-01)"
   xmlns:inkscape="http://www.inkscape.org/namespaces/inkscape"
   xmlns:sodipodi="http://sodipodi.sourceforge.net/DTD/sodipodi-0.dtd"
   xmlns="http://www.w3.org/2000/svg"
   xmlns:svg="http://www.w3.org/2000/svg"><defs
   id="defs158529" /><sodipodi:namedview
   id="namedview158527"
   pagecolor="#ffffff"
   bordercolor="#000000"
   borderopacity="0.25"
   inkscape:showpageshadow="2"
   inkscape:pageopacity="0.0"
   inkscape:pagecheckerboard="0"
   inkscape:deskcolor="#d1d1d1"
   showgrid="false"
   inkscape:zoom="0.63194332"
   inkscape:cx="-29.274777"
   inkscape:cy="466.02281"
   inkscape:window-width="1390"
   inkscape:window-height="949"
   inkscape:window-x="530"
   inkscape:window-y="25"
   inkscape:window-maximized="0"
   inkscape:current-layer="Layer_1" />

<rect
   x="0.54002064"
   y="0.54002064"
   class="st0"
   width="376.73547"
   height="502.67395"
   id="rect14175"
   style="fill:#ffffff;stroke:#231f20;stroke-width:1.08004;stroke-miterlimit:10" /><path
   class="st21"
   d="m 339.17308,423.11546 c -0.22112,0.71782 -0.39802,1.47788 -0.39802,2.28012 0,4.34903 3.66875,7.85364 8.22163,7.85364 4.5528,0 8.22155,-3.50461 8.22155,-7.85364 0,-0.71781 -0.13267,-1.39339 -0.30956,-2.02672 3.93395,-0.59139 6.9397,-3.80019 6.9397,-7.72697 0,-4.3491 -3.66875,-7.85363 -8.22163,-7.85363 -1.72389,0 -3.3151,0.50694 -4.64119,1.35114 0.61844,-1.90005 1.41446,-3.75786 2.3869,-5.53132 l 0.75145,-1.35115 h -9.50348 l 0.22111,0.50694 c 1.01666,2.06897 1.85656,4.22236 2.51957,6.41799 -1.37023,-1.01339 -3.0942,-1.68896 -4.99483,-1.68896 -4.55287,0 -8.22162,3.5046 -8.22162,7.85363 0.0421,4.01127 3.09412,7.22024 7.02814,7.76914 z"
   id="path15515"
   style="fill:#2d2d2d;stroke-width:4.32016" /><path
   class="st21"
   d="m 38.111786,74.684983 c 0.22112,-0.717821 0.398015,-1.477818 0.398015,-2.280126 0,-4.349029 -3.668821,-7.853568 -8.221625,-7.853568 -4.552805,0 -8.221625,3.504539 -8.221625,7.853568 0,0.717822 0.132671,1.393393 0.309567,2.026789 -3.934023,0.591456 -6.939767,3.800119 -6.939767,7.7269 0,4.349096 3.66882,7.853636 8.221625,7.853636 1.723886,0 3.31517,-0.506943 4.641252,-1.35115 -0.619133,1.90006 -1.414459,3.757937 -2.386961,5.531335 l -0.751384,1.35115 h 9.503413 l -0.221118,-0.506943 c -1.016656,-2.068971 -1.856488,-4.222428 -2.519564,-6.418061 1.370306,1.013395 3.094192,1.688973 4.994902,1.688973 4.552805,0 8.221626,-3.50454 8.221626,-7.853636 0,-3.969024 -3.094192,-7.220233 -7.028215,-7.769143 z"
   id="path15531"
   style="fill:#2d2d2d;stroke-width:4.32016" /><path
   class="st21"
   d="m 274.72623,418.30195 c -0.57491,1.81563 -0.97244,3.67352 -0.97244,5.65799 0,10.64043 9.01724,19.25406 20.15623,19.25406 11.13892,0 20.15623,-8.61363 20.15623,-19.25406 0,-1.73114 -0.30957,-3.37787 -0.75146,-4.98235 9.63608,-1.43564 17.06204,-9.33152 17.06204,-18.95848 0,-10.64042 -9.01724,-19.25405 -20.15623,-19.25405 -4.19916,0 -8.13317,1.22449 -11.35997,3.37788 1.59129,-4.64461 3.49199,-9.20479 5.83474,-13.59606 l 1.81225,-3.33563 h -23.33871 l 0.5749,1.18224 c 2.5195,5.10909 4.55281,10.38702 6.23247,15.79169 -3.40355,-2.53346 -7.647,-4.09569 -12.33241,-4.09569 -11.13891,0 -20.15622,8.61362 -20.15622,19.25404 0,9.66921 7.5144,17.60727 17.23886,18.95842 z"
   id="path15551"
   style="fill:#2d2d2d;stroke-width:4.32016" /><path
   class="st21"
   d="m 64.633149,418.30195 c -0.57491,1.81563 -0.972432,3.67352 -0.972432,5.65799 0,10.64043 9.017234,19.25406 20.156155,19.25406 11.138992,0 20.156218,-8.61363 20.156218,-19.25406 0,-1.73114 -0.30956,-3.37787 -0.75144,-4.98235 9.63608,-1.43564 17.06209,-9.33152 17.06209,-18.95848 0,-10.64042 -9.0173,-19.25405 -20.15622,-19.25405 -4.199223,0 -8.133176,1.22449 -11.359968,3.37788 1.591284,-4.64461 3.491995,-9.20479 5.834663,-13.59606 l 1.812333,-3.33563 H 73.075755 l 0.57491,1.18224 c 2.519563,5.10909 4.552875,10.38702 6.232536,15.79169 -3.403618,-2.53346 -7.646996,-4.09569 -12.332405,-4.09569 -11.138992,0 -20.156224,8.61362 -20.156224,19.25404 0,9.66921 7.514396,17.60727 17.238857,18.95842 z"
   id="path15553"
   style="fill:#2d2d2d;stroke-width:4.32016" /><path
   class="st21"
   d="m 103.04489,85.958733 c 0.5749,-1.815635 0.97243,-3.673451 0.97243,-5.657997 0,-10.640421 -9.017232,-19.254054 -20.156223,-19.254054 -11.138921,0 -20.156227,8.613633 -20.156227,19.254054 0,1.731148 0.309567,3.377871 0.751454,4.982425 -9.636085,1.435568 -17.062032,9.331447 -17.062032,18.958479 0,10.64035 9.017231,19.25398 20.156223,19.25398 4.199158,0 8.13318,-1.22449 11.359973,-3.37788 -1.591284,4.64461 -3.491995,9.20479 -5.834733,13.59605 l -1.812263,3.33571 h 23.338723 l -0.57491,-1.18232 c -2.519493,-5.10901 -4.552805,-10.38701 -6.232467,-15.79168 3.403548,2.53346 7.646997,4.09569 12.332402,4.09569 11.13892,0 20.15623,-8.61363 20.15623,-19.25398 0,-9.669273 -7.5144,-17.607328 -17.23886,-18.958477 z"
   id="path15559"
   style="fill:#2d2d2d;stroke-width:4.32016" /><path
   class="st21"
   d="m 313.09374,85.958733 c 0.57492,-1.815635 0.97251,-3.673451 0.97251,-5.657997 0,-10.640421 -9.01731,-19.254054 -20.15623,-19.254054 -11.13899,0 -20.15623,8.613633 -20.15623,19.254054 0,1.731148 0.30958,3.377871 0.75146,4.982425 -9.63608,1.435568 -17.06203,9.331447 -17.06203,18.958479 0,10.64035 9.01723,19.25398 20.15615,19.25398 4.19923,0 8.13325,-1.22449 11.35997,-3.37788 -1.59128,4.64461 -3.49192,9.20479 -5.83466,13.59605 l -1.81227,3.33571 h 23.33873 l -0.57491,-1.18232 c -2.51949,-5.10901 -4.55281,-10.38701 -6.23247,-15.79168 3.40355,2.53346 7.64692,4.09569 12.33241,4.09569 11.13891,0 20.15622,-8.61363 20.15622,-19.25398 0.0421,-9.669273 -7.47024,-17.607328 -17.23893,-18.958477 z"
   id="path15561"
   style="fill:#2d2d2d;stroke-width:4.32016" /><path
   class="st21"
   d="m 103.04489,233.7841 c 0.5749,-1.81563 0.97243,-3.67345 0.97243,-5.65799 0,-10.64036 -9.017232,-19.25399 -20.156223,-19.25399 -11.138921,0 -20.156227,8.61363 -20.156227,19.25399 0,1.73121 0.309567,3.37794 0.751454,4.98242 -9.636085,1.43564 -17.062032,9.33145 -17.062032,18.95848 0,10.64042 9.017231,19.25405 20.156223,19.25405 4.199158,0 8.13318,-1.22449 11.359973,-3.37795 -1.591284,4.64467 -3.491995,9.20479 -5.834733,13.59606 l -1.812263,3.3357 h 23.338723 l -0.57491,-1.18224 c -2.519493,-5.10909 -4.552805,-10.38709 -6.232467,-15.79169 3.403548,2.53339 7.646997,4.09569 12.332402,4.09569 11.13892,0 20.15623,-8.61362 20.15623,-19.25405 0,-9.66921 -7.5144,-17.60733 -17.23886,-18.95848 z"
   id="path15567"
   style="fill:#2d2d2d;stroke-width:4.32016" /><path
   class="st21"
   d="m 208.06931,160.94815 c 0.57491,-1.81564 0.97244,-3.67352 0.97244,-5.658 0,-10.64042 -9.01723,-19.25405 -20.15615,-19.25405 -11.139,0 -20.15623,8.61363 -20.15623,19.25405 0,1.73115 0.30956,3.37787 0.75145,4.98242 -9.63608,1.43557 -17.06209,9.33145 -17.06209,18.95848 0,10.64035 9.01722,19.25399 20.15622,19.25399 4.19922,0 8.13318,-1.22449 11.35997,-3.37788 -1.59129,4.6446 -3.492,9.20478 -5.83467,13.59605 l -1.81233,3.3357 h 23.33879 l -0.57491,-1.1823 c -2.51956,-5.1091 -4.55287,-10.38703 -6.23254,-15.7917 3.40355,2.53346 7.647,4.0957 12.33241,4.0957 11.13899,0 20.15622,-8.61364 20.15622,-19.25399 0,-9.66927 -7.51439,-17.60732 -17.23886,-18.95847 z"
   id="path15569"
   style="fill:#2d2d2d;stroke-width:4.32016" /><path
   class="st21"
   d="m 169.70181,355.34635 c -0.57491,1.81563 -0.97244,3.67345 -0.97244,5.65799 0,10.64036 9.01723,19.25399 20.15623,19.25399 11.13892,0 20.15615,-8.61363 20.15615,-19.25399 0,-1.73121 -0.30956,-3.37794 -0.75139,-4.98242 9.63602,-1.43564 17.06203,-9.33145 17.06203,-18.95847 0,-10.64036 -9.01722,-19.25406 -20.15622,-19.25406 -4.19923,0 -8.13318,1.22449 -11.35997,3.37795 1.59129,-4.64461 3.49199,-9.20479 5.83467,-13.59606 l 1.81233,-3.3357 h -23.33879 l 0.57491,1.18224 c 2.51956,5.10909 4.55287,10.38709 6.23254,15.79169 -3.40355,-2.53339 -7.647,-4.09569 -12.33241,-4.09569 -11.13899,0 -20.15622,8.61363 -20.15622,19.25405 -0.0421,9.66927 7.47016,17.60733 17.23886,18.95848 z"
   id="path15571"
   style="fill:#2d2d2d;stroke-width:4.32016" /><path
   class="st21"
   d="m 313.09374,232.72853 c 0.57492,-1.81564 0.97251,-3.67345 0.97251,-5.65799 0,-10.64036 -9.01731,-19.25406 -20.15623,-19.25406 -11.13899,0 -20.15623,8.6137 -20.15623,19.25406 0,1.73115 0.30958,3.37794 0.75146,4.98241 -9.63608,1.43558 -17.06203,9.33146 -17.06203,18.95849 0,10.64035 9.01723,19.25404 20.15615,19.25404 4.19923,0 8.13325,-1.22455 11.35997,-3.37794 -1.59128,4.64461 -3.49192,9.20478 -5.83466,13.59606 l -1.81227,3.33569 h 23.33873 l -0.57491,-1.1823 c -2.51949,-5.10902 -4.55281,-10.38703 -6.23247,-15.79169 3.40355,2.53346 7.64692,4.09576 12.33241,4.09576 11.13891,0 20.15622,-8.6137 20.15622,-19.25405 0.0421,-9.66927 -7.47024,-17.60733 -17.23893,-18.95848 z"
   id="path15573"
   style="fill:#2d2d2d;stroke-width:4.32016" /><path
   class="st21"
   d="m 26.30986,33.390155 c -3.713045,-2.913455 -6.099936,-5.235756 -7.116592,-6.924726 -1.06088,-1.731149 -1.591284,-3.546786 -1.591284,-5.446844 0,-1.435639 0.309566,-2.786789 0.928278,-4.053516 0.618431,-1.266729 1.458613,-2.406723 2.60787,-3.377875 1.105104,-0.971151 2.431186,-1.731215 4.02247,-2.322301 1.591215,-0.549179 3.3151,-0.844485 5.260035,-0.844485 1.856486,0 3.536149,0.253464 5.083279,0.80224 1.547061,0.549179 2.828919,1.224484 3.933953,2.111214 1.105033,0.886663 1.944934,1.900058 2.563717,3.082297 0.619133,1.140062 0.928278,2.364547 0.928278,3.58903 0,1.646726 -0.619133,3.335697 -1.856487,5.066845 -1.237705,1.731215 -3.801421,3.75794 -7.735373,6.080241 1.989087,1.52006 3.668749,2.828966 4.994831,4.011272 1.326082,1.139995 2.298515,2.153391 2.961521,2.997876 1.723886,2.195636 2.60794,4.560181 2.60794,7.051393 0,1.562237 -0.309567,2.997876 -0.972432,4.39127 -0.662655,1.351149 -1.591284,2.575633 -2.740541,3.588962 -1.193481,1.05564 -2.607941,1.857881 -4.287603,2.449035 -1.679732,0.591422 -3.491995,0.886662 -5.525307,0.886662 -1.944865,0 -3.712974,-0.295707 -5.348482,-0.886662 -1.635439,-0.591422 -3.005744,-1.393395 -4.199155,-2.364546 -1.19348,-1.013396 -2.077536,-2.153458 -2.740542,-3.462364 -0.663357,-1.308905 -0.972502,-2.702299 -0.972502,-4.180182 0,-1.942236 0.7073,-3.884538 2.077536,-5.826842 0.70723,-0.971151 1.635508,-1.984547 2.828919,-3.082364 1.149257,-1.013329 2.60794,-2.153391 4.287673,-3.33563 z m 1.635437,1.266661 c -1.635437,1.308972 -2.917366,2.744544 -3.889798,4.349093 -0.57491,0.971151 -1.016656,2.026724 -1.281859,3.082297 -0.265343,1.097818 -0.398014,2.195635 -0.398014,3.377942 0,1.393394 0.221119,2.660055 0.619134,3.800117 0.442237,1.140062 1.016585,2.111213 1.768039,2.913454 0.751454,0.802241 1.635508,1.435572 2.696387,1.900059 1.06081,0.464686 2.210067,0.675575 3.447772,0.675575 1.237635,0 2.342668,-0.168979 3.359324,-0.549179 1.016656,-0.380201 1.856486,-0.844486 2.563716,-1.477817 0.70723,-0.633664 1.237705,-1.351149 1.635509,-2.195634 0.398014,-0.844486 0.574909,-1.731216 0.574909,-2.660123 0,-1.562237 -0.442238,-2.955631 -1.281858,-4.222359 -1.547061,-2.237878 -4.862231,-5.235754 -9.812909,-8.993694 z m 3.757198,-4.771269 c 2.740542,-2.364546 4.464428,-4.22236 5.215881,-5.573509 0.751384,-1.393395 1.105033,-2.955699 1.105033,-4.644603 0,-2.322368 -0.662654,-4.09576 -1.989088,-5.404666 -1.326082,-1.308973 -3.182568,-1.942303 -5.525307,-1.942303 -1.149257,0 -2.210066,0.168979 -3.182569,0.506936 -0.972432,0.337957 -1.768039,0.802308 -2.475269,1.393394 -0.70723,0.591422 -1.237705,1.266728 -1.635508,2.068969 -0.398015,0.802241 -0.57491,1.604482 -0.57491,2.448967 0,1.140062 0.309567,2.280124 0.928279,3.377942 0.618431,1.139995 1.458613,2.195635 2.60787,3.251208 z"
   id="path16087"
   style="fill:#2d2d2d;stroke-width:4.32016" /><path
   class="st21"
   d="m 338.2448,459.09011 c -1.19341,-1.05558 -2.12169,-2.06897 -2.82892,-3.0823 -1.37023,-1.9423 -2.07747,-3.88461 -2.07747,-5.82691 0,-1.47782 0.30957,-2.87121 0.97243,-4.18012 0.66266,-1.30897 1.54707,-2.49121 2.74055,-3.46236 1.19341,-1.01339 2.56371,-1.77339 4.19922,-2.36454 1.63544,-0.59146 3.40355,-0.88667 5.34842,-0.88667 1.98915,0 3.84564,0.29573 5.5253,0.88667 1.67966,0.59138 3.09412,1.43563 4.28761,2.44896 1.19348,1.05564 2.12168,2.23788 2.74053,3.58903 0.66266,1.35115 0.97244,2.82904 0.97244,4.39127 0,2.49121 -0.88405,4.85576 -2.60795,7.05139 -0.66335,0.84449 -1.67965,1.85782 -2.96151,2.99788 -1.32609,1.14006 -3.00575,2.49121 -4.99484,4.01127 3.8898,2.32231 6.49774,4.34903 7.73538,6.08024 1.23763,1.73115 1.85648,3.42012 1.85648,5.06685 0,1.22448 -0.30956,2.40672 -0.92827,3.58896 -0.61843,1.14006 -1.45861,2.19563 -2.56372,3.08237 -1.10503,0.88672 -2.43112,1.60448 -3.93395,2.11121 -1.54713,0.5492 -3.22679,0.80224 -5.08328,0.80224 -1.90072,0 -3.66875,-0.29573 -5.26004,-0.84448 -1.59128,-0.5492 -2.91736,-1.35115 -4.0224,-2.3223 -1.1051,-0.97116 -1.98916,-2.11122 -2.60794,-3.37795 -0.61913,-1.26666 -0.92827,-2.61781 -0.92827,-4.05345 0,-1.90006 0.53068,-3.71569 1.59128,-5.44684 1.06088,-1.73122 3.44778,-4.05352 7.1166,-6.92473 -1.63551,-1.14006 -3.0942,-2.23788 -4.28768,-3.33569 z m 15.82439,-6.92466 c 0.88406,-1.26673 1.28187,-2.66013 1.28187,-4.22236 0,-0.92898 -0.1769,-1.81564 -0.57491,-2.66013 -0.39802,-0.84448 -0.92822,-1.5623 -1.63544,-2.19563 -0.70724,-0.63297 -1.54707,-1.09782 -2.56372,-1.47782 -1.01666,-0.38017 -2.12176,-0.5492 -3.35939,-0.5492 -1.23763,0 -2.43112,0.21122 -3.44777,0.67557 -1.06088,0.46469 -1.94487,1.05557 -2.69633,1.90006 -0.75144,0.80224 -1.32607,1.77339 -1.7681,2.91346 -0.44224,1.13999 -0.61913,2.40672 -0.61913,3.80012 0,1.18223 0.13266,2.3223 0.39801,3.37787 0.26534,1.09782 0.70723,2.11121 1.28186,3.08236 0.92821,1.60448 2.21006,3.04012 3.88979,4.34903 4.95062,-3.67345 8.22156,-6.71357 9.81284,-8.99363 z m -11.71354,18.24065 c -1.10504,1.05558 -1.98909,2.15339 -2.60794,3.25121 -0.61914,1.14006 -0.92829,2.23788 -0.92829,3.37794 0,0.84449 0.1769,1.6889 0.57492,2.44897 0.39801,0.80224 0.92828,1.47781 1.6355,2.06897 0.70724,0.59071 1.54707,1.05557 2.47534,1.39339 0.97244,0.33798 2.03331,0.50694 3.18257,0.50694 2.34268,0 4.19923,-0.63297 5.52524,-1.9423 1.32609,-1.30891 1.98909,-3.0823 1.98909,-5.40467 0,-1.6889 -0.35379,-3.25121 -1.10503,-4.6446 -0.75146,-1.35115 -2.47535,-3.20896 -5.21588,-5.57351 z"
   id="path16089"
   style="fill:#2d2d2d;stroke-width:4.32016" /></svg>
