<?xml version="1.0" encoding="UTF-8" standalone="no"?>
<!-- Uploaded to: SVG Repo, www.svgrepo.com, Generator: SVG Repo Mixer Tools -->

<svg
   height="800"
   width="600"
   version="1.1"
   id="Layer_1"
   viewBox="0 0 377.8155 503.754"
   xml:space="preserve"
   sodipodi:docname="D8.svg"
   inkscape:version="1.2.2 (b0a8486, 2022-12-01)"
   xmlns:inkscape="http://www.inkscape.org/namespaces/inkscape"
   xmlns:sodipodi="http://sodipodi.sourceforge.net/DTD/sodipodi-0.dtd"
   xmlns="http://www.w3.org/2000/svg"
   xmlns:svg="http://www.w3.org/2000/svg"><defs
   id="defs158529" /><sodipodi:namedview
   id="namedview158527"
   pagecolor="#ffffff"
   bordercolor="#000000"
   borderopacity="0.25"
   inkscape:showpageshadow="2"
   inkscape:pageopacity="0.0"
   inkscape:pagecheckerboard="0"
   inkscape:deskcolor="#d1d1d1"
   showgrid="false"
   inkscape:zoom="0.63194332"
   inkscape:cx="-29.274777"
   inkscape:cy="466.02281"
   inkscape:window-width="1390"
   inkscape:window-height="949"
   inkscape:window-x="530"
   inkscape:window-y="25"
   inkscape:window-maximized="0"
   inkscape:current-layer="Layer_1" />

<rect
   x="0.54002064"
   y="0.54002064"
   class="st0"
   width="376.73547"
   height="502.67395"
   id="rect14157"
   style="fill:#ffffff;stroke:#231f20;stroke-width:1.08004;stroke-miterlimit:10" /><polygon
   class="st20"
   points="740.32,66.88 732.03,56.84 723.89,66.8 723.89,66.81 732.03,76.41 "
   id="polygon15423"
   style="fill:#ea1c24"
   transform="matrix(4.4202211,0,0,4.2223765,-3149.1328,-180.0088)" /><polygon
   class="st20"
   points="755.1,89.55 763.38,80.02 755.1,69.98 746.95,79.95 746.96,79.95 746.95,79.95 "
   id="polygon15425"
   style="fill:#ea1c24"
   transform="matrix(4.4202211,0,0,4.2223765,-3149.1328,-180.0088)" /><polygon
   class="st20"
   points="755.1,129.47 763.38,119.94 755.1,109.9 746.95,119.87 746.96,119.87 746.95,119.87 "
   id="polygon15427"
   style="fill:#ea1c24"
   transform="matrix(4.4202211,0,0,4.2223765,-3149.1328,-180.0088)" /><polygon
   class="st20"
   points="786.42,66.88 778.14,56.84 770,66.8 770,66.81 778.14,76.41 "
   id="polygon15429"
   style="fill:#ea1c24"
   transform="matrix(4.4202211,0,0,4.2223765,-3149.1328,-180.0088)" /><polygon
   class="st20"
   points="740.32,138.2 732.03,128.16 723.89,138.12 723.89,138.13 732.03,147.73 "
   id="polygon15431"
   style="fill:#ea1c24"
   transform="matrix(4.4202211,0,0,4.2223765,-3149.1328,-180.0088)" /><polygon
   class="st20"
   points="740.32,102.54 732.03,92.5 723.89,102.46 723.89,102.47 732.03,112.07 "
   id="polygon15433"
   style="fill:#ea1c24"
   transform="matrix(4.4202211,0,0,4.2223765,-3149.1328,-180.0088)" /><polygon
   class="st20"
   points="786.42,102.54 778.14,92.5 770,102.46 770,102.47 778.14,112.07 "
   id="polygon15435"
   style="fill:#ea1c24"
   transform="matrix(4.4202211,0,0,4.2223765,-3149.1328,-180.0088)" /><polygon
   class="st20"
   points="786.45,138.2 778.16,128.16 770.02,138.12 770.02,138.13 778.16,147.73 "
   id="polygon15437"
   style="fill:#ea1c24"
   transform="matrix(4.4202211,0,0,4.2223765,-3149.1328,-180.0088)" /><polygon
   class="st20"
   points="719.31,58.92 716.41,62.47 719.31,65.89 722.27,62.5 "
   id="polygon16005"
   style="fill:#ea1c24"
   transform="matrix(4.4202211,0,0,4.2223765,-3149.1328,-180.0088)" /><polygon
   class="st20"
   points="790.97,146.01 788.07,142.46 790.97,139.04 793.92,142.44 "
   id="polygon16007"
   style="fill:#ea1c24"
   transform="matrix(4.4202211,0,0,4.2223765,-3149.1328,-180.0088)" /><path
   class="st20"
   d="M 26.309936,37.612491 C 22.596891,34.69905 20.21,32.376749 19.193344,30.687798 18.132464,28.956624 17.602059,27.141 17.602059,25.240928 c 0,-1.435605 0.309566,-2.786768 0.928279,-4.053483 0.618431,-1.266708 1.458613,-2.40675 2.607869,-3.377901 1.105105,-0.971145 2.431187,-1.731168 4.022471,-2.322302 1.591215,-0.548909 3.3151,-0.844478 5.260035,-0.844478 1.856486,0 3.536149,0.25333 5.083279,0.802254 1.547061,0.54891 2.828919,1.224484 3.933952,2.111187 1.105034,0.886696 1.944935,1.900072 2.563718,3.082331 0.619133,1.140042 0.928278,2.364532 0.928278,3.589023 0,1.646726 -0.619133,3.335676 -1.856487,5.066852 -1.237705,1.731175 -3.801421,3.757913 -7.735374,6.080221 1.989088,1.52006 3.66875,2.828992 4.994832,4.011258 1.326082,1.140042 2.298515,2.153411 2.961521,2.99789 1.723886,2.195634 2.60794,4.560167 2.60794,7.051365 0,1.562278 -0.309567,2.99789 -0.972432,4.39127 -0.662655,1.351164 -1.591285,2.575654 -2.740542,3.589023 -1.19348,1.055594 -2.60794,1.857848 -4.287602,2.448981 -1.679732,0.591153 -3.491995,0.886696 -5.525307,0.886696 -1.944865,0 -3.712974,-0.29558 -5.348482,-0.886696 -1.635439,-0.591154 -3.005744,-1.393387 -4.199155,-2.364533 -1.193482,-1.013368 -2.077536,-2.15341 -2.740542,-3.462349 -0.663357,-1.308939 -0.972502,-2.70232 -0.972502,-4.180156 0,-1.942289 0.7073,-3.884585 2.077536,-5.826875 0.70723,-0.971145 1.635508,-1.984521 2.828919,-3.082338 1.149256,-1.055593 2.60794,-2.153411 4.287673,-3.335677 z m 1.635437,1.266714 c -1.635437,1.308939 -2.917366,2.744544 -3.889798,4.349046 -0.57491,0.971152 -1.016656,2.026745 -1.281859,3.082339 -0.265343,1.097817 -0.398014,2.195635 -0.398014,3.377901 0,1.393381 0.221119,2.660095 0.619134,3.800137 0.442237,1.140042 1.016585,2.111187 1.768039,2.913441 0.751454,0.802248 1.635508,1.435605 2.696387,1.900065 1.06081,0.464485 2.210067,0.675582 3.447772,0.675582 1.237635,0 2.342668,-0.168911 3.359324,-0.54891 1.016656,-0.379998 1.856486,-0.844471 2.563716,-1.477829 0.70723,-0.633328 1.237705,-1.351163 1.635509,-2.195635 0.398014,-0.844479 0.574909,-1.731175 0.574909,-2.660096 0,-1.562284 -0.442238,-2.955665 -1.281858,-4.222379 -1.547061,-2.237859 -4.862231,-5.277973 -9.812909,-8.993662 z m 3.757198,-4.771288 c 2.740542,-2.364526 4.464428,-4.222373 5.215881,-5.573536 0.751384,-1.393381 1.105033,-2.955659 1.105033,-4.64461 0,-2.322308 -0.662654,-4.095707 -1.989088,-5.404646 -1.326082,-1.308932 -3.182568,-1.942289 -5.525307,-1.942289 -1.149257,0 -2.210066,0.168911 -3.182569,0.506667 -0.972432,0.337755 -1.768039,0.802248 -2.475269,1.39338 -0.70723,0.591153 -1.237705,1.266715 -1.635508,2.068969 -0.398015,0.802248 -0.57491,1.604503 -0.57491,2.448975 0,1.140041 0.309567,2.280083 0.928278,3.377901 0.618432,1.140042 1.458614,2.195635 2.607871,3.251228 z"
   id="path16039"
   style="fill:#ea1c24;stroke-width:4.32016" /><path
   class="st20"
   d="m 338.24487,463.31249 c -1.19341,-1.05559 -2.12169,-2.06896 -2.82892,-3.08233 -1.37023,-1.94229 -2.07747,-3.88459 -2.07747,-5.82688 0,-1.47783 0.30957,-2.87122 0.97243,-4.18016 0.66266,-1.30893 1.54707,-2.4912 2.74055,-3.46234 1.19341,-1.01337 2.56371,-1.7734 4.19922,-2.36453 1.63544,-0.59112 3.40355,-0.88671 5.34842,-0.88671 1.98915,0 3.84565,0.2956 5.5253,0.88671 1.67966,0.59119 3.09412,1.4356 4.28761,2.44897 1.19348,1.0556 2.12168,2.23786 2.74053,3.58902 0.66266,1.35117 0.97244,2.829 0.97244,4.39128 0,2.4912 -0.88405,4.85573 -2.60795,7.05137 -0.66265,0.84447 -1.67965,1.85784 -2.96151,2.99788 -1.32609,1.14004 -3.00575,2.49121 -4.99484,4.01125 3.8898,2.32231 6.49774,4.34905 7.73538,6.08023 1.23763,1.73117 1.85648,3.42013 1.85648,5.06685 0,1.22449 -0.30956,2.40676 -0.92827,3.58902 -0.61843,1.14005 -1.45861,2.19564 -2.56372,3.08234 -1.10503,0.8867 -2.43112,1.6045 -3.93395,2.11119 -1.54713,0.54893 -3.22679,0.80225 -5.08328,0.80225 -1.90072,0 -3.66875,-0.2956 -5.26004,-0.84448 -1.59128,-0.54893 -2.91736,-1.35116 -4.0224,-2.32231 -1.1051,-0.97114 -1.98916,-2.11118 -2.60794,-3.37789 -0.61913,-1.26672 -0.92827,-2.61788 -0.92827,-4.05349 0,-1.90006 0.53068,-3.71568 1.59128,-5.44686 1.06088,-1.73118 3.44778,-4.05348 7.1166,-6.9247 -1.63551,-1.14004 -3.0942,-2.28009 -4.28768,-3.33568 z m 15.82439,-6.96692 c 0.88406,-1.26671 1.28187,-2.6601 1.28187,-4.22237 0,-0.92892 -0.1769,-1.81563 -0.57491,-2.6601 -0.39802,-0.84448 -0.92822,-1.56228 -1.63544,-2.19563 -0.70724,-0.63331 -1.54707,-1.09782 -2.56372,-1.47784 -1.01666,-0.37997 -2.12176,-0.54893 -3.35939,-0.54893 -1.23763,0 -2.43112,0.21115 -3.44777,0.67558 -1.06088,0.46449 -1.94487,1.05559 -2.69633,1.90007 -0.75144,0.80225 -1.32607,1.7734 -1.7681,2.91343 -0.44224,1.14005 -0.61913,2.40676 -0.61913,3.80015 0,1.18227 0.13266,2.32231 0.39801,3.3779 0.26534,1.09782 0.70723,2.11119 1.28186,3.08234 0.92821,1.6045 2.21006,3.04011 3.88979,4.34904 4.95062,-3.67347 8.22156,-6.67135 9.81284,-8.99366 z m -11.71354,18.28289 c -1.10504,1.0556 -1.98909,2.15341 -2.60794,3.25123 -0.61914,1.14004 -0.92829,2.23786 -0.92829,3.3779 0,0.84448 0.1769,1.68895 0.57492,2.44898 0.39801,0.80225 0.92828,1.47783 1.6355,2.06896 0.70724,0.59119 1.54707,1.05559 2.47534,1.39339 0.97244,0.33785 2.03331,0.50667 3.18257,0.50667 2.34268,0 4.19923,-0.6333 5.52524,-1.94229 1.32609,-1.30894 1.98909,-3.08233 1.98909,-5.40464 0,-1.68895 -0.35379,-3.25123 -1.10503,-4.64462 -0.75146,-1.35115 -2.47535,-3.209 -5.21588,-5.57353 z"
   id="path16041"
   style="fill:#ea1c24;stroke-width:4.32016" /></svg>
