<?xml version="1.0" encoding="UTF-8" standalone="no"?>
<!-- Uploaded to: SVG Repo, www.svgrepo.com, Generator: SVG Repo Mixer Tools -->

<svg
   height="800"
   width="600"
   version="1.1"
   id="Layer_1"
   viewBox="0 0 377.8155 503.754"
   xml:space="preserve"
   sodipodi:docname="H8.svg"
   inkscape:version="1.2.2 (b0a8486, 2022-12-01)"
   xmlns:inkscape="http://www.inkscape.org/namespaces/inkscape"
   xmlns:sodipodi="http://sodipodi.sourceforge.net/DTD/sodipodi-0.dtd"
   xmlns="http://www.w3.org/2000/svg"
   xmlns:svg="http://www.w3.org/2000/svg"><defs
   id="defs158529" /><sodipodi:namedview
   id="namedview158527"
   pagecolor="#ffffff"
   bordercolor="#000000"
   borderopacity="0.25"
   inkscape:showpageshadow="2"
   inkscape:pageopacity="0.0"
   inkscape:pagecheckerboard="0"
   inkscape:deskcolor="#d1d1d1"
   showgrid="false"
   inkscape:zoom="0.63194332"
   inkscape:cx="-29.274777"
   inkscape:cy="466.02281"
   inkscape:window-width="1390"
   inkscape:window-height="949"
   inkscape:window-x="530"
   inkscape:window-y="25"
   inkscape:window-maximized="0"
   inkscape:current-layer="Layer_1" />

<rect
   x="0.54002064"
   y="0.54002064"
   class="st0"
   width="376.73547"
   height="502.67395"
   id="rect14195"
   style="fill:#ffffff;stroke:#231f20;stroke-width:1.08004;stroke-miterlimit:10" /><path
   class="st20"
   d="m 360.52289,425.35335 v 0 c 0,0.0845 0,0.16896 0,0.25347 0,4.13788 -3.27095,7.47357 -7.3375,7.47357 -2.78477,0 -5.17166,-1.56224 -6.40937,-3.8846 -1.23763,2.32236 -3.66875,3.8846 -6.40929,3.8846 -4.0224,0 -7.33756,-3.33569 -7.33756,-7.47357 0,-0.0845 0,-0.16896 0,-0.21121 v 0 c 0,-6.50248 5.56945,-12.58266 10.91794,-16.12944 l 2.82891,-1.85789 2.82892,1.85789 c 5.39271,3.50454 10.91795,9.45811 10.91795,15.96053 v 0 c 0,0 0,0.0404 0,0.0404 z"
   id="path15675"
   style="fill:#ea1c24;stroke-width:4.32016" /><path
   class="st20"
   d="m 44.432877,74.178329 v 0 c 0,-0.08451 0,-0.168958 0,-0.253471 0,-4.137942 -3.270947,-7.473637 -7.337571,-7.473637 -2.784695,0 -5.171657,1.562304 -6.409291,3.884605 -1.237635,-2.322301 -3.668751,-3.884605 -6.409292,-3.884605 -4.0224,0 -7.33757,3.335695 -7.33757,7.473637 0,0.08451 0,0.168958 0,0.211215 v 0 c 0,6.502479 5.569461,12.582724 10.917943,16.129506 l 2.828919,1.857817 2.828919,-1.857817 c 5.392705,-3.504607 10.917943,-9.458115 10.917943,-15.960595 v 0 c 0,0 0,-0.04037 0,-0.04037 z"
   id="path15693"
   style="fill:#ea1c24;stroke-width:4.32016" /><path
   class="st20"
   d="m 119.13467,80.131906 v 0 c 0,-0.211215 0,-0.42243 0,-0.633645 0,-10.767023 -8.57528,-19.507385 -19.09535,-19.507385 -7.249193,0 -13.525883,4.095694 -16.752676,10.133688 -3.226723,-6.037994 -9.547638,-10.133688 -16.752609,-10.133688 -10.564364,0 -19.095344,8.740362 -19.095344,19.507385 0,0.211215 0,0.42243 0,0.591455 v 0 c 0,17.016172 14.498315,32.892284 28.510382,42.097064 l 7.337571,4.81352 7.33757,-4.81352 C 104.63634,112.982 119.13467,97.528129 119.13467,80.554134 v 0 c 0,-0.04037 0,-0.12677 0,-0.168959 z"
   id="path15735"
   style="fill:#ea1c24;stroke-width:4.32016" /><path
   class="st20"
   d="m 330.377,80.131906 v 0 c 0,-0.211215 0,-0.42243 0,-0.633645 0,-10.767023 -8.5752,-19.507385 -19.09534,-19.507385 -7.2492,0 -13.52589,4.095694 -16.75262,10.133688 -3.22678,-6.037994 -9.54769,-10.133688 -16.75267,-10.133688 -10.56429,0 -19.09534,8.740362 -19.09534,19.507385 0,0.211215 0,0.42243 0,0.591455 v 0 c 0,17.016172 14.49831,32.892284 28.51045,42.097064 l 7.33756,4.81352 7.33758,-4.81352 C 315.87868,112.982 330.377,97.528129 330.377,80.554134 v 0 c 0,-0.04037 0,-0.12677 0,-0.168959 z"
   id="path15737"
   style="fill:#ea1c24;stroke-width:4.32016" /><path
   class="st20"
   d="m 119.13467,239.9066 v 0 c 0,-0.21121 0,-0.42243 0,-0.63364 0,-10.76709 -8.57528,-19.50738 -19.09535,-19.50738 -7.249193,0 -13.525883,4.09569 -16.752676,10.13368 -3.226723,-6.03799 -9.547638,-10.13368 -16.752609,-10.13368 -10.564364,0 -19.095344,8.74029 -19.095344,19.50738 0,0.21121 0,0.42243 0,0.59146 v 0 c 0,17.01617 14.498315,32.89234 28.510382,42.09713 l 7.337571,4.81351 7.33757,-4.81351 c 14.012126,-9.20479 28.510456,-24.65872 28.510456,-41.63265 v 0 c 0,-0.0404 0,-0.1267 0,-0.16896 z"
   id="path15739"
   style="fill:#ea1c24;stroke-width:4.32016" /><path
   class="st20"
   d="m 224.73372,159.4281 v 0 c 0,-0.21122 0,-0.42243 0,-0.63297 0,-10.76709 -8.57521,-19.50739 -19.09535,-19.50739 -7.24918,0 -13.52588,4.0957 -16.7526,10.13369 -3.22679,-6.03799 -9.54771,-10.13369 -16.75268,-10.13369 -10.56428,0 -19.09534,8.7403 -19.09534,19.50739 0,0.21121 0,0.42243 0,0.59145 v 0 c 0,17.01617 14.49832,32.89235 28.51045,42.09714 l 7.33757,4.81351 7.3375,-4.81351 c 14.01214,-9.20479 28.51045,-24.61648 28.51045,-41.63265 v 0 c 0,-0.0404 0,-0.12671 0,-0.16896 z"
   id="path15741"
   style="fill:#ea1c24;stroke-width:4.32016" /><path
   class="st20"
   d="m 152.99352,349.13945 v 0 c 0,0.21122 0,0.42243 0,0.63365 0,10.76702 8.57529,19.50738 19.09535,19.50738 7.24919,0 13.52589,-4.0957 16.75268,-10.13369 3.22672,6.03799 9.54764,10.13369 16.7526,10.13369 10.56436,0 19.09535,-8.74036 19.09535,-19.50738 0,-0.21122 0,-0.42243 0,-0.59146 v 0 c 0,-17.01617 -14.49832,-32.89228 -28.51038,-42.09706 l -7.33757,-4.81352 -7.33757,4.81352 c -14.01214,9.20478 -28.51046,24.65864 -28.51046,41.63264 v 0 c 0,0.0404 0,0.12677 0,0.16896 z"
   id="path15743"
   style="fill:#ea1c24;stroke-width:4.32016" /><path
   class="st20"
   d="m 330.377,239.9066 v 0 c 0,-0.21121 0,-0.42243 0,-0.63364 0,-10.76709 -8.5752,-19.50738 -19.09534,-19.50738 -7.2492,0 -13.52589,4.09569 -16.75262,10.13368 -3.22678,-6.03799 -9.54769,-10.13368 -16.75267,-10.13368 -10.56429,0 -19.09534,8.74029 -19.09534,19.50738 0,0.21121 0,0.42243 0,0.59146 v 0 c 0,17.01617 14.49831,32.89234 28.51045,42.09713 l 7.33756,4.81351 7.33758,-4.81351 C 315.87868,272.75676 330.377,257.30283 330.377,240.3289 v 0 c 0,-0.0404 0,-0.1267 0,-0.16896 z"
   id="path15745"
   style="fill:#ea1c24;stroke-width:4.32016" /><path
   class="st20"
   d="m 258.63681,426.40899 v 0 c 0,0.21122 0,0.42243 0,0.63298 0,10.76709 8.57527,19.50738 19.09534,19.50738 7.2492,0 13.52588,-4.09569 16.75267,-10.13369 3.22673,6.038 9.54764,10.13369 16.75261,10.13369 10.56437,0 19.09542,-8.74029 19.09542,-19.50738 0,-0.21122 0,-0.42243 0,-0.59139 v 0 c 0,-17.01617 -14.49839,-32.89228 -28.51046,-42.09707 l -7.33757,-4.81351 -7.33757,4.81351 c -14.01213,9.20479 -28.51044,24.65865 -28.51044,41.63265 v 0 c 0,0.0404 0,0.1267 0,0.16896 z"
   id="path15947"
   style="fill:#ea1c24;stroke-width:4.32016" /><path
   class="st20"
   d="m 47.394467,426.40899 v 0 c 0,0.21122 0,0.42243 0,0.63298 0,10.76709 8.575204,19.50738 19.095344,19.50738 7.249195,0 13.525886,-4.09569 16.752609,-10.13369 3.226792,6.038 9.547707,10.13369 16.752676,10.13369 10.564294,0 19.095344,-8.74029 19.095344,-19.50738 0,-0.21122 0,-0.42243 0,-0.59139 v 0 c 0,-17.01617 -14.49832,-32.89228 -28.51045,-42.09707 l -7.33757,-4.81351 -7.33757,4.81351 c -14.012067,9.20479 -28.510383,24.65865 -28.510383,41.63265 v 0 c 0,0.0404 0,0.1267 0,0.16896 z"
   id="path15949"
   style="fill:#ea1c24;stroke-width:4.32016" /><path
   class="st20"
   d="m 26.310035,34.994653 c -3.713044,-2.913455 -6.099935,-5.235756 -7.116591,-6.92466 -1.060881,-1.731215 -1.591286,-3.546784 -1.591286,-5.44691 0,-1.435572 0.309567,-2.786721 0.928279,-4.053449 0.618431,-1.266728 1.458614,-2.40679 2.60787,-3.377942 1.105105,-0.971084 2.431186,-1.731148 4.022471,-2.322301 1.591214,-0.549179 3.3151,-0.844418 5.260035,-0.844418 1.856486,0 3.536148,0.253465 5.083279,0.80224 1.547061,0.549179 2.828919,1.224485 3.933952,2.111147 1.105034,0.886729 1.944935,1.900058 2.563717,3.082365 0.619133,1.140062 0.928279,2.364545 0.928279,3.589029 0,1.646726 -0.619134,3.33563 -1.856487,5.066845 -1.237705,1.731148 -3.801421,3.757873 -7.735374,6.080241 1.989088,1.519993 3.66875,2.828965 4.994832,4.011205 1.326082,1.140062 2.298514,2.153458 2.961521,2.997876 1.723885,2.195702 2.60794,4.560181 2.60794,7.051393 0,1.562304 -0.309567,2.997876 -0.972432,4.39127 -0.662655,1.351149 -1.591285,2.575633 -2.740542,3.589029 -1.193481,1.055573 -2.60794,1.857814 -4.287603,2.448968 -1.679731,0.591422 -3.491994,0.886729 -5.525306,0.886729 -1.944865,0 -3.712974,-0.295707 -5.348482,-0.886729 -1.635439,-0.591422 -3.005744,-1.393395 -4.199155,-2.364546 -1.193482,-1.013329 -2.077536,-2.153391 -2.740542,-3.462296 -0.663357,-1.308972 -0.972503,-2.702367 -0.972503,-4.180183 0,-1.942303 0.7073,-3.884605 2.077537,-5.826841 0.707229,-0.971152 1.635508,-1.984548 2.828919,-3.082365 1.149256,-1.055573 2.60794,-2.153391 4.287672,-3.335697 z m 1.635438,1.224483 c -1.635438,1.308973 -2.917366,2.744544 -3.889799,4.349093 -0.574909,0.971152 -1.016655,2.026725 -1.281858,3.082298 -0.265343,1.097818 -0.398015,2.195635 -0.398015,3.377942 0,1.393326 0.22112,2.660055 0.619133,3.800117 0.442239,1.140062 1.016586,2.111213 1.76804,2.913454 0.751453,0.802241 1.635509,1.435572 2.696388,1.900059 1.06081,0.464686 2.210067,0.675575 3.447772,0.675575 1.237634,0 2.342668,-0.168979 3.359324,-0.549179 1.016656,-0.380201 1.856486,-0.844486 2.563716,-1.477817 0.70723,-0.633665 1.237705,-1.351149 1.635508,-2.195635 0.398015,-0.844485 0.57491,-1.731215 0.57491,-2.660122 0,-1.562305 -0.442238,-2.955631 -1.281859,-4.22236 -1.54706,-2.195632 -4.86223,-5.235753 -9.812909,-8.993693 z m 3.757198,-4.729024 c 2.740542,-2.364545 4.464427,-4.222359 5.21588,-5.573576 0.751384,-1.393327 1.105034,-2.955632 1.105034,-4.644603 0,-2.322301 -0.662656,-4.095694 -1.989088,-5.404599 -1.326082,-1.308972 -3.18257,-1.942303 -5.525307,-1.942303 -1.149257,0 -2.210067,0.168979 -3.182569,0.506929 -0.972432,0.337958 -1.768039,0.802242 -2.475269,1.393395 -0.70723,0.591421 -1.237705,1.266728 -1.635509,2.068968 -0.398014,0.802242 -0.574909,1.604482 -0.574909,2.448968 0,1.140062 0.309567,2.280057 0.928278,3.377874 0.618431,1.140062 1.458613,2.195636 2.607871,3.251276 z"
   id="path16135"
   style="fill:#ea1c24;stroke-width:4.32016" /><path
   class="st20"
   d="m 338.24497,460.69467 c -1.1934,-1.05557 -2.12169,-2.06897 -2.82891,-3.08237 -1.37024,-1.94223 -2.07747,-3.88454 -2.07747,-5.82684 0,-1.47782 0.30957,-2.87121 0.97243,-4.18018 0.66265,-1.30891 1.54706,-2.49122 2.74055,-3.4623 1.1934,-1.01339 2.56371,-1.77346 4.19922,-2.36454 1.63543,-0.59146 3.40355,-0.88673 5.34841,-0.88673 1.98916,0 3.84564,0.29573 5.52531,0.88673 1.67966,0.59071 3.09412,1.43557 4.2876,2.44897 1.19348,1.05557 2.12169,2.23787 2.74054,3.58902 0.66266,1.35115 0.97243,2.82897 0.97243,4.39127 0,2.49122 -0.88405,4.85569 -2.60794,7.05133 -0.66265,0.84448 -1.67966,1.85788 -2.96151,2.99794 -1.32609,1.14 -3.00575,2.49121 -4.99484,4.01121 3.8898,2.32237 6.49774,4.34909 7.73537,6.08024 1.23764,1.73121 1.85649,3.42012 1.85649,5.06685 0,1.22448 -0.30956,2.40678 -0.92827,3.58902 -0.61914,1.14006 -1.45862,2.19564 -2.56373,3.08237 -1.10502,0.88666 -2.43111,1.60448 -3.93394,2.11114 -1.54714,0.5492 -3.2268,0.80224 -5.08328,0.80224 -1.90072,0 -3.66875,-0.29572 -5.26004,-0.84441 -1.59129,-0.5492 -2.91736,-1.35122 -4.0224,-2.3223 -1.1051,-0.97115 -1.98916,-2.11122 -2.60794,-3.37795 -0.61914,-1.26672 -0.92828,-2.61787 -0.92828,-4.05345 0,-1.90012 0.53068,-3.71569 1.59129,-5.44691 1.06088,-1.73115 3.44777,-4.05345 7.11659,-6.92466 -1.63551,-1.14006 -3.0942,-2.28012 -4.28768,-3.33569 z m 15.8244,-6.96691 c 0.88406,-1.26673 1.28186,-2.66012 1.28186,-4.22236 0,-0.92897 -0.17689,-1.81563 -0.57491,-2.66012 -0.39801,-0.84448 -0.92821,-1.5623 -1.63544,-2.19563 -0.70723,-0.63365 -1.54706,-1.09782 -2.56372,-1.47782 -1.01665,-0.38017 -2.12175,-0.5492 -3.35938,-0.5492 -1.23764,0 -2.43112,0.21121 -3.44778,0.67557 -1.06087,0.46469 -1.94487,1.05558 -2.69632,1.90006 -0.75145,0.80224 -1.32608,1.77339 -1.7681,2.91345 -0.44224,1.14 -0.61914,2.40672 -0.61914,3.80012 0,1.18224 0.13267,2.3223 0.39802,3.37787 0.26534,1.09782 0.70722,2.11122 1.28185,3.08237 0.92822,1.60448 2.21007,3.04012 3.8898,4.34903 4.9506,-3.67345 8.22156,-6.67133 9.81284,-8.99363 z m -11.71355,18.28291 c -1.10503,1.05557 -1.98909,2.15339 -2.60794,3.2512 -0.61913,1.14006 -0.92828,2.23788 -0.92828,3.37788 0,0.84448 0.1769,1.68897 0.57491,2.44903 0.39802,0.80224 0.92828,1.47782 1.63551,2.0689 0.70723,0.59139 1.54706,1.05564 2.47534,1.3934 0.97243,0.33792 2.03331,0.50694 3.18257,0.50694 2.34266,0 4.19923,-0.63364 5.52523,-1.9423 1.32609,-1.30897 1.98909,-3.08236 1.98909,-5.40467 0,-1.68897 -0.35379,-3.25121 -1.10503,-4.6446 -0.75145,-1.35115 -2.47534,-3.20903 -5.21588,-5.57351 z"
   id="path16137"
   style="fill:#ea1c24;stroke-width:4.32016" /></svg>
