<?xml version="1.0" encoding="UTF-8" standalone="no"?>
<!-- Uploaded to: SVG Repo, www.svgrepo.com, Generator: SVG Repo Mixer Tools -->

<svg
   height="800"
   width="600"
   version="1.1"
   id="Layer_1"
   viewBox="0 0 377.8155 503.754"
   xml:space="preserve"
   sodipodi:docname="S8.svg"
   inkscape:version="1.2.2 (b0a8486, 2022-12-01)"
   xmlns:inkscape="http://www.inkscape.org/namespaces/inkscape"
   xmlns:sodipodi="http://sodipodi.sourceforge.net/DTD/sodipodi-0.dtd"
   xmlns="http://www.w3.org/2000/svg"
   xmlns:svg="http://www.w3.org/2000/svg"><defs
   id="defs158529" /><sodipodi:namedview
   id="namedview158527"
   pagecolor="#ffffff"
   bordercolor="#000000"
   borderopacity="0.25"
   inkscape:showpageshadow="2"
   inkscape:pageopacity="0.0"
   inkscape:pagecheckerboard="0"
   inkscape:deskcolor="#d1d1d1"
   showgrid="false"
   inkscape:zoom="0.63194332"
   inkscape:cx="401.14357"
   inkscape:cy="424.87988"
   inkscape:window-width="1390"
   inkscape:window-height="949"
   inkscape:window-x="530"
   inkscape:window-y="25"
   inkscape:window-maximized="0"
   inkscape:current-layer="Layer_1" />

<rect
   x="0.54002064"
   y="0.54002064"
   class="st0"
   width="376.73547"
   height="502.67395"
   id="rect14233"
   style="fill:#ffffff;stroke:#231f20;stroke-width:1.08004;stroke-miterlimit:10" /><path
   class="st21"
   d="m 331.96823,415.26191 v 0 c 0,6.20691 5.6579,11.99157 11.09476,15.32727 l 2.82892,1.73115 2.82899,-1.73115 c 5.43687,-3.3357 11.09471,-8.95145 11.09471,-15.15836 v 0 c 0,0 0,-0.0404 0,-0.0404 v -0.0845 0 c 0,-0.0845 0,-0.16896 0,-0.21122 0,-3.92684 -3.31518,-7.09364 -7.42596,-7.09364 -2.12168,0 -3.97817,0.84449 -5.34848,2.15346 0.26534,-1.52005 0.75145,-2.99794 1.59129,-4.34909 l 0.5749,-0.97115 h -2.03331 -2.60786 -2.03331 l 0.5749,0.92898 c 0.83983,1.39332 1.37024,2.87121 1.63544,4.43344 -1.37023,-1.35115 -3.27095,-2.23781 -5.39264,-2.23781 -4.11084,0 -7.42602,3.16678 -7.42602,7.09357 0.0421,0.0845 0.0421,0.16896 0.0421,0.21122 z"
   id="path15811"
   style="fill:#2d2d2d;stroke-width:4.32016" /><path
   class="st21"
   d="m 44.653871,81.229732 v 0 c 0,-6.206913 -5.657908,-11.991578 -11.094768,-15.327206 l -2.828919,-1.731216 -2.82899,1.731216 c -5.436859,3.335628 -11.094697,8.951388 -11.094697,15.158295 v 0 c 0,0 0,0.04037 0,0.04037 v 0.08451 0 c 0,0.08451 0,0.168958 0,0.211215 0,3.926787 3.31517,7.093571 7.425948,7.093571 2.121689,0 3.978175,-0.844483 5.348482,-2.153389 -0.265343,1.520061 -0.751454,2.997872 -1.591285,4.349022 l -0.574909,0.971151 h 2.033311 2.607941 2.033242 l -0.57491,-0.928901 c -0.83983,-1.393561 -1.370235,-2.871373 -1.635437,-4.433677 1.370235,1.35115 3.270945,2.237876 5.392635,2.237876 4.110848,0 7.426018,-3.166784 7.426018,-7.093565 -0.04212,-0.08451 -0.04212,-0.168958 -0.04212,-0.211215 z"
   id="path15827"
   style="fill:#2d2d2d;stroke-width:4.32016" /><path
   class="st21"
   d="m 48.32262,400.99028 v 0 c 0,15.49611 14.144736,29.9789 27.803222,38.38144 l 7.160745,4.39127 7.160745,-4.39127 c 13.658488,-8.40254 27.803218,-22.46308 27.803218,-38.00137 v 0 c 0,-0.0404 0,-0.0845 0,-0.12677 v -0.21121 0 c 0,-0.21122 0,-0.38018 0,-0.59146 0,-9.83811 -8.35423,-17.77617 -18.609161,-17.77617 -5.260033,0 -9.989664,2.11115 -13.393211,5.44684 0.618431,-3.80011 1.944864,-7.5158 3.933952,-10.89375 l 1.458684,-2.44897 h -5.08328 -6.49767 -5.083279 l 1.41446,2.3223 c 2.077535,3.46237 3.447771,7.22031 4.110847,11.14709 -3.403617,-3.42012 -8.177471,-5.57351 -13.525884,-5.57351 -10.299162,0 -18.609163,7.98031 -18.609163,17.77617 -0.04212,0.21121 -0.04212,0.38017 -0.04212,0.5492 z"
   id="path15877"
   style="fill:#2d2d2d;stroke-width:4.32016" /><path
   class="st21"
   d="m 153.92175,331.99669 v 0 c 0,15.49611 14.14466,29.97883 27.80315,38.38136 l 7.16081,4.39128 7.16075,-4.39128 c 13.65848,-8.40253 27.80315,-22.46301 27.80315,-38.00136 v 0 c 0,-0.0404 0,-0.0845 0,-0.1267 v -0.21122 0 c 0,-0.21121 0,-0.38017 0,-0.59146 0,-9.83818 -8.35423,-17.77623 -18.6091,-17.77623 -5.2601,0 -9.98973,2.11121 -13.39328,5.44691 0.61913,-3.80018 1.94487,-7.51588 3.93403,-10.89375 l 1.45861,-2.44897 h -5.08321 -6.49774 -5.08328 l 1.41446,2.3223 c 2.07753,3.46236 3.44784,7.22024 4.11085,11.14709 -3.40355,-3.42012 -8.1774,-5.57358 -13.52588,-5.57358 -10.2991,0 -18.60917,7.9803 -18.60917,17.77623 -0.0421,0.21122 -0.0421,0.38018 -0.0421,0.5492 z"
   id="path15879"
   style="fill:#2d2d2d;stroke-width:4.32016" /><path
   class="st21"
   d="m 118.20633,102.76384 v 0 c 0,-15.496113 -14.14466,-29.978829 -27.803151,-38.381375 l -7.160815,-4.39127 -7.160745,4.39127 C 62.423133,72.785011 48.278467,86.845485 48.278467,102.38384 v 0 c 0,0.0404 0,0.0845 0,0.12677 v 0.21121 0 c 0,0.21122 0,0.38018 0,0.59072 0,9.83818 8.354226,17.77623 18.609092,17.77623 5.260107,0 9.989737,-2.11121 13.393284,-5.4469 -0.619133,3.80017 -1.944864,7.51588 -3.934022,10.89375 l -1.458613,2.44897 h 5.083209 6.49774 5.08328 l -1.414531,-2.32231 c -2.077465,-3.46236 -3.44777,-7.22024 -4.110777,-11.14708 3.403547,3.42012 8.177401,5.57357 13.525883,5.57357 10.299088,0 18.609168,-7.98029 18.609168,-17.77623 0.0421,-0.21122 0.0421,-0.38017 0.0421,-0.5492 z"
   id="path15881"
   style="fill:#2d2d2d;stroke-width:4.32016" /><path
   class="st21"
   d="m 118.20633,260.13182 v 0 c 0,-15.49612 -14.14466,-29.9789 -27.803151,-38.38138 l -7.160815,-4.39127 -7.160745,4.39127 c -13.658486,8.40248 -27.803152,22.46302 -27.803152,38.00138 v 0 c 0,0.0404 0,0.0845 0,0.1267 v 0.21121 0 c 0,0.21122 0,0.38018 0,0.59146 0,9.83818 8.354226,17.77624 18.609092,17.77624 5.260107,0 9.989737,-2.11122 13.393284,-5.44691 -0.619133,3.80018 -1.944864,7.51588 -3.934022,10.89375 l -1.458613,2.44897 h 5.083209 6.49774 5.08328 l -1.414531,-2.3223 c -2.077465,-3.46237 -3.44777,-7.22024 -4.110777,-11.14709 3.403547,3.42012 8.177401,5.57358 13.525883,5.57358 10.299088,0 18.609168,-7.9803 18.609168,-17.77624 0.0421,-0.16896 0.0421,-0.33798 0.0421,-0.5492 z"
   id="path15883"
   style="fill:#2d2d2d;stroke-width:4.32016" /><path
   class="st21"
   d="m 259.56503,400.99028 v 0 c 0,15.49611 14.14466,29.9789 27.80314,38.38144 l 7.16082,4.39127 7.16075,-4.39127 c 13.65848,-8.40254 27.80314,-22.46308 27.80314,-38.00137 v 0 c 0,-0.0404 0,-0.0845 0,-0.12677 v -0.21121 0 c 0,-0.21122 0,-0.38018 0,-0.59146 0,-9.83811 -8.35422,-17.77617 -18.60908,-17.77617 -5.26011,0 -9.98974,2.11115 -13.39329,5.44684 0.61914,-3.80011 1.94487,-7.5158 3.93402,-10.89375 l 1.45862,-2.44897 h -5.08321 -6.49774 -5.08328 l 1.41453,2.3223 c 2.07747,3.46237 3.44778,7.22031 4.11078,11.14709 -3.40355,-3.42012 -8.1774,-5.57351 -13.52589,-5.57351 -10.29908,0 -18.60909,7.98031 -18.60909,17.77617 -0.0884,0.21121 -0.0884,0.38017 -0.0421,0.5492 z"
   id="path15923"
   style="fill:#2d2d2d;stroke-width:4.32016" /><path
   class="st21"
   d="m 329.44873,102.76384 v 0 c 0,-15.496113 -14.14473,-29.978829 -27.80322,-38.381375 l -7.16074,-4.39127 -7.16075,4.39127 c -13.65848,8.402546 -27.80322,22.46302 -27.80322,38.001375 v 0 c 0,0.0404 0,0.0845 0,0.12677 v 0.21121 0 c 0,0.21122 0,0.38018 0,0.59072 0,9.83818 8.35423,17.77623 18.60917,17.77623 5.26003,0 9.98966,-2.11121 13.39328,-5.4469 -0.61913,3.80017 -1.94494,7.51588 -3.93403,10.89375 l -1.45868,2.44897 h 5.08328 6.49767 5.08328 l -1.41446,-2.32231 c -2.07753,-3.46236 -3.44777,-7.22024 -4.11077,-11.14708 3.40355,3.42012 8.17739,5.57357 13.5258,5.57357 10.29917,0 18.60917,-7.98029 18.60917,-17.77623 0.0421,-0.21122 0.0421,-0.38017 0.0421,-0.5492 z"
   id="path15925"
   style="fill:#2d2d2d;stroke-width:4.32016" /><path
   class="st21"
   d="m 329.44873,260.13182 v 0 c 0,-15.49612 -14.14473,-29.9789 -27.80322,-38.38138 l -7.16074,-4.39127 -7.16075,4.39127 c -13.65848,8.40248 -27.80322,22.46302 -27.80322,38.00138 v 0 c 0,0.0404 0,0.0845 0,0.1267 v 0.21121 0 c 0,0.21122 0,0.38018 0,0.59146 0,9.83818 8.35423,17.77624 18.60917,17.77624 5.26003,0 9.98966,-2.11122 13.39328,-5.44691 -0.61913,3.80018 -1.94494,7.51588 -3.93403,10.89375 l -1.45868,2.44897 h 5.08328 6.49767 5.08328 l -1.41446,-2.3223 c -2.07753,-3.46237 -3.44777,-7.22024 -4.11077,-11.14709 3.40355,3.42012 8.17739,5.57358 13.5258,5.57358 10.29917,0 18.60917,-7.9803 18.60917,-17.77624 0.0421,-0.16896 0.0421,-0.33798 0.0421,-0.5492 z"
   id="path15927"
   style="fill:#2d2d2d;stroke-width:4.32016" /><path
   class="st21"
   d="m 223.80546,181.08895 v 0 c 0,-15.49611 -14.14474,-29.9789 -27.80322,-38.38144 l -7.16075,-4.39127 -7.16075,4.39127 c -13.65848,8.40254 -27.80321,22.46308 -27.80321,38.00144 v 0 c 0,0.0404 0,0.0845 0,0.12671 v 0.21121 0 c 0,0.21122 0,0.38018 0,0.59139 0,9.83811 8.35422,17.77617 18.60916,17.77617 5.26003,0 9.98966,-2.11115 13.39321,-5.44684 -0.61914,3.80012 -1.94486,7.51581 -3.93395,10.89375 l -1.45868,2.44897 h 5.08328 6.49767 5.08328 l -1.41446,-2.3223 c -2.07755,-3.46237 -3.44778,-7.2203 -4.11086,-11.14709 3.40362,3.42012 8.17748,5.57351 13.52589,5.57351 10.29916,0 18.60916,-7.9803 18.60916,-17.77617 0.0884,-0.16896 0.0884,-0.38017 0.0421,-0.5492 z"
   id="path15931"
   style="fill:#2d2d2d;stroke-width:4.32016" /><path
   class="st21"
   d="m 26.309981,33.770239 c -3.713045,-2.913454 -6.099936,-5.235755 -7.116592,-6.924726 -1.06088,-1.731148 -1.591285,-3.546785 -1.591285,-5.446843 0,-1.435639 0.309566,-2.786788 0.928279,-4.053517 0.618431,-1.266661 1.458613,-2.406723 2.607869,-3.377874 1.105105,-0.971151 2.431187,-1.731215 4.022471,-2.322301 1.591214,-0.549179 3.3151,-0.844486 5.260035,-0.844486 1.856486,0 3.536149,0.253465 5.083279,0.802241 1.547061,0.549179 2.828919,1.224484 3.933952,2.111214 1.105034,0.886662 1.944935,1.900058 2.563718,3.082298 0.619132,1.140062 0.928278,2.364545 0.928278,3.589028 0,1.646727 -0.619133,3.335698 -1.856487,5.066846 -1.237705,1.731215 -3.801421,3.75794 -7.735374,6.080241 1.989088,1.52006 3.66875,2.828965 4.994832,4.011272 1.326082,1.139995 2.298515,2.153391 2.961521,2.997876 1.723886,2.195635 2.60794,4.56018 2.60794,7.051392 0,1.562238 -0.309567,2.997876 -0.972432,4.391271 -0.662655,1.35115 -1.591284,2.575633 -2.740542,3.588962 -1.19348,1.05564 -2.60794,1.857881 -4.287603,2.449034 -1.679731,0.590749 -3.491994,0.886663 -5.525306,0.886663 -1.944865,0 -3.712974,-0.295708 -5.348482,-0.886663 -1.635439,-0.591421 -3.005744,-1.393394 -4.199155,-2.364545 -1.193482,-1.013397 -2.077536,-2.153391 -2.740542,-3.462363 -0.663357,-1.308906 -0.972502,-2.7023 -0.972502,-4.180183 0,-1.942236 0.7073,-3.884539 2.077536,-5.826841 0.707229,-0.971152 1.635508,-1.984548 2.828919,-3.082366 1.149256,-1.013329 2.60794,-2.15339 4.287673,-3.33563 z m 1.635437,1.266661 c -1.635437,1.308973 -2.917366,2.744544 -3.889798,4.349093 -0.57491,0.971152 -1.016656,2.026725 -1.281859,3.082298 -0.265343,1.097818 -0.398014,2.195635 -0.398014,3.377941 0,1.393394 0.221119,2.660056 0.619133,3.800118 0.442238,1.140062 1.016586,2.111213 1.76804,2.913454 0.751453,0.802241 1.635508,1.435571 2.696387,1.900058 1.06081,0.464687 2.210067,0.675575 3.447772,0.675575 1.237635,0 2.342668,-0.168978 3.359324,-0.549179 1.016656,-0.3802 1.856486,-0.844485 2.563716,-1.477815 0.70723,-0.633665 1.237705,-1.35115 1.635508,-2.195636 0.398015,-0.844485 0.57491,-1.731214 0.57491,-2.660121 0,-1.562239 -0.442238,-2.955633 -1.281858,-4.22236 -1.547061,-2.237878 -4.862231,-5.235754 -9.812909,-8.993694 z m 3.757198,-4.771268 c 2.740542,-2.364546 4.464427,-4.22236 5.21588,-5.57351 0.751384,-1.393394 1.105034,-2.955699 1.105034,-4.644602 0,-2.322301 -0.662654,-4.095761 -1.989088,-5.404666 -1.326082,-1.308906 -3.182569,-1.942303 -5.525307,-1.942303 -1.149257,0 -2.210067,0.168979 -3.182569,0.506929 -0.972432,0.337958 -1.768039,0.802308 -2.475269,1.393394 -0.70723,0.591422 -1.237705,1.266728 -1.635508,2.068969 -0.398015,0.802241 -0.57491,1.60455 -0.57491,2.448968 0,1.140061 0.309567,2.280123 0.928278,3.377941 0.618431,1.139995 1.458614,2.195635 2.607871,3.251209 z"
   id="path16203"
   style="fill:#2d2d2d;stroke-width:4.32016" /><path
   class="st21"
   d="m 338.24492,459.51244 c -1.19341,-1.05558 -2.12169,-2.06898 -2.82892,-3.0823 -1.37024,-1.9423 -2.07747,-3.88461 -2.07747,-5.82691 0,-1.47782 0.30957,-2.87121 0.97243,-4.18019 0.66336,-1.3089 1.54707,-2.49114 2.74055,-3.46229 1.19341,-1.0134 2.56371,-1.77339 4.19922,-2.36455 1.63544,-0.59145 3.40355,-0.88673 5.34842,-0.88673 1.98915,0 3.84563,0.29573 5.5253,0.88673 1.67966,0.59146 3.09412,1.43557 4.28761,2.44897 1.19348,1.05557 2.12168,2.23788 2.74053,3.58903 0.66337,1.35115 0.97244,2.82897 0.97244,4.39127 0,2.49121 -0.88406,4.85576 -2.60795,7.05139 -0.66265,0.84442 -1.67966,1.85782 -2.96151,2.99788 -1.32609,1.14 -3.00575,2.49121 -4.99484,4.01127 3.8898,2.3223 6.49774,4.34903 7.73538,6.08017 1.23763,1.73122 1.85648,3.42012 1.85648,5.06685 0,1.22449 -0.30956,2.40679 -0.92827,3.58903 -0.61843,1.14006 -1.45861,2.19563 -2.56372,3.08236 -1.10503,0.88667 -2.43112,1.60448 -3.93395,2.11115 -1.54714,0.5492 -3.22679,0.80231 -5.08328,0.80231 -1.90072,0 -3.66875,-0.29573 -5.26004,-0.84448 -1.59128,-0.5492 -2.91736,-1.35115 -4.0224,-2.32231 -1.1051,-0.97115 -1.98916,-2.11121 -2.60794,-3.37794 -0.61913,-1.26672 -0.92827,-2.61787 -0.92827,-4.05345 0,-1.90006 0.53068,-3.71569 1.59128,-5.44691 1.06088,-1.73115 3.44777,-4.05345 7.11659,-6.92466 -1.6355,-1.1823 -3.09419,-2.28012 -4.28767,-3.33569 z m 15.82439,-6.96691 c 0.88406,-1.26673 1.28187,-2.66012 1.28187,-4.22236 0,-0.92897 -0.1769,-1.81563 -0.57491,-2.66012 -0.39802,-0.84448 -0.92822,-1.56231 -1.63544,-2.19563 -0.70724,-0.63298 -1.54707,-1.09782 -2.56372,-1.47782 -1.01666,-0.38018 -2.12176,-0.5492 -3.35939,-0.5492 -1.23763,0 -2.43112,0.21121 -3.44777,0.67558 -1.06088,0.46468 -1.94487,1.05557 -2.69633,1.90006 -0.75144,0.80224 -1.32608,1.77339 -1.7681,2.91345 -0.44224,1.14 -0.61913,2.40672 -0.61913,3.80012 0,1.1823 0.13266,2.3223 0.39801,3.37794 0.26534,1.09782 0.70723,2.11114 1.28186,3.0823 0.92821,1.60448 2.21006,3.04012 3.88979,4.34902 4.95061,-3.67345 8.22156,-6.71357 9.81284,-8.99363 z m -11.71354,18.2829 c -1.10504,1.05558 -1.98909,2.15339 -2.60794,3.25121 -0.61914,1.14006 -0.92829,2.23788 -0.92829,3.37788 0,0.84448 0.1769,1.68897 0.57491,2.44903 0.39802,0.80224 0.92829,1.47781 1.63551,2.06897 0.70724,0.59071 1.54707,1.05557 2.47534,1.39332 0.97243,0.33799 2.03331,0.50694 3.18257,0.50694 2.34268,0 4.19923,-0.63364 5.52524,-1.9423 1.32608,-1.30897 1.98909,-3.08236 1.98909,-5.40466 0,-1.68891 -0.3538,-3.25121 -1.10503,-4.64461 -0.75146,-1.35115 -2.47535,-3.20903 -5.21589,-5.57351 z"
   id="path16205"
   style="fill:#2d2d2d;stroke-width:4.32016" /></svg>
