<?xml version="1.0" encoding="UTF-8" standalone="no"?>
<!-- Uploaded to: SVG Repo, www.svgrepo.com, Generator: SVG Repo Mixer Tools -->

<svg
   height="800"
   width="600"
   version="1.1"
   id="Layer_1"
   viewBox="0 0 377.8155 503.754"
   xml:space="preserve"
   sodipodi:docname="C9.svg"
   inkscape:version="1.2.2 (b0a8486, 2022-12-01)"
   xmlns:inkscape="http://www.inkscape.org/namespaces/inkscape"
   xmlns:sodipodi="http://sodipodi.sourceforge.net/DTD/sodipodi-0.dtd"
   xmlns="http://www.w3.org/2000/svg"
   xmlns:svg="http://www.w3.org/2000/svg"><defs
   id="defs158529" /><sodipodi:namedview
   id="namedview158527"
   pagecolor="#ffffff"
   bordercolor="#000000"
   borderopacity="0.25"
   inkscape:showpageshadow="2"
   inkscape:pageopacity="0.0"
   inkscape:pagecheckerboard="0"
   inkscape:deskcolor="#d1d1d1"
   showgrid="false"
   inkscape:zoom="0.63194332"
   inkscape:cx="-29.274777"
   inkscape:cy="466.02281"
   inkscape:window-width="1390"
   inkscape:window-height="949"
   inkscape:window-x="530"
   inkscape:window-y="25"
   inkscape:window-maximized="0"
   inkscape:current-layer="Layer_1" />

<rect
   x="0.54002064"
   y="0.54002064"
   class="st0"
   width="376.73547"
   height="502.67395"
   id="rect14177"
   style="fill:#ffffff;stroke:#231f20;stroke-width:1.08004;stroke-miterlimit:10" /><path
   class="st21"
   d="m 336.30016,423.11543 c -0.22112,0.71782 -0.39802,1.47782 -0.39802,2.28012 0,4.34903 3.66875,7.85357 8.22163,7.85357 4.55281,0 8.22163,-3.50454 8.22163,-7.85357 0,-0.71781 -0.13268,-1.39339 -0.30958,-2.02679 3.93396,-0.59071 6.93977,-3.80012 6.93977,-7.7269 0,-4.34909 -3.66882,-7.85363 -8.22162,-7.85363 -1.72388,0 -3.31517,0.50694 -4.64125,1.35115 0.61913,-1.90006 1.41446,-3.75794 2.38689,-5.53133 l 0.75146,-1.35115 h -9.50349 l 0.22112,0.50694 c 1.01665,2.06897 1.85648,4.22243 2.51949,6.41806 -1.37023,-1.01339 -3.09412,-1.68897 -4.99483,-1.68897 -4.55281,0 -8.22163,3.50455 -8.22163,7.85364 0,4.01127 3.0942,7.22024 7.02815,7.76914 z"
   id="path15517"
   style="fill:#2d2d2d;stroke-width:4.32016" /><path
   class="st21"
   d="m 36.87438,74.684936 c 0.221119,-0.717808 0.398014,-1.477839 0.398014,-2.280085 0,-4.34905 -3.66875,-7.853624 -8.221555,-7.853624 -4.552875,0 -8.221625,3.504574 -8.221625,7.853624 0,0.717807 0.132672,1.393379 0.309566,2.026734 -3.934022,0.59112 -6.939766,3.80014 -6.939766,7.726948 0,4.349056 3.66875,7.853629 8.221626,7.853629 1.723884,0 3.31517,-0.506674 4.641252,-1.351164 -0.619134,1.900074 -1.414531,3.757917 -2.386963,5.531315 l -0.751454,1.351163 h 9.503484 L 33.20584,95.036803 c -1.016656,-2.068971 -1.856487,-4.222381 -2.519563,-6.418014 1.370306,1.013367 3.094191,1.688952 4.994903,1.688952 4.552804,0 8.221554,-3.504579 8.221554,-7.853622 0,-3.969037 -3.049898,-7.22026 -7.028143,-7.76917 z"
   id="path15533"
   style="fill:#2d2d2d;stroke-width:4.32016" /><path
   class="st21"
   d="m 103.04512,85.409769 c 0.5749,-1.815621 0.97242,-3.673471 0.97242,-5.657983 0,-10.640388 -9.017227,-19.254041 -20.156219,-19.254041 -11.138921,0 -20.156153,8.613653 -20.156153,19.254041 0,1.731175 0.309567,3.377898 0.751383,4.982405 -9.636084,1.435602 -17.062032,9.331447 -17.062032,18.958469 0,10.64039 9.017232,19.25404 20.156224,19.25404 4.199224,0 8.133177,-1.2245 11.35997,-3.37791 -1.591285,4.64462 -3.491995,9.20479 -5.834733,13.59605 l -1.812264,3.33569 H 94.602509 L 94.0276,135.31826 c -2.519563,-5.10908 -4.552875,-10.38705 -6.232537,-15.79169 3.403548,2.53343 7.646996,4.09571 12.332407,4.09571 11.13899,0 20.15622,-8.61366 20.15622,-19.25404 0,-9.627017 -7.51439,-17.565092 -17.23886,-18.958471 z"
   id="path15575"
   style="fill:#2d2d2d;stroke-width:4.32016" /><path
   class="st21"
   d="m 313.13819,85.958679 c 0.57491,-1.815621 0.97251,-3.673471 0.97251,-5.657983 0,-10.640388 -9.01731,-19.254043 -20.15623,-19.254043 -11.13899,0 -20.15622,8.613655 -20.15622,19.254043 0,1.731175 0.30956,3.377898 0.75145,4.982404 -9.63608,1.435603 -17.06204,9.331448 -17.06204,18.95847 0,10.64039 9.01724,19.25403 20.15616,19.25403 4.19923,0 8.13324,-1.22449 11.35997,-3.3779 -1.59129,4.64462 -3.49192,9.20479 -5.83466,13.59605 l -1.81233,3.33569 h 23.33878 l -0.5749,-1.18228 c -2.5195,-5.10907 -4.55281,-10.38704 -6.23254,-15.79168 3.40362,2.53343 7.647,4.09571 12.33248,4.09571 11.13891,0 20.15615,-8.61366 20.15615,-19.25404 0,-9.669247 -7.51433,-17.607315 -17.23886,-18.958471 z"
   id="path15577"
   style="fill:#2d2d2d;stroke-width:4.32016" /><path
   class="st21"
   d="m 103.04512,195.74047 c 0.5749,-1.81562 0.97242,-3.67347 0.97242,-5.65799 0,-10.64038 -9.017227,-19.25404 -20.156219,-19.25404 -11.138921,0 -20.156153,8.61366 -20.156153,19.25404 0,1.73118 0.309567,3.37791 0.751383,4.98241 -9.636084,1.4356 -17.062032,9.33145 -17.062032,18.95847 0,10.64038 9.017232,19.25404 20.156224,19.25404 4.199224,0 8.133177,-1.2245 11.35997,-3.37791 -1.591285,4.64462 -3.491995,9.20479 -5.834733,13.59606 l -1.812264,3.33567 H 94.602509 L 94.0276,245.64896 c -2.519563,-5.10908 -4.552875,-10.38705 -6.232537,-15.79169 3.403548,2.53343 7.646996,4.0957 12.332407,4.0957 11.13899,0 20.15622,-8.61364 20.15622,-19.25403 0,-9.62702 -7.51439,-17.56509 -17.23886,-18.95847 z"
   id="path15583"
   style="fill:#2d2d2d;stroke-width:4.32016" /><path
   class="st21"
   d="m 169.70203,273.55884 c -0.57491,1.81564 -0.97243,3.67352 -0.97243,5.658 0,10.64043 9.01723,19.25405 20.15622,19.25405 11.13892,0 20.15622,-8.61362 20.15622,-19.25405 0,-1.73114 -0.30956,-3.37787 -0.75145,-4.98242 9.63609,-1.43558 17.06203,-9.33145 17.06203,-18.95844 0,-10.64039 -9.01723,-19.25404 -20.15622,-19.25404 -4.19916,0 -8.13318,1.22449 -11.35998,3.3779 1.59129,-4.64462 3.492,-9.20478 5.83474,-13.59605 l 1.81227,-3.33568 h -23.3388 l 0.57491,1.18227 c 2.51956,5.10907 4.55287,10.38705 6.23253,15.79169 -3.40354,-2.53343 -7.64699,-4.09572 -12.33239,-4.09572 -11.139,0 -20.15623,8.61366 -20.15623,19.25404 0,9.66925 7.5144,17.6073 17.23885,18.95845 z"
   id="path15585"
   style="fill:#2d2d2d;stroke-width:4.32016" /><path
   class="st21"
   d="m 313.13819,195.23379 c 0.57491,-1.81563 0.97251,-3.67348 0.97251,-5.65799 0,-10.64039 -9.01731,-19.25404 -20.15623,-19.25404 -11.13899,0 -20.15622,8.61365 -20.15622,19.25404 0,1.73117 0.30956,3.3779 0.75145,4.9824 -9.63608,1.43561 -17.06204,9.33145 -17.06204,18.95847 0,10.64039 9.01724,19.25404 20.15616,19.25404 4.19923,0 8.13324,-1.22449 11.35997,-3.3779 -1.59129,4.64462 -3.49192,9.20478 -5.83466,13.59605 l -1.81233,3.33568 h 23.33878 l -0.5749,-1.18227 c -2.5195,-5.10907 -4.55281,-10.38705 -6.23254,-15.79169 3.40362,2.53344 7.647,4.09571 12.33248,4.09571 11.13891,0 20.15615,-8.61365 20.15615,-19.25404 0,-9.66924 -7.51433,-17.60731 -17.23886,-18.95846 z"
   id="path15587"
   style="fill:#2d2d2d;stroke-width:4.32016" /><path
   class="st21"
   d="m 274.77068,320.13167 c -0.57491,1.81564 -0.97243,3.67345 -0.97243,5.658 0,10.64035 9.01723,19.25405 20.15622,19.25405 11.13892,0 20.15623,-8.6137 20.15623,-19.25405 0,-1.73115 -0.30958,-3.37788 -0.75146,-4.98243 9.63608,-1.43557 17.06203,-9.33144 17.06203,-18.95847 0,-10.64035 -9.01723,-19.25399 -20.15622,-19.25399 -4.19916,0 -8.13318,1.22448 -11.35997,3.37788 1.59128,-4.64461 3.49199,-9.20479 5.83473,-13.59606 l 1.81227,-3.33569 h -23.33873 l 0.57492,1.1823 c 2.51948,5.10902 4.5528,10.38703 6.23246,15.79169 -3.40355,-2.53345 -7.64699,-4.09576 -12.3324,-4.09576 -11.13899,0 -20.15623,8.6137 -20.15623,19.25405 -0.0421,9.66927 7.47017,17.60733 17.23886,18.95848 z"
   id="path15609"
   style="fill:#2d2d2d;stroke-width:4.32016" /><path
   class="st21"
   d="m 64.6776,320.68058 c -0.574909,1.81564 -0.972432,3.67345 -0.972432,5.658 0,10.64035 9.017232,19.25405 20.156153,19.25405 11.138992,0 20.156219,-8.6137 20.156219,-19.25405 0,-1.73115 -0.30956,-3.37788 -0.75145,-4.98243 9.63608,-1.43557 17.06211,-9.33145 17.06211,-18.95847 0,-10.64036 -9.01731,-19.25399 -20.15623,-19.25399 -4.199225,0 -8.133248,1.22448 -11.35997,3.37787 1.591285,-4.6446 3.491995,-9.20478 5.834663,-13.59605 l 1.812334,-3.33569 H 73.120204 l 0.574909,1.1823 c 2.519562,5.10902 4.552805,10.38703 6.232537,15.79169 -3.403618,-2.53346 -7.646997,-4.09576 -12.332403,-4.09576 -11.138991,0 -20.156224,8.6137 -20.156224,19.25405 -0.04212,9.66927 7.470172,17.60733 17.238858,18.95848 z"
   id="path15611"
   style="fill:#2d2d2d;stroke-width:4.32016" /><path
   class="st21"
   d="m 274.77068,418.30192 c -0.57491,1.81563 -0.97243,3.67345 -0.97243,5.658 0,10.64042 9.01723,19.25405 20.15622,19.25405 11.13892,0 20.15623,-8.61363 20.15623,-19.25405 0,-1.73115 -0.30958,-3.37788 -0.75146,-4.98243 9.63608,-1.43557 17.06203,-9.33145 17.06203,-18.95847 0,-10.64036 -9.01723,-19.25399 -20.15622,-19.25399 -4.19916,0 -8.13318,1.22449 -11.35997,3.37788 1.59128,-4.6446 3.49199,-9.20479 5.83473,-13.59606 l 1.81227,-3.33569 h -23.33873 l 0.57492,1.1823 c 2.51948,5.10903 4.5528,10.38703 6.23246,15.79169 -3.40355,-2.53345 -7.64699,-4.09569 -12.3324,-4.09569 -11.13899,0 -20.15623,8.61363 -20.15623,19.25398 -0.0421,9.66927 7.47017,17.60733 17.23886,18.95848 z"
   id="path15627"
   style="fill:#2d2d2d;stroke-width:4.32016" /><path
   class="st21"
   d="m 64.6776,418.30192 c -0.574909,1.81563 -0.972432,3.67345 -0.972432,5.658 0,10.64042 9.017232,19.25405 20.156153,19.25405 11.138992,0 20.156219,-8.61363 20.156219,-19.25405 0,-1.73115 -0.30956,-3.37788 -0.75145,-4.98243 9.63608,-1.43557 17.06211,-9.33145 17.06211,-18.95847 0,-10.64036 -9.01731,-19.25399 -20.15623,-19.25399 -4.199225,0 -8.133248,1.22449 -11.35997,3.37788 1.591285,-4.6446 3.491995,-9.20479 5.834663,-13.59606 l 1.812334,-3.33569 H 73.120204 l 0.574909,1.1823 c 2.519562,5.10903 4.552805,10.38703 6.232537,15.79169 -3.403618,-2.53345 -7.646997,-4.09569 -12.332403,-4.09569 -11.138991,0 -20.156224,8.61363 -20.156224,19.25398 -0.04212,9.66927 7.470172,17.60733 17.238858,18.95848 z"
   id="path15629"
   style="fill:#2d2d2d;stroke-width:4.32016" /><path
   class="st21"
   d="m 15.568899,60.666641 v -1.22449 c 1.723885,-0.08442 3.31517,-0.295573 4.773853,-0.675581 1.458684,-0.379999 2.784766,-0.928921 4.066624,-1.604502 1.237635,-0.717806 2.431116,-1.604502 3.580373,-2.660096 1.105033,-1.0556 2.210137,-2.322308 3.270946,-3.757919 2.431116,-3.209004 4.110848,-6.713579 4.994903,-10.513716 -3.624597,2.195635 -6.851389,3.293453 -9.724533,3.293453 -1.635438,0 -3.138345,-0.29558 -4.597028,-0.92892 -1.458683,-0.633331 -2.696318,-1.520061 -3.801352,-2.70232 -1.060879,-1.140042 -1.944933,-2.533429 -2.563786,-4.180156 -0.618431,-1.646726 -0.928208,-3.420126 -0.928208,-5.404639 0,-1.984521 0.35379,-3.92681 1.06088,-5.826882 0.707229,-1.900072 1.679661,-3.589023 2.961519,-5.109076 1.281858,-1.477829 2.784766,-2.70232 4.597029,-3.589023 1.768109,-0.92892 3.757197,-1.39338 5.923111,-1.39338 2.210067,0 4.199224,0.506667 6.011487,1.520053 1.812264,1.013369 3.359395,2.364532 4.685407,4.095707 1.326082,1.731175 2.298514,3.673464 3.049968,5.8691 0.70723,2.195642 1.060879,4.517943 1.060879,6.882475 0,2.026744 -0.221119,3.969034 -0.663357,5.91133 -0.442237,1.94229 -1.105033,3.800137 -1.944864,5.573537 -0.839831,1.773399 -1.90071,3.504573 -3.094192,5.109076 -1.237634,1.604502 -2.60787,3.082331 -4.110777,4.475718 -1.193481,1.01337 -2.431116,1.94229 -3.66875,2.786768 -1.281928,0.844473 -2.607941,1.562278 -3.978246,2.153412 -1.370237,0.591152 -2.784695,1.097817 -4.287603,1.393387 -1.502907,0.337823 -3.049968,0.506667 -4.641252,0.506667 z m 21.261327,-22.84306 c 0.398014,-2.828993 0.618431,-5.109077 0.618431,-6.798027 0,-0.92892 -0.08844,-1.94229 -0.265343,-3.040107 -0.176894,-1.097817 -0.442237,-2.153411 -0.751453,-3.251235 -0.309567,-1.097818 -0.751384,-2.111187 -1.237635,-3.082331 -0.486461,-0.971145 -1.105033,-1.857848 -1.768109,-2.617872 -0.662655,-0.76003 -1.414459,-1.351163 -2.254291,-1.815623 -0.839831,-0.464485 -1.768109,-0.675582 -2.784765,-0.675582 -1.016656,0 -1.944864,0.211155 -2.873143,0.675582 -0.928208,0.422241 -1.723886,1.097818 -2.431115,1.94229 -0.70723,0.844478 -1.281858,1.942296 -1.679662,3.251235 -0.442238,1.308932 -0.619134,2.828992 -0.619134,4.56016 0,1.942297 0.176896,3.75792 0.57491,5.404646 0.398014,1.646727 0.972432,3.082331 1.679732,4.306822 0.751383,1.22449 1.635438,2.153411 2.696318,2.871216 1.060809,0.717807 2.25429,1.055594 3.580372,1.055594 0.486463,0 1.06081,-0.08442 1.723886,-0.211087 0.662655,-0.126669 1.326082,-0.295573 1.989089,-0.54891 0.707229,-0.211087 1.370235,-0.506667 2.033311,-0.844479 0.619134,-0.337823 1.237635,-0.717806 1.76811,-1.182266 z"
   id="path16091"
   style="fill:#2d2d2d;stroke-width:4.32016" /><path
   class="st21"
   d="m 332.54296,439.79385 c 1.59128,0 3.13842,0.16896 4.64125,0.50694 1.50291,0.33799 2.91737,0.80225 4.2876,1.3934 1.37031,0.59139 2.6964,1.35115 3.97825,2.15339 1.28186,0.84448 2.47527,1.77339 3.66875,2.78679 1.54707,1.39339 2.91737,2.87121 4.11078,4.47569 1.2377,1.60455 2.25436,3.29345 3.09419,5.10909 0.83984,1.77339 1.50291,3.63128 1.94487,5.57358 0.44223,1.94223 0.66335,3.88454 0.66335,5.91126 0,2.36454 -0.35379,4.68684 -1.06088,6.88248 -0.70723,2.19564 -1.72389,4.18018 -3.04996,5.86915 -1.32602,1.68891 -2.87315,3.0823 -4.68541,4.0957 -1.81226,1.01333 -3.80142,1.52006 -6.01149,1.52006 -2.16591,0 -4.155,-0.46469 -5.92311,-1.3934 -1.7681,-0.9289 -3.31517,-2.11121 -4.59702,-3.58903 -1.28187,-1.47781 -2.25429,-3.16678 -2.96153,-5.10908 -0.70722,-1.90006 -1.06088,-3.84237 -1.06088,-5.82684 0,-1.98455 0.30957,-3.80019 0.92828,-5.40467 0.61843,-1.64673 1.45862,-2.99788 2.56372,-4.18019 1.0608,-1.13999 2.34267,-2.06896 3.80135,-2.7023 1.45868,-0.63297 3.00574,-0.9289 4.59702,-0.9289 2.87315,0 6.14417,1.09782 9.72454,3.29346 -0.92828,-3.80012 -2.56378,-7.30473 -4.9949,-10.51376 -1.06082,-1.43557 -2.16592,-2.7023 -3.27095,-3.75787 -1.10503,-1.05558 -2.29852,-1.94231 -3.58037,-2.66013 -1.23763,-0.71782 -2.60794,-1.26673 -4.06662,-1.60448 -1.45869,-0.38017 -3.0499,-0.59139 -4.77379,-0.67558 v -1.22448 z m 17.50414,21.66077 c -0.66337,-0.33798 -1.32609,-0.63364 -2.03332,-0.84448 -0.70723,-0.21121 -1.3703,-0.42243 -1.98909,-0.5492 -0.66335,-0.1267 -1.2377,-0.21121 -1.72389,-0.21121 -1.32607,0 -2.51956,0.33798 -3.58036,1.05557 -1.06089,0.71782 -1.94494,1.64673 -2.6964,2.87121 -0.75145,1.22449 -1.32608,2.66012 -1.67966,4.30685 -0.39801,1.64672 -0.57491,3.46229 -0.57491,5.4046 0,1.73121 0.22112,3.25127 0.61913,4.56018 0.44224,1.30897 0.97244,2.40679 1.67967,3.25121 0.70723,0.84448 1.50284,1.52006 2.43112,1.9423 0.92827,0.42243 1.85648,0.67558 2.87314,0.67558 1.01666,0 1.94493,-0.21122 2.78476,-0.67558 0.83984,-0.46469 1.59128,-1.05557 2.25429,-1.81557 0.66266,-0.76006 1.23764,-1.64673 1.76811,-2.61788 0.48647,-0.97115 0.92821,-2.02679 1.23763,-3.08236 0.30958,-1.09782 0.57492,-2.15339 0.75146,-3.25121 0.1769,-1.09782 0.26534,-2.11122 0.26534,-3.04012 0,-1.68897 -0.22112,-3.96903 -0.61913,-6.79806 -0.48646,-0.46469 -1.10503,-0.84442 -1.76803,-1.18224 z"
   id="path16093"
   style="fill:#2d2d2d;stroke-width:4.32016" /></svg>
