<?xml version="1.0" encoding="UTF-8" standalone="no"?>
<!-- Uploaded to: SVG Repo, www.svgrepo.com, Generator: SVG Repo Mixer Tools -->

<svg
   height="800"
   width="600"
   version="1.1"
   id="Layer_1"
   viewBox="0 0 377.8155 503.754"
   xml:space="preserve"
   sodipodi:docname="D9.svg"
   inkscape:version="1.2.2 (b0a8486, 2022-12-01)"
   xmlns:inkscape="http://www.inkscape.org/namespaces/inkscape"
   xmlns:sodipodi="http://sodipodi.sourceforge.net/DTD/sodipodi-0.dtd"
   xmlns="http://www.w3.org/2000/svg"
   xmlns:svg="http://www.w3.org/2000/svg"><defs
   id="defs158529" /><sodipodi:namedview
   id="namedview158527"
   pagecolor="#ffffff"
   bordercolor="#000000"
   borderopacity="0.25"
   inkscape:showpageshadow="2"
   inkscape:pageopacity="0.0"
   inkscape:pagecheckerboard="0"
   inkscape:deskcolor="#d1d1d1"
   showgrid="false"
   inkscape:zoom="0.63194332"
   inkscape:cx="-29.274777"
   inkscape:cy="466.02281"
   inkscape:window-width="1390"
   inkscape:window-height="949"
   inkscape:window-x="530"
   inkscape:window-y="25"
   inkscape:window-maximized="0"
   inkscape:current-layer="Layer_1" />

<rect
   x="0.54002064"
   y="0.54002064"
   class="st0"
   width="376.73547"
   height="502.67395"
   id="rect14159"
   style="fill:#ffffff;stroke:#231f20;stroke-width:1.08004;stroke-miterlimit:10" /><polygon
   class="st20"
   points="836.39,68.04 828.11,58 819.97,67.96 819.97,67.97 828.11,77.57 "
   id="polygon15439"
   style="fill:#ea1c24"
   transform="matrix(4.4202211,0,0,4.2223765,-3576.7449,-180.00879)" /><polygon
   class="st20"
   points="882.5,68.04 874.22,58 866.07,67.96 866.07,67.97 874.22,77.57 "
   id="polygon15441"
   style="fill:#ea1c24"
   transform="matrix(4.4202211,0,0,4.2223765,-3576.7449,-180.00879)" /><polygon
   class="st20"
   points="836.39,139.36 828.11,129.32 819.97,139.28 819.97,139.29 828.11,148.89 "
   id="polygon15443"
   style="fill:#ea1c24"
   transform="matrix(4.4202211,0,0,4.2223765,-3576.7449,-180.00879)" /><polygon
   class="st20"
   points="828.11,81.16 819.97,91.13 828.11,100.73 836.39,91.2 "
   id="polygon15445"
   style="fill:#ea1c24"
   transform="matrix(4.4202211,0,0,4.2223765,-3576.7449,-180.00879)" /><polygon
   class="st20"
   points="859.46,103.7 851.18,93.66 843.03,103.62 843.03,103.63 851.18,113.23 "
   id="polygon15447"
   style="fill:#ea1c24"
   transform="matrix(4.4202211,0,0,4.2223765,-3576.7449,-180.00879)" /><polygon
   class="st20"
   points="836.39,115.78 828.11,105.74 819.97,115.7 819.97,115.71 828.11,125.31 "
   id="polygon15449"
   style="fill:#ea1c24"
   transform="matrix(4.4202211,0,0,4.2223765,-3576.7449,-180.00879)" /><polygon
   class="st20"
   points="874.24,81.16 866.1,91.13 874.24,100.73 882.52,91.2 "
   id="polygon15451"
   style="fill:#ea1c24"
   transform="matrix(4.4202211,0,0,4.2223765,-3576.7449,-180.00879)" /><polygon
   class="st20"
   points="882.52,115.78 874.24,105.74 866.1,115.7 866.1,115.71 874.24,125.31 "
   id="polygon15453"
   style="fill:#ea1c24"
   transform="matrix(4.4202211,0,0,4.2223765,-3576.7449,-180.00879)" /><polygon
   class="st20"
   points="874.24,129.28 866.1,139.25 874.24,148.86 882.52,139.33 "
   id="polygon15455"
   style="fill:#ea1c24"
   transform="matrix(4.4202211,0,0,4.2223765,-3576.7449,-180.00879)" /><polygon
   class="st20"
   points="815.39,58.92 812.49,62.47 815.39,65.89 818.34,62.5 "
   id="polygon16009"
   style="fill:#ea1c24"
   transform="matrix(4.4202211,0,0,4.2223765,-3576.7449,-180.00879)" /><polygon
   class="st20"
   points="887.05,146.01 884.15,142.46 887.05,139.04 890,142.44 "
   id="polygon16011"
   style="fill:#ea1c24"
   transform="matrix(4.4202211,0,0,4.2223765,-3576.7449,-180.00879)" /><path
   class="st20"
   d="m 15.568799,64.889048 v -1.22449 c 1.723886,-0.08442 3.31517,-0.29558 4.773853,-0.675582 1.458684,-0.379998 2.784766,-0.92892 4.066624,-1.604502 1.237635,-0.717799 2.431116,-1.604502 3.580373,-2.660095 1.105034,-1.055593 2.210137,-2.322308 3.270946,-3.757913 2.431116,-3.209011 4.110848,-6.713578 4.994903,-10.513722 -3.624596,2.195635 -6.851389,3.293452 -9.724532,3.293452 -1.635438,0 -3.138346,-0.295573 -4.597029,-0.92892 -1.458683,-0.633331 -2.696317,-1.520054 -3.801351,-2.70232 -1.06088,-1.140042 -1.944934,-2.533429 -2.563787,-4.180155 -0.618431,-1.646726 -0.928208,-3.420126 -0.928208,-5.404639 0,-1.984521 0.35379,-3.92681 1.06088,-5.826883 0.70723,-1.900065 1.679661,-3.589015 2.96152,-5.109075 1.281858,-1.47783 2.784765,-2.70232 4.597029,-3.589016 1.812263,-0.886703 3.757197,-1.393388 5.92311,-1.393388 2.210067,0 4.199225,0.506667 6.011488,1.520054 1.812263,1.013375 3.359394,2.364532 4.685406,4.095707 1.326082,1.731174 2.298514,3.673471 3.049968,5.869106 0.70723,2.195635 1.060879,4.517943 1.060879,6.882475 0,2.026738 -0.221118,3.969034 -0.663356,5.911324 -0.442238,1.942296 -1.105033,3.800138 -1.944865,5.573536 -0.839831,1.773399 -1.90071,3.504575 -3.094192,5.109077 -1.237634,1.604502 -2.607869,3.082337 -4.110777,4.475719 -1.193481,1.013368 -2.431115,1.942295 -3.668749,2.786768 -1.281929,0.844478 -2.607941,1.562277 -3.978247,2.15341 -1.370235,0.591153 -2.784695,1.097818 -4.287603,1.393388 -1.502907,0.337823 -3.049967,0.506667 -4.641252,0.506667 z M 36.830126,42.045994 c 0.398014,-2.828992 0.618431,-5.109076 0.618431,-6.798027 0,-0.928927 -0.08844,-1.942296 -0.265343,-3.040113 -0.176894,-1.097818 -0.442237,-2.153411 -0.751453,-3.251228 -0.309567,-1.097818 -0.751383,-2.111188 -1.237635,-3.082339 -0.486461,-0.971144 -1.105033,-1.857841 -1.768108,-2.617871 -0.662656,-0.76003 -1.41446,-1.351163 -2.254291,-1.815624 -0.839832,-0.464484 -1.76811,-0.675581 -2.784765,-0.675581 -1.016656,0 -1.944865,0.211155 -2.873144,0.675581 -0.928208,0.422242 -1.723885,1.097818 -2.431115,1.942297 -0.70723,0.844472 -1.281858,1.94229 -1.679662,3.251228 -0.442238,1.308939 -0.619133,2.828993 -0.619133,4.560167 0,1.94229 0.176895,3.757914 0.574909,5.40464 0.398014,1.646726 0.972432,3.082338 1.679733,4.306828 0.751383,1.224484 1.635437,2.153411 2.696317,2.871217 1.060809,0.717799 2.254291,1.055593 3.580372,1.055593 0.486463,0 1.060811,-0.08442 1.723886,-0.211087 0.662655,-0.126668 1.326082,-0.295573 1.989089,-0.54891 0.70723,-0.211154 1.370235,-0.506667 2.033312,-0.844479 0.619133,-0.337823 1.237634,-0.760023 1.768109,-1.182259 z"
   id="path16043"
   style="fill:#ea1c24;stroke-width:4.32016" /><path
   class="st20"
   d="m 332.54286,444.01624 c 1.59128,0 3.13842,0.16889 4.64125,0.50667 1.50292,0.33785 2.91738,0.80225 4.2876,1.39339 1.37031,0.59119 2.6964,1.35116 3.97825,2.15341 1.28186,0.84447 2.47527,1.7734 3.66875,2.78677 1.54707,1.39338 2.91737,2.87122 4.11078,4.47572 1.2377,1.6045 2.25436,3.29345 3.09419,5.10908 0.83984,1.77339 1.50291,3.63124 1.94487,5.57353 0.44223,1.9423 0.66335,3.88459 0.66335,5.91132 0,2.36453 -0.35379,4.68684 -1.06088,6.88248 -0.70723,2.19563 -1.72389,4.18015 -3.04996,5.86911 -1.32602,1.68895 -2.87314,3.08233 -4.68541,4.0957 -1.81226,1.01337 -3.80142,1.52006 -6.01149,1.52006 -2.16591,0 -4.155,-0.46449 -5.92311,-1.39339 -1.7681,-0.92892 -3.31517,-2.11119 -4.59702,-3.58902 -1.28187,-1.47783 -2.25429,-3.16678 -2.96153,-5.10907 -0.70722,-1.90008 -1.06087,-3.84236 -1.06087,-5.82688 0,-1.98452 0.30956,-3.80014 0.92827,-5.40464 0.61844,-1.64673 1.45862,-2.9979 2.56372,-4.18016 1.06081,-1.14004 2.34267,-2.06896 3.80135,-2.70232 1.45868,-0.63331 3.00574,-0.92892 4.59703,-0.92892 2.87314,0 6.14416,1.09782 9.72453,3.29346 -0.92827,-3.80015 -2.56378,-7.30472 -4.9949,-10.51373 -1.06081,-1.4356 -2.16591,-2.70232 -3.27095,-3.75791 -1.10503,-1.0556 -2.29851,-1.94229 -3.58037,-2.6601 -1.23763,-0.7178 -2.60794,-1.26671 -4.06662,-1.6045 -1.45868,-0.37997 -3.0499,-0.59118 -4.77379,-0.67558 v -1.22449 z m 17.50414,21.66079 c -0.66337,-0.33785 -1.32609,-0.63331 -2.03331,-0.84448 -0.70724,-0.21115 -1.37031,-0.42223 -1.98909,-0.54893 -0.66336,-0.1267 -1.23771,-0.21115 -1.7239,-0.21115 -1.32607,0 -2.51955,0.33778 -3.58036,1.05559 -1.06089,0.71781 -1.94494,1.64673 -2.6964,2.87122 -0.75144,1.22449 -1.32607,2.6601 -1.67966,4.30682 -0.39801,1.64673 -0.57491,3.46235 -0.57491,5.40464 0,1.73118 0.22112,3.25123 0.61913,4.56017 0.44224,1.30894 0.97244,2.40676 1.67967,3.25123 0.70723,0.84448 1.50284,1.52005 2.43112,1.9423 0.92827,0.42223 1.85649,0.67557 2.87314,0.67557 1.01666,0 1.94493,-0.21115 2.78476,-0.67557 0.83984,-0.46448 1.59129,-1.0556 2.25429,-1.81563 0.66266,-0.76003 1.23764,-1.64672 1.76811,-2.61787 0.48647,-0.97115 0.92821,-2.02674 1.23764,-3.08233 0.30957,-1.09782 0.57491,-2.15341 0.75145,-3.25123 0.1769,-1.09782 0.26534,-2.1112 0.26534,-3.04012 0,-1.68895 -0.22112,-3.96903 -0.61913,-6.79802 -0.48646,-0.46449 -1.10503,-0.84447 -1.76803,-1.18227 z"
   id="path16045"
   style="fill:#ea1c24;stroke-width:4.32016" /></svg>
