<?xml version="1.0" encoding="UTF-8" standalone="no"?>
<!-- Uploaded to: SVG Repo, www.svgrepo.com, Generator: SVG Repo Mixer Tools -->

<svg
   height="800"
   width="600"
   version="1.1"
   id="Layer_1"
   viewBox="0 0 377.8155 503.754"
   xml:space="preserve"
   sodipodi:docname="H9.svg"
   inkscape:version="1.2.2 (b0a8486, 2022-12-01)"
   xmlns:inkscape="http://www.inkscape.org/namespaces/inkscape"
   xmlns:sodipodi="http://sodipodi.sourceforge.net/DTD/sodipodi-0.dtd"
   xmlns="http://www.w3.org/2000/svg"
   xmlns:svg="http://www.w3.org/2000/svg"><defs
   id="defs158529" /><sodipodi:namedview
   id="namedview158527"
   pagecolor="#ffffff"
   bordercolor="#000000"
   borderopacity="0.25"
   inkscape:showpageshadow="2"
   inkscape:pageopacity="0.0"
   inkscape:pagecheckerboard="0"
   inkscape:deskcolor="#d1d1d1"
   showgrid="false"
   inkscape:zoom="0.63194332"
   inkscape:cx="-29.274777"
   inkscape:cy="466.02281"
   inkscape:window-width="1390"
   inkscape:window-height="949"
   inkscape:window-x="530"
   inkscape:window-y="25"
   inkscape:window-maximized="0"
   inkscape:current-layer="Layer_1" />

<rect
   x="0.54002064"
   y="0.54002064"
   class="st0"
   width="376.73547"
   height="502.67395"
   id="rect14197"
   style="fill:#ffffff;stroke:#231f20;stroke-width:1.08004;stroke-miterlimit:10" /><path
   class="st20"
   d="m 363.26343,425.35338 v 0 c 0,0.0845 0,0.16896 0,0.25348 0,4.13794 -3.27098,7.47363 -7.33758,7.47363 -2.78473,0 -5.17166,-1.5623 -6.40932,-3.8846 -1.23766,2.3223 -3.66878,3.8846 -6.40932,3.8846 -4.02239,0 -7.33757,-3.33569 -7.33757,-7.47363 0,-0.0845 0,-0.16896 0,-0.21122 v 0 c 0,-6.50248 5.56949,-12.58272 10.91795,-16.12951 l 2.82894,-1.85781 2.82894,1.85781 c 5.39267,3.50461 10.91796,9.45812 10.91796,15.9606 v 0 c 0,0 0,0.0404 0,0.0404 z"
   id="path15677"
   style="fill:#ea1c24;stroke-width:4.32016" /><path
   class="st20"
   d="m 42.84159,74.178296 v 0 c 0,-0.08451 0,-0.168959 0,-0.253472 0,-4.137942 -3.27096,-7.47357 -7.337563,-7.47357 -2.784738,0 -5.171658,1.562237 -6.40932,3.884538 -1.237662,-2.322301 -3.668785,-3.884538 -6.40932,-3.884538 -4.022399,0 -7.33757,3.335628 -7.33757,7.47357 0,0.08451 0,0.168959 0,0.211215 v 0 c 0,6.502419 5.569481,12.582657 10.917949,16.129439 l 2.828941,1.857884 2.82894,-1.857884 C 37.316318,86.760939 42.84159,80.807363 42.84159,74.304883 v 0 c 0,0 0,-0.04037 0,-0.04037 z"
   id="path15695"
   style="fill:#ea1c24;stroke-width:4.32016" /><path
   class="st20"
   d="m 119.13461,80.131872 v 0 c 0,-0.211215 0,-0.42243 0,-0.633645 0,-10.76709 -8.57522,-19.507388 -19.09536,-19.507388 -7.249159,0 -13.525876,4.095694 -16.752635,10.133691 -3.226765,-6.037997 -9.547679,-10.133691 -16.752638,-10.133691 -10.564329,0 -19.095351,8.740298 -19.095351,19.507388 0,0.211215 0,0.42243 0,0.591456 v 0 c 0,17.016171 14.498322,32.892347 28.510419,42.097137 l 7.33757,4.8135 7.337564,-4.8135 C 104.63629,112.98203 119.13461,97.528096 119.13461,80.554167 v 0 c 0,-0.04037 0,-0.126769 0,-0.168958 z"
   id="path15747"
   style="fill:#ea1c24;stroke-width:4.32016" /><path
   class="st20"
   d="m 330.37698,80.131872 v 0 c 0,-0.211215 0,-0.42243 0,-0.633645 0,-10.76709 -8.57523,-19.507388 -19.09536,-19.507388 -7.24917,0 -13.52588,4.095694 -16.75265,10.133691 -3.22674,-6.037997 -9.54766,-10.133691 -16.75263,-10.133691 -10.56432,0 -19.09535,8.740298 -19.09535,19.507388 0,0.211215 0,0.42243 0,0.591456 v 0 c 0,17.016171 14.49832,32.892347 28.51042,42.097137 l 7.33756,4.8135 7.33758,-4.8135 c 14.01209,-9.20479 28.51043,-24.658724 28.51043,-41.632653 v 0 c 0,-0.04037 0,-0.126769 0,-0.168958 z"
   id="path15749"
   style="fill:#ea1c24;stroke-width:4.32016" /><path
   class="st20"
   d="m 119.13461,188.18248 v 0 c 0,-0.21122 0,-0.42243 0,-0.63297 0,-10.76709 -8.57522,-19.50739 -19.09536,-19.50739 -7.249159,0 -13.525876,4.09569 -16.752635,10.13369 -3.226765,-6.038 -9.547679,-10.13369 -16.752638,-10.13369 -10.564329,0 -19.095351,8.7403 -19.095351,19.50739 0,0.21121 0,0.42243 0,0.59138 v 0 c 0,17.01624 14.498322,32.89235 28.510419,42.09714 l 7.33757,4.81351 7.337564,-4.81351 c 14.012111,-9.20479 28.510431,-24.61648 28.510431,-41.63265 v 0 c 0,-0.0404 0,-0.12677 0,-0.16896 z"
   id="path15751"
   style="fill:#ea1c24;stroke-width:4.32016" /><path
   class="st20"
   d="m 224.77789,245.64906 v 0 c 0,-0.21122 0,-0.42243 0,-0.63365 0,-10.76702 -8.57523,-19.50738 -19.09536,-19.50738 -7.24916,0 -13.52587,4.09569 -16.75263,10.13376 -3.22676,-6.03807 -9.54768,-10.13376 -16.75264,-10.13376 -10.56432,0 -19.09535,8.74036 -19.09535,19.50738 0,0.21122 0,0.42243 0,0.59146 v 0 c 0,17.01617 14.49832,32.89228 28.51042,42.09706 l 7.33757,4.81351 7.33756,-4.81351 c 14.0121,-9.20478 28.51043,-24.6164 28.51043,-41.63258 v 0 c 0,-0.0404 0,-0.12676 0,-0.16895 z"
   id="path15753"
   style="fill:#ea1c24;stroke-width:4.32016" /><path
   class="st20"
   d="m 330.37698,188.18248 v 0 c 0,-0.21122 0,-0.42243 0,-0.63297 0,-10.76709 -8.57523,-19.50739 -19.09536,-19.50739 -7.24917,0 -13.52588,4.09569 -16.75265,10.13369 -3.22674,-6.038 -9.54766,-10.13369 -16.75263,-10.13369 -10.56432,0 -19.09535,8.7403 -19.09535,19.50739 0,0.21121 0,0.42243 0,0.59138 v 0 c 0,17.01624 14.49832,32.89235 28.51042,42.09714 l 7.33756,4.81351 7.33758,-4.81351 c 14.01209,-9.20479 28.51043,-24.61648 28.51043,-41.63265 v 0 c 0,-0.0404 0,-0.12677 0,-0.16896 z"
   id="path15755"
   style="fill:#ea1c24;stroke-width:4.32016" /><path
   class="st20"
   d="m 258.63678,320.63847 v 0 c 0,0.21122 0,0.42243 0,0.63298 0,10.76702 8.57524,19.50738 19.09536,19.50738 7.24917,0 13.52587,-4.09569 16.75264,-10.13369 3.22676,6.038 9.54767,10.13369 16.75264,10.13369 10.56433,0 19.09536,-8.74036 19.09536,-19.50738 0,-0.21122 0,-0.42243 0,-0.59146 v 0 c 0,-17.01617 -14.49834,-32.89228 -28.51044,-42.09706 l -7.33756,-4.81351 -7.33757,4.81351 c -14.0121,9.20478 -28.51043,24.65865 -28.51043,41.63264 v 0 c 0,0.0404 0,0.12677 0,0.16896 z"
   id="path15773"
   style="fill:#ea1c24;stroke-width:4.32016" /><path
   class="st20"
   d="m 47.394423,320.63847 v 0 c 0,0.21122 0,0.42243 0,0.63298 0,10.76702 8.575225,19.50738 19.095351,19.50738 7.249162,0 13.525874,-4.09569 16.752639,-10.13369 3.226758,6.038 9.547678,10.13369 16.752634,10.13369 10.564343,0 19.095363,-8.74036 19.095363,-19.50738 0,-0.21122 0,-0.42243 0,-0.59146 v 0 c 0,-17.01617 -14.49833,-32.89228 -28.510434,-42.09706 l -7.337563,-4.81346 -7.33757,4.81351 c -14.012098,9.20478 -28.51042,24.65865 -28.51042,41.63265 v 0 c 0,0.0404 0,0.12677 0,0.16895 z"
   id="path15775"
   style="fill:#ea1c24;stroke-width:4.32016" /><path
   class="st20"
   d="m 258.63678,426.40896 v 0 c 0,0.21122 0,0.42243 0,0.63365 0,10.76701 8.57524,19.50738 19.09536,19.50738 7.24917,0 13.52587,-4.09577 16.75264,-10.13376 3.22676,6.03799 9.54767,10.13376 16.75264,10.13376 10.56433,0 19.09536,-8.74037 19.09536,-19.50738 0,-0.21122 0,-0.42243 0,-0.59146 v 0 c 0,-17.01617 -14.49834,-32.89235 -28.51044,-42.09713 l -7.33756,-4.81345 -7.33757,4.81345 c -14.0121,9.20478 -28.51043,24.65871 -28.51043,41.63264 v 0 c 0,0.0404 0,0.1267 0,0.16896 z"
   id="path15943"
   style="fill:#ea1c24;stroke-width:4.32016" /><path
   class="st20"
   d="m 47.394423,426.40896 v 0 c 0,0.21122 0,0.42243 0,0.63365 0,10.76701 8.575225,19.50738 19.095351,19.50738 7.249162,0 13.525874,-4.09577 16.752639,-10.13376 3.226758,6.03799 9.547678,10.13376 16.752634,10.13376 10.564343,0 19.095363,-8.74037 19.095363,-19.50738 0,-0.21122 0,-0.42243 0,-0.59146 v 0 c 0,-17.01617 -14.49833,-32.89235 -28.510434,-42.09713 l -7.337563,-4.81345 -7.33757,4.81345 c -14.012098,9.20478 -28.51042,24.65871 -28.51042,41.63264 v 0 c 0,0.0404 0,0.1267 0,0.16896 z"
   id="path15945"
   style="fill:#ea1c24;stroke-width:4.32016" /><path
   class="st20"
   d="m 15.56883,62.271211 v -1.224484 c 1.723886,-0.08449 3.315163,-0.295707 4.77384,-0.675575 1.45867,-0.3802 2.784737,-0.928907 4.066603,-1.604482 1.237663,-0.717819 2.431123,-1.604549 3.580379,-2.660122 1.105055,-1.055573 2.210109,-2.322301 3.270961,-3.75794 2.431123,-3.208964 4.110805,-6.713571 4.994853,-10.513688 -3.624582,2.195635 -6.851347,3.293453 -9.724489,3.293453 -1.635481,0 -3.13836,-0.295708 -4.59703,-0.928908 -1.458675,-0.633666 -2.696331,-1.52006 -3.801393,-2.702366 -1.060852,-1.139995 -1.944892,-2.53339 -2.563724,-4.180116 -0.618852,-1.646726 -0.928249,-3.420118 -0.928249,-5.404666 0,-1.98448 0.353649,-3.926783 1.060858,-5.826841 0.70723,-1.900126 1.679682,-3.58903 2.961542,-5.10909 1.281865,-1.477816 2.784744,-2.7023 4.597035,-3.589029 1.812291,-0.88673 3.757183,-1.393395 5.923096,-1.393395 2.21011,0 4.199211,0.50693 6.011496,1.520061 1.812291,1.013396 3.359373,2.364545 4.685434,4.095693 1.326067,1.731215 2.298521,3.673451 3.049953,5.869087 0.707237,2.195635 1.060859,4.518003 1.060859,6.882481 0,2.026792 -0.221049,3.969028 -0.663005,5.911331 -0.442028,1.942303 -1.105056,3.800184 -1.9449,5.573577 -0.839845,1.773392 -1.900697,3.50454 -3.094157,5.109089 -1.237662,1.604482 -2.607927,3.082298 -4.110805,4.475692 -1.19346,1.013396 -2.431123,1.942303 -3.668786,2.786788 -1.281858,0.844419 -2.607926,1.562238 -3.978197,2.153391 -1.370271,0.591422 -2.784737,1.097817 -4.287616,1.393395 -1.502872,0.337957 -3.049946,0.506936 -4.641232,0.506936 z M 36.830095,39.42813 c 0.397804,-2.828966 0.618852,-5.109023 0.618852,-6.797994 0,-0.928907 -0.08837,-1.942302 -0.265203,-3.04012 -0.176824,-1.097818 -0.442026,-2.15339 -0.751439,-3.251208 -0.309426,-1.097818 -0.751433,-2.111213 -1.237662,-3.082365 -0.486251,-0.971152 -1.105055,-1.857814 -1.768088,-2.617878 -0.663007,-0.759997 -1.414467,-1.35115 -2.254312,-1.815569 -0.839839,-0.464687 -1.768089,-0.675643 -2.784737,-0.675643 -1.016649,0 -1.9449,0.211222 -2.873144,0.675643 -0.92825,0.422443 -1.723885,1.097817 -2.431122,1.942235 -0.707237,0.844485 -1.281865,1.942303 -1.679683,3.251275 -0.442027,1.308906 -0.618852,2.828966 -0.618852,4.560114 0,1.942303 0.176825,3.75794 0.574628,5.404667 0.397804,1.646726 0.972446,3.082364 1.679683,4.306848 0.75144,1.224484 1.63548,2.153391 2.696339,2.87121 1.060852,0.717819 2.254311,1.055573 3.580372,1.055573 0.486252,0 1.06086,-0.08449 1.723893,-0.211221 0.663006,-0.126736 1.326061,-0.295708 1.989095,-0.549179 0.707237,-0.211222 1.370271,-0.50693 2.033305,-0.844485 0.618852,-0.337958 1.237663,-0.760064 1.768089,-1.182307 z"
   id="path16139"
   style="fill:#ea1c24;stroke-width:4.32016" /><path
   class="st20"
   d="m 337.71454,440.59616 c 1.59128,0 3.13836,0.16896 4.64124,0.50695 1.50287,0.33798 2.91734,0.80224 4.28761,1.3934 1.37027,0.59138 2.69633,1.35115 3.97819,2.15339 1.28187,0.84448 2.47534,1.77339 3.66879,2.78678 1.54708,1.39339 2.91735,2.87121 4.11081,4.47569 1.23766,1.60456 2.25431,3.29352 3.09415,5.1091 0.83984,1.77339 1.50287,3.63127 1.9449,5.57357 0.44203,1.94231 0.66301,3.88454 0.66301,5.91133 0,2.36448 -0.35365,4.68685 -1.06086,6.88248 -0.70723,2.19564 -1.72388,4.18012 -3.04995,5.86909 -1.28186,1.6889 -2.87314,3.0823 -4.68543,4.0957 -1.81229,1.01339 -3.80138,1.52005 -6.01149,1.52005 -2.16592,0 -4.15502,-0.46469 -5.9231,-1.39339 -1.76809,-0.92891 -3.31518,-2.11122 -4.59704,-3.58903 -1.28185,-1.47782 -2.25431,-3.16679 -2.96154,-5.10909 -0.70724,-1.90006 -1.06086,-3.84236 -1.06086,-5.82684 0,-1.98455 0.30943,-3.80019 0.92825,-5.40467 0.61886,-1.64673 1.45867,-2.99788 2.56373,-4.18011 1.06085,-1.14007 2.34271,-2.06897 3.80139,-2.70237 1.45866,-0.63297 3.00575,-0.9289 4.59703,-0.9289 2.87314,0 6.14411,1.09781 9.72449,3.29345 -0.92825,-3.80012 -2.56373,-7.30473 -4.99486,-10.51369 -1.06085,-1.43564 -2.16591,-2.70237 -3.27096,-3.75794 -1.10505,-1.05558 -2.29851,-1.9423 -3.58038,-2.66012 -1.23766,-0.71776 -2.60792,-1.26667 -4.0666,-1.60448 -1.45868,-0.38018 -3.04996,-0.59146 -4.77384,-0.67558 v -1.22448 z m 17.54828,21.66078 c -0.66301,-0.33799 -1.32606,-0.63297 -2.0333,-0.84449 -0.70723,-0.21121 -1.37028,-0.42242 -1.98911,-0.54919 -0.663,-0.12671 -1.23766,-0.21122 -1.72388,-0.21122 -1.32607,0 -2.51952,0.33799 -3.58038,1.05557 -1.06085,0.71782 -1.94489,1.64673 -2.69633,2.87121 -0.75144,1.22449 -1.32606,2.66013 -1.67968,4.30685 -0.3978,1.64673 -0.57463,3.46237 -0.57463,5.40467 0,1.73115 0.22098,3.2512 0.61885,4.56011 0.44203,1.30897 0.97245,2.40679 1.67968,3.25128 0.70724,0.84441 1.50288,1.52006 2.43112,1.94223 0.92825,0.42243 1.85649,0.67565 2.87315,0.67565 1.01664,0 1.94489,-0.21122 2.78474,-0.67565 0.83984,-0.46468 1.59128,-1.05557 2.25431,-1.81556 0.663,-0.76007 1.23766,-1.64673 1.76809,-2.61789 0.48625,-0.97115 0.92824,-2.02672 1.23766,-3.08236 0.30942,-1.09781 0.57463,-2.15339 0.75144,-3.25121 0.17682,-1.09781 0.2652,-2.11121 0.2652,-3.04012 0,-1.68897 -0.22098,-3.96903 -0.61885,-6.79799 -0.53041,-0.42243 -1.10506,-0.84449 -1.76809,-1.18231 z"
   id="path16141"
   style="fill:#ea1c24;stroke-width:4.32016" /></svg>
