<?xml version="1.0" encoding="UTF-8" standalone="no"?>
<!-- Uploaded to: SVG Repo, www.svgrepo.com, Generator: SVG Repo Mixer Tools -->

<svg
   height="800"
   width="600"
   version="1.1"
   id="Layer_1"
   viewBox="0 0 377.8155 503.754"
   xml:space="preserve"
   sodipodi:docname="S9.svg"
   inkscape:version="1.2.2 (b0a8486, 2022-12-01)"
   xmlns:inkscape="http://www.inkscape.org/namespaces/inkscape"
   xmlns:sodipodi="http://sodipodi.sourceforge.net/DTD/sodipodi-0.dtd"
   xmlns="http://www.w3.org/2000/svg"
   xmlns:svg="http://www.w3.org/2000/svg"><defs
   id="defs158529" /><sodipodi:namedview
   id="namedview158527"
   pagecolor="#ffffff"
   bordercolor="#000000"
   borderopacity="0.25"
   inkscape:showpageshadow="2"
   inkscape:pageopacity="0.0"
   inkscape:pagecheckerboard="0"
   inkscape:deskcolor="#d1d1d1"
   showgrid="false"
   inkscape:zoom="0.63194332"
   inkscape:cx="401.14357"
   inkscape:cy="424.87988"
   inkscape:window-width="1390"
   inkscape:window-height="949"
   inkscape:window-x="530"
   inkscape:window-y="25"
   inkscape:window-maximized="0"
   inkscape:current-layer="Layer_1" />

<rect
   x="0.54002064"
   y="0.54002064"
   class="st0"
   width="376.73547"
   height="502.67395"
   id="rect14235"
   style="fill:#ffffff;stroke:#231f20;stroke-width:1.08004;stroke-miterlimit:10" /><path
   class="st21"
   d="m 330.37695,415.26196 v 0 c 0,6.20691 5.65791,11.99157 11.09476,15.32727 l 2.82899,1.73114 2.82892,-1.73114 c 5.43687,-3.3357 11.09478,-8.95145 11.09478,-15.15836 v 0 c 0,0 0,-0.0404 0,-0.0404 v -0.0845 0 c 0,-0.0845 0,-0.16896 0,-0.21122 0,-3.92685 -3.31518,-7.09364 -7.42603,-7.09364 -2.12168,0 -3.97817,0.84449 -5.34841,2.15346 0.26534,-1.52006 0.75139,-2.99794 1.59129,-4.34909 l 0.57491,-0.97115 h -2.03331 -2.60794 -2.03331 l 0.5749,0.92897 c 0.83984,1.39333 1.37024,2.87121 1.63552,4.43345 -1.37031,-1.35115 -3.27103,-2.23781 -5.39271,-2.23781 -4.11078,0 -7.42596,3.16678 -7.42596,7.09357 0.0421,0.0845 0.0421,0.16896 0.0421,0.21121 z"
   id="path15813"
   style="fill:#2d2d2d;stroke-width:4.32016" /><path
   class="st21"
   d="m 43.239418,81.229779 v 0 c 0,-6.206913 -5.657886,-11.991578 -11.094753,-15.327206 l -2.828948,-1.731215 -2.82894,1.731215 c -5.436873,3.335628 -11.094753,8.951388 -11.094753,15.158295 v 0 c 0,0 0,0.04037 0,0.04037 v 0.08451 0 c 0,0.08451 0,0.168958 0,0.211215 0,3.926788 3.315163,7.093571 7.425969,7.093571 2.12171,0 3.978204,-0.844482 5.348468,-2.153389 -0.265203,1.520061 -0.751433,2.997872 -1.591277,4.349022 l -0.57463,0.971151 h 2.033305 2.607927 2.033305 l -0.574629,-0.928901 c -0.839845,-1.3934 -1.370271,-2.871211 -1.635487,-4.433515 1.37027,1.35115 3.270968,2.237875 5.392671,2.237875 4.110805,0 7.425975,-3.166784 7.425975,-7.093564 -0.04422,-0.08451 -0.04422,-0.168959 -0.04422,-0.211215 z"
   id="path15829"
   style="fill:#2d2d2d;stroke-width:4.32016" /><path
   class="st21"
   d="m 48.32267,400.99033 v 0 c 0,15.49611 14.144708,29.97889 27.803193,38.38144 l 7.16076,4.39127 7.160759,-4.39127 c 13.658488,-8.40255 27.803188,-22.46309 27.803188,-38.00137 v 0 c 0,-0.0404 0,-0.0845 0,-0.12677 v -0.21122 0 c 0,-0.21121 0,-0.38017 0,-0.59139 0,-9.83811 -8.35422,-17.77616 -18.609131,-17.77616 -5.260062,0 -9.9897,2.11114 -13.393268,5.44684 0.618852,-3.80012 1.944899,-7.51581 3.933994,-10.89375 l 1.458677,-2.44897 h -5.083259 -6.497726 -5.083251 l 1.414474,2.3223 c 2.0775,3.46236 3.447771,7.2203 4.110805,11.14709 -3.403575,-3.42012 -8.177415,-5.57351 -13.525877,-5.57351 -10.299119,0 -18.609135,7.9803 -18.609135,17.77616 -0.04422,0.21122 -0.04422,0.38018 -0.04422,0.5492 z"
   id="path15885"
   style="fill:#2d2d2d;stroke-width:4.32016" /><path
   class="st21"
   d="m 48.32267,300.03336 v 0 c 0,15.49611 14.144708,29.97882 27.803193,38.38137 l 7.16076,4.39127 7.160759,-4.39127 c 13.658488,-8.40255 27.803188,-22.46301 27.803188,-38.00137 v 0 c 0,-0.0404 0,-0.0845 0,-0.12671 v -0.21121 0 c 0,-0.21122 0,-0.38017 0,-0.59078 0,-9.83819 -8.35422,-17.77624 -18.609131,-17.77624 -5.260062,0 -9.9897,2.11121 -13.393268,5.44684 0.618852,-3.80011 1.944899,-7.5158 3.933994,-10.89368 l 1.458677,-2.44898 h -5.083259 -6.497726 -5.083251 l 1.414474,2.3223 c 2.0775,3.4623 3.447771,7.22024 4.110805,11.14702 -3.403575,-3.42012 -8.177415,-5.57351 -13.525877,-5.57351 -10.299119,0 -18.609135,7.98031 -18.609135,17.77624 -0.04422,0.16896 -0.04422,0.38017 -0.04422,0.5492 z"
   id="path15887"
   style="fill:#2d2d2d;stroke-width:4.32016" /><path
   class="st21"
   d="m 118.20637,102.76388 v 0 c 0,-15.496106 -14.1447,-29.978822 -27.803191,-38.381367 L 83.24242,59.991242 76.081661,64.382513 C 62.423175,72.785058 48.278468,86.845532 48.278468,102.38389 v 0 c 0,0.0404 0,0.0845 0,0.12677 v 0.21121 0 c 0,0.21122 0,0.38017 0,0.59072 0,9.83818 8.354219,17.77623 18.609134,17.77623 5.260064,0 9.989701,-2.11121 13.393269,-5.44691 -0.618852,3.80018 -1.944898,7.51588 -3.933994,10.89375 l -1.458676,2.44897 h 5.083251 6.497726 5.083259 l -1.414474,-2.3223 c -2.077501,-3.46236 -3.447772,-7.22024 -4.110806,-11.14709 3.403569,3.42012 8.177408,5.57358 13.525876,5.57358 10.299117,0 18.609137,-7.9803 18.609137,-17.77623 0.0883,-0.21122 0.0883,-0.38018 0.0442,-0.5492 z"
   id="path15889"
   style="fill:#2d2d2d;stroke-width:4.32016" /><path
   class="st21"
   d="m 118.20637,202.66535 v 0 c 0,-15.49611 -14.1447,-29.9789 -27.803191,-38.38144 l -7.160759,-4.39127 -7.160759,4.39127 C 62.423175,172.68645 48.278468,186.747 48.278468,202.28528 v 0 c 0,0.0404 0,0.0845 0,0.1267 v 0.21122 0 c 0,0.21121 0,0.38017 0,0.59146 0,9.83811 8.354219,17.77616 18.609134,17.77616 5.260064,0 9.989701,-2.11114 13.393269,-5.44684 -0.618852,3.80011 -1.944898,7.51581 -3.933994,10.89375 l -1.458676,2.44897 h 5.083251 6.497726 5.083259 l -1.414474,-2.3223 c -2.077501,-3.46236 -3.447772,-7.22031 -4.110806,-11.14709 3.403569,3.42012 8.177408,5.57351 13.525876,5.57351 10.299117,0 18.609137,-7.98029 18.609137,-17.77616 0.0883,-0.21122 0.0883,-0.38018 0.0442,-0.5492 z"
   id="path15891"
   style="fill:#2d2d2d;stroke-width:4.32016" /><path
   class="st21"
   d="m 222.9214,168.16852 v 0 c 0,-15.49612 -14.1447,-29.9789 -27.80318,-38.38144 l -7.16077,-4.39127 -7.16075,4.39127 c -13.65848,8.40254 -27.80319,22.46308 -27.80319,38.00144 v 0 c 0,0.0404 0,0.0845 0,0.1267 v 0.21122 0 c 0,0.21121 0,0.38017 0,0.59139 0,9.83811 8.35421,17.77617 18.60913,17.77617 5.26006,0 9.9897,-2.11115 13.39327,-5.44685 -0.61885,3.80012 -1.9449,7.51582 -3.934,10.89376 l -1.45868,2.44896 h 5.08326 6.49773 5.08325 l -1.41447,-2.3223 c -2.0775,-3.46236 -3.44778,-7.2203 -4.1108,-11.14708 3.40357,3.42012 8.17741,5.57351 13.52588,5.57351 10.29911,0 18.60912,-7.98023 18.60912,-17.77617 0.0442,-0.21122 0.0442,-0.38018 0.0442,-0.5492 z"
   id="path15893"
   style="fill:#2d2d2d;stroke-width:4.32016" /><path
   class="st21"
   d="m 259.56505,400.99033 v 0 c 0,15.49611 14.1447,29.97889 27.8032,38.38144 l 7.16075,4.39127 7.16075,-4.39127 c 13.65848,-8.40255 27.80321,-22.46309 27.80321,-38.00137 v 0 c 0,-0.0404 0,-0.0845 0,-0.12677 v -0.21122 0 c 0,-0.21121 0,-0.38017 0,-0.59139 0,-9.83811 -8.35422,-17.77616 -18.60916,-17.77616 -5.26003,0 -9.98966,2.11114 -13.39328,5.44684 0.61913,-3.80012 1.94494,-7.51581 3.93402,-10.89375 l 1.45869,-2.44897 h -5.08328 -6.49774 -5.08321 l 1.41446,2.3223 c 2.07746,3.46236 3.44777,7.2203 4.11078,11.14709 -3.40355,-3.42012 -8.1774,-5.57351 -13.52587,-5.57351 -10.29911,0 -18.60912,7.9803 -18.60912,17.77616 -0.0442,0.21122 -0.0442,0.38018 -0.0442,0.5492 z"
   id="path15895"
   style="fill:#2d2d2d;stroke-width:4.32016" /><path
   class="st21"
   d="m 259.56505,300.03336 v 0 c 0,15.49611 14.1447,29.97882 27.8032,38.38137 l 7.16075,4.39127 7.16075,-4.39127 c 13.65848,-8.40255 27.80321,-22.46301 27.80321,-38.00137 v 0 c 0,-0.0404 0,-0.0845 0,-0.12671 v -0.21121 0 c 0,-0.21122 0,-0.38017 0,-0.59078 0,-9.83819 -8.35422,-17.77624 -18.60916,-17.77624 -5.26003,0 -9.98966,2.11121 -13.39328,5.44684 0.61913,-3.80011 1.94494,-7.5158 3.93402,-10.89368 l 1.45869,-2.44897 h -5.08328 -6.49774 -5.08321 l 1.41446,2.3223 c 2.07746,3.4623 3.44777,7.22024 4.11078,11.14702 -3.40355,-3.42012 -8.1774,-5.57351 -13.52587,-5.57351 -10.29911,0 -18.60912,7.9803 -18.60912,17.77624 -0.0442,0.16895 -0.0442,0.38017 -0.0442,0.5492 z"
   id="path15897"
   style="fill:#2d2d2d;stroke-width:4.32016" /><path
   class="st21"
   d="m 329.44874,102.76388 v 0 c 0,-15.496106 -14.14473,-29.978822 -27.80322,-38.381367 l -7.16075,-4.391271 -7.16074,4.391271 c -13.65848,8.402545 -27.80319,22.463019 -27.80319,38.001377 v 0 c 0,0.0404 0,0.0845 0,0.12677 v 0.21121 0 c 0,0.21122 0,0.38017 0,0.59072 0,9.83818 8.35421,17.77623 18.60913,17.77623 5.26004,0 9.98967,-2.11121 13.39329,-5.44691 -0.61913,3.80018 -1.94494,7.51588 -3.93403,10.89375 l -1.45868,2.44897 h 5.08328 6.49774 5.08321 l -1.41446,-2.3223 c -2.07747,-3.46236 -3.44777,-7.22024 -4.11078,-11.14709 3.40355,3.42012 8.1774,5.57358 13.52588,5.57358 10.29909,0 18.6091,-7.9803 18.6091,-17.77623 0.0421,-0.21122 0.0421,-0.38018 0.0421,-0.5492 z"
   id="path15899"
   style="fill:#2d2d2d;stroke-width:4.32016" /><path
   class="st21"
   d="m 329.44874,202.66535 v 0 c 0,-15.49611 -14.14473,-29.9789 -27.80322,-38.38144 l -7.16075,-4.39127 -7.16074,4.39127 c -13.65848,8.40254 -27.80319,22.46309 -27.80319,38.00137 v 0 c 0,0.0404 0,0.0845 0,0.1267 v 0.21122 0 c 0,0.21121 0,0.38017 0,0.59146 0,9.83811 8.35421,17.77616 18.60913,17.77616 5.26004,0 9.98967,-2.11114 13.39329,-5.44684 -0.61913,3.80011 -1.94494,7.51581 -3.93403,10.89375 l -1.45868,2.44897 h 5.08328 6.49774 5.08321 l -1.41446,-2.3223 c -2.07747,-3.46236 -3.44777,-7.22031 -4.11078,-11.14709 3.40355,3.42012 8.1774,5.57351 13.52588,5.57351 10.29909,0 18.6091,-7.98029 18.6091,-17.77616 0.0421,-0.21122 0.0421,-0.38018 0.0421,-0.5492 z"
   id="path15901"
   style="fill:#2d2d2d;stroke-width:4.32016" /><path
   class="st21"
   d="m 15.568835,61.046815 v -1.224483 c 1.723885,-0.08449 3.315163,-0.295708 4.773839,-0.675575 1.45867,-0.3802 2.784738,-0.928907 4.066603,-1.604482 1.237663,-0.71782 2.431123,-1.604549 3.58038,-2.660122 1.105055,-1.055573 2.210109,-2.322301 3.27096,-3.75794 2.431123,-3.208964 4.110805,-6.713571 4.994854,-10.513689 -3.624582,2.195636 -6.851347,3.293454 -9.72449,3.293454 -1.635481,0 -3.13836,-0.295708 -4.597029,-0.928908 -1.458676,-0.633666 -2.696332,-1.52006 -3.801394,-2.702366 -1.060851,-1.139995 -1.944892,-2.53339 -2.563723,-4.180116 -0.618852,-1.646726 -0.92825,-3.420119 -0.92825,-5.404666 0,-1.98448 0.353649,-3.926783 1.060858,-5.826841 0.70723,-1.900126 1.679683,-3.58903 2.961542,-5.10909 1.281865,-1.477816 2.784743,-2.702366 4.597035,-3.589029 1.812291,-0.88673 3.757183,-1.393395 5.923097,-1.393395 2.210109,0 4.19921,0.506929 6.011495,1.520061 1.812291,1.013395 3.359373,2.364545 4.685434,4.095693 1.326068,1.731216 2.298521,3.673451 3.049954,5.869086 0.707237,2.195636 1.060858,4.518004 1.060858,6.882482 0,2.026792 -0.221049,3.969028 -0.663005,5.911331 -0.442028,1.942303 -1.105055,3.800184 -1.9449,5.573577 -0.839845,1.773392 -1.900697,3.50454 -3.094156,5.109022 -1.237663,1.604549 -2.607928,3.082365 -4.110806,4.475759 -1.19346,1.013329 -2.431123,1.942303 -3.668785,2.786788 -1.281859,0.844418 -2.607926,1.562238 -3.978198,2.153391 -1.37027,0.591422 -2.784737,1.097818 -4.287615,1.393394 -1.502873,0.337958 -3.049947,0.50693 -4.641232,0.50693 z M 36.830099,38.245979 c 0.397804,-2.828966 0.618852,-5.10909 0.618852,-6.797993 0,-0.928974 -0.08837,-1.942303 -0.265202,-3.040121 -0.176825,-1.097817 -0.442027,-2.153458 -0.75144,-3.251275 -0.309426,-1.097818 -0.751432,-2.111146 -1.237662,-3.082298 -0.486251,-0.971152 -1.105055,-1.857881 -1.768088,-2.617878 -0.663006,-0.760063 -1.414467,-1.351149 -2.254312,-1.815637 -0.839839,-0.464686 -1.768088,-0.675574 -2.784737,-0.675574 -1.016649,0 -1.9449,0.211221 -2.873144,0.675574 -0.92825,0.422444 -1.723885,1.097818 -2.431122,1.942304 -0.707237,0.844485 -1.281865,1.942302 -1.679683,3.251208 -0.442027,1.308972 -0.618852,2.829032 -0.618852,4.56018 0,1.942304 0.176825,3.75794 0.574628,5.404667 0.397804,1.646726 0.972447,3.082297 1.679684,4.306781 0.751439,1.224483 1.635479,2.153458 2.696338,2.87121 1.060852,0.71782 2.254312,1.05564 3.580372,1.05564 0.486252,0 1.06086,-0.08449 1.723893,-0.211221 0.663007,-0.126736 1.326061,-0.295708 1.989096,-0.549179 0.707237,-0.211222 1.37027,-0.50693 2.033305,-0.844486 0.618852,-0.3802 1.237662,-0.759997 1.768088,-1.182239 z"
   id="path16207"
   style="fill:#2d2d2d;stroke-width:4.32016" /><path
   class="st21"
   d="m 332.54286,440.17401 c 1.59128,0 3.13842,0.16896 4.64125,0.50694 1.50292,0.33799 2.91738,0.80224 4.2876,1.3934 1.37031,0.59145 2.6964,1.35115 3.97825,2.15339 1.28186,0.84448 2.47527,1.77346 3.66875,2.78679 1.54707,1.39339 2.91737,2.87121 4.11078,4.47576 1.2377,1.60448 2.25436,3.29345 3.09419,5.10902 0.83984,1.77339 1.50291,3.63127 1.94487,5.57357 0.44223,1.94231 0.66335,3.88455 0.66335,5.91134 0,2.36454 -0.35379,4.68684 -1.06088,6.88248 -0.70723,2.19563 -1.72389,4.18011 -3.04996,5.86908 -1.32602,1.68898 -2.87314,3.0823 -4.68541,4.0957 -1.81226,1.0134 -3.80142,1.52006 -6.01149,1.52006 -2.16591,0 -4.155,-0.46469 -5.92311,-1.3934 -1.7681,-0.9289 -3.31517,-2.11121 -4.59702,-3.58903 -1.28187,-1.47781 -2.25429,-3.16678 -2.96153,-5.10908 -0.70722,-1.90006 -1.06087,-3.84237 -1.06087,-5.82684 0,-1.98455 0.30956,-3.80012 0.92827,-5.40467 0.61844,-1.64673 1.45862,-2.99788 2.56372,-4.18012 1.06081,-1.14006 2.34267,-2.06897 3.80135,-2.70237 1.45868,-0.63297 3.00574,-0.9289 4.59703,-0.9289 2.87314,0 6.14416,1.09782 9.72453,3.29345 -0.92827,-3.80011 -2.56378,-7.30472 -4.9949,-10.51369 -1.06081,-1.43563 -2.16591,-2.70236 -3.27095,-3.75793 -1.10503,-1.05558 -2.29851,-1.94231 -3.58037,-2.66013 -1.23763,-0.71775 -2.60794,-1.26666 -4.06662,-1.60448 -1.45868,-0.38018 -3.0499,-0.59139 -4.77379,-0.67558 v -1.22448 z m 17.50414,21.66077 c -0.66337,-0.33798 -1.32609,-0.63297 -2.03331,-0.84448 -0.70724,-0.21121 -1.37031,-0.42243 -1.98909,-0.5492 -0.66336,-0.12677 -1.23771,-0.21121 -1.7239,-0.21121 -1.32607,0 -2.51955,0.33791 -3.58036,1.05557 -1.06089,0.71782 -1.94494,1.64673 -2.6964,2.87121 -0.75144,1.22448 -1.32607,2.66012 -1.67966,4.30684 -0.39801,1.64673 -0.57491,3.46237 -0.57491,5.40467 0,1.73115 0.22112,3.25121 0.61913,4.56012 0.44224,1.30897 0.97244,2.40678 1.67967,3.25127 0.70723,0.84449 1.50291,1.52006 2.43112,1.94231 0.92827,0.42243 1.85649,0.67557 2.87314,0.67557 1.01666,0 1.94493,-0.21122 2.78476,-0.67557 0.83984,-0.46469 1.59129,-1.05565 2.25429,-1.81564 0.66336,-0.76006 1.23764,-1.64673 1.76811,-2.61788 0.48647,-0.97115 0.92821,-2.02673 1.23764,-3.08236 0.30957,-1.09782 0.57491,-2.15339 0.75145,-3.25121 0.1769,-1.09782 0.26534,-2.11122 0.26534,-3.04013 0,-1.68896 -0.22112,-3.96902 -0.61913,-6.79799 -0.48646,-0.42243 -1.10503,-0.84448 -1.76803,-1.1823 z"
   id="path16209"
   style="fill:#2d2d2d;stroke-width:4.32016" /></svg>
