<?xml version="1.0" encoding="UTF-8" standalone="no"?>
<!-- Uploaded to: SVG Repo, www.svgrepo.com, Generator: SVG Repo Mixer Tools -->

<svg
   height="800"
   width="600"
   version="1.1"
   id="Layer_1"
   viewBox="0 0 377.8155 503.754"
   xml:space="preserve"
   sodipodi:docname="CA.svg"
   inkscape:version="1.2.2 (b0a8486, 2022-12-01)"
   xmlns:inkscape="http://www.inkscape.org/namespaces/inkscape"
   xmlns:sodipodi="http://sodipodi.sourceforge.net/DTD/sodipodi-0.dtd"
   xmlns="http://www.w3.org/2000/svg"
   xmlns:svg="http://www.w3.org/2000/svg"><defs
   id="defs158529" /><sodipodi:namedview
   id="namedview158527"
   pagecolor="#ffffff"
   bordercolor="#000000"
   borderopacity="0.25"
   inkscape:showpageshadow="2"
   inkscape:pageopacity="0.0"
   inkscape:pagecheckerboard="0"
   inkscape:deskcolor="#d1d1d1"
   showgrid="false"
   inkscape:zoom="0.63194332"
   inkscape:cx="-29.274777"
   inkscape:cy="466.02281"
   inkscape:window-width="1390"
   inkscape:window-height="949"
   inkscape:window-x="530"
   inkscape:window-y="25"
   inkscape:window-maximized="0"
   inkscape:current-layer="Layer_1" />

<rect
   x="0.54002064"
   y="0.54002064"
   class="st0"
   width="376.73547"
   height="502.67395"
   id="rect14163"
   style="fill:#ffffff;stroke:#231f20;stroke-width:1.08004;stroke-miterlimit:10" /><path
   class="st21"
   d="m 208.11372,217.1479 c 0.57491,-1.81562 0.97243,-3.67347 0.97243,-5.65799 0,-10.64038 -9.01723,-19.25404 -20.15622,-19.25404 -11.13892,0 -20.15615,8.61366 -20.15615,19.25404 0,1.73118 0.30956,3.3779 0.75138,4.98241 -9.63609,1.4356 -17.06203,9.33145 -17.06203,18.95847 0,10.64038 9.01723,19.25404 20.15622,19.25404 4.19923,0 8.13318,-1.2245 11.35997,-3.37791 -1.59128,4.64462 -3.49199,9.20479 -5.83473,13.59605 l -1.81227,3.33568 h 23.3388 l -0.57491,-1.18226 c -2.51956,-5.10908 -4.55287,-10.38705 -6.23254,-15.79169 3.40355,2.53343 7.647,4.0957 12.3324,4.0957 11.139,0 20.15623,-8.61365 20.15623,-19.25404 0,-9.66924 -7.5144,-17.60731 -17.23886,-18.95846 z"
   id="path15483"
   style="fill:#2d2d2d;stroke-width:4.32016" /><path
   class="st21"
   d="m 43.195248,77.218337 c 0.22112,-0.717807 0.398014,-1.477831 0.398014,-2.280085 0,-4.349042 -3.668749,-7.853622 -8.221554,-7.853622 -4.552875,0 -8.221626,3.50458 -8.221626,7.853622 0,0.717808 0.132672,1.393386 0.309567,2.026748 -3.934022,0.591187 -6.939766,3.800133 -6.939766,7.726948 0,4.349042 3.66875,7.853615 8.221624,7.853615 1.723886,0 3.315171,-0.506673 4.641253,-1.351163 -0.619133,1.900073 -1.41453,3.757923 -2.386962,5.531321 l -0.751454,1.351157 h 9.503484 l -0.221119,-0.506674 c -1.016656,-2.068964 -1.856487,-4.222374 -2.519563,-6.418013 1.370306,1.013374 3.094191,1.688952 4.994902,1.688952 4.552805,0 8.221555,-3.504566 8.221555,-7.853622 0,-4.011254 -3.049898,-7.22026 -7.028144,-7.76917 z"
   id="path15497"
   style="fill:#2d2d2d;stroke-width:4.32016" /><path
   class="st21"
   d="m 328.12272,422.31319 c -0.22112,0.71776 -0.39802,1.47782 -0.39802,2.28006 0,4.34903 3.66875,7.85364 8.22162,7.85364 4.55282,0 8.22156,-3.50461 8.22156,-7.85364 0,-0.71782 -0.13267,-1.39339 -0.30957,-2.02672 3.93396,-0.59139 6.9397,-3.80012 6.9397,-7.72697 0,-4.34903 -3.66875,-7.85363 -8.22155,-7.85363 -1.72389,0 -3.31517,0.50694 -4.64126,1.35121 0.61914,-1.90012 1.41446,-3.75793 2.3869,-5.53133 l 0.75144,-1.35115 h -9.50347 l 0.22112,0.50694 c 1.01665,2.06897 1.85648,4.22236 2.51949,6.418 -1.37024,-1.01333 -3.09412,-1.68891 -4.99483,-1.68891 -4.55288,0 -8.22163,3.50454 -8.22163,7.85357 0.0421,4.01127 3.09412,7.2203 7.02815,7.76921 z"
   id="path15501"
   style="fill:#2d2d2d;stroke-width:4.32016" /><path
   class="st21"
   d="M 42.26704,41.032576 H 24.27673 l -3.138346,7.009141 c -0.795677,1.68895 -1.149257,2.997889 -1.149257,3.884586 0,0.337822 0.04211,0.675581 0.176895,0.971144 0.132672,0.29558 0.398014,0.54891 0.751454,0.802255 0.398014,0.25333 0.928279,0.464484 1.635507,0.633328 0.70723,0.168912 1.635439,0.29558 2.784697,0.379999 v 1.224492 H 10.706763 V 54.71303 c 1.90071,-0.337821 3.182568,-0.760023 3.757198,-1.266714 0.574908,-0.506664 1.19348,-1.308932 1.812333,-2.364526 0.618431,-1.055593 1.326011,-2.406756 2.033241,-4.011258 l 16.354873,-36.56578 h 1.193411 l 16.178048,36.945791 c 0.662654,1.520054 1.281858,2.744545 1.812262,3.673472 0.57491,0.92892 1.149257,1.646726 1.723886,2.15341 0.574909,0.506667 1.237704,0.886697 1.944934,1.055594 0.70723,0.211087 1.547061,0.29558 2.475269,0.379998 v 1.224491 h -18.34389 v -1.224491 c 0.928278,-0.04226 1.679662,-0.126669 2.298515,-0.295573 0.619133,-0.168912 1.105032,-0.337823 1.458682,-0.591153 0.353791,-0.25333 0.619133,-0.506667 0.751454,-0.802255 0.132672,-0.295573 0.221119,-0.633328 0.221119,-1.013369 0.04212,-0.464484 -0.08844,-1.097817 -0.309567,-1.857847 -0.221119,-0.760027 -0.574909,-1.64673 -1.060809,-2.702323 z m -0.972502,-2.406757 -7.867975,-17.9451 -8.089024,17.9451 z"
   id="path16059"
   style="fill:#2d2d2d;stroke-width:4.32016" /><path
   class="st21"
   d="m 347.70431,448.99858 c 0.44224,-1.05558 0.79561,-1.94225 1.06088,-2.7023 0.22112,-0.76 0.35379,-1.35115 0.30957,-1.85782 0,-0.38017 -0.0885,-0.71782 -0.22112,-1.0134 -0.13267,-0.29572 -0.39801,-0.59138 -0.75145,-0.80224 -0.3538,-0.25347 -0.83983,-0.42243 -1.45869,-0.59145 -0.61913,-0.16896 -1.37023,-0.25347 -2.29852,-0.29573 v -1.22448 h 18.34397 v 1.22448 c -0.9725,0.0404 -1.76811,0.16896 -2.47534,0.38017 -0.70723,0.21122 -1.32608,0.5492 -1.94494,1.05557 -0.57491,0.50695 -1.14926,1.22449 -1.72389,2.1534 -0.5749,0.9289 -1.14925,2.15339 -1.81225,3.67345 l -16.17798,36.9458 h -1.19348 l -16.3548,-36.56573 c -0.75146,-1.60456 -1.41453,-2.95571 -2.03331,-4.01128 -0.61914,-1.05557 -1.23771,-1.85788 -1.81234,-2.36454 -0.57491,-0.50694 -1.85648,-0.92891 -3.75713,-1.26673 v -1.22448 h 14.63092 v 1.22448 c -1.14925,0.0845 -2.07754,0.21121 -2.78476,0.38017 -0.70724,0.16896 -1.23765,0.38018 -1.63551,0.63365 -0.39802,0.25347 -0.66266,0.50694 -0.75139,0.80224 -0.13267,0.29572 -0.17689,0.63364 -0.17689,0.97115 0,0.88673 0.39801,2.15339 1.14926,3.8846 l 3.13834,7.00916 h 17.99031 z m -19.75842,8.78253 8.08903,17.94515 7.86797,-17.94515 z"
   id="path16061"
   style="fill:#2d2d2d;stroke-width:4.32016" /></svg>
