<?xml version="1.0" encoding="UTF-8" standalone="no"?>
<!-- Uploaded to: SVG Repo, www.svgrepo.com, Generator: SVG Repo Mixer Tools -->

<svg
   height="800"
   width="600"
   version="1.1"
   id="Layer_1"
   viewBox="0 0 377.8155 503.754"
   xml:space="preserve"
   sodipodi:docname="DA.svg"
   inkscape:version="1.2.2 (b0a8486, 2022-12-01)"
   xmlns:inkscape="http://www.inkscape.org/namespaces/inkscape"
   xmlns:sodipodi="http://sodipodi.sourceforge.net/DTD/sodipodi-0.dtd"
   xmlns="http://www.w3.org/2000/svg"
   xmlns:svg="http://www.w3.org/2000/svg"><defs
   id="defs158529" /><sodipodi:namedview
   id="namedview158527"
   pagecolor="#ffffff"
   bordercolor="#000000"
   borderopacity="0.25"
   inkscape:showpageshadow="2"
   inkscape:pageopacity="0.0"
   inkscape:pagecheckerboard="0"
   inkscape:deskcolor="#d1d1d1"
   showgrid="false"
   inkscape:zoom="0.63194332"
   inkscape:cx="256.3521"
   inkscape:cy="466.02281"
   inkscape:window-width="1390"
   inkscape:window-height="949"
   inkscape:window-x="530"
   inkscape:window-y="25"
   inkscape:window-maximized="0"
   inkscape:current-layer="Layer_1" />
<rect
   x="0.54002047"
   y="0.54002047"
   class="st0"
   width="376.73547"
   height="502.67395"
   id="rect14145"
   inkscape:export-filename="../../../Documents/kongbaguni.net/Vue.js/images/poker/da.svg"
   inkscape:export-xdpi="96"
   inkscape:export-ydpi="96"
   style="fill:#ffffff;stroke:#231f20;stroke-width:1.08004;stroke-miterlimit:10" /><polygon
   class="st20"
   points="75.58,90.23 67.43,100.2 75.58,109.81 83.86,100.28 "
   id="polygon15967"
   inkscape:export-filename="polygon15967.svg"
   inkscape:export-xdpi="96"
   inkscape:export-ydpi="96"
   style="fill:#ea1c24"
   transform="matrix(4.4202209,0,0,4.2223767,-155.71481,-180.00881)" /><polygon
   class="st20"
   points="42.74,58.92 39.84,62.47 42.74,65.89 45.69,62.5 "
   id="polygon15971"
   style="fill:#ea1c24"
   transform="matrix(4.4202209,0,0,4.2223767,-155.71481,-180.00881)" /><path
   class="st20"
   d="M 42.266898,45.254967 H 24.276587 l -3.138345,7.009148 c -0.795678,1.688969 -1.149258,2.997942 -1.149258,3.884605 0,0.337953 0.04212,0.675575 0.176895,0.971152 0.132671,0.295713 0.398016,0.549173 0.751455,0.802241 0.398012,0.25346 0.928277,0.464689 1.635507,0.633664 0.70723,0.168984 1.635438,0.295715 2.784696,0.380204 V 60.16046 H 10.70662 v -1.224483 c 1.90071,-0.337952 3.182569,-0.760062 3.757198,-1.266728 0.574908,-0.506935 1.193481,-1.308905 1.812333,-2.364546 0.619134,-1.055574 1.326013,-2.406723 2.033242,-4.011272 L 34.664264,14.727697 h 1.193411 l 16.178048,36.945801 c 0.662654,1.52006 1.281858,2.744543 1.812261,3.67345 0.574909,0.928906 1.149258,1.646727 1.723889,2.15339 0.574908,0.506936 1.237704,0.886732 1.944931,1.055641 0.70723,0.211222 1.547063,0.295715 2.475272,0.380204 v 1.224479 H 41.648185 v -1.224484 c 0.928277,-0.04028 1.679661,-0.126729 2.298514,-0.295713 0.619134,-0.168983 1.105032,-0.337952 1.458683,-0.591426 0.353791,-0.253468 0.619132,-0.506935 0.751453,-0.802241 0.13267,-0.295712 0.221119,-0.632991 0.221119,-1.013396 0.04212,-0.464682 -0.08845,-1.097815 -0.309568,-1.857811 -0.221117,-0.759993 -0.574908,-1.646722 -1.060809,-2.702295 z M 41.294393,42.848243 33.42642,24.903162 25.337395,42.848243 Z"
   id="path15975"
   style="fill:#ea1c24;stroke-width:4.32017" /><polygon
   class="st20"
   points="111.2,139.04 114.51,142.84 111.2,146.85 107.95,142.87 107.96,142.87 107.95,142.87 "
   id="polygon15977"
   style="fill:#ea1c24"
   transform="matrix(4.4202209,0,0,4.2223767,-155.71481,-180.00881)" /><path
   class="st20"
   d="m 347.70415,453.17884 c 0.44223,-1.05565 0.79561,-1.94231 1.06087,-2.70238 0.22112,-0.75999 0.35381,-1.35116 0.30958,-1.85781 0,-0.38024 -0.0883,-0.71783 -0.22113,-1.0134 -0.13268,-0.29572 -0.398,-0.59143 -0.75146,-0.80224 -0.35379,-0.25342 -0.83983,-0.42239 -1.45866,-0.59142 -0.61843,-0.16899 -1.37024,-0.25342 -2.29853,-0.29572 v -1.22403 h 18.34398 v 1.22454 c -0.97251,0.0404 -1.76813,0.16897 -2.47535,0.38023 -0.70723,0.21126 -1.32609,0.5492 -1.94493,1.05558 -0.57492,0.50696 -1.14926,1.22449 -1.7239,2.15338 -0.57489,0.92897 -1.14926,2.15346 -1.81225,3.67352 l -16.17797,36.9458 h -1.1935 l -16.35478,-36.56581 c -0.75145,-1.60448 -1.41455,-2.95568 -2.03333,-4.01125 -0.61913,-1.0556 -1.2377,-1.85782 -1.81233,-2.36454 -0.57491,-0.507 -1.8565,-0.92894 -3.75712,-1.26668 v -1.22476 h 14.63091 v 1.22455 c -1.14925,0.0846 -2.07753,0.21127 -2.78475,0.38023 -0.70725,0.16897 -1.23765,0.38022 -1.63552,0.63299 -0.39802,0.25342 -0.66266,0.50695 -0.75139,0.80223 -0.13269,0.29571 -0.17691,0.63366 -0.17691,0.97114 0,0.88675 0.39803,2.15347 1.14926,3.88463 l 3.13836,7.00914 h 17.99032 z m -19.75842,8.8247 8.08903,17.94515 7.86797,-17.94515 z"
   id="path15979"
   style="fill:#ea1c24;stroke-width:4.32017" />
</svg>
