<?xml version="1.0" encoding="UTF-8" standalone="no"?>
<!-- Uploaded to: SVG Repo, www.svgrepo.com, Generator: SVG Repo Mixer Tools -->

<svg
   height="800"
   width="600"
   version="1.1"
   id="Layer_1"
   viewBox="0 0 377.8155 503.754"
   xml:space="preserve"
   sodipodi:docname="HA.svg"
   inkscape:version="1.2.2 (b0a8486, 2022-12-01)"
   xmlns:inkscape="http://www.inkscape.org/namespaces/inkscape"
   xmlns:sodipodi="http://sodipodi.sourceforge.net/DTD/sodipodi-0.dtd"
   xmlns="http://www.w3.org/2000/svg"
   xmlns:svg="http://www.w3.org/2000/svg"><defs
   id="defs158529" /><sodipodi:namedview
   id="namedview158527"
   pagecolor="#ffffff"
   bordercolor="#000000"
   borderopacity="0.25"
   inkscape:showpageshadow="2"
   inkscape:pageopacity="0.0"
   inkscape:pagecheckerboard="0"
   inkscape:deskcolor="#d1d1d1"
   showgrid="false"
   inkscape:zoom="0.63194332"
   inkscape:cx="-29.274777"
   inkscape:cy="466.02281"
   inkscape:window-width="1390"
   inkscape:window-height="949"
   inkscape:window-x="530"
   inkscape:window-y="25"
   inkscape:window-maximized="0"
   inkscape:current-layer="Layer_1" />

<rect
   x="0.54002064"
   y="0.54002064"
   class="st0"
   width="376.73547"
   height="502.67395"
   id="rect14181"
   style="fill:#ffffff;stroke:#231f20;stroke-width:1.08004;stroke-miterlimit:10" /><path
   class="st20"
   d="m 224.77784,223.86154 v 0 c 0,-0.21122 0,-0.42243 0,-0.63365 0,-10.76709 -8.57522,-19.50738 -19.09534,-19.50738 -7.24917,0 -13.52588,4.09569 -16.75265,10.13369 -3.22676,-6.038 -9.54768,-10.13369 -16.75263,-10.13369 -10.56433,0 -19.09536,8.74029 -19.09536,19.50738 0,0.21122 0,0.42243 0,0.59146 v 0 c 0,17.01617 14.49832,32.89235 28.51043,42.09713 l 7.33756,4.81351 7.33757,-4.81351 c 14.0121,-9.20484 28.51042,-24.61653 28.51042,-41.6327 v 0 c 0,-0.0404 0,-0.1267 0,-0.16896 z"
   id="path15645"
   style="fill:#ea1c24;stroke-width:4.32016" /><path
   class="st20"
   d="m 49.118256,74.178282 v 0 c 0,-0.08451 0,-0.168958 0,-0.253471 0,-4.137942 -3.27096,-7.473637 -7.337563,-7.473637 -2.784737,0 -5.171658,1.562304 -6.409321,3.884605 -1.237661,-2.322301 -3.668784,-3.884605 -6.409319,-3.884605 -4.022407,0 -7.33757,3.335695 -7.33757,7.473637 0,0.08451 0,0.168958 0,0.211215 v 0 c 0,6.502486 5.569481,12.582724 10.91795,16.129506 l 2.828939,1.857817 2.828941,-1.857817 c 5.392671,-3.504607 10.917943,-9.458115 10.917943,-15.960595 v 0 c 0,0 0,-0.04037 0,-0.04037 z"
   id="path15659"
   style="fill:#ea1c24;stroke-width:4.32016" /><path
   class="st20"
   d="m 349.6933,425.35337 v 0 c 0,0.0845 0,0.16896 0,0.25347 0,4.13794 -3.27095,7.47357 -7.33757,7.47357 -2.78477,0 -5.17167,-1.56224 -6.4093,-3.88454 -1.2377,2.3223 -3.66882,3.88454 -6.40936,3.88454 -4.0224,0 -7.33757,-3.33563 -7.33757,-7.47357 0,-0.0845 0,-0.16896 0,-0.21121 v 0 c 0,-6.50242 5.56953,-12.58266 10.91794,-16.12944 l 2.82899,-1.85789 2.82892,1.85789 c 5.39264,3.50454 10.91795,9.45811 10.91795,15.96053 v 0 c 0,0 0,0.0404 0,0.0404 z"
   id="path15681"
   style="fill:#ea1c24;stroke-width:4.32016" /><path
   class="st20"
   d="M 42.266916,42.637152 H 24.276619 l -3.13836,7.009147 c -0.795642,1.688904 -1.149256,2.997877 -1.149256,3.884539 0,0.337958 0.04422,0.675575 0.176825,0.971152 0.132601,0.295707 0.397803,0.549179 0.751432,0.802241 0.397804,0.253464 0.928251,0.464686 1.635488,0.633665 0.707229,0.168978 1.635479,0.295707 2.784737,0.3802 V 57.54258 H 10.706554 v -1.224484 c 1.90069,-0.337957 3.182555,-0.759997 3.757184,-1.266728 0.574628,-0.50693 1.19346,-1.308906 1.812291,-2.364479 0.618853,-1.05564 1.326068,-2.40679 2.033305,-4.011272 l 16.354817,-36.5658 h 1.193459 l 16.178005,36.945799 c 0.663007,1.52006 1.281866,2.744544 1.812292,3.673451 0.574628,0.928907 1.149257,1.646726 1.723885,2.153457 0.574629,0.50693 1.237663,0.886663 1.9449,1.055574 0.707236,0.211221 1.547082,0.295707 2.475325,0.3802 v 1.224483 H 41.648084 v -1.224484 c 0.928251,-0.04024 1.679684,-0.126735 2.298515,-0.295707 0.618852,-0.168979 1.105055,-0.337958 1.458676,-0.591422 0.35365,-0.253465 0.618852,-0.50693 0.751433,-0.802308 0.1326,-0.295708 0.221049,-0.632999 0.221049,-1.013329 0.04422,-0.464686 -0.08837,-1.097818 -0.309427,-1.857881 -0.221048,-0.759997 -0.574629,-1.646727 -1.060859,-2.7023 z M 41.29447,40.230361 33.426474,22.285282 25.337471,40.230361 Z"
   id="path16107"
   style="fill:#ea1c24;stroke-width:4.32016" /><path
   class="st20"
   d="m 347.70421,450.56093 c 0.44223,-1.05557 0.7956,-1.9423 1.06087,-2.7023 0.22112,-0.76006 0.3538,-1.35121 0.30957,-1.85788 0,-0.38017 -0.0885,-0.71782 -0.22111,-1.01333 -0.13268,-0.29573 -0.39802,-0.59145 -0.75146,-0.8023 -0.35379,-0.25348 -0.83983,-0.42243 -1.45868,-0.59146 -0.61843,-0.16896 -1.37024,-0.25347 -2.29852,-0.29573 v -1.22448 h 18.34397 v 1.22448 c -0.97251,0.0404 -1.76812,0.16896 -2.47534,0.38018 -0.70724,0.21121 -1.32609,0.54919 -1.94494,1.05557 -0.57491,0.50694 -1.14926,1.22448 -1.72388,2.15346 -0.57491,0.92891 -1.14926,2.15339 -1.81227,3.67345 l -16.17798,36.9458 h -1.19348 l -16.3548,-36.5658 c -0.75145,-1.60449 -1.41453,-2.95564 -2.03331,-4.01128 -0.61913,-1.05557 -1.2377,-1.85781 -1.81233,-2.36447 -0.57492,-0.50694 -1.85649,-0.92898 -3.75714,-1.26673 v -1.22448 h 14.63092 v 1.22448 c -1.14925,0.0845 -2.07753,0.21121 -2.78476,0.38017 -0.70723,0.16896 -1.23764,0.38017 -1.63551,0.63297 -0.39801,0.25347 -0.66266,0.50695 -0.75138,0.80232 -0.13268,0.29572 -0.1769,0.63364 -0.1769,0.97115 0,0.88666 0.39802,2.15339 1.14926,3.88454 l 3.13834,7.00914 h 17.99032 z m -19.75842,8.82478 8.08902,17.94508 7.86797,-17.94508 z"
   id="path16109"
   style="fill:#ea1c24;stroke-width:4.32016" /></svg>
