<?xml version="1.0" encoding="UTF-8" standalone="no"?>
<!-- Uploaded to: SVG Repo, www.svgrepo.com, Generator: SVG Repo Mixer Tools -->

<svg
   height="800"
   width="600"
   version="1.1"
   id="Layer_1"
   viewBox="0 0 377.8155 503.754"
   xml:space="preserve"
   sodipodi:docname="SA.svg"
   inkscape:version="1.2.2 (b0a8486, 2022-12-01)"
   xmlns:inkscape="http://www.inkscape.org/namespaces/inkscape"
   xmlns:sodipodi="http://sodipodi.sourceforge.net/DTD/sodipodi-0.dtd"
   xmlns="http://www.w3.org/2000/svg"
   xmlns:svg="http://www.w3.org/2000/svg"><defs
   id="defs158529" /><sodipodi:namedview
   id="namedview158527"
   pagecolor="#ffffff"
   bordercolor="#000000"
   borderopacity="0.25"
   inkscape:showpageshadow="2"
   inkscape:pageopacity="0.0"
   inkscape:pagecheckerboard="0"
   inkscape:deskcolor="#d1d1d1"
   showgrid="false"
   inkscape:zoom="0.63194332"
   inkscape:cx="401.14357"
   inkscape:cy="424.87988"
   inkscape:window-width="1390"
   inkscape:window-height="949"
   inkscape:window-x="530"
   inkscape:window-y="25"
   inkscape:window-maximized="0"
   inkscape:current-layer="Layer_1" />

<rect
   x="0.54002064"
   y="0.54002064"
   class="st0"
   width="376.73547"
   height="502.67395"
   id="rect14201"
   style="fill:#ffffff;stroke:#231f20;stroke-width:1.08004;stroke-miterlimit:10" /><path
   class="st21"
   d="m 223.84948,237.87985 v 0 c 0,-15.49612 -14.14467,-29.97883 -27.80316,-38.38137 l -7.16074,-4.39127 -7.16074,4.39127 c -13.65848,8.40254 -27.80322,22.46301 -27.80322,38.00137 v 0 c 0,0.0404 0,0.0845 0,0.1267 v 0.21122 0 c 0,0.21121 0,0.38017 0,0.59071 0,9.83818 8.35422,17.77624 18.60915,17.77624 5.26004,0 9.98968,-2.11121 13.39322,-5.44691 -0.61843,3.80019 -1.94486,7.51588 -3.93395,10.89376 l -1.45868,2.44896 h 5.08321 6.49773 5.08328 l -1.41446,-2.3223 c -2.07753,-3.46236 -3.44777,-7.22023 -4.11084,-11.14708 3.40361,3.42011 8.1774,5.57357 13.52588,5.57357 10.29916,0 18.60917,-7.9803 18.60917,-17.77624 0.0884,-0.21121 0.0421,-0.38017 0.0421,-0.5492 z"
   id="path15779"
   style="fill:#2d2d2d;stroke-width:4.32016" /><path
   class="st21"
   d="m 49.339216,81.229692 v 0 c 0,-6.206913 -5.657909,-11.991578 -11.094768,-15.327201 L 35.415459,64.171275 32.58654,65.902491 C 27.14968,69.238114 21.491772,74.853874 21.491772,81.06078 v 0 c 0,0 0,0.04037 0,0.04037 v 0.08451 0 c 0,0.08451 0,0.168959 0,0.211215 0,3.926788 3.31517,7.093572 7.426017,7.093572 2.121689,0 3.978177,-0.844483 5.348412,-2.15339 -0.265343,1.520061 -0.751383,2.997873 -1.591284,4.349023 l -0.57491,0.971158 h 2.033312 2.60794 2.033312 l -0.574908,-0.928909 c -0.839832,-1.393399 -1.370237,-2.871211 -1.635509,-4.433515 1.370306,1.35115 3.271017,2.237876 5.392705,2.237876 4.110779,0 7.425949,-3.166784 7.425949,-7.093565 -0.04212,-0.08451 -0.04212,-0.168958 -0.04212,-0.211215 z"
   id="path15793"
   style="fill:#2d2d2d;stroke-width:4.32016" /><path
   class="st21"
   d="m 322.02266,415.26187 v 0 c 0,6.20691 5.65784,11.99157 11.09469,15.32727 l 2.82899,1.73115 2.82892,-1.73115 c 5.43686,-3.3357 11.09477,-8.95145 11.09477,-15.15836 v 0 c 0,0 0,-0.0404 0,-0.0404 v -0.0845 0 c 0,-0.0845 0,-0.16896 0,-0.21122 0,-3.92684 -3.31518,-7.09364 -7.42602,-7.09364 -2.12169,0 -3.97817,0.84449 -5.34841,2.15346 0.26534,-1.52005 0.75139,-2.99794 1.59129,-4.34909 l 0.5749,-0.97115 h -2.03332 -2.60793 -2.03331 l 0.5749,0.92898 c 0.83984,1.39332 1.37031,2.87121 1.63551,4.43344 -1.3703,-1.35115 -3.27102,-2.23781 -5.3927,-2.23781 -4.11078,0 -7.42595,3.16678 -7.42595,7.09357 0,0.0845 0,0.16896 0.0421,0.21122 z"
   id="path15797"
   style="fill:#2d2d2d;stroke-width:4.32016" /><path
   class="st21"
   d="M 42.266848,41.454927 H 24.276537 l -3.138346,7.009148 c -0.795677,1.688904 -1.149256,2.997876 -1.149256,3.884539 0,0.337957 0.04212,0.675575 0.176895,0.971152 0.132671,0.295708 0.398014,0.549179 0.751453,0.802241 0.398015,0.253464 0.928279,0.464686 1.635509,0.633665 0.70723,0.168978 1.635437,0.295707 2.784695,0.3802 v 1.224484 H 10.70657 v -1.224484 c 1.900711,-0.337957 3.18257,-0.759996 3.757198,-1.266728 0.574909,-0.506929 1.193481,-1.308905 1.812333,-2.364479 0.619133,-1.05564 1.326012,-2.406789 2.033242,-4.011272 l 16.354872,-36.5658 h 1.193411 l 16.178048,36.945799 c 0.662655,1.52006 1.281858,2.744543 1.812263,3.67345 0.574909,0.928908 1.149257,1.646727 1.723886,2.153459 0.574909,0.506929 1.237705,0.886662 1.944934,1.055572 0.70723,0.211222 1.547061,0.337958 2.475269,0.380201 v 1.224483 h -18.34389 v -1.224484 c 0.928279,-0.04024 1.679662,-0.126736 2.298514,-0.295708 0.619133,-0.168978 1.105033,-0.337957 1.458683,-0.590749 0.353791,-0.253464 0.619134,-0.506936 0.751454,-0.802308 0.132671,-0.295707 0.221118,-0.632998 0.221118,-1.013329 0.04212,-0.464686 -0.08844,-1.097817 -0.309566,-1.857881 -0.221119,-0.760001 -0.574909,-1.646731 -1.06081,-2.702304 z M 41.294345,39.00596 33.42637,21.060814 25.337346,39.00596 Z"
   id="path16175"
   style="fill:#2d2d2d;stroke-width:4.32016" /><path
   class="st21"
   d="m 347.70411,449.3787 c 0.44224,-1.05557 0.79561,-1.9423 1.06088,-2.7023 0.22112,-0.76006 0.35379,-1.35122 0.30957,-1.85788 0,-0.38017 -0.0885,-0.71782 -0.22112,-1.01332 -0.13267,-0.29573 -0.39801,-0.59139 -0.75145,-0.80232 -0.3538,-0.25347 -0.83983,-0.42243 -1.45868,-0.59071 -0.61843,-0.16896 -1.37024,-0.25347 -2.29851,-0.29573 v -1.22449 h 18.34395 v 1.22449 c -0.9725,0.0404 -1.76811,0.16896 -2.47533,0.38017 -0.70724,0.21122 -1.32609,0.5492 -1.94494,1.05557 -0.57491,0.50695 -1.14926,1.22449 -1.72388,2.15346 -0.57492,0.92891 -1.14926,2.15339 -1.81227,3.67345 l -16.17798,36.9458 h -1.19348 l -16.3548,-36.5658 c -0.75146,-1.60448 -1.41453,-2.95563 -2.03331,-4.01127 -0.61913,-1.05557 -1.23771,-1.85781 -1.81234,-2.36448 -0.57491,-0.50694 -1.85648,-0.92898 -3.75713,-1.26672 v -1.22449 h 14.63092 v 1.22449 c -1.14925,0.0845 -2.07753,0.21121 -2.78476,0.38017 -0.70723,0.16896 -1.23764,0.38017 -1.63551,0.63297 -0.39801,0.25347 -0.66266,0.50694 -0.75138,0.80231 -0.13268,0.29573 -0.1769,0.63297 -0.1769,0.97115 0,0.88666 0.39801,2.15339 1.14926,3.88454 l 3.13834,7.00915 h 17.99032 z m -19.75841,8.78255 8.08902,17.94508 7.86797,-17.94508 z"
   id="path16177"
   style="fill:#2d2d2d;stroke-width:4.32016" /></svg>
