<?xml version="1.0" encoding="UTF-8" standalone="no"?>
<!-- Uploaded to: SVG Repo, www.svgrepo.com, Generator: SVG Repo Mixer Tools -->

<svg
   height="800"
   width="600"
   version="1.1"
   id="Layer_1"
   viewBox="0 0 377.8155 503.754"
   xml:space="preserve"
   sodipodi:docname="C10.svg"
   inkscape:version="1.2.2 (b0a8486, 2022-12-01)"
   xmlns:inkscape="http://www.inkscape.org/namespaces/inkscape"
   xmlns:sodipodi="http://sodipodi.sourceforge.net/DTD/sodipodi-0.dtd"
   xmlns="http://www.w3.org/2000/svg"
   xmlns:svg="http://www.w3.org/2000/svg"><defs
   id="defs158529" /><sodipodi:namedview
   id="namedview158527"
   pagecolor="#ffffff"
   bordercolor="#000000"
   borderopacity="0.25"
   inkscape:showpageshadow="2"
   inkscape:pageopacity="0.0"
   inkscape:pagecheckerboard="0"
   inkscape:deskcolor="#d1d1d1"
   showgrid="false"
   inkscape:zoom="0.63194332"
   inkscape:cx="-29.274777"
   inkscape:cy="466.02281"
   inkscape:window-width="1390"
   inkscape:window-height="949"
   inkscape:window-x="530"
   inkscape:window-y="25"
   inkscape:window-maximized="0"
   inkscape:current-layer="Layer_1" />

<rect
   x="0.54002064"
   y="0.54002064"
   class="st0"
   width="376.73547"
   height="502.67395"
   id="rect14179"
   style="fill:#ffffff;stroke:#231f20;stroke-width:1.08004;stroke-miterlimit:10" /><path
   class="st21"
   d="m 338.2008,423.11538 c -0.22112,0.71781 -0.39802,1.47788 -0.39802,2.28012 0,4.34903 3.66882,7.85363 8.22163,7.85363 4.5528,0 8.22162,-3.5046 8.22162,-7.85363 0,-0.71782 -0.13266,-1.39339 -0.30956,-2.02672 3.93395,-0.59146 6.93977,-3.80019 6.93977,-7.72697 0,-4.3491 -3.66882,-7.85364 -8.22163,-7.85364 -1.72388,0 -3.31517,0.50695 -4.64125,1.35115 0.61914,-1.90006 1.41446,-3.75787 2.38689,-5.53132 l 0.75145,-1.35115 h -9.50348 l 0.22112,0.50694 c 1.01665,2.06897 1.85648,4.22236 2.51949,6.41799 -1.37023,-1.01339 -3.09412,-1.68896 -4.99483,-1.68896 -4.5528,0 -8.22162,3.5046 -8.22162,7.85363 0.0421,4.01127 3.09419,7.22024 7.02814,7.76914 z"
   id="path15519"
   style="fill:#2d2d2d;stroke-width:4.32016" /><path
   class="st21"
   d="m 40.189508,74.684902 c 0.221049,-0.717821 0.397804,-1.477818 0.397804,-2.280125 0,-4.349029 -3.668785,-7.853569 -8.221611,-7.853569 -4.552832,0 -8.221611,3.50454 -8.221611,7.853569 0,0.717821 0.132602,1.393392 0.309426,2.026788 -3.933994,0.590783 -6.939745,3.800119 -6.939745,7.7269 0,4.349097 3.668785,7.853636 8.22161,7.853636 1.723886,0 3.315164,-0.506943 4.641232,-1.35115 -0.618853,1.90006 -1.414474,3.757944 -2.38692,5.531335 l -0.751439,1.35115 h 9.503476 l -0.220978,-0.506943 c -1.016656,-2.068964 -1.856495,-4.222428 -2.519528,-6.418061 1.37027,1.013395 3.094156,1.688973 4.994845,1.688973 4.552833,0 8.221612,-3.504539 8.221612,-7.853636 0,-3.969024 -3.049947,-7.220233 -7.028152,-7.769143 z"
   id="path15535"
   style="fill:#2d2d2d;stroke-width:4.32016" /><path
   class="st21"
   d="m 274.77064,320.13161 c -0.57463,1.81564 -0.97244,3.67352 -0.97244,5.658 0,10.64043 9.01725,19.25405 20.15621,19.25405 11.13898,0 20.15622,-8.61362 20.15622,-19.25405 0,-1.73114 -0.30958,-3.37787 -0.75146,-4.98242 9.63608,-1.43558 17.06203,-9.33145 17.06203,-18.95841 0,-10.64042 -9.01723,-19.25405 -20.15615,-19.25405 -4.19923,0 -8.13325,1.22448 -11.35997,3.37788 1.59128,-4.64461 3.49192,-9.20479 5.83466,-13.59606 l 1.81227,-3.3357 h -23.33874 l 0.57463,1.18231 c 2.51952,5.10909 4.55282,10.38702 6.23251,15.79169 -3.40357,-2.53346 -7.64698,-4.09569 -12.33242,-4.09569 -11.13896,0 -20.1562,8.61362 -20.1562,19.25398 0,9.66927 7.47016,17.60732 17.23885,18.95847 z"
   id="path15589"
   style="fill:#2d2d2d;stroke-width:4.32016" /><path
   class="st21"
   d="m 64.677538,320.68052 c -0.57463,1.81564 -0.972447,3.67352 -0.972447,5.658 0,10.64043 9.017245,19.25405 20.156202,19.25405 11.138957,0 20.156207,-8.61362 20.156207,-19.25405 0,-1.73114 -0.30942,-3.37787 -0.75143,-4.98242 9.63608,-1.43558 17.06205,-9.33145 17.06205,-18.95841 0,-10.64043 -9.01725,-19.25405 -20.1562,-19.25405 -4.199217,0 -8.133219,1.22448 -11.359976,3.37787 1.591277,-4.6446 3.491973,-9.20478 5.834691,-13.59605 l 1.812291,-3.3357 H 73.120161 l 0.574629,1.18231 c 2.519521,5.10909 4.552826,10.38702 6.232509,15.79169 -3.403569,-2.53346 -7.646982,-4.0957 -12.332416,-4.0957 -11.138957,0 -20.15621,8.61363 -20.15621,19.25399 0,9.66927 7.470171,17.60732 17.238865,18.95847 z"
   id="path15591"
   style="fill:#2d2d2d;stroke-width:4.32016" /><path
   class="st21"
   d="m 103.04506,85.409742 c 0.57462,-1.815634 0.97244,-3.673451 0.97244,-5.657996 0,-10.640422 -9.01725,-19.254055 -20.156207,-19.254055 -11.138957,0 -20.156202,8.613633 -20.156202,19.254055 0,1.731148 0.309426,3.377871 0.751433,4.982424 -9.636078,1.435569 -17.062053,9.331448 -17.062053,18.95847 0,10.64036 9.017253,19.25399 20.156209,19.25399 4.19921,0 8.133205,-1.22449 11.35997,-3.37788 -1.591285,4.64461 -3.491974,9.20479 -5.834691,13.59605 l -1.812291,3.33571 h 23.338764 l -0.574629,-1.18231 c -2.519528,-5.10903 -4.552826,-10.38702 -6.232508,-15.79169 3.403568,2.53346 7.646982,4.09569 12.332415,4.09569 11.13896,0 20.15621,-8.61363 20.15621,-19.25398 0,-9.627024 -7.47017,-17.565085 -17.23886,-18.958478 z"
   id="path15593"
   style="fill:#2d2d2d;stroke-width:4.32016" /><path
   class="st21"
   d="m 313.13819,85.958652 c 0.57491,-1.815634 0.97244,-3.673451 0.97244,-5.657997 0,-10.640421 -9.01724,-19.254056 -20.15622,-19.254056 -11.13896,0 -20.15621,8.613635 -20.15621,19.254056 0,1.731149 0.30942,3.377871 0.75143,4.982425 -9.63608,1.435569 -17.06205,9.331448 -17.06205,18.95847 0,10.64036 9.01725,19.25398 20.15621,19.25398 4.19921,0 8.1332,-1.22448 11.35996,-3.37787 -1.59128,4.64461 -3.49197,9.20479 -5.83468,13.59605 l -1.81229,3.33571 h 23.33873 l -0.5749,-1.18232 c -2.5195,-5.10902 -4.55281,-10.38701 -6.23247,-15.79168 3.40355,2.53346 7.647,4.09569 12.33241,4.09569 11.13891,0 20.15622,-8.61363 20.15622,-19.25398 0,-9.669274 -7.47017,-17.607328 -17.23886,-18.958478 z"
   id="path15595"
   style="fill:#2d2d2d;stroke-width:4.32016" /><path
   class="st21"
   d="m 103.04506,195.74041 c 0.57462,-1.81564 0.97244,-3.67346 0.97244,-5.658 0,-10.64035 -9.01725,-19.25399 -20.156207,-19.25399 -11.138957,0 -20.156202,8.61364 -20.156202,19.25399 0,1.73121 0.309426,3.37794 0.751433,4.98242 -9.636078,1.43564 -17.062053,9.33145 -17.062053,18.95848 0,10.64042 9.017253,19.25405 20.156209,19.25405 4.19921,0 8.133205,-1.22449 11.35997,-3.37788 -1.591285,4.64461 -3.491974,9.20472 -5.834691,13.59599 l -1.812291,3.3357 h 23.338764 l -0.574629,-1.18224 c -2.519528,-5.10909 -4.552826,-10.38709 -6.232508,-15.79169 3.403568,2.53339 7.646982,4.09569 12.332415,4.09569 11.13896,0 20.15621,-8.61362 20.15621,-19.25404 0,-9.62703 -7.47017,-17.56508 -17.23886,-18.95848 z"
   id="path15601"
   style="fill:#2d2d2d;stroke-width:4.32016" /><path
   class="st21"
   d="m 169.702,368.8579 c -0.57463,1.81557 -0.97246,3.67345 -0.97246,5.65793 0,10.64042 9.01725,19.25405 20.15621,19.25405 11.13896,0 20.15621,-8.61363 20.15621,-19.25405 0,-1.73115 -0.30943,-3.37788 -0.75144,-4.98236 9.63609,-1.43564 17.06205,-9.33145 17.06205,-18.95847 0,-10.64042 -9.01724,-19.25406 -20.15621,-19.25406 -4.19921,0 -8.1332,1.22449 -11.35996,3.37788 1.59128,-4.6446 3.49197,-9.20479 5.83469,-13.59606 l 1.81229,-3.33563 h -23.33877 l 0.57463,1.18224 c 2.51952,5.1091 4.55283,10.38703 6.23252,15.79169 -3.40357,-2.53345 -7.64699,-4.09569 -12.33242,-4.09569 -11.13896,0 -20.15621,8.61363 -20.15621,19.25405 0,9.62696 7.51438,17.56508 17.23887,18.95848 z"
   id="path15603"
   style="fill:#2d2d2d;stroke-width:4.32016" /><path
   class="st21"
   d="m 208.11371,157.19013 c 0.57463,-1.81564 0.97245,-3.67345 0.97245,-5.658 0,-10.64036 -9.01725,-19.25405 -20.15621,-19.25405 -11.13896,0 -20.15621,8.61369 -20.15621,19.25405 0,1.73122 0.30942,3.37794 0.75144,4.98242 -9.63609,1.43558 -17.06205,9.33145 -17.06205,18.95847 0,10.64037 9.01725,19.25406 20.15621,19.25406 4.19921,0 8.1332,-1.22448 11.35996,-3.37794 -1.59128,4.6446 -3.49197,9.20478 -5.83469,13.59605 l -1.81229,3.3357 h 23.33877 l -0.57463,-1.18224 c -2.51952,-5.10909 -4.55282,-10.38709 -6.23252,-15.79169 3.40358,2.53339 7.64699,4.0957 12.33242,4.0957 11.13897,0 20.15621,-8.6137 20.15621,-19.25406 0,-9.66927 -7.51438,-17.60732 -17.23886,-18.95847 z"
   id="path15605"
   style="fill:#2d2d2d;stroke-width:4.32016" /><path
   class="st21"
   d="m 313.13819,195.23375 c 0.57491,-1.81565 0.97244,-3.67346 0.97244,-5.658 0,-10.64036 -9.01724,-19.25405 -20.15622,-19.25405 -11.13896,0 -20.15621,8.61369 -20.15621,19.25405 0,1.73121 0.30942,3.37794 0.75143,4.98242 -9.63608,1.43557 -17.06205,9.33145 -17.06205,18.95847 0,10.64036 9.01725,19.25406 20.15621,19.25406 4.19921,0 8.1332,-1.22449 11.35996,-3.37794 -1.59128,4.6446 -3.49197,9.20478 -5.83468,13.59605 l -1.81229,3.33569 h 23.33873 l -0.5749,-1.1823 c -2.5195,-5.10902 -4.55281,-10.38703 -6.23247,-15.79163 3.40355,2.5334 7.647,4.0957 12.33241,4.0957 11.13891,0 20.15622,-8.6137 20.15622,-19.25405 0,-9.66927 -7.47017,-17.60732 -17.23886,-18.95847 z"
   id="path15607"
   style="fill:#2d2d2d;stroke-width:4.32016" /><path
   class="st21"
   d="m 274.77064,418.30187 c -0.57463,1.81563 -0.97244,3.67351 -0.97244,5.65799 0,10.64042 9.01725,19.25406 20.15621,19.25406 11.13898,0 20.15622,-8.61364 20.15622,-19.25406 0,-1.73115 -0.30958,-3.37787 -0.75146,-4.98235 9.63608,-1.43564 17.06203,-9.33152 17.06203,-18.95848 0,-10.64042 -9.01723,-19.25405 -20.15615,-19.25405 -4.19923,0 -8.13325,1.22449 -11.35997,3.37788 1.59128,-4.64461 3.49192,-9.20479 5.83466,-13.59606 l 1.81227,-3.33563 h -23.33874 l 0.57463,1.18224 c 2.51952,5.10909 4.55282,10.38702 6.23251,15.79169 -3.40357,-2.53346 -7.64698,-4.09569 -12.33242,-4.09569 -11.13896,0 -20.1562,8.61362 -20.1562,19.25404 0,9.66921 7.47016,17.60727 17.23885,18.95842 z"
   id="path15635"
   style="fill:#2d2d2d;stroke-width:4.32016" /><path
   class="st21"
   d="m 60.96455,418.30187 c -0.574629,1.81563 -0.972447,3.67351 -0.972447,5.65799 0,10.64042 9.017254,19.25406 20.15621,19.25406 11.138955,0 20.156197,-8.61364 20.156197,-19.25406 0,-1.73115 -0.309421,-3.37787 -0.751427,-4.98235 9.636077,-1.43564 17.062047,-9.33152 17.062047,-18.95848 0,-10.64042 -9.01725,-19.25405 -20.156204,-19.25405 -4.199211,0 -8.133205,1.22449 -11.35997,3.37788 1.591284,-4.64461 3.491974,-9.20479 5.834691,-13.59606 l 1.812291,-3.33563 H 69.407174 l 0.574629,1.18224 c 2.519527,5.10909 4.552824,10.38702 6.232508,15.79169 -3.403569,-2.53346 -7.646982,-4.09569 -12.332415,-4.09569 -11.138957,0 -20.156211,8.61362 -20.156211,19.25404 -0.04422,9.66921 7.470179,17.60727 17.238865,18.95842 z"
   id="path15637"
   style="fill:#2d2d2d;stroke-width:4.32016" /><g
   id="g16099"
   transform="matrix(4.4202211,0,0,4.2223765,-4004.357,-878.60107)">
	<path
   class="st21"
   d="m 907.82,211.8 2.56,-1.25 h 0.26 v 8.88 c 0,0.31 0.01,0.54 0.02,0.72 0.01,0.17 0.03,0.31 0.05,0.4 0.03,0.09 0.06,0.16 0.12,0.2 0.05,0.04 0.12,0.08 0.19,0.12 0.16,0.08 0.48,0.13 0.95,0.13 v 0.29 H 908 V 221 c 0.25,-0.01 0.46,-0.02 0.61,-0.04 0.15,-0.02 0.27,-0.05 0.36,-0.09 0.09,-0.04 0.15,-0.08 0.19,-0.13 0.04,-0.05 0.07,-0.11 0.1,-0.17 0.06,-0.14 0.09,-0.52 0.09,-1.14 v -5.68 c 0,-0.78 -0.03,-1.27 -0.08,-1.47 -0.04,-0.17 -0.11,-0.29 -0.2,-0.36 -0.09,-0.07 -0.21,-0.12 -0.34,-0.12 -0.2,0 -0.46,0.08 -0.8,0.24 z"
   id="path16095"
   style="fill:#2d2d2d" />
	<path
   class="st21"
   d="m 914.47,216.09 c 0,-1.21 0.18,-2.24 0.54,-3.09 0.13,-0.32 0.3,-0.63 0.49,-0.92 0.19,-0.29 0.41,-0.55 0.65,-0.78 0.24,-0.22 0.51,-0.4 0.8,-0.54 0.29,-0.13 0.61,-0.2 0.95,-0.2 0.8,0 1.53,0.41 2.17,1.23 0.8,1.02 1.2,2.4 1.2,4.14 0,0.41 -0.02,0.81 -0.05,1.19 -0.04,0.38 -0.1,0.74 -0.18,1.09 -0.09,0.35 -0.2,0.68 -0.34,1 -0.14,0.32 -0.32,0.62 -0.53,0.92 -0.13,0.19 -0.29,0.36 -0.48,0.53 -0.18,0.17 -0.38,0.31 -0.59,0.43 -0.21,0.12 -0.42,0.22 -0.64,0.29 -0.22,0.07 -0.44,0.1 -0.64,0.1 -0.44,0 -0.86,-0.13 -1.26,-0.39 -0.4,-0.26 -0.75,-0.62 -1.05,-1.09 -0.32,-0.49 -0.57,-1.06 -0.76,-1.73 -0.18,-0.66 -0.28,-1.38 -0.28,-2.18 z m 1.52,0.2 c 0,0.62 0.03,1.2 0.1,1.75 0.07,0.55 0.17,1.03 0.31,1.46 0.15,0.46 0.34,0.82 0.58,1.09 0.24,0.27 0.52,0.4 0.86,0.4 0.14,0 0.28,-0.03 0.43,-0.09 0.15,-0.06 0.29,-0.16 0.43,-0.29 0.14,-0.13 0.27,-0.3 0.39,-0.51 0.12,-0.21 0.22,-0.46 0.29,-0.75 0.12,-0.45 0.21,-0.99 0.27,-1.61 0.06,-0.62 0.09,-1.34 0.09,-2.16 0,-1.2 -0.12,-2.2 -0.37,-3 -0.16,-0.51 -0.36,-0.89 -0.59,-1.14 -0.23,-0.25 -0.53,-0.38 -0.9,-0.38 -0.42,0 -0.78,0.22 -1.08,0.66 -0.3,0.44 -0.51,1.05 -0.62,1.84 -0.07,0.47 -0.12,0.92 -0.15,1.37 -0.02,0.46 -0.04,0.91 -0.04,1.36 z"
   id="path16097"
   style="fill:#2d2d2d" />
</g><g
   id="g16105"
   transform="matrix(4.4202211,0,0,4.2223765,-4004.357,-878.60107)">
	<path
   class="st21"
   d="m 976.14,321.89 c 0.34,0.16 0.6,0.24 0.8,0.24 0.13,0 0.25,-0.04 0.34,-0.12 0.09,-0.08 0.16,-0.2 0.2,-0.36 0.05,-0.21 0.08,-0.7 0.08,-1.47 v -5.68 c 0,-0.62 -0.03,-1 -0.09,-1.14 -0.03,-0.06 -0.06,-0.12 -0.1,-0.17 -0.04,-0.05 -0.11,-0.1 -0.19,-0.13 -0.09,-0.04 -0.21,-0.06 -0.36,-0.09 -0.15,-0.02 -0.36,-0.03 -0.61,-0.04 v -0.29 h 3.96 v 0.29 c -0.47,0.01 -0.79,0.05 -0.95,0.13 -0.08,0.04 -0.14,0.07 -0.19,0.12 -0.05,0.04 -0.09,0.11 -0.12,0.2 -0.03,0.09 -0.04,0.23 -0.05,0.4 -0.01,0.17 -0.02,0.41 -0.02,0.72 v 8.88 h -0.26 l -2.56,-1.25 z"
   id="path16101"
   style="fill:#2d2d2d" />
	<path
   class="st21"
   d="m 982.96,315.66 c 0.19,-0.66 0.44,-1.24 0.76,-1.73 0.31,-0.47 0.66,-0.83 1.05,-1.09 0.39,-0.26 0.82,-0.39 1.26,-0.39 0.21,0 0.42,0.03 0.64,0.1 0.22,0.07 0.44,0.17 0.64,0.29 0.21,0.12 0.4,0.27 0.59,0.43 0.18,0.17 0.34,0.34 0.48,0.53 0.21,0.29 0.39,0.6 0.53,0.92 0.14,0.32 0.25,0.65 0.34,1 0.09,0.35 0.15,0.71 0.18,1.09 0.04,0.38 0.05,0.77 0.05,1.19 0,1.74 -0.4,3.12 -1.2,4.14 -0.65,0.82 -1.37,1.23 -2.17,1.23 -0.34,0 -0.66,-0.07 -0.95,-0.2 -0.29,-0.13 -0.56,-0.31 -0.8,-0.54 -0.24,-0.22 -0.46,-0.48 -0.65,-0.78 -0.19,-0.29 -0.35,-0.6 -0.49,-0.92 -0.36,-0.85 -0.54,-1.88 -0.54,-3.09 0,-0.79 0.09,-1.51 0.28,-2.18 z m 1.29,3.34 c 0.03,0.45 0.08,0.91 0.15,1.37 0.11,0.79 0.32,1.41 0.62,1.84 0.3,0.44 0.66,0.66 1.08,0.66 0.37,0 0.67,-0.13 0.9,-0.38 0.23,-0.25 0.43,-0.63 0.59,-1.14 0.25,-0.8 0.37,-1.8 0.37,-3 0,-0.82 -0.03,-1.54 -0.09,-2.16 -0.06,-0.62 -0.15,-1.16 -0.27,-1.61 -0.08,-0.29 -0.18,-0.55 -0.29,-0.75 -0.12,-0.21 -0.25,-0.38 -0.39,-0.51 -0.14,-0.13 -0.28,-0.23 -0.43,-0.29 -0.15,-0.06 -0.29,-0.09 -0.43,-0.09 -0.34,0 -0.62,0.13 -0.86,0.4 -0.24,0.27 -0.43,0.63 -0.58,1.09 -0.14,0.42 -0.24,0.91 -0.31,1.46 -0.07,0.55 -0.1,1.13 -0.1,1.75 -0.01,0.46 0.01,0.91 0.04,1.36 z"
   id="path16103"
   style="fill:#2d2d2d" />
</g></svg>
