<?xml version="1.0" encoding="UTF-8" standalone="no"?>
<!-- Uploaded to: SVG Repo, www.svgrepo.com, Generator: SVG Repo Mixer Tools -->

<svg
   height="800"
   width="600"
   version="1.1"
   id="Layer_1"
   viewBox="0 0 377.8155 503.754"
   xml:space="preserve"
   sodipodi:docname="D10.svg"
   inkscape:version="1.2.2 (b0a8486, 2022-12-01)"
   xmlns:inkscape="http://www.inkscape.org/namespaces/inkscape"
   xmlns:sodipodi="http://sodipodi.sourceforge.net/DTD/sodipodi-0.dtd"
   xmlns="http://www.w3.org/2000/svg"
   xmlns:svg="http://www.w3.org/2000/svg"><defs
   id="defs158529" /><sodipodi:namedview
   id="namedview158527"
   pagecolor="#ffffff"
   bordercolor="#000000"
   borderopacity="0.25"
   inkscape:showpageshadow="2"
   inkscape:pageopacity="0.0"
   inkscape:pagecheckerboard="0"
   inkscape:deskcolor="#d1d1d1"
   showgrid="false"
   inkscape:zoom="0.63194332"
   inkscape:cx="-29.274777"
   inkscape:cy="466.02281"
   inkscape:window-width="1390"
   inkscape:window-height="949"
   inkscape:window-x="530"
   inkscape:window-y="25"
   inkscape:window-maximized="0"
   inkscape:current-layer="Layer_1" />

<rect
   x="0.54002064"
   y="0.54002064"
   class="st0"
   width="376.73547"
   height="502.67395"
   id="rect14161"
   style="fill:#ffffff;stroke:#231f20;stroke-width:1.08004;stroke-miterlimit:10" /><polygon
   class="st20"
   points="933.8,68.04 925.52,58 917.38,67.96 917.38,67.97 925.52,77.57 "
   id="polygon15457"
   style="fill:#ea1c24"
   transform="matrix(4.4202211,0,0,4.2223765,-4004.357,-180.0088)" /><polygon
   class="st20"
   points="979.91,68.04 971.63,58 963.48,67.96 963.48,67.97 971.63,77.57 "
   id="polygon15459"
   style="fill:#ea1c24"
   transform="matrix(4.4202211,0,0,4.2223765,-4004.357,-180.0088)" /><polygon
   class="st20"
   points="933.8,139.36 925.52,129.32 917.38,139.28 917.38,139.29 925.52,148.89 "
   id="polygon15461"
   style="fill:#ea1c24"
   transform="matrix(4.4202211,0,0,4.2223765,-4004.357,-180.0088)" /><polygon
   class="st20"
   points="925.52,81.16 917.38,91.13 925.52,100.73 933.8,91.2 "
   id="polygon15463"
   style="fill:#ea1c24"
   transform="matrix(4.4202211,0,0,4.2223765,-4004.357,-180.0088)" /><polygon
   class="st20"
   points="948.59,69.93 940.44,79.89 948.59,89.5 956.87,79.97 "
   id="polygon15465"
   style="fill:#ea1c24"
   transform="matrix(4.4202211,0,0,4.2223765,-4004.357,-180.0088)" /><polygon
   class="st20"
   points="948.59,115.54 940.44,125.5 948.59,135.11 956.87,125.58 "
   id="polygon15467"
   style="fill:#ea1c24"
   transform="matrix(4.4202211,0,0,4.2223765,-4004.357,-180.0088)" /><polygon
   class="st20"
   points="933.8,115.78 925.52,105.74 917.38,115.7 917.38,115.71 925.52,125.31 "
   id="polygon15469"
   style="fill:#ea1c24"
   transform="matrix(4.4202211,0,0,4.2223765,-4004.357,-180.0088)" /><polygon
   class="st20"
   points="971.65,81.16 963.51,91.13 971.65,100.73 979.93,91.2 "
   id="polygon15471"
   style="fill:#ea1c24"
   transform="matrix(4.4202211,0,0,4.2223765,-4004.357,-180.0088)" /><polygon
   class="st20"
   points="979.93,115.78 971.65,105.74 963.51,115.7 963.51,115.71 971.65,125.31 "
   id="polygon15473"
   style="fill:#ea1c24"
   transform="matrix(4.4202211,0,0,4.2223765,-4004.357,-180.0088)" /><polygon
   class="st20"
   points="971.65,129.28 963.51,139.25 971.65,148.86 979.93,139.33 "
   id="polygon15475"
   style="fill:#ea1c24"
   transform="matrix(4.4202211,0,0,4.2223765,-4004.357,-180.0088)" /><polygon
   class="st20"
   points="912.8,58.92 909.9,62.47 912.8,65.89 915.75,62.5 "
   id="polygon16013"
   style="fill:#ea1c24"
   transform="matrix(4.4202211,0,0,4.2223765,-4004.357,-180.0088)" /><polygon
   class="st20"
   points="984.46,146.01 981.56,142.46 984.46,139.04 987.41,142.44 "
   id="polygon16015"
   style="fill:#ea1c24"
   transform="matrix(4.4202211,0,0,4.2223765,-4004.357,-180.0088)" /><g
   id="g16051"
   transform="matrix(4.4202211,0,0,4.2223765,-4004.357,-180.0088)">
	<path
   class="st20"
   d="m 907.82,47.35 2.56,-1.25 h 0.26 v 8.88 c 0,0.31 0.01,0.54 0.02,0.72 0.01,0.17 0.03,0.31 0.05,0.4 0.03,0.09 0.06,0.16 0.12,0.2 0.05,0.04 0.12,0.08 0.19,0.12 0.16,0.08 0.48,0.13 0.95,0.13 v 0.29 H 908 v -0.29 c 0.25,-0.01 0.46,-0.02 0.61,-0.04 0.15,-0.02 0.27,-0.05 0.36,-0.09 0.09,-0.04 0.15,-0.08 0.19,-0.13 0.04,-0.05 0.07,-0.11 0.1,-0.17 0.06,-0.14 0.09,-0.52 0.09,-1.14 V 49.3 c 0,-0.78 -0.03,-1.27 -0.08,-1.47 -0.04,-0.17 -0.11,-0.29 -0.2,-0.36 -0.09,-0.08 -0.21,-0.12 -0.34,-0.12 -0.2,0 -0.46,0.08 -0.8,0.24 z"
   id="path16047"
   style="fill:#ea1c24" />
	<path
   class="st20"
   d="m 914.47,51.64 c 0,-1.21 0.18,-2.24 0.54,-3.09 0.13,-0.32 0.3,-0.63 0.49,-0.92 0.19,-0.29 0.41,-0.55 0.65,-0.78 0.24,-0.22 0.51,-0.4 0.8,-0.54 0.29,-0.13 0.61,-0.2 0.95,-0.2 0.8,0 1.53,0.41 2.17,1.23 0.8,1.02 1.2,2.4 1.2,4.14 0,0.41 -0.02,0.81 -0.05,1.19 -0.04,0.38 -0.1,0.74 -0.18,1.09 -0.09,0.35 -0.2,0.68 -0.34,1 -0.14,0.32 -0.32,0.62 -0.53,0.92 -0.13,0.19 -0.29,0.36 -0.48,0.53 -0.18,0.17 -0.38,0.31 -0.59,0.43 -0.21,0.12 -0.42,0.22 -0.64,0.29 -0.22,0.07 -0.44,0.1 -0.64,0.1 -0.44,0 -0.86,-0.13 -1.26,-0.39 -0.4,-0.26 -0.75,-0.62 -1.05,-1.09 -0.32,-0.49 -0.57,-1.06 -0.76,-1.73 -0.18,-0.66 -0.28,-1.39 -0.28,-2.18 z m 1.52,0.2 c 0,0.62 0.03,1.2 0.1,1.75 0.07,0.55 0.17,1.03 0.31,1.46 0.15,0.46 0.34,0.82 0.58,1.09 0.24,0.27 0.52,0.4 0.86,0.4 0.14,0 0.28,-0.03 0.43,-0.09 0.15,-0.06 0.29,-0.16 0.43,-0.29 0.14,-0.13 0.27,-0.3 0.39,-0.51 0.12,-0.21 0.22,-0.46 0.29,-0.75 0.12,-0.45 0.21,-0.99 0.27,-1.61 0.06,-0.62 0.09,-1.34 0.09,-2.16 0,-1.2 -0.12,-2.2 -0.37,-3 -0.16,-0.51 -0.36,-0.89 -0.59,-1.14 -0.23,-0.25 -0.53,-0.38 -0.9,-0.38 -0.42,0 -0.78,0.22 -1.08,0.66 -0.3,0.44 -0.51,1.05 -0.62,1.84 -0.07,0.47 -0.12,0.92 -0.15,1.37 -0.02,0.46 -0.04,0.91 -0.04,1.36 z"
   id="path16049"
   style="fill:#ea1c24" />
</g><g
   id="g16057"
   transform="matrix(4.4202211,0,0,4.2223765,-4004.357,-180.0088)">
	<path
   class="st20"
   d="m 976.14,157.44 c 0.34,0.16 0.6,0.24 0.8,0.24 0.13,0 0.25,-0.04 0.34,-0.12 0.09,-0.08 0.16,-0.2 0.2,-0.36 0.05,-0.21 0.08,-0.7 0.08,-1.47 v -5.68 c 0,-0.62 -0.03,-1 -0.09,-1.14 -0.03,-0.06 -0.06,-0.12 -0.1,-0.17 -0.04,-0.05 -0.11,-0.1 -0.19,-0.13 -0.09,-0.04 -0.21,-0.06 -0.36,-0.09 -0.15,-0.02 -0.36,-0.03 -0.61,-0.04 v -0.29 h 3.96 v 0.29 c -0.47,0.01 -0.79,0.05 -0.95,0.13 -0.08,0.04 -0.14,0.07 -0.19,0.12 -0.05,0.04 -0.09,0.11 -0.12,0.2 -0.03,0.09 -0.04,0.23 -0.05,0.4 -0.01,0.17 -0.02,0.41 -0.02,0.72 v 8.88 h -0.26 l -2.56,-1.25 z"
   id="path16053"
   style="fill:#ea1c24" />
	<path
   class="st20"
   d="m 982.96,151.21 c 0.19,-0.66 0.44,-1.24 0.76,-1.73 0.31,-0.47 0.66,-0.83 1.05,-1.09 0.4,-0.26 0.82,-0.39 1.26,-0.39 0.21,0 0.42,0.03 0.64,0.1 0.22,0.07 0.44,0.17 0.64,0.29 0.21,0.12 0.4,0.27 0.59,0.43 0.18,0.17 0.34,0.34 0.48,0.53 0.21,0.29 0.39,0.6 0.53,0.92 0.14,0.32 0.25,0.65 0.34,1 0.09,0.35 0.15,0.71 0.18,1.09 0.04,0.38 0.05,0.77 0.05,1.19 0,1.74 -0.4,3.12 -1.2,4.14 -0.65,0.82 -1.37,1.23 -2.17,1.23 -0.34,0 -0.66,-0.07 -0.95,-0.2 -0.29,-0.13 -0.56,-0.31 -0.8,-0.54 -0.24,-0.22 -0.46,-0.48 -0.65,-0.78 -0.19,-0.29 -0.35,-0.6 -0.49,-0.92 -0.36,-0.85 -0.54,-1.88 -0.54,-3.09 0,-0.79 0.09,-1.52 0.28,-2.18 z m 1.29,3.34 c 0.03,0.45 0.08,0.91 0.15,1.37 0.11,0.79 0.32,1.41 0.62,1.84 0.3,0.44 0.66,0.66 1.08,0.66 0.37,0 0.67,-0.13 0.9,-0.38 0.23,-0.25 0.43,-0.63 0.59,-1.14 0.25,-0.8 0.37,-1.8 0.37,-3 0,-0.82 -0.03,-1.54 -0.09,-2.16 -0.06,-0.62 -0.15,-1.16 -0.27,-1.61 -0.08,-0.29 -0.18,-0.55 -0.29,-0.75 -0.12,-0.21 -0.25,-0.38 -0.39,-0.51 -0.14,-0.13 -0.28,-0.23 -0.43,-0.29 -0.15,-0.06 -0.29,-0.09 -0.43,-0.09 -0.34,0 -0.62,0.13 -0.86,0.4 -0.24,0.27 -0.43,0.63 -0.58,1.09 -0.14,0.42 -0.24,0.91 -0.31,1.46 -0.07,0.55 -0.1,1.13 -0.1,1.75 -0.01,0.46 0.01,0.91 0.04,1.36 z"
   id="path16055"
   style="fill:#ea1c24" />
</g></svg>
