<?xml version="1.0" encoding="UTF-8" standalone="no"?>
<!-- Uploaded to: SVG Repo, www.svgrepo.com, Generator: SVG Repo Mixer Tools -->

<svg
   height="800"
   width="600"
   version="1.1"
   id="Layer_1"
   viewBox="0 0 377.8155 503.754"
   xml:space="preserve"
   sodipodi:docname="H10.svg"
   inkscape:version="1.2.2 (b0a8486, 2022-12-01)"
   xmlns:inkscape="http://www.inkscape.org/namespaces/inkscape"
   xmlns:sodipodi="http://sodipodi.sourceforge.net/DTD/sodipodi-0.dtd"
   xmlns="http://www.w3.org/2000/svg"
   xmlns:svg="http://www.w3.org/2000/svg"><defs
   id="defs158529" /><sodipodi:namedview
   id="namedview158527"
   pagecolor="#ffffff"
   bordercolor="#000000"
   borderopacity="0.25"
   inkscape:showpageshadow="2"
   inkscape:pageopacity="0.0"
   inkscape:pagecheckerboard="0"
   inkscape:deskcolor="#d1d1d1"
   showgrid="false"
   inkscape:zoom="0.63194332"
   inkscape:cx="-29.274777"
   inkscape:cy="466.02281"
   inkscape:window-width="1390"
   inkscape:window-height="949"
   inkscape:window-x="530"
   inkscape:window-y="25"
   inkscape:window-maximized="0"
   inkscape:current-layer="Layer_1" />

<rect
   x="0.54002064"
   y="0.54002064"
   class="st0"
   width="376.73547"
   height="502.67395"
   id="rect14199"
   style="fill:#ffffff;stroke:#231f20;stroke-width:1.08004;stroke-miterlimit:10" /><path
   class="st20"
   d="m 357.87077,431.01131 v 0 c 0,0.0845 0,0.16895 0,0.25347 0,4.13793 -3.27094,7.47363 -7.33757,7.47363 -2.7847,0 -5.17166,-1.56231 -6.40929,-3.88461 -1.23764,2.3223 -3.66875,3.88461 -6.40929,3.88461 -4.0224,0 -7.33757,-3.3357 -7.33757,-7.47363 0,-0.0845 0,-0.16896 0,-0.21122 v 0 c 0,-6.50248 5.56946,-12.58266 10.91794,-16.12951 l 2.82892,-1.85782 2.82892,1.85782 c 5.39271,3.50461 10.91794,9.45818 10.91794,15.9606 v 0 c 0,0 0,0.0404 0,0.0404 z"
   id="path15679"
   style="fill:#ea1c24;stroke-width:4.32016" /><path
   class="st20"
   d="m 40.454755,74.178289 v 0 c 0,-0.08451 0,-0.168958 0,-0.253471 0,-4.137942 -3.271017,-7.473638 -7.33757,-7.473638 -2.784766,0 -5.171657,1.562304 -6.409362,3.884606 -1.237635,-2.322302 -3.66875,-3.884606 -6.409292,-3.884606 -4.0224,0 -7.33757,3.335696 -7.33757,7.473638 0,0.08451 0,0.168958 0,0.211215 v 0 c 0,6.502486 5.569461,12.582723 10.917943,16.129506 l 2.828919,1.857816 2.828989,-1.857816 c 5.392636,-3.504607 10.917943,-9.458116 10.917943,-15.960595 v 0 c 0,0 0,-0.04037 0,-0.04037 z"
   id="path15697"
   style="fill:#ea1c24;stroke-width:4.32016" /><path
   class="st20"
   d="m 254.21665,320.6384 v 0 c 0,0.21121 0,0.42243 0,0.63297 0,10.76709 8.5752,19.50739 19.09534,19.50739 7.24913,0 13.52589,-4.0957 16.75262,-10.13369 3.22678,6.03799 9.54769,10.13369 16.75267,10.13369 10.56429,0 19.09534,-8.7403 19.09534,-19.50739 0,-0.21121 0,-0.42243 0,-0.59071 v 0 c 0,-17.01618 -14.49831,-32.89235 -28.51045,-42.09714 l -7.33756,-4.81351 -7.33758,4.81351 c -14.01206,9.20479 -28.51038,24.65872 -28.51038,41.63265 v 0 c 0,0.0404 0,0.1267 0,0.16896 z"
   id="path15757"
   style="fill:#ea1c24;stroke-width:4.32016" /><path
   class="st20"
   d="m 47.438676,320.6384 v 0 c 0,0.21121 0,0.42243 0,0.63297 0,10.76709 8.575205,19.50739 19.095343,19.50739 7.24919,0 13.525881,-4.0957 16.752674,-10.13369 3.226723,6.03799 9.547637,10.13369 16.752607,10.13369 10.56436,0 19.09534,-8.7403 19.09534,-19.50739 0,-0.21121 0,-0.42243 0,-0.59071 v 0 c 0,-17.01618 -14.49831,-32.89235 -28.510377,-42.09714 l -7.33757,-4.81351 -7.33757,4.81351 c -14.012132,9.20479 -28.510447,24.65872 -28.510447,41.63265 v 0 c 0,0.0404 0,0.1267 0,0.16896 z"
   id="path15759"
   style="fill:#ea1c24;stroke-width:4.32016" /><path
   class="st20"
   d="m 119.17887,80.131865 v 0 c 0,-0.211215 0,-0.42243 0,-0.633645 0,-10.767022 -8.57521,-19.507385 -19.09535,-19.507385 -7.24919,0 -13.525881,4.095694 -16.752674,10.133688 -3.226723,-6.038015 -9.547637,-10.133708 -16.752603,-10.133708 -10.564362,0 -19.095344,8.740363 -19.095344,19.507385 0,0.211215 0,0.42243 0,0.591389 v 0 c 0,17.016171 14.498316,32.892281 28.510377,42.097061 l 7.33757,4.81352 7.337571,-4.81352 C 104.68055,112.9819 119.17887,97.528035 119.17887,80.554039 v 0 c 0,-0.04037 0,-0.126702 0,-0.168958 z"
   id="path15761"
   style="fill:#ea1c24;stroke-width:4.32016" /><path
   class="st20"
   d="m 325.95677,80.131865 v 0 c 0,-0.211215 0,-0.42243 0,-0.633645 0,-10.767022 -8.5752,-19.507385 -19.09534,-19.507385 -7.24913,0 -13.52588,4.095694 -16.7526,10.133688 -3.2268,-6.037994 -9.54771,-10.133688 -16.75269,-10.133688 -10.56429,0 -19.09534,8.740363 -19.09534,19.507385 0,0.211215 0,0.42243 0,0.591389 v 0 c 0,17.016171 14.49832,32.892281 28.51046,42.097061 l 7.33757,4.81352 7.33757,-4.81352 c 14.01206,-9.20478 28.51037,-24.658648 28.51037,-41.632644 v 0 c 0,-0.04037 0,-0.126702 0,-0.168959 z"
   id="path15763"
   style="fill:#ea1c24;stroke-width:4.32016" /><path
   class="st20"
   d="m 119.17887,188.18247 v 0 c 0,-0.21121 0,-0.42243 0,-0.63364 0,-10.76703 -8.57521,-19.50739 -19.09535,-19.50739 -7.24919,0 -13.525881,4.09576 -16.752674,10.13376 -3.226723,-6.038 -9.547637,-10.13376 -16.752603,-10.13376 -10.564362,0 -19.095344,8.74036 -19.095344,19.50739 0,0.21121 0,0.42243 0,0.59138 v 0 c 0,17.01618 14.498316,32.89228 28.510377,42.09707 l 7.33757,4.81351 7.337571,-4.81351 c 14.012133,-9.20477 28.510453,-24.61639 28.510453,-41.63257 v 0 c 0,-0.0404 0,-0.1267 0,-0.16896 z"
   id="path15765"
   style="fill:#ea1c24;stroke-width:4.32016" /><path
   class="st20"
   d="m 224.77792,142.87638 v 0 c 0,-0.21122 0,-0.42243 0,-0.63365 0,-10.76702 -8.5752,-19.50738 -19.09535,-19.50738 -7.24911,0 -13.52587,4.09569 -16.7526,10.13375 -3.22679,-6.03806 -9.54771,-10.13375 -16.75267,-10.13375 -10.56429,0 -19.09535,8.74036 -19.09535,19.50738 0,0.21122 0,0.42243 0,0.59139 v 0 c 0,17.01618 14.49832,32.89229 28.51045,42.09707 l 7.33757,4.81351 7.33757,-4.81351 c 14.01207,-9.20478 28.51038,-24.65865 28.51038,-41.63258 v 0 c 0,-0.0404 0,-0.1267 0,-0.16896 z"
   id="path15767"
   style="fill:#ea1c24;stroke-width:4.32016" /><path
   class="st20"
   d="m 153.03773,354.16408 v 0 c 0,0.21122 0,0.42243 0,0.63297 0,10.76709 8.57528,19.50739 19.09541,19.50739 7.24912,0 13.52582,-4.09569 16.75261,-10.13369 3.22679,6.038 9.54771,10.13369 16.7526,10.13369 10.56437,0 19.09542,-8.7403 19.09542,-19.50739 0,-0.21121 0,-0.42243 0,-0.59071 v 0 c 0,-17.01617 -14.49839,-32.89236 -28.51045,-42.09713 l -7.33757,-4.81352 -7.33757,4.81352 c -14.01206,9.20477 -28.51045,24.65871 -28.51045,41.63264 v 0 c 0,0.0404 0,0.1267 0,0.16896 z"
   id="path15769"
   style="fill:#ea1c24;stroke-width:4.32016" /><path
   class="st20"
   d="m 325.95677,188.18247 v 0 c 0,-0.21121 0,-0.42243 0,-0.63364 0,-10.76703 -8.5752,-19.50739 -19.09534,-19.50739 -7.24913,0 -13.52588,4.09576 -16.7526,10.13376 -3.2268,-6.038 -9.54771,-10.13376 -16.75269,-10.13376 -10.56429,0 -19.09534,8.74036 -19.09534,19.50739 0,0.21121 0,0.42243 0,0.59138 v 0 c 0,17.01618 14.49832,32.89228 28.51046,42.09707 l 7.33757,4.81351 7.33757,-4.81351 c 14.01206,-9.20479 28.51037,-24.6164 28.51037,-41.63258 v 0 c 0,-0.0404 0,-0.1267 0,-0.16896 z"
   id="path15771"
   style="fill:#ea1c24;stroke-width:4.32016" /><path
   class="st20"
   d="m 254.21665,422.18659 v 0 c 0,0.21122 0,0.42243 0,0.63365 0,10.76702 8.5752,19.50738 19.09534,19.50738 7.24913,0 13.52589,-4.09569 16.75262,-10.13369 3.22678,6.038 9.54769,10.13369 16.75267,10.13369 10.56429,0 19.09534,-8.74036 19.09534,-19.50738 0,-0.21122 0,-0.42243 0,-0.59146 v 0 c 0,-17.01617 -14.49831,-32.89228 -28.51045,-42.09706 l -7.33756,-4.81352 -7.33758,4.81352 c -14.01206,9.20478 -28.51038,24.65865 -28.51038,41.63264 v 0 c 0,0.0404 0,0.12677 0,0.16896 z"
   id="path15939"
   style="fill:#ea1c24;stroke-width:4.32016" /><path
   class="st20"
   d="m 47.438676,422.18659 v 0 c 0,0.21122 0,0.42243 0,0.63365 0,10.76702 8.575205,19.50738 19.095343,19.50738 7.24919,0 13.525881,-4.09569 16.752674,-10.13369 3.226723,6.038 9.547637,10.13369 16.752607,10.13369 10.56436,0 19.09534,-8.74036 19.09534,-19.50738 0,-0.21122 0,-0.42243 0,-0.59146 v 0 c 0,-17.01617 -14.49831,-32.89228 -28.510377,-42.09706 l -7.33757,-4.81352 -7.33757,4.81352 c -14.012132,9.20478 -28.510447,24.65865 -28.510447,41.63264 v 0 c 0,0.0404 0,0.12677 0,0.16896 z"
   id="path15941"
   style="fill:#ea1c24;stroke-width:4.32016" /><g
   id="g16157"
   transform="matrix(4.4202211,0,0,4.2223765,-4004.357,-1577.1509)">
	<g
   id="g16155">
		<g
   id="g16147">
			<g
   id="g16145">
				<path
   class="st20"
   d="m 907.82,377.62 2.56,-1.25 h 0.26 v 8.88 c 0,0.31 0.01,0.54 0.02,0.72 0.01,0.17 0.03,0.31 0.05,0.4 0.03,0.09 0.06,0.16 0.12,0.2 0.05,0.04 0.12,0.08 0.19,0.12 0.16,0.08 0.48,0.13 0.95,0.13 v 0.29 H 908 v -0.29 c 0.25,-0.01 0.46,-0.02 0.61,-0.04 0.15,-0.02 0.27,-0.05 0.36,-0.09 0.09,-0.04 0.15,-0.08 0.19,-0.13 0.04,-0.05 0.07,-0.11 0.1,-0.17 0.06,-0.14 0.09,-0.52 0.09,-1.14 v -5.68 c 0,-0.78 -0.03,-1.27 -0.08,-1.47 -0.04,-0.17 -0.11,-0.29 -0.2,-0.36 -0.09,-0.08 -0.21,-0.12 -0.34,-0.12 -0.2,0 -0.46,0.08 -0.8,0.24 z"
   id="path16143"
   style="fill:#ea1c24" />
			</g>
		</g>
		<g
   id="g16153">
			<g
   id="g16151">
				<path
   class="st20"
   d="m 914.47,381.91 c 0,-1.21 0.18,-2.24 0.54,-3.09 0.13,-0.32 0.3,-0.63 0.49,-0.92 0.19,-0.29 0.41,-0.55 0.65,-0.78 0.24,-0.22 0.51,-0.4 0.8,-0.54 0.29,-0.13 0.61,-0.2 0.95,-0.2 0.8,0 1.53,0.41 2.17,1.23 0.8,1.02 1.2,2.4 1.2,4.14 0,0.41 -0.02,0.81 -0.05,1.19 -0.04,0.38 -0.1,0.74 -0.18,1.09 -0.09,0.35 -0.2,0.68 -0.34,1 -0.14,0.32 -0.32,0.62 -0.53,0.92 -0.13,0.19 -0.29,0.36 -0.48,0.53 -0.18,0.17 -0.38,0.31 -0.59,0.43 -0.21,0.12 -0.42,0.22 -0.64,0.29 -0.22,0.07 -0.44,0.1 -0.64,0.1 -0.44,0 -0.86,-0.13 -1.26,-0.39 -0.4,-0.26 -0.75,-0.62 -1.05,-1.09 -0.32,-0.49 -0.57,-1.06 -0.76,-1.73 -0.18,-0.66 -0.28,-1.39 -0.28,-2.18 z m 1.52,0.19 c 0,0.62 0.03,1.2 0.1,1.75 0.07,0.55 0.17,1.03 0.31,1.46 0.15,0.46 0.34,0.82 0.58,1.09 0.24,0.27 0.52,0.4 0.86,0.4 0.14,0 0.28,-0.03 0.43,-0.09 0.15,-0.06 0.29,-0.16 0.43,-0.29 0.14,-0.13 0.27,-0.3 0.39,-0.51 0.12,-0.21 0.22,-0.46 0.29,-0.75 0.12,-0.45 0.21,-0.99 0.27,-1.61 0.06,-0.62 0.09,-1.34 0.09,-2.16 0,-1.2 -0.12,-2.2 -0.37,-3 -0.16,-0.51 -0.36,-0.89 -0.59,-1.14 -0.23,-0.25 -0.53,-0.38 -0.9,-0.38 -0.42,0 -0.78,0.22 -1.08,0.66 -0.3,0.44 -0.51,1.05 -0.62,1.84 -0.07,0.47 -0.12,0.92 -0.15,1.37 -0.02,0.46 -0.04,0.91 -0.04,1.36 z"
   id="path16149"
   style="fill:#ea1c24" />
			</g>
		</g>
	</g>
</g><g
   id="g16173"
   transform="matrix(4.4202211,0,0,4.2223765,-4004.357,-1577.1509)">
	<g
   id="g16171">
		<g
   id="g16163">
			<g
   id="g16161">
				<path
   class="st20"
   d="m 976.47,488.71 c 0.34,0.16 0.6,0.24 0.8,0.24 0.13,0 0.25,-0.04 0.34,-0.12 0.09,-0.08 0.16,-0.2 0.2,-0.36 0.05,-0.21 0.08,-0.7 0.08,-1.47 v -5.68 c 0,-0.62 -0.03,-1 -0.09,-1.14 -0.03,-0.06 -0.06,-0.12 -0.1,-0.17 -0.04,-0.05 -0.11,-0.1 -0.19,-0.13 -0.09,-0.04 -0.21,-0.06 -0.36,-0.09 -0.15,-0.02 -0.36,-0.03 -0.61,-0.04 v -0.29 h 3.96 v 0.29 c -0.47,0.01 -0.79,0.05 -0.95,0.13 -0.08,0.04 -0.14,0.07 -0.19,0.12 -0.05,0.04 -0.09,0.11 -0.12,0.2 -0.03,0.09 -0.04,0.23 -0.05,0.4 -0.01,0.17 -0.02,0.41 -0.02,0.72 v 8.88 h -0.26 l -2.56,-1.25 z"
   id="path16159"
   style="fill:#ea1c24" />
			</g>
		</g>
		<g
   id="g16169">
			<g
   id="g16167">
				<path
   class="st20"
   d="m 983.28,482.48 c 0.19,-0.66 0.44,-1.24 0.76,-1.73 0.31,-0.47 0.66,-0.83 1.05,-1.09 0.39,-0.26 0.82,-0.39 1.26,-0.39 0.21,0 0.42,0.03 0.64,0.1 0.22,0.07 0.44,0.17 0.64,0.29 0.21,0.12 0.4,0.27 0.59,0.43 0.18,0.17 0.34,0.34 0.48,0.53 0.21,0.29 0.39,0.6 0.53,0.92 0.14,0.32 0.25,0.65 0.34,1 0.09,0.35 0.15,0.71 0.18,1.09 0.04,0.38 0.05,0.77 0.05,1.19 0,1.74 -0.4,3.12 -1.2,4.14 -0.65,0.82 -1.37,1.23 -2.17,1.23 -0.34,0 -0.66,-0.07 -0.95,-0.2 -0.29,-0.13 -0.56,-0.31 -0.8,-0.54 -0.24,-0.22 -0.46,-0.48 -0.65,-0.78 -0.19,-0.29 -0.35,-0.6 -0.49,-0.92 -0.36,-0.85 -0.54,-1.88 -0.54,-3.09 0,-0.79 0.1,-1.52 0.28,-2.18 z m 1.29,3.34 c 0.03,0.45 0.08,0.91 0.15,1.37 0.11,0.79 0.32,1.41 0.62,1.84 0.3,0.44 0.66,0.66 1.08,0.66 0.37,0 0.67,-0.13 0.9,-0.38 0.23,-0.25 0.43,-0.63 0.59,-1.14 0.25,-0.8 0.37,-1.8 0.37,-3 0,-0.82 -0.03,-1.54 -0.09,-2.16 -0.06,-0.62 -0.15,-1.16 -0.27,-1.61 -0.08,-0.29 -0.18,-0.55 -0.29,-0.75 -0.12,-0.21 -0.25,-0.38 -0.39,-0.51 -0.14,-0.13 -0.28,-0.23 -0.43,-0.29 -0.15,-0.06 -0.29,-0.09 -0.43,-0.09 -0.34,0 -0.62,0.13 -0.86,0.4 -0.24,0.27 -0.43,0.63 -0.58,1.09 -0.14,0.42 -0.24,0.91 -0.31,1.46 -0.07,0.55 -0.1,1.13 -0.1,1.75 -0.01,0.46 0.01,0.91 0.04,1.36 z"
   id="path16165"
   style="fill:#ea1c24" />
			</g>
		</g>
	</g>
</g></svg>
