<?xml version="1.0" encoding="UTF-8" standalone="no"?>
<!-- Uploaded to: SVG Repo, www.svgrepo.com, Generator: SVG Repo Mixer Tools -->

<svg
   height="800"
   width="600"
   version="1.1"
   id="Layer_1"
   viewBox="0 0 377.8155 503.754"
   xml:space="preserve"
   sodipodi:docname="S10.svg"
   inkscape:version="1.2.2 (b0a8486, 2022-12-01)"
   xmlns:inkscape="http://www.inkscape.org/namespaces/inkscape"
   xmlns:sodipodi="http://sodipodi.sourceforge.net/DTD/sodipodi-0.dtd"
   xmlns="http://www.w3.org/2000/svg"
   xmlns:svg="http://www.w3.org/2000/svg"><defs
   id="defs158529" /><sodipodi:namedview
   id="namedview158527"
   pagecolor="#ffffff"
   bordercolor="#000000"
   borderopacity="0.25"
   inkscape:showpageshadow="2"
   inkscape:pageopacity="0.0"
   inkscape:pagecheckerboard="0"
   inkscape:deskcolor="#d1d1d1"
   showgrid="false"
   inkscape:zoom="0.63194332"
   inkscape:cx="401.14357"
   inkscape:cy="424.87988"
   inkscape:window-width="1390"
   inkscape:window-height="949"
   inkscape:window-x="530"
   inkscape:window-y="25"
   inkscape:window-maximized="0"
   inkscape:current-layer="Layer_1" />

<rect
   x="0.54002064"
   y="0.54002064"
   class="st0"
   width="376.73547"
   height="502.67395"
   id="rect14237"
   style="fill:#ffffff;stroke:#231f20;stroke-width:1.08004;stroke-miterlimit:10" /><path
   class="st21"
   d="m 334.753,415.26197 v 0 c 0,6.2069 5.65791,11.99157 11.09477,15.32726 l 2.82892,1.73115 2.82899,-1.73115 c 5.43685,-3.33569 11.09476,-8.95145 11.09476,-15.15835 v 0 c 0,0 0,-0.0404 0,-0.0404 v -0.0845 0 c 0,-0.0845 0,-0.16896 0,-0.21121 0,-3.92685 -3.31517,-7.09364 -7.42601,-7.09364 -2.1217,0 -3.97818,0.84449 -5.34849,2.15346 0.26535,-1.52006 0.75146,-2.99794 1.59129,-4.34909 l 0.57491,-0.97116 h -2.03331 -2.60788 -2.03331 l 0.57491,0.92898 c 0.83983,1.39333 1.37024,2.87121 1.63544,4.43345 -1.37024,-1.35115 -3.27094,-2.23782 -5.39263,-2.23782 -4.11078,0 -7.42595,3.16679 -7.42595,7.09357 0.0421,0.0845 0.0421,0.16896 0.0421,0.21122 z"
   id="path15815"
   style="fill:#2d2d2d;stroke-width:4.32016" /><path
   class="st21"
   d="m 45.449549,81.229786 v 0 c 0,-6.206913 -5.657887,-11.991578 -11.094761,-15.327203 l -2.82894,-1.731215 -2.82894,1.731215 c -5.436874,3.335625 -11.094755,8.951385 -11.094755,15.158291 v 0 c 0,0 0,0.04037 0,0.04037 v 0.08451 0 c 0,0.08451 0,0.168958 0,0.211215 0,3.926787 3.315164,7.093571 7.42597,7.093571 2.12171,0 3.978197,-0.844483 5.348468,-2.153389 -0.265202,1.520061 -0.75144,2.997872 -1.591278,4.349022 l -0.574629,0.971151 h 2.033298 2.607933 2.033298 l -0.574628,-0.928901 c -0.839838,-1.3934 -1.370263,-2.871211 -1.63548,-4.433515 1.370271,1.351149 3.270968,2.237875 5.392671,2.237875 4.110805,0 7.425968,-3.166784 7.425968,-7.093565 -0.04422,-0.08451 -0.04422,-0.168958 -0.04422,-0.211215 z"
   id="path15831"
   style="fill:#2d2d2d;stroke-width:4.32016" /><path
   class="st21"
   d="m 49.295138,400.99034 v 0 c 0,15.49611 14.144707,29.97889 27.803193,38.38144 l 7.160759,4.39126 7.160752,-4.39126 c 13.658488,-8.40255 27.803188,-22.46309 27.803188,-38.00138 v 0 c 0,-0.0404 0,-0.0845 0,-0.1267 v -0.21121 0 c 0,-0.21122 0,-0.38018 0,-0.59146 0,-9.83811 -8.35421,-17.77617 -18.60912,-17.77617 -5.260067,0 -9.989703,2.11115 -13.393272,5.44684 0.618853,-3.80011 1.944892,-7.5158 3.933995,-10.89375 l 1.458669,-2.44897 h -5.083251 -6.497726 -5.083252 l 1.414467,2.3223 c 2.077508,3.46237 3.447778,7.22031 4.110806,11.14709 -3.40357,-3.42012 -8.177408,-5.57351 -13.525877,-5.57351 -10.299112,0 -18.609129,7.98031 -18.609129,17.77617 -0.08837,0.21122 -0.08837,0.38017 -0.04422,0.5492 z"
   id="path15903"
   style="fill:#2d2d2d;stroke-width:4.32016" /><path
   class="st21"
   d="m 154.89423,343.52382 v 0 c 0,15.49612 14.1447,29.9789 27.80318,38.38137 l 7.16076,4.39128 7.16076,-4.39128 c 13.65848,-8.40247 27.80319,-22.46301 27.80319,-38.00137 v 0 c 0,-0.0404 0,-0.0845 0,-0.1267 v -0.21122 0 c 0,-0.21121 0,-0.38017 0,-0.59145 0,-9.83818 -8.35422,-17.77624 -18.60913,-17.77624 -5.26006,0 -9.9897,2.11122 -13.39328,5.44691 0.61885,-3.80018 1.94491,-7.51588 3.93401,-10.89375 l 1.45867,-2.44897 h -5.08325 -6.49773 -5.08325 l 1.41447,2.3223 c 2.0775,3.46237 3.44777,7.22024 4.1108,11.14709 -3.40357,-3.42012 -8.17741,-5.57358 -13.52588,-5.57358 -10.29911,0 -18.60912,7.9803 -18.60912,17.77624 -0.0442,0.16896 -0.0442,0.33798 -0.0442,0.5492 z"
   id="path15905"
   style="fill:#2d2d2d;stroke-width:4.32016" /><path
   class="st21"
   d="m 49.295138,300.03336 v 0 c 0,15.49611 14.144707,29.97883 27.803193,38.38138 l 7.160759,4.39127 7.160752,-4.39127 c 13.658488,-8.40255 27.803188,-22.46302 27.803188,-38.00138 v 0 c 0,-0.0404 0,-0.0845 0,-0.1267 v -0.21121 0 c 0,-0.21122 0,-0.38018 0,-0.59146 0,-9.83818 -8.35421,-17.77624 -18.60912,-17.77624 -5.260067,0 -9.989703,2.11122 -13.393272,5.44685 0.618853,-3.80012 1.944892,-7.51582 3.933995,-10.89369 l 1.458669,-2.44897 h -5.083251 -6.497726 -5.083252 l 1.414467,2.3223 c 2.077508,3.4623 3.447778,7.22024 4.110806,11.14702 -3.40357,-3.42012 -8.177408,-5.57351 -13.525877,-5.57351 -10.299112,0 -18.609129,7.9803 -18.609129,17.77624 -0.08837,0.16896 -0.08837,0.38017 -0.04422,0.5492 z"
   id="path15907"
   style="fill:#2d2d2d;stroke-width:4.32016" /><path
   class="st21"
   d="m 119.17883,102.76389 v 0 c 0,-15.496109 -14.14471,-29.978826 -27.803184,-38.381367 l -7.160759,-4.391271 -7.16076,4.391271 C 63.395643,72.785064 49.250935,86.845539 49.250935,102.38389 v 0 c 0,0.0404 0,0.0845 0,0.1267 v 0.21122 0 c 0,0.21121 0,0.38017 0,0.59146 0,9.83817 8.354219,17.77623 18.609128,17.77623 5.26007,0 9.989707,-2.11121 13.393276,-5.44692 -0.618852,3.80019 -1.9449,7.51589 -3.934002,10.89376 l -1.458669,2.44897 h 5.083252 6.497724 5.083259 l -1.414473,-2.3223 c -2.0775,-3.46236 -3.447772,-7.22023 -4.110805,-11.14708 3.403568,3.42011 8.177408,5.57358 13.525875,5.57358 10.29912,0 18.60913,-7.98031 18.60913,-17.77624 0.0442,-0.21121 0.0442,-0.38017 0.0442,-0.5492 z"
   id="path15909"
   style="fill:#2d2d2d;stroke-width:4.32016" /><path
   class="st21"
   d="m 224.77791,168.16853 v 0 c 0,-15.49612 -14.1447,-29.9789 -27.80318,-38.38144 l -7.16076,-4.39127 -7.16076,4.39127 c -13.65848,8.40254 -27.8032,22.46308 -27.8032,38.00144 v 0 c 0,0.0404 0,0.0845 0,0.1267 v 0.21122 0 c 0,0.21121 0,0.38017 0,0.59138 0,9.83812 8.35423,17.77617 18.60914,17.77617 5.26006,0 9.9897,-2.11114 13.39327,-5.44684 -0.61885,3.80012 -1.9449,7.51581 -3.93399,10.89375 l -1.45868,2.44897 h 5.08325 6.49773 5.08325 l -1.41447,-2.3223 c -2.07751,-3.46236 -3.44777,-7.2203 -4.1108,-11.14709 3.40357,3.42012 8.1774,5.57351 13.52588,5.57351 10.2991,0 18.60912,-7.98023 18.60912,-17.77617 0.0442,-0.21121 0.0442,-0.38017 0.0442,-0.54919 z"
   id="path15911"
   style="fill:#2d2d2d;stroke-width:4.32016" /><path
   class="st21"
   d="m 119.17883,202.66536 v 0 c 0,-15.49612 -14.14471,-29.9789 -27.803184,-38.38144 l -7.160759,-4.39127 -7.16076,4.39127 C 63.395643,172.68646 49.250935,186.747 49.250935,202.28529 v 0 c 0,0.0404 0,0.0845 0,0.1267 v 0.21122 0 c 0,0.21121 0,0.38017 0,0.59138 0,9.83812 8.354219,17.77617 18.609128,17.77617 5.26007,0 9.989707,-2.11114 13.393276,-5.44684 -0.618852,3.80011 -1.9449,7.51581 -3.934002,10.89375 l -1.458669,2.44897 h 5.083252 6.497724 5.083259 l -1.414473,-2.32223 c -2.0775,-3.46236 -3.447772,-7.2203 -4.110805,-11.14708 3.403568,3.42012 8.177408,5.57351 13.525875,5.57351 10.29912,0 18.60913,-7.9803 18.60913,-17.77617 0.0442,-0.21122 0.0442,-0.38017 0.0442,-0.5492 z"
   id="path15913"
   style="fill:#2d2d2d;stroke-width:4.32016" /><path
   class="st21"
   d="m 260.49331,400.99034 v 0 c 0,15.49611 14.14467,29.97889 27.80315,38.38144 l 7.16082,4.39126 7.16074,-4.39126 c 13.65848,-8.40255 27.80315,-22.46309 27.80315,-38.00138 v 0 c 0,-0.0404 0,-0.0845 0,-0.1267 v -0.21121 0 c 0,-0.21122 0,-0.38018 0,-0.59146 0,-9.83811 -8.35415,-17.77617 -18.60909,-17.77617 -5.2601,0 -9.98974,2.11115 -13.39328,5.44684 0.61914,-3.80011 1.94486,-7.5158 3.93402,-10.89375 l 1.45868,-2.44897 h -5.08328 -6.49774 -5.08328 l 1.41453,2.3223 c 2.07747,3.46237 3.44778,7.22031 4.11078,11.14709 -3.40354,-3.42012 -8.1774,-5.57351 -13.52588,-5.57351 -10.29909,0 -18.6091,7.98031 -18.6091,17.77617 -0.0421,0.21122 -0.0421,0.38017 -0.0421,0.5492 z"
   id="path15915"
   style="fill:#2d2d2d;stroke-width:4.32016" /><path
   class="st21"
   d="m 260.49331,300.03336 v 0 c 0,15.49611 14.14467,29.97883 27.80315,38.38138 l 7.16082,4.39127 7.16074,-4.39127 c 13.65848,-8.40255 27.80315,-22.46302 27.80315,-38.00138 v 0 c 0,-0.0404 0,-0.0845 0,-0.1267 v -0.21121 0 c 0,-0.21122 0,-0.38018 0,-0.59146 0,-9.83818 -8.35415,-17.77624 -18.60909,-17.77624 -5.2601,0 -9.98974,2.11122 -13.39328,5.44685 0.61914,-3.80012 1.94486,-7.51582 3.93402,-10.89369 l 1.45868,-2.44897 h -5.08328 -6.49774 -5.08328 l 1.41453,2.3223 c 2.07747,3.4623 3.44778,7.22024 4.11078,11.14702 -3.40354,-3.42012 -8.1774,-5.57351 -13.52588,-5.57351 -10.29909,0 -18.6091,7.9803 -18.6091,17.77624 -0.0421,0.16896 -0.0421,0.38017 -0.0421,0.5492 z"
   id="path15917"
   style="fill:#2d2d2d;stroke-width:4.32016" /><path
   class="st21"
   d="m 330.37702,102.76389 v 0 c 0,-15.496109 -14.14474,-29.978826 -27.80322,-38.381367 l -7.16074,-4.391271 -7.16075,4.391271 c -13.65849,8.402541 -27.80322,22.463016 -27.80322,38.001367 v 0 c 0,0.0404 0,0.0845 0,0.1267 v 0.21122 0 c 0,0.21121 0,0.38017 0,0.59146 0,9.83817 8.35423,17.77623 18.60916,17.77623 5.26003,0 9.98967,-2.11121 13.39328,-5.44692 -0.61913,3.80019 -1.94493,7.51589 -3.93402,10.89376 l -1.45868,2.44897 h 5.08328 6.49767 5.08328 L 302.3086,126.663 c -2.07753,-3.46235 -3.44777,-7.22023 -4.11077,-11.14708 3.40354,3.42012 8.17739,5.57358 13.5258,5.57358 10.29917,0 18.60917,-7.9803 18.60917,-17.77623 0.0421,-0.21122 0.0421,-0.38018 0.0421,-0.5492 z"
   id="path15919"
   style="fill:#2d2d2d;stroke-width:4.32016" /><path
   class="st21"
   d="m 330.37702,202.66536 v 0 c 0,-15.49612 -14.14474,-29.9789 -27.80322,-38.38144 l -7.16074,-4.39127 -7.16075,4.39127 c -13.65849,8.40254 -27.80322,22.46308 -27.80322,38.00137 v 0 c 0,0.0404 0,0.0845 0,0.1267 v 0.21122 0 c 0,0.21121 0,0.38017 0,0.59138 0,9.83812 8.35423,17.77617 18.60916,17.77617 5.26003,0 9.98967,-2.11114 13.39328,-5.44684 -0.61913,3.80011 -1.94493,7.51581 -3.93402,10.89375 l -1.45868,2.44897 h 5.08328 6.49767 5.08328 l -1.41446,-2.3223 c -2.07753,-3.46236 -3.44777,-7.22031 -4.11077,-11.14709 3.40354,3.42012 8.17739,5.57351 13.5258,5.57351 10.29917,0 18.60917,-7.98029 18.60917,-17.77617 0.0421,-0.21121 0.0421,-0.38017 0.0421,-0.54919 z"
   id="path15921"
   style="fill:#2d2d2d;stroke-width:4.32016" /><g
   id="g16225"
   transform="matrix(4.4202211,0,0,4.2223765,-4004.357,-2275.743)">
	<g
   id="g16223">
		<g
   id="g16215">
			<g
   id="g16213">
				<path
   class="st21"
   d="m 907.82,542.79 2.56,-1.25 h 0.26 v 8.88 c 0,0.31 0.01,0.54 0.02,0.72 0.01,0.17 0.03,0.31 0.05,0.4 0.03,0.09 0.06,0.16 0.12,0.2 0.05,0.04 0.12,0.08 0.19,0.12 0.16,0.08 0.48,0.13 0.95,0.13 v 0.29 H 908 v -0.29 c 0.25,-0.01 0.46,-0.02 0.61,-0.04 0.15,-0.02 0.27,-0.05 0.36,-0.09 0.09,-0.04 0.15,-0.08 0.19,-0.13 0.04,-0.05 0.07,-0.11 0.1,-0.17 0.06,-0.14 0.09,-0.52 0.09,-1.14 v -5.68 c 0,-0.78 -0.03,-1.27 -0.08,-1.47 -0.04,-0.17 -0.11,-0.29 -0.2,-0.36 -0.09,-0.08 -0.21,-0.12 -0.34,-0.12 -0.2,0 -0.46,0.08 -0.8,0.24 z"
   id="path16211"
   style="fill:#2d2d2d" />
			</g>
		</g>
		<g
   id="g16221">
			<g
   id="g16219">
				<path
   class="st21"
   d="m 914.47,547.08 c 0,-1.21 0.18,-2.24 0.54,-3.09 0.13,-0.32 0.3,-0.63 0.49,-0.92 0.19,-0.29 0.41,-0.55 0.65,-0.78 0.24,-0.22 0.51,-0.4 0.8,-0.54 0.29,-0.13 0.61,-0.2 0.95,-0.2 0.8,0 1.53,0.41 2.17,1.23 0.8,1.02 1.2,2.4 1.2,4.14 0,0.41 -0.02,0.81 -0.05,1.19 -0.04,0.38 -0.1,0.74 -0.18,1.09 -0.09,0.35 -0.2,0.68 -0.34,1 -0.14,0.32 -0.32,0.62 -0.53,0.92 -0.13,0.19 -0.29,0.36 -0.48,0.53 -0.18,0.17 -0.38,0.31 -0.59,0.43 -0.21,0.12 -0.42,0.22 -0.64,0.29 -0.22,0.07 -0.44,0.1 -0.64,0.1 -0.44,0 -0.86,-0.13 -1.26,-0.39 -0.4,-0.26 -0.75,-0.62 -1.05,-1.09 -0.32,-0.49 -0.57,-1.06 -0.76,-1.73 -0.18,-0.67 -0.28,-1.39 -0.28,-2.18 z m 1.52,0.19 c 0,0.62 0.03,1.2 0.1,1.75 0.07,0.55 0.17,1.03 0.31,1.46 0.15,0.46 0.34,0.82 0.58,1.09 0.24,0.27 0.52,0.4 0.86,0.4 0.14,0 0.28,-0.03 0.43,-0.09 0.15,-0.06 0.29,-0.16 0.43,-0.29 0.14,-0.13 0.27,-0.3 0.39,-0.51 0.12,-0.21 0.22,-0.46 0.29,-0.75 0.12,-0.45 0.21,-0.99 0.27,-1.61 0.06,-0.62 0.09,-1.34 0.09,-2.16 0,-1.2 -0.12,-2.2 -0.37,-3 -0.16,-0.51 -0.36,-0.89 -0.59,-1.14 -0.23,-0.25 -0.53,-0.38 -0.9,-0.38 -0.42,0 -0.78,0.22 -1.08,0.66 -0.3,0.44 -0.51,1.05 -0.62,1.84 -0.07,0.47 -0.12,0.92 -0.15,1.37 -0.02,0.46 -0.04,0.91 -0.04,1.36 z"
   id="path16217"
   style="fill:#2d2d2d" />
			</g>
		</g>
	</g>
</g><g
   id="g16241"
   transform="matrix(4.4202211,0,0,4.2223765,-4004.357,-2275.743)">
	<g
   id="g16239">
		<g
   id="g16231">
			<g
   id="g16229">
				<path
   class="st21"
   d="m 976.14,652.88 c 0.34,0.16 0.6,0.24 0.8,0.24 0.13,0 0.25,-0.04 0.34,-0.12 0.09,-0.08 0.16,-0.2 0.2,-0.36 0.05,-0.21 0.08,-0.7 0.08,-1.47 v -5.68 c 0,-0.62 -0.03,-1 -0.09,-1.14 -0.03,-0.06 -0.06,-0.12 -0.1,-0.17 -0.04,-0.05 -0.11,-0.1 -0.19,-0.13 -0.09,-0.04 -0.21,-0.06 -0.36,-0.09 -0.15,-0.02 -0.36,-0.03 -0.61,-0.04 v -0.29 h 3.96 v 0.29 c -0.47,0.01 -0.79,0.05 -0.95,0.13 -0.08,0.04 -0.14,0.07 -0.19,0.12 -0.05,0.04 -0.09,0.11 -0.12,0.2 -0.03,0.09 -0.04,0.23 -0.05,0.4 -0.01,0.17 -0.02,0.41 -0.02,0.72 v 8.88 h -0.26 l -2.56,-1.25 z"
   id="path16227"
   style="fill:#2d2d2d" />
			</g>
		</g>
		<g
   id="g16237">
			<g
   id="g16235">
				<path
   class="st21"
   d="m 982.96,646.64 c 0.19,-0.66 0.44,-1.24 0.76,-1.73 0.31,-0.47 0.66,-0.83 1.05,-1.09 0.39,-0.26 0.82,-0.39 1.26,-0.39 0.21,0 0.42,0.03 0.64,0.1 0.22,0.07 0.44,0.17 0.64,0.29 0.21,0.12 0.4,0.27 0.59,0.43 0.18,0.17 0.34,0.34 0.48,0.53 0.21,0.29 0.39,0.6 0.53,0.92 0.14,0.32 0.25,0.65 0.34,1 0.09,0.35 0.15,0.71 0.18,1.09 0.04,0.38 0.05,0.77 0.05,1.19 0,1.74 -0.4,3.12 -1.2,4.14 -0.65,0.82 -1.37,1.23 -2.17,1.23 -0.34,0 -0.66,-0.07 -0.95,-0.2 -0.29,-0.13 -0.56,-0.31 -0.8,-0.54 -0.24,-0.22 -0.46,-0.48 -0.65,-0.78 -0.19,-0.29 -0.35,-0.6 -0.49,-0.92 -0.36,-0.85 -0.54,-1.88 -0.54,-3.09 0,-0.78 0.09,-1.51 0.28,-2.18 z m 1.29,3.34 c 0.03,0.45 0.08,0.91 0.15,1.37 0.11,0.79 0.32,1.41 0.62,1.84 0.3,0.44 0.66,0.66 1.08,0.66 0.37,0 0.67,-0.13 0.9,-0.38 0.23,-0.25 0.43,-0.63 0.59,-1.14 0.25,-0.8 0.37,-1.8 0.37,-3 0,-0.82 -0.03,-1.54 -0.09,-2.16 -0.06,-0.62 -0.15,-1.16 -0.27,-1.61 -0.08,-0.29 -0.18,-0.55 -0.29,-0.75 -0.12,-0.21 -0.25,-0.38 -0.39,-0.51 -0.14,-0.13 -0.28,-0.23 -0.43,-0.29 -0.15,-0.06 -0.29,-0.09 -0.43,-0.09 -0.34,0 -0.62,0.13 -0.86,0.4 -0.24,0.27 -0.43,0.63 -0.58,1.09 -0.14,0.42 -0.24,0.91 -0.31,1.46 -0.07,0.55 -0.1,1.13 -0.1,1.75 -0.01,0.46 0.01,0.91 0.04,1.36 z"
   id="path16233"
   style="fill:#2d2d2d" />
			</g>
		</g>
	</g>
</g></svg>
